<svg width="223" height="266" viewBox="0 0 223 266" fill="none" xmlns="http://www.w3.org/2000/svg">
  <g filter="url(#filter0_d)">
    <mask id="path-2-inside-1" fill="white">
      <path fill-rule="evenodd" clip-rule="evenodd" d="M209.942 132.975C209.942 129.226 212.533 126.093 215.994 125.325V49.3516L3.00613 49.3516V125.145C3.0323 125.145 3.0585 125.145 3.08473 125.145C7.3385 125.145 10.7869 128.65 10.7869 132.975C10.7869 137.299 7.3385 140.805 3.08473 140.805L3.04073 140.805L3.00613 140.804V207.648L215.994 207.648V140.625C212.533 139.856 209.942 136.723 209.942 132.975Z"/>
    </mask>
    <path fill-rule="evenodd" clip-rule="evenodd" d="M209.942 132.975C209.942 129.226 212.533 126.093 215.994 125.325V49.3516L3.00613 49.3516V125.145C3.0323 125.145 3.0585 125.145 3.08473 125.145C7.3385 125.145 10.7869 128.65 10.7869 132.975C10.7869 137.299 7.3385 140.805 3.08473 140.805L3.04073 140.805L3.00613 140.804V207.648L215.994 207.648V140.625C212.533 139.856 209.942 136.723 209.942 132.975Z" fill="white"/>
    <path d="M215.994 125.325L216.21 126.301L216.994 126.127V125.325H215.994ZM215.994 49.3516H216.994V48.3516H215.994V49.3516ZM3.00613 49.3516V48.3516H2.00613V49.3516H3.00613ZM3.00613 125.145H2.00613V126.155L3.01634 126.145L3.00613 125.145ZM3.08473 140.805L3.08179 141.805H3.08473V140.805ZM3.04073 140.805L3.033 141.805L3.03778 141.805L3.04073 140.805ZM3.00613 140.804L3.01385 139.804L2.00613 139.797V140.804H3.00613ZM3.00613 207.648H2.00613V208.648H3.00613V207.648ZM215.994 207.648V208.648H216.994V207.648H215.994ZM215.994 140.625H216.994V139.822L216.21 139.648L215.994 140.625ZM215.777 124.349C211.858 125.218 208.942 128.758 208.942 132.975H210.942C210.942 129.694 213.208 126.967 216.21 126.301L215.777 124.349ZM214.994 49.3516V125.325H216.994V49.3516H214.994ZM3.00613 50.3516L215.994 50.3516V48.3516L3.00613 48.3516V50.3516ZM4.00613 125.145V49.3516L2.00613 49.3516V125.145H4.00613ZM3.08473 124.145C3.05521 124.145 3.0256 124.145 2.99593 124.145L3.01634 126.145C3.039 126.145 3.0618 126.145 3.08473 126.145V124.145ZM11.7869 132.975C11.7869 128.114 7.90625 124.145 3.08473 124.145V126.145C6.77075 126.145 9.78687 129.187 9.78687 132.975H11.7869ZM3.08473 141.805C7.90625 141.805 11.7869 137.836 11.7869 132.975H9.78687C9.78687 136.762 6.77075 139.805 3.08473 139.805V141.805ZM3.03778 141.805L3.08179 141.805L3.08768 139.805L3.04367 139.805L3.03778 141.805ZM2.99841 141.804L3.033 141.805L3.04845 139.805L3.01385 139.804L2.99841 141.804ZM4.00613 207.648V140.804H2.00613V207.648H4.00613ZM215.994 206.648L3.00613 206.648V208.648L215.994 208.648V206.648ZM214.994 140.625V207.648H216.994V140.625H214.994ZM208.942 132.975C208.942 137.191 211.858 140.731 215.777 141.601L216.21 139.648C213.208 138.982 210.942 136.255 210.942 132.975H208.942Z" fill="#D1D1D1" mask="url(#path-2-inside-1)"/>
    <path fill-rule="evenodd" clip-rule="evenodd" d="M215.994 11.5238C215.994 5.44867 211.069 0.523804 204.994 0.523804L192.019 0.523804C192.022 0.654786 192.023 0.786048 192.023 0.917578C192.023 13.0962 182.17 22.9689 170.017 22.9689C157.863 22.9689 148.01 13.0962 148.01 0.917578C148.01 0.786048 148.012 0.654786 148.014 0.523804L129.931 0.523804C129.933 0.654786 129.934 0.786048 129.934 0.917578C129.934 13.0962 120.082 22.9689 107.928 22.9689C95.7743 22.9689 85.9218 13.0962 85.9218 0.917578C85.9218 0.786048 85.9229 0.654786 85.9252 0.523804L68.6278 0.523804C68.6301 0.654786 68.6313 0.786048 68.6313 0.917578C68.6313 13.0962 58.7788 22.9689 46.6252 22.9689C34.4715 22.9689 24.619 13.0962 24.619 0.917578C24.619 0.786048 24.6202 0.654786 24.6225 0.523804L14.0059 0.523804C7.93076 0.523804 3.00589 5.44867 3.00589 11.5238V50.9267L215.994 50.9267V11.5238Z" fill="#2891FF"/>
    <path fill-rule="evenodd" clip-rule="evenodd" d="M215.994 245.476C215.994 251.551 211.069 256.476 204.994 256.476H192.938C192.938 244.373 183.108 234.562 170.981 234.562C158.854 234.562 149.023 244.373 149.023 256.476H130.359C130.359 244.373 120.529 234.562 108.402 234.562C96.2751 234.562 86.4444 244.373 86.4444 256.476H68.8784C68.8784 244.373 59.0477 234.562 46.9209 234.562C34.7941 234.562 24.9634 244.373 24.9634 256.476H14.0059C7.93076 256.476 3.00589 251.551 3.00589 245.476V206.073L215.994 206.073V245.476Z" fill="#2891FF"/>
    <path d="M13.5763 133.216H209.519" stroke="#9C9C9C" stroke-linecap="round" stroke-dasharray="5"/>
  </g>
  <defs>
    <filter id="filter0_d" x="0" y="0" width="223" height="266" filterUnits="userSpaceOnUse" color-interpolation-filters="sRGB">
      <feFlood flood-opacity="0" result="BackgroundImageFix"/>
      <feColorMatrix in="SourceAlpha" type="matrix" values="0 0 0 0 0 0 0 0 0 0 0 0 0 0 0 0 0 0 127 0"/>
      <feOffset dx="2" dy="4"/>
      <feGaussianBlur stdDeviation="2"/>
      <feColorMatrix type="matrix" values="0 0 0 0 0 0 0 0 0 0 0 0 0 0 0 0 0 0 0.25 0"/>
      <feBlend mode="normal" in2="BackgroundImageFix" result="effect1_dropShadow"/>
      <feBlend mode="normal" in="SourceGraphic" in2="effect1_dropShadow" result="shape"/>
    </filter>
  </defs>
</svg>
