<svg width="30" height="30" viewBox="0 0 30 30" fill="none" xmlns="http://www.w3.org/2000/svg">
    <path fill-rule="evenodd" clip-rule="evenodd" d="M30 15C30 23.2843 23.2843 30 15 30C6.71573 30 0 23.2843 0 15C0 6.71573 6.71573 0 15 0C23.2843 0 30 6.71573 30 15ZM20.0881 8.73374C20.6642 7.97424 21.7609 7.85673 22.4848 8.47694C23.1562 9.05215 23.2573 10.0533 22.7145 10.7512L13.6219 22.4404C13.5845 22.4884 13.5135 22.4928 13.4705 22.4498L7.40151 16.3808C6.80188 15.7812 6.80188 14.809 7.40151 14.2094C8.00099 13.6099 8.97287 13.6098 9.57257 14.209L13.1919 17.8258L20.0881 8.73374Z" fill="#D1D1D1"/>
</svg>
