<svg width="21" height="20" viewBox="0 0 21 20" fill="none" xmlns="http://www.w3.org/2000/svg">
    <path fill-rule="evenodd" clip-rule="evenodd" d="M1.33969 11.1992C1.96355 11.1992 2.57178 11.1371 3.16568 11.0367L3.32458 11.6575C3.40923 11.9905 3.76154 12.1946 4.11124 12.1133C4.46094 12.0321 4.67518 11.6966 4.58988 11.3641L4.43359 10.7526C5.23523 10.5151 5.98933 10.1777 6.69524 9.7727L7.08141 10.3048C7.28589 10.5864 7.69159 10.6571 7.98724 10.4624C8.28354 10.2676 8.35778 9.88124 8.1533 9.59967L7.76843 9.07002C8.4216 8.58068 9.00964 8.02002 9.52344 7.39858L10.0796 7.7645C10.3759 7.95924 10.7816 7.88854 10.9861 7.60696C11.1905 7.32539 11.1163 6.93901 10.82 6.74427L10.2613 6.37649C10.6865 5.70357 11.0408 4.986 11.2902 4.22191L11.9323 4.37138C12.282 4.45201 12.6343 4.24796 12.7189 3.91553C12.8042 3.58249 12.59 3.24696 12.2403 3.16571L11.5884 3.015C11.6939 2.44938 11.759 1.87011 11.759 1.27596C11.759 0.933611 11.468 0.655762 11.1078 0.655762C10.7484 0.655762 10.4566 0.933611 10.4566 1.27596C10.4566 1.76964 10.4032 2.24968 10.3199 2.72041L9.70969 2.579C9.35999 2.49776 9.00769 2.7018 8.92303 3.03485C8.83772 3.36728 9.05197 3.70281 9.40167 3.78405L10.019 3.92732C9.81128 4.54256 9.52865 5.12368 9.18937 5.6707L8.67687 5.33393C8.38122 5.13919 7.97552 5.20989 7.77104 5.49146C7.56656 5.77365 7.6408 6.16004 7.93645 6.35478L8.4522 6.69403C8.24186 6.94397 8.0211 7.18585 7.78341 7.41284C7.54572 7.63921 7.2911 7.84946 7.02866 8.04979L6.67245 7.55859C6.46797 7.27702 6.06226 7.20632 5.76661 7.40106C5.47031 7.5958 5.39673 7.98219 5.60121 8.26376L5.95481 8.75123C5.38045 9.07436 4.76961 9.34352 4.12361 9.54137L3.97318 8.95342C3.88852 8.62099 3.53622 8.41695 3.18652 8.49757C2.83747 8.57882 2.62322 8.91435 2.70788 9.24739L2.85701 9.82852C2.36209 9.90791 1.85805 9.95876 1.33969 9.95876C0.980219 9.95876 0.688477 10.2366 0.688477 10.579C0.688477 10.9213 0.980219 11.1992 1.33969 11.1992Z" fill="black"/>
    <path fill-rule="evenodd" clip-rule="evenodd" d="M20.3875 8.82566C20.1644 8.81195 19.9387 8.8051 19.7117 8.8051C19.085 8.8051 18.4746 8.8674 17.878 8.96833L17.7184 8.34469C17.6327 8.01075 17.2794 7.80516 16.9281 7.88678C16.5768 7.96839 16.3616 8.30544 16.4473 8.63937L16.6043 9.25367C15.799 9.4929 15.0414 9.8312 14.3323 10.2386L13.9444 9.70348C13.7389 9.42063 13.3314 9.34961 13.0344 9.54524C12.7367 9.74086 12.6621 10.129 12.8676 10.4118L13.2535 10.9439C12.598 11.4355 12.0073 11.9987 11.4911 12.6229L10.9318 12.2553C10.6348 12.0597 10.2272 12.1307 10.0218 12.4136C9.8164 12.6971 9.89098 13.0846 10.1886 13.2802L10.7499 13.6496C10.3227 14.3256 9.96687 15.0464 9.71631 15.814L9.07128 15.6645C8.71998 15.5829 8.36606 15.7878 8.28102 16.1224C8.19532 16.4563 8.41055 16.7934 8.76185 16.875L9.41604 17.027C9.31006 17.5952 9.2453 18.1765 9.24464 18.7733C9.24464 18.9895 9.25249 19.2038 9.26623 19.4169C9.28978 19.7602 9.60052 20.0206 9.96098 19.9988C10.3221 19.977 10.5955 19.6804 10.572 19.3371C10.5596 19.1508 10.553 18.9627 10.553 18.7733C10.553 18.278 10.6073 17.7952 10.6904 17.3223L11.304 17.4644C11.6547 17.546 12.0086 17.341 12.0943 17.0064C12.18 16.6725 11.9648 16.3355 11.6135 16.2538L10.9933 16.1099C11.202 15.4925 11.4859 14.9081 11.8267 14.3586L12.3416 14.6969C12.6386 14.8926 13.0461 14.8215 13.2516 14.5387C13.457 14.2552 13.3824 13.8671 13.0847 13.6721L12.5673 13.3307C12.7786 13.0796 13.0004 12.8366 13.2391 12.6086C13.4779 12.3812 13.7337 12.17 13.9973 11.9688L14.3552 12.4622C14.5606 12.745 14.9682 12.8161 15.2652 12.6204C15.5622 12.4248 15.6367 12.0373 15.4313 11.7538L15.0761 11.2641C15.6531 10.9395 16.2667 10.6692 16.9157 10.4704L17.0662 11.061C17.1519 11.395 17.5058 11.5999 17.8571 11.5189C18.2077 11.4373 18.4229 11.1003 18.3379 10.7663L18.1881 10.182C18.6846 10.1022 19.1916 10.0511 19.7117 10.0511C19.9112 10.0511 20.1081 10.0574 20.3044 10.0692C20.6649 10.091 20.9756 9.83058 20.9985 9.4873C21.022 9.14402 20.7486 8.84746 20.3875 8.82566Z" fill="black"/>
    <path fill-rule="evenodd" clip-rule="evenodd" d="M16.9931 16.1844C15.3267 17.77 13.1332 18.75 10.5079 18.75C7.88255 18.75 5.67071 17.77 4.00428 16.1844C2.33917 14.5975 1.3061 12.4137 1.30544 10C1.3061 7.58625 2.3326 5.4025 3.99772 3.81562C5.66415 2.23 7.95606 1.25 10.4908 1.25C13.0256 1.25 15.3181 2.23 16.9846 3.81562C18.6497 5.4025 19.6781 7.58625 19.6788 10C19.6781 12.4137 18.6582 14.5975 16.9931 16.1844ZM10.4941 0C4.70196 0.00125 0.000656332 4.48375 0 10C0.000656332 15.5163 4.60089 19.9988 10.5079 20C16.4149 19.9988 20.9987 15.5163 21 10C20.9987 4.48375 16.2869 0.00125 10.4941 0Z" fill="black"/>
</svg>
