<svg width="21" height="19" viewBox="0 0 21 19" fill="none" xmlns="http://www.w3.org/2000/svg">
    <path fill-rule="evenodd" clip-rule="evenodd" d="M19.9054 9.52261C17.6192 9.67079 15.5457 10.5426 13.9274 11.8892L11.3931 9.5L17.64 3.61175C17.8869 3.37967 17.8869 3.00299 17.64 2.77031C17.3938 2.53823 16.9941 2.53823 16.7472 2.77031L10.4996 8.65857L7.96526 6.26934C9.39408 4.74417 10.3191 2.79054 10.4763 0.635782C10.4996 0.307897 10.237 0.0234515 9.88909 0.00143376C9.5412 -0.021179 9.24003 0.226372 9.21603 0.554257C9.08218 2.41148 8.29358 4.1009 7.07184 5.42791L4.2527 2.77031C4.00583 2.53823 3.60616 2.53823 3.35992 2.77031C3.11305 3.00299 3.11305 3.37967 3.35992 3.61175L6.17906 6.26934C4.77107 7.42022 2.97856 8.16346 1.008 8.29022C0.660107 8.31283 0.39745 8.59668 0.421443 8.92456C0.445436 9.25245 0.746607 9.5 1.0945 9.47739C3.38075 9.32921 5.45423 8.45743 7.07247 7.11078L9.60686 9.5L3.35992 15.3883C3.11305 15.6203 3.11305 15.997 3.35992 16.2297C3.60616 16.4618 4.00583 16.4618 4.2527 16.2297L10.4996 10.3414L13.0347 12.7307C11.6058 14.2558 10.6809 16.2095 10.5236 18.3642C10.4996 18.6921 10.7623 18.9765 11.1102 18.9986C11.4581 19.0212 11.7599 18.7736 11.7833 18.4457C11.9177 16.5891 12.7063 14.8991 13.9281 13.5721L16.7472 16.2297C16.9941 16.4618 17.3938 16.4618 17.64 16.2297C17.8869 15.997 17.8869 15.6203 17.64 15.3883L14.8209 12.7307C16.2289 11.5798 18.0214 10.8365 19.9913 10.7098C20.3392 10.6872 20.6018 10.4033 20.5785 10.0754C20.5545 9.74755 20.2533 9.5 19.9054 9.52261Z" fill="black"/>
    <path fill-rule="evenodd" clip-rule="evenodd" d="M16.7333 15.3752C15.1335 16.8815 13.0278 17.8125 10.5075 17.8125C7.98717 17.8125 5.8638 16.8815 4.26403 15.3752C2.66552 13.8676 1.67378 11.7931 1.67315 9.5C1.67378 7.20694 2.65922 5.13238 4.25773 3.62484C5.8575 2.1185 8.05774 1.1875 10.4911 1.1875C12.9245 1.1875 15.1253 2.1185 16.7251 3.62484C18.3236 5.13238 19.3109 7.20694 19.3116 9.5C19.3109 11.7931 18.3318 13.8676 16.7333 15.3752ZM10.4943 0C4.93381 0.0011875 0.421182 4.25956 0.419922 9.5C0.421182 14.7404 4.83677 18.9988 10.5075 19C16.1782 18.9988 20.5787 14.7404 20.5799 9.5C20.5787 4.25956 16.0553 0.0011875 10.4943 0Z" fill="black"/>
</svg>
