<?xml version="1.0" encoding="UTF-8" standalone="no"?>
<!DOCTYPE svg PUBLIC "-//W3C//DTD SVG 1.1//EN" "http://www.w3.org/Graphics/SVG/1.1/DTD/svg11.dtd">
<svg width="100%" height="100%" viewBox="0 0 181 181" version="1.1" xmlns="http://www.w3.org/2000/svg" xmlns:xlink="http://www.w3.org/1999/xlink" xml:space="preserve" xmlns:serif="http://www.serif.com/" style="fill-rule:evenodd;clip-rule:evenodd;stroke-linejoin:round;stroke-miterlimit:2;">
    <g transform="matrix(4.16667,0,0,4.16667,-1297.27,-1159.77)">
        <path d="M333,278.344C321.072,278.344 311.344,288.072 311.344,300C311.344,311.928 321.072,321.656 333,321.656C344.928,321.656 354.656,311.928 354.656,300C354.656,288.072 344.928,278.344 333,278.344ZM333,319.594C322.206,319.594 313.406,310.794 313.406,300C313.406,289.206 322.206,280.406 333,280.406C343.794,280.406 352.594,289.206 352.594,300C352.594,310.794 343.794,319.594 333,319.594Z" style="fill:white;fill-rule:nonzero;"/>
    </g>
    <g transform="matrix(4.16667,0,0,4.16667,-1297.27,-1160.2)">
        <path d="M329.528,307.7C329.734,307.906 330.009,308.009 330.25,308.009C330.491,308.009 330.766,307.906 330.972,307.7L337.847,300.825C338.259,300.413 338.259,299.759 337.847,299.381L330.972,292.506C330.559,292.094 329.906,292.094 329.528,292.506C329.116,292.919 329.116,293.572 329.528,293.95L335.681,300.103L329.528,306.256C329.116,306.635 329.116,307.322 329.528,307.7Z" style="fill:white;fill-rule:nonzero;"/>
    </g>
</svg>
