<?xml version="1.0" encoding="UTF-8"?>
<svg width="28px" height="25px" viewBox="0 0 28 25" version="1.1" xmlns="http://www.w3.org/2000/svg" xmlns:xlink="http://www.w3.org/1999/xlink">
    <!-- Generator: Sketch 61.2 (89653) - https://sketch.com -->
    <title>shopping-cart</title>
    <desc>Created with Sketch.</desc>
    <g id="Desktop-UI" stroke="none" stroke-width="1" fill="none" fill-rule="evenodd">
        <g id="1.0---Home---v1.5" transform="translate(-1299.000000, -75.000000)" fill="#FFFFFF" fill-rule="nonzero">
            <g id="Group-2" transform="translate(1254.000000, 75.000000)">
                <g id="shopping-cart" transform="translate(45.000000, 0.000000)">
                    <path d="M9.07809954,16.6667028 L23.8985841,16.6667028 C24.2655875,16.6667028 24.5875165,16.4201777 24.6868509,16.0621087 L27.9683054,4.39535164 C28.0388008,4.14383526 27.9905221,3.87365586 27.8352186,3.66467379 C27.6797014,3.45634272 27.4378808,3.33329717 27.1798249,3.33329717 L7.18433655,3.33329717 L6.59794295,0.652770695 C6.51463017,0.271047392 6.18137915,0 5.79685874,0 L0.820310199,0 C0.367003393,0 0,0.372825844 0,0.833324292 C0,1.29403979 0.367003393,1.66664858 0.820310199,1.66664858 L5.13847439,1.66664858 L8.10077683,15.2081683 C7.22919724,15.5931468 6.61716894,16.4744306 6.61716894,17.5000271 C6.61716894,18.8784844 7.72116975,20 9.07809954,20 L23.8985841,20 C24.3521046,20 24.7188943,19.6273912 24.7188943,19.1666757 C24.7188943,18.7061773 24.3521046,18.3333514 23.8985841,18.3333514 L9.07809954,18.3333514 C8.62628805,18.3333514 8.25778934,17.9598746 8.25778934,17.5000271 C8.25778934,17.0401797 8.62628805,16.6667028 9.07809954,16.6667028 Z" id="Path"></path>
                    <path d="M8,22.5 C8,23.8786892 9.12147911,25 10.5001085,25 C11.8785209,25 13,23.8786892 13,22.5 C13,21.1215278 11.8785209,20 10.5001085,20 C9.12147911,20 8,21.1215278 8,22.5 Z" id="Path"></path>
                    <path d="M20,22.5 C20,23.8786892 21.1215278,25 22.5,25 C23.8786892,25 25,23.8786892 25,22.5 C25,21.1215278 23.8786892,20 22.5,20 C21.1215278,20 20,21.1215278 20,22.5 Z" id="Path"></path>
                </g>
            </g>
        </g>
    </g>
</svg>