<svg width="32" height="32" xmlns:xlink="http://www.w3.org/1999/xlink" xmlns="http://www.w3.org/2000/svg"><defs><clipPath id="b"><use xlink:href="#a"/></clipPath><path d="M9.333 7.448L2.276.39A1.333 1.333 0 10.391 2.276l8 8c.52.52 1.364.52 1.885 0l8-8A1.333 1.333 0 0016.39.391L9.333 7.448z" transform="translate(6.667 10.667)" id="a"/></defs><path d="M13.886 16l7.057 7.057a1.333 1.333 0 11-1.886 1.886l-8-8a1.333 1.333 0 010-1.886l8-8a1.333 1.333 0 011.886 1.886L13.886 16z"/><g clip-path="url(#b)" transform="matrix(0 -1 -1 0 32 32)"><path d="M0 0h32v32H0V0z" fill="#FFF"/></g></svg>