<svg width="21" height="20" viewBox="0 0 21 20" fill="none" xmlns="http://www.w3.org/2000/svg">
    <path fill-rule="evenodd" clip-rule="evenodd" d="M20.514 19.5H19.5334C19.5337 19.4947 19.5366 19.4905 19.5366 19.485V6.32747C19.5366 6.18922 19.4207 6.07747 19.2773 6.07747H14.3573V2.51572C14.3573 2.41022 14.2886 2.31597 14.1857 2.28047L7.6363 0.0147221C7.55671 -0.0122779 7.46882 -0.000777867 7.3996 0.0457221C7.33037 0.0924721 7.28941 0.168722 7.28941 0.249972V4.45922H3.32275C3.17937 4.45922 3.06349 4.57097 3.06349 4.70922V9.04897H1.8193C1.67593 9.04897 1.56004 9.16072 1.56004 9.29897V19.5H0.291486C0.148115 19.5 0.0322266 19.6117 0.0322266 19.75C0.0322266 19.8882 0.148115 20 0.291486 20H20.5137C20.6571 20 20.773 19.8882 20.773 19.75C20.773 19.6117 20.6573 19.5 20.514 19.5ZM7.80793 0.605222L13.8388 2.69197V6.07747H12.8656C12.7222 6.07747 12.6063 6.18922 12.6063 6.32747V8.81872L10.8156 8.35297V4.70922C10.8156 4.57097 10.6997 4.45922 10.5563 4.45922H7.80793V0.605222ZM10.2968 4.95922H3.582V6.31172H10.2968V4.95922ZM6.87693 19.5H2.07882V9.54897H6.87719V19.5H6.87693ZM8.12682 7.98022C8.12682 7.90222 8.16441 7.82872 8.22845 7.78147C8.29249 7.73447 8.37571 7.71897 8.45374 7.73847L10.2968 8.21797V6.81172H3.582V9.04897H7.13619C7.27956 9.04897 7.39545 9.16072 7.39545 9.29897V19.5H8.14108L8.12682 7.98022ZM8.6596 19.5L8.64586 8.30647L13.3597 9.53272L13.3737 19.5H8.6596ZM13.878 9.34072L13.8922 19.5H19.0209C19.0208 19.4975 19.0201 19.4951 19.0193 19.4928C19.0186 19.4902 19.0178 19.4877 19.0178 19.485V6.57747H13.1248V8.95347L13.6864 9.09947C13.7992 9.12897 13.8777 9.22772 13.878 9.34072Z" fill="black"/>
    <path d="M3.32274 15.2498C3.46611 15.2498 3.582 15.138 3.582 14.9998V13.9985C3.582 13.8603 3.46611 13.7485 3.32274 13.7485C3.17937 13.7485 3.06348 13.8603 3.06348 13.9985V14.9998C3.06348 15.138 3.17962 15.2498 3.32274 15.2498Z" fill="black"/>
    <path d="M4.47777 15.2498C4.62114 15.2498 4.73702 15.138 4.73702 14.9998V13.9985C4.73702 13.8603 4.62114 13.7485 4.47777 13.7485C4.33439 13.7485 4.21851 13.8603 4.21851 13.9985V14.9998C4.21851 15.138 4.33465 15.2498 4.47777 15.2498Z" fill="black"/>
    <path d="M5.63304 15.2498C5.77641 15.2498 5.8923 15.138 5.8923 14.9998V13.9985C5.8923 13.8603 5.77641 13.7485 5.63304 13.7485C5.48967 13.7485 5.37378 13.8603 5.37378 13.9985V14.9998C5.37378 15.138 5.48967 15.2498 5.63304 15.2498Z" fill="black"/>
    <path d="M9.84739 10.9192C9.70402 10.9192 9.58813 11.0309 9.58813 11.1692V12.1704C9.58813 12.3087 9.70402 12.4204 9.84739 12.4204C9.99076 12.4204 10.1067 12.3087 10.1067 12.1704V11.1692C10.1067 11.0309 9.99076 10.9192 9.84739 10.9192Z" fill="black"/>
    <path d="M11.0024 10.9192C10.8591 10.9192 10.7432 11.0309 10.7432 11.1692V12.1704C10.7432 12.3087 10.8591 12.4204 11.0024 12.4204C11.1458 12.4204 11.2617 12.3087 11.2617 12.1704V11.1692C11.2617 11.0309 11.1458 10.9192 11.0024 10.9192Z" fill="black"/>
    <path d="M12.1577 10.9192C12.0143 10.9192 11.8984 11.0309 11.8984 11.1692V12.1704C11.8984 12.3087 12.0143 12.4204 12.1577 12.4204C12.3011 12.4204 12.417 12.3087 12.417 12.1704V11.1692C12.417 11.0309 12.3008 10.9192 12.1577 10.9192Z" fill="black"/>
    <path d="M9.84739 13.7485C9.70402 13.7485 9.58813 13.8603 9.58813 13.9985V14.9998C9.58813 15.138 9.70402 15.2498 9.84739 15.2498C9.99076 15.2498 10.1067 15.138 10.1067 14.9998V13.9985C10.1067 13.8603 9.99076 13.7485 9.84739 13.7485Z" fill="black"/>
    <path d="M11.0024 13.7485C10.8591 13.7485 10.7432 13.8603 10.7432 13.9985V14.9998C10.7432 15.138 10.8591 15.2498 11.0024 15.2498C11.1458 15.2498 11.2617 15.138 11.2617 14.9998V13.9985C11.2617 13.8603 11.1458 13.7485 11.0024 13.7485Z" fill="black"/>
    <path d="M12.1577 13.7485C12.0143 13.7485 11.8984 13.8603 11.8984 13.9985V14.9998C11.8984 15.138 12.0143 15.2498 12.1577 15.2498C12.3011 15.2498 12.417 15.138 12.417 14.9998V13.9985C12.417 13.8603 12.3008 13.7485 12.1577 13.7485Z" fill="black"/>
    <path d="M15.3713 10.9192C15.2279 10.9192 15.1121 11.0309 15.1121 11.1692V12.1704C15.1121 12.3087 15.2279 12.4204 15.3713 12.4204C15.5147 12.4204 15.6306 12.3087 15.6306 12.1704V11.1692C15.6306 11.0309 15.5147 10.9192 15.3713 10.9192Z" fill="black"/>
    <path d="M16.5261 10.9192C16.3827 10.9192 16.2668 11.0309 16.2668 11.1692V12.1704C16.2668 12.3087 16.3827 12.4204 16.5261 12.4204C16.6695 12.4204 16.7854 12.3087 16.7854 12.1704V11.1692C16.7854 11.0309 16.6695 10.9192 16.5261 10.9192Z" fill="black"/>
    <path d="M17.6809 10.9192C17.5375 10.9192 17.4216 11.0309 17.4216 11.1692V12.1704C17.4216 12.3087 17.5375 12.4204 17.6809 12.4204C17.8243 12.4204 17.9401 12.3087 17.9401 12.1704V11.1692C17.9401 11.0309 17.8243 10.9192 17.6809 10.9192Z" fill="black"/>
    <path d="M3.32274 12.4204C3.46611 12.4204 3.582 12.3087 3.582 12.1704V11.1692C3.582 11.0309 3.46611 10.9192 3.32274 10.9192C3.17937 10.9192 3.06348 11.0309 3.06348 11.1692V12.1704C3.06348 12.3084 3.17962 12.4204 3.32274 12.4204Z" fill="black"/>
    <path d="M4.47777 12.4204C4.62114 12.4204 4.73702 12.3087 4.73702 12.1704V11.1692C4.73702 11.0309 4.62114 10.9192 4.47777 10.9192C4.33439 10.9192 4.21851 11.0309 4.21851 11.1692V12.1704C4.21851 12.3084 4.33465 12.4204 4.47777 12.4204Z" fill="black"/>
    <path d="M5.63304 12.4204C5.77641 12.4204 5.8923 12.3087 5.8923 12.1704V11.1692C5.8923 11.0309 5.77641 10.9192 5.63304 10.9192C5.48967 10.9192 5.37378 11.0309 5.37378 11.1692V12.1704C5.37378 12.3084 5.48967 12.4204 5.63304 12.4204Z" fill="black"/>
    <path d="M15.3713 13.7485C15.2279 13.7485 15.1121 13.8603 15.1121 13.9985V14.9998C15.1121 15.138 15.2279 15.2498 15.3713 15.2498C15.5147 15.2498 15.6306 15.138 15.6306 14.9998V13.9985C15.6306 13.8603 15.5147 13.7485 15.3713 13.7485Z" fill="black"/>
    <path d="M16.5261 13.7485C16.3827 13.7485 16.2668 13.8603 16.2668 13.9985V14.9998C16.2668 15.138 16.3827 15.2498 16.5261 15.2498C16.6695 15.2498 16.7854 15.138 16.7854 14.9998V13.9985C16.7854 13.8603 16.6695 13.7485 16.5261 13.7485Z" fill="black"/>
    <path d="M17.6809 13.7485C17.5375 13.7485 17.4216 13.8603 17.4216 13.9985V14.9998C17.4216 15.138 17.5375 15.2498 17.6809 15.2498C17.8243 15.2498 17.9401 15.138 17.9401 14.9998V13.9985C17.9401 13.8603 17.8243 13.7485 17.6809 13.7485Z" fill="black"/>
    <path d="M3.32274 17.9635C3.46611 17.9635 3.582 17.8518 3.582 17.7135V16.7125C3.582 16.5743 3.46611 16.4625 3.32274 16.4625C3.17937 16.4625 3.06348 16.5743 3.06348 16.7125V17.7135C3.06348 17.8515 3.17962 17.9635 3.32274 17.9635Z" fill="black"/>
    <path d="M4.47777 17.9635C4.62114 17.9635 4.73702 17.8518 4.73702 17.7135V16.7125C4.73702 16.5743 4.62114 16.4625 4.47777 16.4625C4.33439 16.4625 4.21851 16.5743 4.21851 16.7125V17.7135C4.21851 17.8515 4.33465 17.9635 4.47777 17.9635Z" fill="black"/>
    <path d="M5.63304 17.9635C5.77641 17.9635 5.8923 17.8518 5.8923 17.7135V16.7125C5.8923 16.5743 5.77641 16.4625 5.63304 16.4625C5.48967 16.4625 5.37378 16.5743 5.37378 16.7125V17.7135C5.37378 17.8515 5.48967 17.9635 5.63304 17.9635Z" fill="black"/>
    <path d="M9.84739 16.4625C9.70402 16.4625 9.58813 16.5743 9.58813 16.7125V17.7135C9.58813 17.8518 9.70402 17.9635 9.84739 17.9635C9.99076 17.9635 10.1067 17.8518 10.1067 17.7135V16.7125C10.1067 16.5743 9.99076 16.4625 9.84739 16.4625Z" fill="black"/>
    <path d="M11.0024 16.4625C10.8591 16.4625 10.7432 16.5743 10.7432 16.7125V17.7135C10.7432 17.8518 10.8591 17.9635 11.0024 17.9635C11.1458 17.9635 11.2617 17.8518 11.2617 17.7135V16.7125C11.2617 16.5743 11.1458 16.4625 11.0024 16.4625Z" fill="black"/>
    <path d="M12.1577 16.4625C12.0143 16.4625 11.8984 16.5743 11.8984 16.7125V17.7135C11.8984 17.8518 12.0143 17.9635 12.1577 17.9635C12.3011 17.9635 12.417 17.8518 12.417 17.7135V16.7125C12.417 16.5743 12.3008 16.4625 12.1577 16.4625Z" fill="black"/>
    <path d="M15.3713 16.4625C15.2279 16.4625 15.1121 16.5743 15.1121 16.7125V17.7135C15.1121 17.8518 15.2279 17.9635 15.3713 17.9635C15.5147 17.9635 15.6306 17.8518 15.6306 17.7135V16.7125C15.6306 16.5743 15.5147 16.4625 15.3713 16.4625Z" fill="black"/>
    <path d="M16.5261 16.4625C16.3827 16.4625 16.2668 16.5743 16.2668 16.7125V17.7135C16.2668 17.8518 16.3827 17.9635 16.5261 17.9635C16.6695 17.9635 16.7854 17.8518 16.7854 17.7135V16.7125C16.7854 16.5743 16.6695 16.4625 16.5261 16.4625Z" fill="black"/>
    <path d="M17.6809 16.4625C17.5375 16.4625 17.4216 16.5743 17.4216 16.7125V17.7135C17.4216 17.8518 17.5375 17.9635 17.6809 17.9635C17.8243 17.9635 17.9401 17.8518 17.9401 17.7135V16.7125C17.9401 16.5743 17.8243 16.4625 17.6809 16.4625Z" fill="black"/>
    <path d="M15.3713 8.00378C15.2279 8.00378 15.1121 8.11553 15.1121 8.25378V9.25503C15.1121 9.39328 15.2279 9.50503 15.3713 9.50503C15.5147 9.50503 15.6306 9.39328 15.6306 9.25503V8.25378C15.6306 8.11553 15.5147 8.00378 15.3713 8.00378Z" fill="black"/>
    <path d="M16.5261 8.00378C16.3827 8.00378 16.2668 8.11553 16.2668 8.25378V9.25503C16.2668 9.39328 16.3827 9.50503 16.5261 9.50503C16.6695 9.50503 16.7854 9.39328 16.7854 9.25503V8.25378C16.7854 8.11553 16.6695 8.00378 16.5261 8.00378Z" fill="black"/>
    <path d="M17.6809 8.00378C17.5375 8.00378 17.4216 8.11553 17.4216 8.25378V9.25503C17.4216 9.39328 17.5375 9.50503 17.6809 9.50503C17.8243 9.50503 17.9401 9.39328 17.9401 9.25503V8.25378C17.9401 8.11553 17.8243 8.00378 17.6809 8.00378Z" fill="black"/>
</svg>
