<svg width="40" height="40" xmlns:xlink="http://www.w3.org/1999/xlink" xmlns="http://www.w3.org/2000/svg"><defs><clipPath id="b"><use xlink:href="#a"/></clipPath><path d="M20 40c11.046 0 20-8.954 20-20S31.046 0 20 0 0 8.954 0 20s8.954 20 20 20z" id="a"/></defs><use fill="#FFF" xlink:href="#a"/><g clip-path="url(#b)"><use xlink:href="#a" fill="none" stroke="#000" stroke-width="4"/></g><g><path d="M18.613 17.427c0-2.34-1.649-3.01-3.434-3.388l-.946-.192c-1.398-.274-1.505-.68-1.505-1.222 0-.704.635-1.126 1.698-1.126 1.26 0 1.583.633 1.717 1.108l.012.04c.159.414.527.661.985.661.119 0 .225-.017.305-.034.493-.098.837-.491.837-.955a.937.937 0 00-.064-.34c-.251-.813-.96-2.091-2.928-2.383V8.203c0-1.16-1.818-1.16-1.818 0v1.401c-2.112.331-2.89 1.768-2.89 3.02 0 2.28 1.587 2.915 3.138 3.236l1.024.217c1.456.296 1.712.675 1.712 1.363 0 .84-.71 1.343-1.902 1.343-1.547 0-1.863-.697-2.074-1.48-.123-.432-.514-.711-.997-.711-.105 0-.19.014-.291.03l-.03.007c-.5.119-.834.511-.834.977 0 .089.015.165.028.225l.017.07c.223.758.718 2.414 3.19 2.784v1.458c0 .58.457.884.908.884.452 0 .91-.304.91-.884V20.71c1.962-.256 3.232-1.51 3.232-3.283M28.227 11.037l1.193 3.56-3.697.583c-.325-.233-.457-.618-.294-.889l.28-.462-4.437-2.695a.78.78 0 01-.278-1.07l.517-.856a.78.78 0 011.075-.25l4.438 2.696.28-.461c.163-.272.565-.334.922-.156M14.506 25.058l-3.73.428 1.037 3.596c.349.196.755.151.93-.112l.3-.449 4.321 2.88a.783.783 0 001.088-.202l.556-.83a.782.782 0 00-.23-1.081l-4.32-2.878.299-.449c.177-.265.063-.655-.25-.903M25.226 31.79c0 1.17 1.818 1.17 1.818 0v-2.34h3.035c1.172 0 1.172-1.818 0-1.818h-3.035v-1.819h3.035c1.172 0 1.172-1.817 0-1.817h-3.035v-1.475l3.513-3.515c.829-.83-.456-2.115-1.286-1.285-2.201 2.202-1.52 1.52-3.119 3.118h-.037c-1.6-1.598-.916-.916-3.119-3.118-.83-.83-2.114.456-1.285 1.285 2.366 2.365 1.402 1.403 3.514 3.515v1.475h-3.037c-1.172 0-1.172 1.817 0 1.817h3.037v1.82h-3.037c-1.172 0-1.172 1.816 0 1.816h3.037v2.34"/><path d="M7 7h26v26H7V7z" fill="none"/></g></svg>