<svg width="21" height="20" viewBox="0 0 21 20" fill="none" xmlns="http://www.w3.org/2000/svg">
    <path fill-rule="evenodd" clip-rule="evenodd" d="M12.4103 7.54102H12.4084C9.13372 7.54672 6.4788 10.0866 6.47814 13.2334V13.8593C5.75263 13.8593 5.16382 14.4263 5.16382 15.1264C5.16382 15.8265 5.75263 16.3935 6.47814 16.3935C7.2043 16.3935 7.79246 15.8265 7.79246 15.1264V13.2334C7.79706 11.0096 9.5037 9.17302 11.7354 8.86068V10.6916H13.0497V8.81L20.3068 8.83217L20.3114 7.56509H20.3107L12.4103 7.54102Z" fill="black"/>
    <path fill-rule="evenodd" clip-rule="evenodd" d="M7.91797 15.082H10.6721V13.7705H7.91797V15.082Z" fill="black"/>
    <path fill-rule="evenodd" clip-rule="evenodd" d="M17.0066 15.0819H15.6984V16.2841H13.082V17.4863H15.6984V18.6885H17.0066V17.4863H19.623V16.2841H17.0066V15.0819Z" fill="black"/>
    <path fill-rule="evenodd" clip-rule="evenodd" d="M12.3839 9.95984H12.37C10.5498 9.95984 9.09211 11.3931 9.09211 13.1269V14.2771C9.0875 14.3066 9.07365 14.333 9.07365 14.3637C9.07365 14.3938 9.0875 14.4196 9.09211 14.4484V14.8475C9.09211 15.5271 8.81587 16.1778 8.37416 16.6616C7.93046 17.1461 7.3259 17.4598 6.63762 17.5056L6.67915 18.1313L6.63366 17.5056L6.43654 17.5119C5.74429 17.5107 5.09952 17.2722 4.48244 16.8292C3.55944 16.1684 2.74655 15.037 2.1888 13.7764C1.6271 12.5182 1.31724 11.1327 1.31856 10.0119C1.31922 7.58848 2.35231 5.40412 4.02424 3.8184C5.69749 2.23394 8.00166 1.2569 10.5485 1.25628C12.8348 1.25628 14.9386 2.17244 16.5703 3.64583C18.2007 5.11797 19.3399 7.14357 19.6749 9.30472L19.6814 9.39132C19.6814 9.55133 19.6109 9.67934 19.4876 9.79669C19.363 9.91278 19.1969 9.95984 19.0116 9.95984H12.3839ZM19.6406 14.9799V18.1394C19.6406 18.4858 19.3268 18.745 18.9628 18.745H15.0072C13.9154 18.745 13.0478 17.9242 13.0478 16.8844V14.9799C15.4588 14.9799 18.0814 14.9799 19.6406 14.9799ZM11.7292 13.7249C11.2644 13.7249 10.8227 13.7249 10.4107 13.7249V13.1269C10.4107 12.303 10.9598 11.5914 11.7292 11.3291V13.7249ZM13.0478 11.2149H19.0116C20.1087 11.2149 20.9941 10.4016 21 9.36747L20.9789 9.10894V9.11458C20.5959 6.66165 19.3202 4.39885 17.4781 2.73281C15.6381 1.06802 13.2119 0 10.5485 0C4.73362 0 0.00131856 4.47164 0 10.0107C0.00527423 11.7853 0.615107 13.8906 1.69303 15.6225C2.2343 16.4872 2.89489 17.2584 3.68603 17.8294C4.47452 18.3992 5.4107 18.7676 6.43654 18.7669L6.72464 18.7575L6.67981 18.1419L6.72464 18.7575C7.78806 18.6879 8.72423 18.1947 9.37033 17.4837C9.98807 16.8047 10.3639 15.9212 10.3975 14.9799C10.8155 14.9799 11.2618 14.9799 11.7292 14.9799V16.8844C11.7292 18.6176 13.1869 20 15.0072 20H18.9628C20.0559 20 20.9591 19.1792 20.9591 18.1394V14.3744C20.9591 14.2093 20.88 14.0368 20.7567 13.9194C20.6341 13.8027 20.4554 13.7249 20.2814 13.7249C19.1131 13.7249 15.9189 13.7249 13.0478 13.7249V11.2149Z" fill="black"/>
</svg>
