<svg width="24" height="24" viewBox="0 0 24 24" fill="none" xmlns="http://www.w3.org/2000/svg">
    <path d="M22 12.239C22 18.0691 18.0287 22.2181 12.1639 22.2181C6.54098 22.2181 2 17.6529 2 12C2 6.34706 6.54098 1.78186 12.1639 1.78186C14.9016 1.78186 17.2049 2.79131 18.9795 4.45588L16.2131 7.1299C12.5943 3.61948 5.86475 6.25641 5.86475 12C5.86475 15.564 8.69672 18.4522 12.1639 18.4522C16.1885 18.4522 17.6967 15.5516 17.9344 14.0477H12.1639V10.5332H21.8402C21.9344 11.0565 22 11.5591 22 12.239Z" fill="#2891FF"/>
    <mask id="mask0" mask-type="alpha" maskUnits="userSpaceOnUse" x="2" y="1" width="20" height="22">
        <path d="M22 12.239C22 18.0691 18.0287 22.2181 12.1639 22.2181C6.54098 22.2181 2 17.6529 2 12C2 6.34706 6.54098 1.78186 12.1639 1.78186C14.9016 1.78186 17.2049 2.79131 18.9795 4.45588L16.2131 7.1299C12.5943 3.61948 5.86475 6.25641 5.86475 12C5.86475 15.564 8.69672 18.4522 12.1639 18.4522C16.1885 18.4522 17.6967 15.5516 17.9344 14.0477H12.1639V10.5332H21.8402C21.9344 11.0565 22 11.5591 22 12.239Z" fill="white"/>
    </mask>
    <g mask="url(#mask0)">
    </g>
</svg>
