<svg width="35" height="28" xmlns="http://www.w3.org/2000/svg"><path d="M18.298 11.895l8.165 6.628c.75.612.864 1.711.252 2.466l-.52.64a1.747 1.747 0 01-2.46.257l-.296-.24-1.717 2.11a2.032 2.032 0 01-2.86.296l-.98-.848-.01.01a3.5 3.5 0 01-4.922.51L8 19.243H7V7l2.991-2.986a1.747 1.747 0 011.236-.514h4.583l-4.473 4.096a3.94 3.94 0 00-.24 5.562 3.943 3.943 0 005.56.24l1.641-1.503zM23.772 3.5h-4.697a1.75 1.75 0 00-1.182.46L12.517 8.88c-.005.006-.01.017-.016.022a2.175 2.175 0 00-.115 3.063c.695.76 2.155.962 3.068.147.006-.005.017-.005.022-.01l4.37-4.004a.874.874 0 111.181 1.29L19.6 10.698l7.962 6.464c.159.131.3.273.432.421V7l-2.986-2.986a1.738 1.738 0 00-1.236-.514zM0 21V7.01h5.25v12.24c0 .968-.782 1.75-1.75 1.75H0zm29.75-1.745V7.011H35v13.994h-3.5c-.968 0-1.75-.782-1.75-1.75zm-27.125-1.75c.481 0 .875.394.875.875a.878.878 0 01-.875.875.874.874 0 110-1.75zm29.75 1.75a.878.878 0 01-.875-.875c0-.48.394-.875.875-.875s.875.394.875.875a.878.878 0 01-.875.875z" fill="#FFF" fill-rule="evenodd"/><path d="M0 0h35v28H0V0z" fill="none"/></svg>