<svg width="16" height="16" xmlns="http://www.w3.org/2000/svg"><path d="M2.686 7.987c0-2.9 2.388-5.25 5.333-5.25 2.946 0 5.334 2.35 5.334 5.25s-2.388 5.25-5.334 5.25c-2.946 0-5.333-2.35-5.333-5.25zm6.012 1.248c0-1.166.762-.873 1.316-1.602.75-.987.587-2.099-.43-2.891-1.163-.907-2.479-.457-2.846-.212-.305.204-1.385.962-1.177 2.591l1.278.003s.003-.152.003-.453c0-.893.582-1.206 1.164-1.206.346 0 .642.031.88.32.553.675-.065 1.33-.77 1.677-.498.246-.734.661-.734 1.24v1.296h1.316v-.763zm0 2.536H7.382v-1.33h1.316v1.33z" fill="#2891FF" fill-rule="evenodd"/><path d="M0 0h16v16H0V0z" fill="none"/></svg>