<svg width="24" height="24" viewBox="0 0 24 24" fill="none" xmlns="http://www.w3.org/2000/svg">
    <path fill-rule="evenodd" clip-rule="evenodd" d="M4.2817 3.25H19.7143C20.4214 3.25 21 3.81641 21 4.51172V19.4883C21 20.1836 20.4214 20.75 19.7143 20.75H4.2817C3.57455 20.75 3 20.1836 3 19.4883V4.51172C3 3.81641 3.57455 3.25 4.2817 3.25ZM5.77232 18.25H8.44018H8.4442V9.89844H5.77232V18.25ZM7.10625 8.75781C6.25045 8.75781 5.55938 8.08203 5.55938 7.25391C5.55938 6.42578 6.25045 5.75 7.10625 5.75C7.95804 5.75 8.65312 6.42578 8.65312 7.25391C8.65312 8.08594 7.96205 8.75781 7.10625 8.75781ZM15.7728 18.25H18.4406V13.6719C18.4406 11.4219 17.9384 9.69141 15.2384 9.69141C13.9406 9.69141 13.0688 10.3828 12.7112 11.0391H12.675V9.89844H10.1156V18.25H12.7835V14.1172C12.7835 13.0273 12.9964 11.9727 14.3866 11.9727C15.7527 11.9727 15.7728 13.2188 15.7728 14.1875V18.25Z" fill="#2891FF"/>
    <mask id="mask0" mask-type="alpha" maskUnits="userSpaceOnUse" x="3" y="3" width="18" height="18">
        <path fill-rule="evenodd" clip-rule="evenodd" d="M4.2817 3.25H19.7143C20.4214 3.25 21 3.81641 21 4.51172V19.4883C21 20.1836 20.4214 20.75 19.7143 20.75H4.2817C3.57455 20.75 3 20.1836 3 19.4883V4.51172C3 3.81641 3.57455 3.25 4.2817 3.25ZM5.77232 18.25H8.44018H8.4442V9.89844H5.77232V18.25ZM7.10625 8.75781C6.25045 8.75781 5.55938 8.08203 5.55938 7.25391C5.55938 6.42578 6.25045 5.75 7.10625 5.75C7.95804 5.75 8.65312 6.42578 8.65312 7.25391C8.65312 8.08594 7.96205 8.75781 7.10625 8.75781ZM15.7728 18.25H18.4406V13.6719C18.4406 11.4219 17.9384 9.69141 15.2384 9.69141C13.9406 9.69141 13.0688 10.3828 12.7112 11.0391H12.675V9.89844H10.1156V18.25H12.7835V14.1172C12.7835 13.0273 12.9964 11.9727 14.3866 11.9727C15.7527 11.9727 15.7728 13.2188 15.7728 14.1875V18.25Z" fill="white"/>
    </mask>
    <g mask="url(#mask0)">
    </g>
</svg>
