<?xml version="1.0" encoding="utf-8"?>
<svg width="32px" height="32px" viewBox="0 0 32 32" version="1.1" xmlns:xlink="http://www.w3.org/1999/xlink" xmlns="http://www.w3.org/2000/svg">
  <desc>Created with Lunacy</desc>
  <defs>
    <path d="M2.999 0L3.001 0Q3.14833 0 3.29495 0.014441Q3.44158 0.028882 3.58608 0.0576249Q3.73058 0.0863679 3.87156 0.129136Q4.01255 0.171904 4.14867 0.228285Q4.28478 0.284667 4.41472 0.354118Q4.54465 0.42357 4.66715 0.505423Q4.78966 0.587276 4.90355 0.680742Q5.01743 0.774208 5.12161 0.878387Q5.22579 0.982566 5.31926 1.09645Q5.41272 1.21034 5.49458 1.33284Q5.57643 1.45535 5.64588 1.58528Q5.71533 1.71522 5.77171 1.85133Q5.8281 1.98745 5.87086 2.12844Q5.91363 2.26942 5.94237 2.41392Q5.97112 2.55842 5.98556 2.70505Q6 2.85167 6 2.999L6 3.001Q6 3.14833 5.98556 3.29495Q5.97112 3.44158 5.94237 3.58608Q5.91363 3.73058 5.87086 3.87156Q5.8281 4.01255 5.77171 4.14867Q5.71533 4.28478 5.64588 4.41472Q5.57643 4.54465 5.49458 4.66715Q5.41272 4.78966 5.31926 4.90355Q5.22579 5.01743 5.12161 5.12161Q5.01743 5.22579 4.90355 5.31926Q4.78966 5.41272 4.66715 5.49458Q4.54465 5.57643 4.41472 5.64588Q4.28478 5.71533 4.14867 5.77171Q4.01255 5.8281 3.87156 5.87086Q3.73058 5.91363 3.58608 5.94237Q3.44158 5.97112 3.29495 5.98556Q3.14833 6 3.001 6L2.999 6Q2.85167 6 2.70505 5.98556Q2.55842 5.97112 2.41392 5.94237Q2.26942 5.91363 2.12844 5.87086Q1.98745 5.8281 1.85133 5.77171Q1.71522 5.71533 1.58528 5.64588Q1.45535 5.57643 1.33284 5.49458Q1.21034 5.41272 1.09645 5.31926Q0.982566 5.22579 0.878387 5.12161Q0.774208 5.01743 0.680742 4.90355Q0.587276 4.78966 0.505423 4.66715Q0.42357 4.54465 0.354118 4.41472Q0.284667 4.28478 0.228285 4.14867Q0.171904 4.01255 0.129136 3.87156Q0.0863679 3.73058 0.0576249 3.58608Q0.028882 3.44158 0.014441 3.29495Q0 3.14833 0 3.001L0 2.999Q0 2.85167 0.014441 2.70505Q0.028882 2.55842 0.0576249 2.41392Q0.0863679 2.26942 0.129136 2.12844Q0.171904 1.98745 0.228285 1.85133Q0.284667 1.71522 0.354118 1.58528Q0.42357 1.45535 0.505423 1.33284Q0.587276 1.21034 0.680742 1.09645Q0.774208 0.982566 0.878387 0.878387Q0.982566 0.774208 1.09645 0.680742Q1.21034 0.587276 1.33284 0.505423Q1.45535 0.42357 1.58528 0.354118Q1.71522 0.284667 1.85133 0.228285Q1.98745 0.171904 2.12844 0.129136Q2.26942 0.0863679 2.41392 0.0576249Q2.55842 0.028882 2.70505 0.014441Q2.85167 0 2.999 0L2.999 0Z" transform="translate(4 5)" id="path_1" />
    <path d="M2.999 0L3.001 0Q3.14833 0 3.29495 0.014441Q3.44158 0.028882 3.58608 0.0576249Q3.73058 0.0863679 3.87156 0.129136Q4.01255 0.171904 4.14867 0.228285Q4.28478 0.284667 4.41472 0.354118Q4.54465 0.42357 4.66715 0.505423Q4.78966 0.587276 4.90355 0.680742Q5.01743 0.774208 5.12161 0.878387Q5.22579 0.982566 5.31926 1.09645Q5.41272 1.21034 5.49458 1.33284Q5.57643 1.45535 5.64588 1.58528Q5.71533 1.71522 5.77171 1.85133Q5.8281 1.98745 5.87086 2.12844Q5.91363 2.26942 5.94237 2.41392Q5.97112 2.55842 5.98556 2.70505Q6 2.85167 6 2.999L6 3.001Q6 3.14833 5.98556 3.29495Q5.97112 3.44158 5.94237 3.58608Q5.91363 3.73058 5.87086 3.87156Q5.8281 4.01255 5.77171 4.14867Q5.71533 4.28478 5.64588 4.41472Q5.57643 4.54465 5.49458 4.66715Q5.41272 4.78966 5.31926 4.90355Q5.22579 5.01743 5.12161 5.12161Q5.01743 5.22579 4.90355 5.31926Q4.78966 5.41272 4.66715 5.49458Q4.54465 5.57643 4.41472 5.64588Q4.28478 5.71533 4.14867 5.77171Q4.01255 5.8281 3.87156 5.87086Q3.73058 5.91363 3.58608 5.94237Q3.44158 5.97112 3.29495 5.98556Q3.14833 6 3.001 6L2.999 6Q2.85167 6 2.70505 5.98556Q2.55842 5.97112 2.41392 5.94237Q2.26942 5.91363 2.12844 5.87086Q1.98745 5.8281 1.85133 5.77171Q1.71522 5.71533 1.58528 5.64588Q1.45535 5.57643 1.33284 5.49458Q1.21034 5.41272 1.09645 5.31926Q0.982566 5.22579 0.878387 5.12161Q0.774208 5.01743 0.680742 4.90355Q0.587276 4.78966 0.505423 4.66715Q0.42357 4.54465 0.354118 4.41472Q0.284667 4.28478 0.228285 4.14867Q0.171904 4.01255 0.129136 3.87156Q0.0863679 3.73058 0.0576249 3.58608Q0.028882 3.44158 0.014441 3.29495Q0 3.14833 0 3.001L0 2.999Q0 2.85167 0.014441 2.70505Q0.028882 2.55842 0.0576249 2.41392Q0.0863679 2.26942 0.129136 2.12844Q0.171904 1.98745 0.228285 1.85133Q0.284667 1.71522 0.354118 1.58528Q0.42357 1.45535 0.505423 1.33284Q0.587276 1.21034 0.680742 1.09645Q0.774208 0.982566 0.878387 0.878387Q0.982566 0.774208 1.09645 0.680742Q1.21034 0.587276 1.33284 0.505423Q1.45535 0.42357 1.58528 0.354118Q1.71522 0.284667 1.85133 0.228285Q1.98745 0.171904 2.12844 0.129136Q2.26942 0.0863679 2.41392 0.0576249Q2.55842 0.028882 2.70505 0.014441Q2.85167 0 2.999 0L2.999 0Z" transform="translate(4 13)" id="path_2" />
    <path d="M2.999 0L3.001 0Q3.14833 0 3.29495 0.014441Q3.44158 0.028882 3.58608 0.0576249Q3.73058 0.0863679 3.87156 0.129136Q4.01255 0.171904 4.14867 0.228285Q4.28478 0.284667 4.41472 0.354118Q4.54465 0.42357 4.66715 0.505423Q4.78966 0.587276 4.90355 0.680742Q5.01743 0.774208 5.12161 0.878387Q5.22579 0.982566 5.31926 1.09645Q5.41272 1.21034 5.49458 1.33284Q5.57643 1.45535 5.64588 1.58528Q5.71533 1.71522 5.77171 1.85133Q5.8281 1.98745 5.87086 2.12844Q5.91363 2.26942 5.94237 2.41392Q5.97112 2.55842 5.98556 2.70505Q6 2.85167 6 2.999L6 3.001Q6 3.14833 5.98556 3.29495Q5.97112 3.44158 5.94237 3.58608Q5.91363 3.73058 5.87086 3.87156Q5.8281 4.01255 5.77171 4.14867Q5.71533 4.28478 5.64588 4.41472Q5.57643 4.54465 5.49458 4.66715Q5.41272 4.78966 5.31926 4.90355Q5.22579 5.01743 5.12161 5.12161Q5.01743 5.22579 4.90355 5.31926Q4.78966 5.41272 4.66715 5.49458Q4.54465 5.57643 4.41472 5.64588Q4.28478 5.71533 4.14867 5.77171Q4.01255 5.8281 3.87156 5.87086Q3.73058 5.91363 3.58608 5.94237Q3.44158 5.97112 3.29495 5.98556Q3.14833 6 3.001 6L2.999 6Q2.85167 6 2.70505 5.98556Q2.55842 5.97112 2.41392 5.94237Q2.26942 5.91363 2.12844 5.87086Q1.98745 5.8281 1.85133 5.77171Q1.71522 5.71533 1.58528 5.64588Q1.45535 5.57643 1.33284 5.49458Q1.21034 5.41272 1.09645 5.31926Q0.982566 5.22579 0.878387 5.12161Q0.774208 5.01743 0.680742 4.90355Q0.587276 4.78966 0.505423 4.66715Q0.42357 4.54465 0.354118 4.41472Q0.284667 4.28478 0.228285 4.14867Q0.171904 4.01255 0.129136 3.87156Q0.0863679 3.73058 0.0576249 3.58608Q0.028882 3.44158 0.014441 3.29495Q0 3.14833 0 3.001L0 2.999Q0 2.85167 0.014441 2.70505Q0.028882 2.55842 0.0576249 2.41392Q0.0863679 2.26942 0.129136 2.12844Q0.171904 1.98745 0.228285 1.85133Q0.284667 1.71522 0.354118 1.58528Q0.42357 1.45535 0.505423 1.33284Q0.587276 1.21034 0.680742 1.09645Q0.774208 0.982566 0.878387 0.878387Q0.982566 0.774208 1.09645 0.680742Q1.21034 0.587276 1.33284 0.505423Q1.45535 0.42357 1.58528 0.354118Q1.71522 0.284667 1.85133 0.228285Q1.98745 0.171904 2.12844 0.129136Q2.26942 0.0863679 2.41392 0.0576249Q2.55842 0.028882 2.70505 0.014441Q2.85167 0 2.999 0L2.999 0Z" transform="translate(4 21)" id="path_3" />
    <path d="M2.999 0L13.001 0Q13.1483 0 13.295 0.014441Q13.4416 0.028882 13.5861 0.0576249Q13.7306 0.0863679 13.8716 0.129136Q14.0126 0.171904 14.1487 0.228285Q14.2848 0.284667 14.4147 0.354118Q14.5447 0.42357 14.6672 0.505423Q14.7897 0.587276 14.9035 0.680742Q15.0174 0.774208 15.1216 0.878387Q15.2258 0.982566 15.3193 1.09645Q15.4127 1.21034 15.4946 1.33284Q15.5764 1.45535 15.6459 1.58528Q15.7153 1.71522 15.7717 1.85133Q15.8281 1.98745 15.8709 2.12844Q15.9136 2.26942 15.9424 2.41392Q15.9711 2.55842 15.9856 2.70505Q16 2.85167 16 2.999L16 3.001Q16 3.14833 15.9856 3.29495Q15.9711 3.44158 15.9424 3.58608Q15.9136 3.73058 15.8709 3.87156Q15.8281 4.01255 15.7717 4.14867Q15.7153 4.28478 15.6459 4.41472Q15.5764 4.54465 15.4946 4.66715Q15.4127 4.78966 15.3193 4.90355Q15.2258 5.01743 15.1216 5.12161Q15.0174 5.22579 14.9035 5.31926Q14.7897 5.41272 14.6672 5.49458Q14.5447 5.57643 14.4147 5.64588Q14.2848 5.71533 14.1487 5.77171Q14.0126 5.8281 13.8716 5.87086Q13.7306 5.91363 13.5861 5.94237Q13.4416 5.97112 13.295 5.98556Q13.1483 6 13.001 6L2.999 6Q2.85167 6 2.70505 5.98556Q2.55842 5.97112 2.41392 5.94237Q2.26942 5.91363 2.12844 5.87086Q1.98745 5.8281 1.85133 5.77171Q1.71522 5.71533 1.58528 5.64588Q1.45535 5.57643 1.33284 5.49458Q1.21034 5.41272 1.09645 5.31926Q0.982566 5.22579 0.878387 5.12161Q0.774208 5.01743 0.680742 4.90355Q0.587276 4.78966 0.505423 4.66715Q0.42357 4.54465 0.354118 4.41472Q0.284667 4.28478 0.228285 4.14867Q0.171904 4.01255 0.129136 3.87156Q0.0863679 3.73058 0.0576249 3.58608Q0.028882 3.44158 0.014441 3.29495Q0 3.14833 0 3.001L0 2.999Q0 2.85167 0.014441 2.70505Q0.028882 2.55842 0.0576249 2.41392Q0.0863679 2.26942 0.129136 2.12844Q0.171904 1.98745 0.228285 1.85133Q0.284667 1.71522 0.354118 1.58528Q0.42357 1.45535 0.505423 1.33284Q0.587276 1.21034 0.680742 1.09645Q0.774208 0.982566 0.878387 0.878387Q0.982566 0.774208 1.09645 0.680742Q1.21034 0.587276 1.33284 0.505423Q1.45535 0.42357 1.58528 0.354118Q1.71522 0.284667 1.85133 0.228285Q1.98745 0.171904 2.12844 0.129136Q2.26942 0.0863679 2.41392 0.0576249Q2.55842 0.028882 2.70505 0.014441Q2.85167 0 2.999 0Z" transform="translate(12 5)" id="path_4" />
    <path d="M2.999 0L13.001 0Q13.1483 0 13.295 0.014441Q13.4416 0.028882 13.5861 0.0576249Q13.7306 0.0863679 13.8716 0.129136Q14.0126 0.171904 14.1487 0.228285Q14.2848 0.284667 14.4147 0.354118Q14.5447 0.42357 14.6672 0.505423Q14.7897 0.587276 14.9035 0.680742Q15.0174 0.774208 15.1216 0.878387Q15.2258 0.982566 15.3193 1.09645Q15.4127 1.21034 15.4946 1.33284Q15.5764 1.45535 15.6459 1.58528Q15.7153 1.71522 15.7717 1.85133Q15.8281 1.98745 15.8709 2.12844Q15.9136 2.26942 15.9424 2.41392Q15.9711 2.55842 15.9856 2.70505Q16 2.85167 16 2.999L16 3.001Q16 3.14833 15.9856 3.29495Q15.9711 3.44158 15.9424 3.58608Q15.9136 3.73058 15.8709 3.87156Q15.8281 4.01255 15.7717 4.14867Q15.7153 4.28478 15.6459 4.41472Q15.5764 4.54465 15.4946 4.66715Q15.4127 4.78966 15.3193 4.90355Q15.2258 5.01743 15.1216 5.12161Q15.0174 5.22579 14.9035 5.31926Q14.7897 5.41272 14.6672 5.49458Q14.5447 5.57643 14.4147 5.64588Q14.2848 5.71533 14.1487 5.77171Q14.0126 5.8281 13.8716 5.87086Q13.7306 5.91363 13.5861 5.94237Q13.4416 5.97112 13.295 5.98556Q13.1483 6 13.001 6L2.999 6Q2.85167 6 2.70505 5.98556Q2.55842 5.97112 2.41392 5.94237Q2.26942 5.91363 2.12844 5.87086Q1.98745 5.8281 1.85133 5.77171Q1.71522 5.71533 1.58528 5.64588Q1.45535 5.57643 1.33284 5.49458Q1.21034 5.41272 1.09645 5.31926Q0.982566 5.22579 0.878387 5.12161Q0.774208 5.01743 0.680742 4.90355Q0.587276 4.78966 0.505423 4.66715Q0.42357 4.54465 0.354118 4.41472Q0.284667 4.28478 0.228285 4.14867Q0.171904 4.01255 0.129136 3.87156Q0.0863679 3.73058 0.0576249 3.58608Q0.028882 3.44158 0.014441 3.29495Q0 3.14833 0 3.001L0 2.999Q0 2.85167 0.014441 2.70505Q0.028882 2.55842 0.0576249 2.41392Q0.0863679 2.26942 0.129136 2.12844Q0.171904 1.98745 0.228285 1.85133Q0.284667 1.71522 0.354118 1.58528Q0.42357 1.45535 0.505423 1.33284Q0.587276 1.21034 0.680742 1.09645Q0.774208 0.982566 0.878387 0.878387Q0.982566 0.774208 1.09645 0.680742Q1.21034 0.587276 1.33284 0.505423Q1.45535 0.42357 1.58528 0.354118Q1.71522 0.284667 1.85133 0.228285Q1.98745 0.171904 2.12844 0.129136Q2.26942 0.0863679 2.41392 0.0576249Q2.55842 0.028882 2.70505 0.014441Q2.85167 0 2.999 0Z" transform="translate(12 13)" id="path_5" />
    <path d="M2.999 0L13.001 0Q13.1483 0 13.295 0.014441Q13.4416 0.028882 13.5861 0.0576249Q13.7306 0.0863679 13.8716 0.129136Q14.0126 0.171904 14.1487 0.228285Q14.2848 0.284667 14.4147 0.354118Q14.5447 0.42357 14.6672 0.505423Q14.7897 0.587276 14.9035 0.680742Q15.0174 0.774208 15.1216 0.878387Q15.2258 0.982566 15.3193 1.09645Q15.4127 1.21034 15.4946 1.33284Q15.5764 1.45535 15.6459 1.58528Q15.7153 1.71522 15.7717 1.85133Q15.8281 1.98745 15.8709 2.12844Q15.9136 2.26942 15.9424 2.41392Q15.9711 2.55842 15.9856 2.70505Q16 2.85167 16 2.999L16 3.001Q16 3.14833 15.9856 3.29495Q15.9711 3.44158 15.9424 3.58608Q15.9136 3.73058 15.8709 3.87156Q15.8281 4.01255 15.7717 4.14867Q15.7153 4.28478 15.6459 4.41472Q15.5764 4.54465 15.4946 4.66715Q15.4127 4.78966 15.3193 4.90355Q15.2258 5.01743 15.1216 5.12161Q15.0174 5.22579 14.9035 5.31926Q14.7897 5.41272 14.6672 5.49458Q14.5447 5.57643 14.4147 5.64588Q14.2848 5.71533 14.1487 5.77171Q14.0126 5.8281 13.8716 5.87086Q13.7306 5.91363 13.5861 5.94237Q13.4416 5.97112 13.295 5.98556Q13.1483 6 13.001 6L2.999 6Q2.85167 6 2.70505 5.98556Q2.55842 5.97112 2.41392 5.94237Q2.26942 5.91363 2.12844 5.87086Q1.98745 5.8281 1.85133 5.77171Q1.71522 5.71533 1.58528 5.64588Q1.45535 5.57643 1.33284 5.49458Q1.21034 5.41272 1.09645 5.31926Q0.982566 5.22579 0.878387 5.12161Q0.774208 5.01743 0.680742 4.90355Q0.587276 4.78966 0.505423 4.66715Q0.42357 4.54465 0.354118 4.41472Q0.284667 4.28478 0.228285 4.14867Q0.171904 4.01255 0.129136 3.87156Q0.0863679 3.73058 0.0576249 3.58608Q0.028882 3.44158 0.014441 3.29495Q0 3.14833 0 3.001L0 2.999Q0 2.85167 0.014441 2.70505Q0.028882 2.55842 0.0576249 2.41392Q0.0863679 2.26942 0.129136 2.12844Q0.171904 1.98745 0.228285 1.85133Q0.284667 1.71522 0.354118 1.58528Q0.42357 1.45535 0.505423 1.33284Q0.587276 1.21034 0.680742 1.09645Q0.774208 0.982566 0.878387 0.878387Q0.982566 0.774208 1.09645 0.680742Q1.21034 0.587276 1.33284 0.505423Q1.45535 0.42357 1.58528 0.354118Q1.71522 0.284667 1.85133 0.228285Q1.98745 0.171904 2.12844 0.129136Q2.26942 0.0863679 2.41392 0.0576249Q2.55842 0.028882 2.70505 0.014441Q2.85167 0 2.999 0Z" transform="translate(12 21)" id="path_6" />
    <path d="M3.999 0L28.001 0Q28.1975 0 28.393 0.0192563Q28.5885 0.0385126 28.7812 0.0768397Q28.9739 0.115167 29.1618 0.172196Q29.3498 0.229224 29.5313 0.304406Q29.7129 0.379587 29.8861 0.472197Q30.0594 0.564807 30.2227 0.673953Q30.3861 0.783099 30.5379 0.907731Q30.6898 1.03236 30.8287 1.17128Q30.9676 1.3102 31.0923 1.46206Q31.2169 1.61393 31.326 1.77727Q31.4352 1.94062 31.5278 2.11388Q31.6204 2.28715 31.6956 2.46865Q31.7708 2.65015 31.8278 2.83815Q31.8848 3.02615 31.9232 3.21883Q31.9615 3.41152 31.9807 3.60703Q32 3.80254 32 3.999L32 28.001Q32 28.1975 31.9807 28.393Q31.9615 28.5885 31.9232 28.7812Q31.8848 28.9739 31.8278 29.1618Q31.7708 29.3498 31.6956 29.5313Q31.6204 29.7129 31.5278 29.8861Q31.4352 30.0594 31.326 30.2227Q31.2169 30.3861 31.0923 30.5379Q30.9676 30.6898 30.8287 30.8287Q30.6898 30.9676 30.5379 31.0923Q30.3861 31.2169 30.2227 31.326Q30.0594 31.4352 29.8861 31.5278Q29.7129 31.6204 29.5313 31.6956Q29.3498 31.7708 29.1618 31.8278Q28.9739 31.8848 28.7812 31.9232Q28.5885 31.9615 28.393 31.9807Q28.1975 32 28.001 32L3.999 32Q3.80254 32 3.60703 31.9807Q3.41152 31.9615 3.21883 31.9232Q3.02615 31.8848 2.83815 31.8278Q2.65015 31.7708 2.46865 31.6956Q2.28715 31.6204 2.11388 31.5278Q1.94062 31.4352 1.77727 31.326Q1.61393 31.2169 1.46206 31.0923Q1.3102 30.9676 1.17128 30.8287Q1.03236 30.6898 0.907731 30.5379Q0.783099 30.3861 0.673953 30.2227Q0.564807 30.0594 0.472197 29.8861Q0.379587 29.7129 0.304406 29.5313Q0.229224 29.3498 0.172196 29.1618Q0.115167 28.9739 0.0768396 28.7812Q0.0385126 28.5885 0.0192563 28.393Q0 28.1975 0 28.001L0 3.999Q0 3.80254 0.0192563 3.60703Q0.0385126 3.41152 0.0768397 3.21883Q0.115167 3.02615 0.172196 2.83815Q0.229224 2.65015 0.304406 2.46865Q0.379587 2.28715 0.472197 2.11388Q0.564807 1.94062 0.673953 1.77727Q0.783099 1.61393 0.907731 1.46206Q1.03236 1.3102 1.17128 1.17128Q1.3102 1.03236 1.46206 0.907731Q1.61393 0.783099 1.77727 0.673953Q1.94062 0.564807 2.11388 0.472197Q2.28715 0.379587 2.46865 0.304406Q2.65015 0.229224 2.83815 0.172196Q3.02615 0.115167 3.21883 0.0768396Q3.41152 0.0385126 3.60703 0.0192563Q3.80254 0 3.999 0L3.999 0Z" id="path_7" />
    <clipPath id="clip_1">
      <use xlink:href="#path_1" />
    </clipPath>
    <clipPath id="clip_2">
      <use xlink:href="#path_2" />
    </clipPath>
    <clipPath id="clip_3">
      <use xlink:href="#path_3" />
    </clipPath>
    <clipPath id="clip_4">
      <use xlink:href="#path_4" />
    </clipPath>
    <clipPath id="clip_5">
      <use xlink:href="#path_5" />
    </clipPath>
    <clipPath id="clip_6">
      <use xlink:href="#path_6" />
    </clipPath>
    <clipPath id="clip_7">
      <use xlink:href="#path_7" />
    </clipPath>
  </defs>
  <g id="Group-5">
    <g id="Rectangle-Copy-4">
      <g clip-path="url(#clip_1)">
        <use xlink:href="#path_1" fill="none" stroke="#000000" stroke-width="2" />
      </g>
    </g>
    <g id="Rectangle-Copy-6">
      <g clip-path="url(#clip_2)">
        <use xlink:href="#path_2" fill="none" stroke="#000000" stroke-width="2" />
      </g>
    </g>
    <g id="Rectangle-Copy-8">
      <g clip-path="url(#clip_3)">
        <use xlink:href="#path_3" fill="none" stroke="#000000" stroke-width="2" />
      </g>
    </g>
    <g id="Rectangle-Copy-5">
      <g clip-path="url(#clip_4)">
        <use xlink:href="#path_4" fill="none" stroke="#000000" stroke-width="2" />
      </g>
    </g>
    <g id="Rectangle-Copy-7">
      <g clip-path="url(#clip_5)">
        <use xlink:href="#path_5" fill="none" stroke="#000000" stroke-width="2" />
      </g>
    </g>
    <g id="Rectangle-Copy-9">
      <g clip-path="url(#clip_6)">
        <use xlink:href="#path_6" fill="none" stroke="#000000" stroke-width="2" />
      </g>
    </g>
    <g id="Rectangle-Copy-10">
      <g clip-path="url(#clip_7)">
        <use xlink:href="#path_7" fill="none" stroke="#000000" stroke-width="2" />
      </g>
    </g>
  </g>
</svg>