<svg width="43" height="43" xmlns:xlink="http://www.w3.org/1999/xlink" xmlns="http://www.w3.org/2000/svg"><defs><clipPath id="b"><use xlink:href="#a"/></clipPath><path d="M21.499 0h.002q.528 0 1.055.026.527.026 1.052.078.526.051 1.048.129.522.077 1.04.18.517.103 1.029.231.512.129 1.017.282.505.153 1.002.33.497.179.984.38.488.202.965.428.477.226.943.475.465.248.918.52.452.271.891.564.439.293.863.608.424.314.832.649t.799.69q.39.354.764.727.373.373.728.764.354.391.689.8.335.407.65.831.313.424.607.863.293.439.564.891.272.453.52.918.25.466.475.943.225.477.428.965.202.487.38.984.177.497.33 1.002.154.505.282 1.017.128.512.23 1.03.104.517.181 1.04.078.521.13 1.047.051.525.077 1.052.026.527.026 1.055v.002q0 .528-.026 1.055-.026.527-.077 1.052-.052.526-.13 1.048-.077.522-.18 1.04-.103.517-.231 1.029-.129.512-.282 1.017-.153.505-.33 1.002-.178.497-.38.984-.203.488-.428.965-.226.477-.475.943-.248.465-.52.918-.271.452-.564.891-.294.439-.608.863t-.649.832q-.335.408-.69.799-.354.39-.727.764-.373.373-.764.728-.391.354-.8.689-.407.335-.831.65-.424.313-.863.607-.439.293-.891.564-.453.272-.918.52-.466.25-.943.475-.477.225-.965.428-.487.202-.984.38-.497.177-1.002.33-.505.154-1.017.282-.512.128-1.03.23-.517.104-1.04.181-.521.078-1.047.13-.525.051-1.052.077Q22.029 43 21.5 43h-.002q-.528 0-1.055-.026-.527-.026-1.052-.077-.526-.052-1.048-.13-.522-.077-1.04-.18-.517-.103-1.029-.231-.512-.129-1.017-.282-.505-.153-1.002-.33-.497-.178-.984-.38-.488-.203-.965-.428-.477-.226-.943-.475-.465-.248-.918-.52-.452-.271-.891-.564-.439-.294-.863-.608t-.832-.649q-.408-.335-.799-.69-.39-.354-.764-.727-.373-.373-.728-.764-.354-.391-.689-.8-.335-.407-.65-.831-.314-.424-.607-.863t-.564-.891q-.272-.453-.52-.918-.25-.466-.475-.943-.226-.477-.427-.965-.202-.487-.38-.984t-.331-1.002q-.153-.505-.282-1.017-.128-.512-.23-1.03-.104-.517-.181-1.04-.078-.521-.13-1.047-.051-.525-.077-1.052Q0 22.029 0 21.5v-.002q0-.528.026-1.055.026-.527.078-1.052.051-.526.129-1.048.077-.522.18-1.04.103-.517.231-1.029.129-.512.282-1.017.153-.505.33-1.002.179-.497.38-.984.202-.488.428-.965.226-.477.475-.943.248-.465.52-.918.271-.452.564-.891.293-.439.608-.863.314-.424.649-.832t.69-.799q.354-.39.727-.764.373-.373.764-.728.391-.354.8-.689.407-.335.831-.65.424-.314.863-.607t.891-.564q.453-.272.918-.52.466-.25.943-.475.477-.226.965-.427.487-.202.984-.38t1.002-.331q.505-.153 1.017-.282.512-.128 1.03-.23.517-.104 1.04-.181.521-.078 1.047-.13.525-.051 1.052-.077Q20.971 0 21.5 0z" id="a"/></defs><use fill="#FFF" xlink:href="#a"/><g clip-path="url(#b)"><use xlink:href="#a" fill="none" stroke="#2891FF" stroke-width="2"/></g><g fill="#2891FF"><path d="M18.686 25.564v7.939h-2.461V12.497h5.771q3.37 0 5.223 1.64 1.853 1.641 1.853 4.63 0 2.988-2.059 4.892-2.058 1.904-5.559 1.904h-2.768zm0-10.84v8.613h2.578q2.549 0 3.889-1.165 1.34-1.164 1.34-3.288 0-4.16-4.921-4.16h-2.886z"/></g></svg>