<svg width="20" height="20" fill="none" xmlns="http://www.w3.org/2000/svg">
    <g clip-path="url(#clip0)">
        <path d="M17.071 2.929A9.935 9.935 0 0010 0a9.935 9.935 0 00-7.071 2.929A9.935 9.935 0 000 10a9.935 9.935 0 002.929 7.071A9.935 9.935 0 0010 20a9.935 9.935 0 007.071-2.929A9.935 9.935 0 0020 10a9.935 9.935 0 00-2.929-7.071zm.005 9.388L18.76 11.1a8.735 8.735 0 01-1.046 3.197l-.638-1.98zm-.79-.876l-2.796-.922-.97-2.987 1.737-2.375 3.129.005a8.751 8.751 0 011.432 4.448l-2.532 1.83zM10 12.455l-2.334-1.697.891-2.744h2.886l.892 2.745L10 12.454zm-3.489-1.939l-2.8.907-2.528-1.838A8.75 8.75 0 012.628 5.14l3.128.003L7.481 7.53l-.97 2.986zm-4.238 3.76a8.738 8.738 0 01-1.036-3.201l1.68 1.222-.644 1.978zM16.462 3.986l-2.075-.003-.64-1.981a8.83 8.83 0 012.715 1.984zm-4.115-2.5l.963 2.978-1.739 2.376h-3.14L6.706 4.456l.971-2.976A8.873 8.873 0 0110 1.173c.804 0 1.592.107 2.347.314zm-6.07.505l-.647 1.98-2.075-.003a8.83 8.83 0 012.721-1.977zm-3.173 13.52l.968-2.973 2.8-.907 2.542 1.846v2.944l-2.533 1.84a8.8 8.8 0 01-3.777-2.75zm5.214 3.155L10 17.447l1.682 1.221a8.915 8.915 0 01-3.364 0zm4.801-.405l-2.533-1.84v-2.944l2.539-1.844 2.795.921.96 2.976a8.802 8.802 0 01-3.76 2.73v.001z" fill="#000"/>
    </g>
    <defs>
        <clipPath id="clip0">
            <path fill="#fff" d="M0 0h20v20H0z"/>
        </clipPath>
    </defs>
</svg>