<?xml version="1.0" encoding="UTF-8"?>
<svg width="34px" height="29px" viewBox="0 0 34 29" version="1.1" xmlns="http://www.w3.org/2000/svg" xmlns:xlink="http://www.w3.org/1999/xlink">
    <!-- Generator: Sketch 61.2 (89653) - https://sketch.com -->
    <title>twitter</title>
    <desc>Created with Sketch.</desc>
    <g id="Symbols" stroke="none" stroke-width="1" fill="none" fill-rule="evenodd" opacity="0.5">
        <g id="Module/Footer" transform="translate(-1208.000000, -222.000000)" fill="#FFFFFF">
            <g id="Group-36">
                <g id="Group-5">
                    <g id="Footer">
                        <g id="Group-10">
                            <g id="Group-9">
                                <g id="twitter" transform="translate(1208.000000, 222.000000)">
                                    <path d="M29.9947174,4.58478983 C31.4355814,3.67997978 32.5411751,2.24526939 33.0600458,0.536183735 C31.710982,1.37606529 30.2202266,1.98346093 28.6296883,2.31229236 C27.3604508,0.888054312 25.546399,0 23.5387686,0 C19.6871515,0 16.5659447,3.27784198 16.5659447,7.32016467 C16.5659447,7.89404882 16.6238187,8.4532717 16.7435581,8.98736097 C10.9481716,8.68156868 5.80935611,5.77025856 2.36684862,1.33836487 C1.76615601,2.42329915 1.42290309,3.67997978 1.42290309,5.02043912 C1.42290309,7.55893399 2.65422316,9.80001444 4.52614897,11.1153402 C3.38263779,11.0776398 2.30697893,10.7446194 1.36502905,10.2000578 L1.36502905,10.2901199 C1.36502905,13.8381482 3.7677995,16.7976311 6.96284557,17.4678608 C6.37612256,17.6396071 5.76146035,17.7254803 5.12285027,17.7254803 C4.67382755,17.7254803 4.23478312,17.6814965 3.81170394,17.5956233 C4.69777543,20.5027445 7.27416799,22.6223458 10.3275225,22.6788964 C7.93872161,24.6435072 4.93126724,25.8122201 1.66437753,25.8122201 C1.10160239,25.8122201 0.544814228,25.7808031 0,25.7116857 C3.08728062,27.7873032 6.75330164,29 10.6927276,29 C23.524799,29 30.537536,17.8448649 30.537536,8.17051856 C30.537536,7.85215947 30.5335446,7.53589484 30.519575,7.22381915 C31.8826084,6.19124657 33.0680284,4.90105446 34,3.43283259 C32.7487234,4.01509461 31.4036509,4.40885454 29.9947174,4.58478983 Z" id="Shape"></path>
                                </g>
                            </g>
                        </g>
                    </g>
                </g>
            </g>
        </g>
    </g>
</svg>