<?xml version="1.0" encoding="UTF-8"?>
<svg width="19px" height="24px" viewBox="0 0 19 24" version="1.1" xmlns="http://www.w3.org/2000/svg" xmlns:xlink="http://www.w3.org/1999/xlink">
    <!-- Generator: Sketch 61.2 (89653) - https://sketch.com -->
    <title>003-man-user</title>
    <desc>Created with Sketch.</desc>
    <g id="Desktop-UI" stroke="none" stroke-width="1" fill="none" fill-rule="evenodd">
        <g id="1.0---Home---v1.5" transform="translate(-1355.000000, -75.000000)" fill="#FFFFFF" fill-rule="nonzero">
            <g id="Group-2" transform="translate(1254.000000, 75.000000)">
                <g id="Group-24">
                    <g id="003-man-user" transform="translate(100.000000, 0.000000)">
                        <path d="M10.000071,12 C12.7613391,12 15,9.31373523 15,6.00003505 C15,2.68626477 14.2650148,0 10.000071,0 C5.73512716,0 5,2.68626477 5,6.00003505 C5,9.31373523 7.23866088,12 10.000071,12 Z" id="Path"></path>
                        <path d="M1.00069282,21.0507804 C0.99949282,20.8531576 0.99829282,20.9951004 1.00069282,21.0507804 L1.00069282,21.0507804 Z" id="Path"></path>
                        <path d="M18.9989918,21.0897567 C19.0027918,21.0356538 19.0002918,20.7143967 18.9989918,21.0897567 L18.9989918,21.0897567 Z" id="Path"></path>
                        <path d="M19.9893642,20.4052247 C19.8962115,14.6691048 19.1285766,13.0346221 13.2543918,12 C13.2543918,12 12.4275104,13.0282828 10.5002141,13.0282828 C8.57291792,13.0282828 7.74589369,12 7.74589369,12 C1.93580939,13.0233368 1.12149104,14.6335772 1.01441903,20.2188784 C1.00563913,20.6749565 1.00157039,20.6989202 1,20.645977 C1.00035691,20.7451759 1.00078519,20.928666 1.00078519,21.2486242 C1.00078519,21.2486242 2.39928844,24 10.5002141,24 C18.6009971,24 19.9996431,21.2486242 19.9996431,21.2486242 C19.9996431,21.0430512 19.9997859,20.9001045 20,20.8028561 C19.9984296,20.8355974 19.9952888,20.7721351 19.9893642,20.4052247 Z" id="Path"></path>
                    </g>
                </g>
            </g>
        </g>
    </g>
</svg>