<svg width="22" height="22" xmlns="http://www.w3.org/2000/svg"><path d="M2.062 11c0-5.054 4.113-9.167 9.167-9.167 5.055 0 9.167 4.113 9.167 9.167 0 5.055-4.112 9.167-9.167 9.167-5.054 0-9.167-4.112-9.167-9.167zm8.25.917h5.272q.09 0 .179-.018.088-.018.172-.052.083-.035.158-.085t.139-.114q.064-.063.114-.138.05-.075.084-.159.035-.083.052-.171.018-.089.018-.179v-.002q0-.09-.018-.179-.017-.088-.052-.171-.034-.084-.084-.159t-.114-.138q-.064-.064-.139-.114-.075-.05-.158-.085-.084-.034-.172-.052-.089-.018-.179-.018h-3.438V6.416q0-.09-.018-.179-.017-.088-.052-.172-.034-.083-.084-.158t-.114-.139q-.064-.064-.14-.114-.074-.05-.157-.084-.084-.035-.172-.052-.089-.018-.179-.018h-.002q-.09 0-.178.018-.089.017-.172.052-.084.034-.159.084t-.138.114q-.064.064-.114.139-.05.075-.085.158-.034.084-.052.172-.018.088-.018.179v5.5z" fill="#2891FF" fill-rule="evenodd"/><path d="M0 0h22v22H0V0z" fill="none"/></svg>