<svg width="66" height="66" viewBox="0 0 66 66" fill="none" xmlns="http://www.w3.org/2000/svg">
    <path fill-rule="evenodd" clip-rule="evenodd" d="M60.3514 25.6708L66 33.0372L60.2027 40.3292L61.4662 49.4814L52.8446 52.9786L49.4257 61.6099L40.2838 60.345L32.9257 66L25.5676 60.345L16.4257 61.6099L13.0068 52.9786L4.38514 49.5558L5.64865 40.4036L0 33.0372L5.72297 25.5964L4.45946 16.4442L13.0811 13.0214L16.5 4.39008L25.6419 5.65502L33 0L40.4324 5.72942L49.5743 4.46449L52.9932 13.0958L61.6149 16.5186L60.3514 25.6708ZM19.5306 34.6463L30.3647 43.7755L46.4694 24.6939L43.6877 22.2245L29.9255 38.4626L21.8731 31.7279L19.5306 34.6463Z" fill="#9C9C9C"/>
</svg>
