<svg width="55" height="58" viewBox="0 0 55 58" fill="none" xmlns="http://www.w3.org/2000/svg">
    <path fill-rule="evenodd" clip-rule="evenodd" d="M8.29163 23.3218H33.4983L38.4087 27.2882V37.2039L33.5801 41.2529H8.29163L3.54492 37.2039V27.3708L8.29163 23.3218ZM15.5771 32.246C15.5771 35.2207 18.0323 37.6996 20.9786 37.6996C23.9248 37.6996 26.2982 35.2207 26.38 32.246C26.38 29.2712 23.9248 26.7923 20.9786 26.7923C18.0323 26.7923 15.5771 29.2712 15.5771 32.246Z" fill="#9C9C9C"/>
    <path fill-rule="evenodd" clip-rule="evenodd" d="M0.654547 19.1379H41.891C42.2183 19.1379 42.4638 19.3867 42.5456 19.8012V44.1758C42.5456 44.5904 42.2183 44.8391 41.891 44.8391H0.654547C0.245455 44.8391 0 44.5075 0 44.1758V19.8012C0 19.3867 0.327274 19.1379 0.654547 19.1379ZM39.6817 37.7092C39.8453 37.5434 39.9271 37.3775 39.9271 37.2117V26.7655C39.9271 26.5996 39.8453 26.3509 39.6817 26.268L34.4453 21.8739C34.4015 21.8517 34.3635 21.8295 34.3282 21.8089C34.232 21.7526 34.156 21.7081 34.0362 21.7081H8.34524C8.1816 21.7081 8.01797 21.791 7.93615 21.8739L2.78159 26.268C2.61795 26.4338 2.53613 26.5996 2.53613 26.7655V37.2117C2.53613 37.4604 2.61795 37.6263 2.78159 37.7092L7.93615 42.1032C7.97999 42.1255 8.01797 42.1477 8.05321 42.1683C8.14951 42.2246 8.22545 42.269 8.34524 42.269H34.0362C34.1999 42.269 34.3635 42.1861 34.4453 42.1032L39.6817 37.7092Z" fill="#9C9C9C"/>
    <path d="M41.3906 14.2368L41.9552 17.9426C41.7132 17.8654 41.4713 17.7882 41.2294 17.7882H9.45508L40.7455 13.7736C41.0681 13.6964 41.3906 13.928 41.3906 14.2368Z" fill="#9C9C9C"/>
    <path d="M44.9085 38.6222C44.9085 38.7898 44.9085 38.9573 44.8198 39.041C44.7312 39.2085 44.5539 39.2923 44.3767 39.2923L43.1357 39.4598V26.3104L44.9085 38.6222Z" fill="#9C9C9C"/>
    <path d="M52.0002 29C52.0002 43.3533 40.3949 55 26.0927 55C19.8814 55 13.8336 52.7035 9.09347 48.6025C8.84829 48.3565 8.76656 47.9464 9.01174 47.7003C9.25692 47.4543 9.58383 47.4543 9.91074 47.6183C14.4057 51.5552 20.1266 53.6877 26.0927 53.6877C39.7411 53.7697 50.7743 42.6151 50.7743 29C50.7743 15.3849 39.7411 4.23028 26.0927 4.23028C21.0256 4.23028 16.2037 5.70662 12.0356 8.65931L15.3865 9.15142C15.7134 9.23344 15.9585 9.4795 15.8768 9.88959C15.8768 10.2177 15.5499 10.3817 15.3047 10.3817H15.223L9.45461 10.1724C9.12771 10.0904 8.78198 9.90279 8.8637 9.57471L10.6463 4.14827C10.728 3.82019 10.9732 3.57413 11.3818 3.65615C11.7905 3.73817 11.9539 3.98423 11.8722 4.39432L11.3001 7.67508C15.6316 4.64038 20.6987 3 26.0927 3C40.3949 3 52.0002 14.6467 52.0002 29Z" fill="#9C9C9C" stroke="#9C9C9C" stroke-width="5"/>
    <path fill-rule="evenodd" clip-rule="evenodd" d="M20.3927 35.8736V35.2064C19.6463 35.123 18.8999 34.7894 18.3193 34.289L18.9828 33.5384C19.4804 33.9554 19.978 34.2056 20.4756 34.289V32.621C19.8122 32.4542 19.3146 32.2874 19.0657 32.0372C18.734 31.787 18.6511 31.37 18.6511 30.8696C18.6511 30.3692 18.8169 29.9522 19.1487 29.6186C19.4804 29.285 19.978 29.1182 20.4756 29.1182V28.7012H21.0562V29.1182C21.7197 29.2016 22.3002 29.3684 22.8808 29.7854L22.3002 30.6194C21.8855 30.3692 21.4709 30.2024 21.0562 30.119V31.7036C21.7197 31.8704 22.2173 32.0372 22.549 32.3708C22.8808 32.621 23.0466 33.038 23.0466 33.5384C23.0466 34.0388 22.8808 34.4558 22.549 34.7894C22.2173 35.123 21.7197 35.2898 21.1391 35.2898V35.8736H20.3927ZM19.8123 30.2857C19.6464 30.4525 19.5635 30.5359 19.5635 30.7861C19.5635 30.9529 19.6464 31.1197 19.7293 31.2031C19.8123 31.2865 20.0611 31.4533 20.3928 31.5367V30.0355C20.144 30.0355 19.9782 30.1189 19.8123 30.2857ZM21.884 33.5384C21.884 33.7052 21.8011 33.872 21.6352 34.0388C21.4694 34.2056 21.2206 34.289 21.0547 34.289V32.7044C21.286 32.7625 21.4366 32.8612 21.5629 32.9439C21.6177 32.9798 21.6679 33.0127 21.7182 33.038C21.8011 33.2048 21.884 33.3716 21.884 33.5384Z" fill="#9C9C9C"/>
</svg>
