<svg width="74" height="52" viewBox="0 0 74 52" fill="none" xmlns="http://www.w3.org/2000/svg">
    <path fill-rule="evenodd" clip-rule="evenodd" d="M73.8444 11.9701V19.1211V19.1988H34.2376C34.0042 21.6861 33.1483 24.0957 31.9033 26.1943H74V49.2018C74 50.7564 72.755 52 71.1987 52H15.0957C13.5394 52 12.2944 50.7564 12.2944 49.2018V33.6562C5.21346 31.5575 0 24.9507 0 17.1779C0 7.69507 7.70347 0 17.1966 0C23.7329 0 29.4911 3.73094 32.3701 9.1719H71.0431C72.5994 9.1719 73.8444 10.4155 73.8444 11.9701ZM17.1188 3.42003C9.41535 3.42003 3.19033 9.63827 3.19033 17.3333C3.19033 24.9507 9.41535 31.2466 17.1188 31.2466C24.8223 31.2466 31.0473 25.0284 31.0473 17.3333C31.0473 9.63827 24.8223 3.42003 17.1188 3.42003ZM28.2461 44.6936C28.2461 45.0822 27.9348 45.4709 27.4679 45.4709H20.3091C19.9201 45.4709 19.531 45.1599 19.531 44.6936V42.5949C19.531 42.2063 19.8423 41.8176 20.3091 41.8176H27.4679C27.857 41.8176 28.2461 42.1286 28.2461 42.5949V44.6936ZM58.5931 41.8954C58.1262 41.8954 57.8149 42.284 57.8149 42.6726V44.7713C57.8149 45.2377 58.204 45.5486 58.5931 45.5486H65.8297C66.2965 45.5486 66.6078 45.1599 66.6078 44.7713V42.6726C66.6078 42.2063 66.2187 41.8954 65.8297 41.8954H58.5931ZM45.0536 42.6726C45.0536 42.284 45.3649 41.8954 45.8318 41.8954H53.0683C53.4574 41.8954 53.8465 42.2063 53.8465 42.6726V44.7713C53.8465 45.1599 53.5352 45.5486 53.0683 45.5486H45.8318C45.4427 45.5486 45.0536 45.2377 45.0536 44.7713V42.6726ZM33.0705 41.8954C32.6036 41.8954 32.2923 42.284 32.2923 42.6726V44.7713C32.2923 45.2377 32.6814 45.5486 33.0705 45.5486H40.2292C40.6961 45.5486 41.0074 45.1599 41.0074 44.7713V42.6726C41.0074 42.2063 40.6183 41.8954 40.2292 41.8954H33.0705Z" fill="#9C9C9C"/>
    <path fill-rule="evenodd" clip-rule="evenodd" d="M24 24.1759V15.9612C24 15.5049 23.6154 15.1246 23.1538 15.1246H21.9231V12.7666C21.9231 10.1045 19.6923 7.89868 17 7.89868C14.3077 7.89868 12.0769 10.1045 12.0769 12.7666V15.1246H10.8462C10.3846 15.1246 10 15.5049 10 15.9612V24.1759C10 24.6323 10.3846 25.0126 10.8462 25.0126H23.0769C23.6154 25.0126 24 24.6323 24 24.1759ZM18.0769 21.8941C18.1538 22.1983 17.9231 22.4265 17.6923 22.4265H16.3846C16.0769 22.4265 15.9231 22.1983 16 21.8941L16.3846 20.3728C15.9231 20.1446 15.5385 19.6122 15.5385 19.0798C15.5385 18.2431 16.2308 17.6346 17 17.6346C17.8462 17.6346 18.4615 18.3192 18.4615 19.0798C18.4615 19.6122 18.1538 20.1446 17.6154 20.3728L18.0769 21.8941ZM14.5385 12.6906V15.0485H19.4615V12.6906C19.4615 11.3215 18.3846 10.2566 17 10.2566C15.6154 10.2566 14.5385 11.3215 14.5385 12.6906Z" fill="#9C9C9C"/>
</svg>
