<svg width="62" height="62" xmlns="http://www.w3.org/2000/svg"><g opacity=".7"><path d="M36.55 23.5h-.006c-9.512.017-17.224 7.764-17.226 17.362v1.909c-2.108 0-3.818 1.73-3.818 3.864 0 2.136 1.71 3.865 3.818 3.865 2.11 0 3.818-1.73 3.818-3.865v-5.773c.013-6.783 4.97-12.384 11.453-13.337v5.584h3.818V27.37l21.08.068.013-3.865h-.002L36.55 23.5" fill="#72C3E2" stroke="#000"/><path d="M23.5 46.5h8v-4h-8v4z" fill="#72C3E2"/><path d="M49.9 46.5h-3.8v3.667h-7.6v3.666h7.6V57.5h3.8v-3.667h7.6v-3.666h-7.6V46.5" fill="#72C3E2" stroke="#000"/><path d="M55.724 34.705H38.401v7.656h21.012c.505 0 1.024.237 1.38.593.358.358.588.885.588 1.388v11.483c0 3.172-2.623 5.675-5.798 5.675h-11.49c-5.288 0-9.522-4.216-9.522-9.502v-5.81h-3.869a12.321 12.321 0 01-2.983 7.637c-1.877 2.169-4.597 3.673-7.686 3.886l-.836.028c-2.98.002-5.7-1.121-7.99-2.86-2.298-1.74-4.217-4.093-5.79-6.73C2.288 42.866.516 36.445.5 31.032.504 14.14 14.25.5 31.14.5c7.737 0 14.785 3.257 20.13 8.335 5.35 5.081 9.056 11.983 10.169 19.464v-.017l.061.789c-.017 3.154-2.59 5.634-5.776 5.634zm0-3.827H36.432c-5.287 0-9.522 4.37-9.522 9.659v3.508c-.013.09-.053.17-.053.264 0 .092.04.17.053.259v1.217c0 2.073-.802 4.057-2.085 5.533-1.289 1.478-3.045 2.434-5.044 2.574l.12 1.908-.132-1.908-.572.02c-2.011-.005-3.884-.732-5.677-2.083-2.68-2.015-5.042-5.466-6.662-9.311-1.632-3.837-2.532-8.063-2.528-11.482.002-7.391 3.003-14.053 7.86-18.89a26.792 26.792 0 0118.95-7.814c6.642 0 12.753 2.794 17.493 7.288 4.736 4.49 8.045 10.668 9.018 17.26l.019.264c0 .488-.205.878-.563 1.236-.362.354-.845.498-1.383.498zM34.571 42.36h-3.83v-1.824c0-2.513 1.595-4.683 3.83-5.483v7.307zm22.98 13.464V46.19h-19.15v5.809c0 3.17 2.52 5.674 5.691 5.674h11.49c1.058 0 1.97-.79 1.97-1.847z" fill="#FFF" fill-rule="evenodd"/></g></svg>