<svg width="62" height="62" viewBox="0 0 62 62"><g opacity=".7"><path d="M7.514 33.039h7.515v-4.084H7.514v4.084z" fill="#72C3E2"/><path d="M53.935 23.428l5.434 5.905c.445.374.751.933.751 1.593 0 .012-.005.022-.005.034 0 .012.005.025.005.037 0 .537-.199 1.064-.548 1.443l-5.637 6.125a1.775 1.775 0 01-2.658 0c-.733-.796-.733-2.088 0-2.886l2.495-2.712h-5.01c-.354 8.387-2.98 16.679-7.864 23.853-.064.112-.105.235-.191.337-.02.02-.044.027-.062.047-.998 1.433-2.054 2.836-3.232 4.169-.72.813-1.909.84-2.656.057-.748-.782-.773-2.074-.053-2.887a41.565 41.565 0 002.08-2.587L16.05 34.837l-5.303 5.771-.02-.022c-.349.367-.847.549-1.335.549H1.878c-.76 0-1.445-.464-1.734-1.227a2.112 2.112 0 01.405-2.19l6.187-6.728L.55 24.255c-.537-.584-.697-1.48-.405-2.241.289-.764.975-1.297 1.734-1.297h7.515c.496 0 .98.253 1.33.633l5.325 5.81L36.784 6.038a41.404 41.404 0 00-2.076-2.58c-.718-.815-.695-2.107.054-2.887.748-.782 1.937-.756 2.657.057 1.176 1.331 2.23 2.732 3.226 4.163.018.02.043.026.062.049.086.098.126.22.19.333 4.856 7.133 7.48 15.372 7.858 23.712h4.885l-2.363-2.569c-.733-.796-.733-2.088 0-2.887a1.775 1.775 0 012.658 0zm-8.937 5.456c-.344-6.805-2.31-13.535-5.967-19.54l-19.179 19.54h25.146zM8.686 37.05H6.414l4.308-4.645c.35-.382.549-.888.549-1.427 0-.537-.2-1.09-.549-1.47L6.414 24.8h2.2l4.763 5.205a2.12 2.12 0 00-.227.92c0 .013.007.025.007.037 0 .012-.007.023-.007.035 0 .327.092.635.227.92l-4.691 5.134zm30.344 15.6L19.71 32.967h25.293c-.321 6.854-2.29 13.635-5.973 19.684z" fill="#FFF" fill-rule="evenodd"/></g></svg>