<svg width="62" height="62" xmlns="http://www.w3.org/2000/svg"><g opacity=".7"><path d="M4.392 34.657c1.812 0 3.579-.189 5.304-.495l.461 1.893a1.891 1.891 0 103.675-.895l-.453-1.865c2.328-.724 4.519-1.753 6.57-2.988l1.12 1.623a1.892 1.892 0 003.114-2.151l-1.117-1.616a30.443 30.443 0 005.098-5.097l1.615 1.116a1.89 1.89 0 102.15-3.112l-1.622-1.122c1.235-2.052 2.264-4.24 2.988-6.571l1.865.456a1.892 1.892 0 00.895-3.678l-1.893-.46c.306-1.724.495-3.491.495-5.303a1.891 1.891 0 10-3.783 0c0 1.505-.155 2.97-.397 4.405l-1.773-.431a1.891 1.891 0 10-.895 3.675l1.794.437a26.263 26.263 0 01-2.41 5.318l-1.489-1.028a1.892 1.892 0 10-2.15 3.114l1.498 1.035c-.611.762-1.253 1.5-1.943 2.192-.69.69-1.43 1.332-2.192 1.943l-1.035-1.498a1.892 1.892 0 00-3.112 2.15l1.027 1.487a26.279 26.279 0 01-5.319 2.41l-.437-1.793a1.892 1.892 0 10-3.675.896l.433 1.773c-1.438.242-2.902.397-4.407.397a1.892 1.892 0 000 3.783M59.721 27.418a30.507 30.507 0 00-1.963-.063c-1.82 0-3.593.19-5.326.498l-.464-1.902a1.9 1.9 0 00-3.692.899l.456 1.874c-2.34.73-4.54 1.761-6.6 3.004l-1.127-1.633a1.9 1.9 0 00-3.128 2.161L39 33.879a30.64 30.64 0 00-5.12 5.12l-1.624-1.12a1.9 1.9 0 10-2.16 3.126l1.631 1.126c-1.24 2.062-2.274 4.26-3.002 6.601l-1.874-.456a1.9 1.9 0 10-.899 3.692l1.9.464a30.557 30.557 0 00-.497 5.326c0 .66.023 1.314.062 1.963a1.902 1.902 0 002.019 1.775 1.898 1.898 0 001.774-2.018 27.117 27.117 0 01-.055-1.72c0-1.51.158-2.983.4-4.425l1.782.433a1.9 1.9 0 10.899-3.692l-1.802-.439a26.428 26.428 0 012.421-5.341l1.496 1.032a1.9 1.9 0 102.158-3.126l-1.503-1.042a27.143 27.143 0 011.952-2.202 26.824 26.824 0 012.202-1.951l1.04 1.505a1.9 1.9 0 003.126-2.161l-1.032-1.493a26.397 26.397 0 015.343-2.421l.437 1.801a1.903 1.903 0 002.298 1.397 1.902 1.902 0 001.396-2.296l-.435-1.782c1.443-.243 2.915-.4 4.426-.4.58 0 1.152.02 1.722.056a1.9 1.9 0 002.016-1.775 1.898 1.898 0 00-1.775-2.018" fill="#72C3E2" stroke="#000"/><path d="M.5 31C.502 14.175 14.158.504 30.983.5 47.809.504 61.496 14.175 61.5 31c-.004 16.825-13.319 30.496-30.477 30.5C13.864 61.496.502 47.825.5 31zm30.523 26.688c7.626 0 13.997-2.99 18.838-7.826A26.58 26.58 0 0057.662 31c-.002-7.362-2.99-14.022-7.826-18.862-4.84-4.837-11.5-7.825-18.863-7.825-7.363 0-14.02 2.989-18.86 7.825-4.837 4.84-7.82 11.5-7.821 18.862.002 7.362 3.003 14.022 7.84 18.862 4.84 4.837 11.265 7.825 18.89 7.825z" fill="#FFF" fill-rule="evenodd"/></g></svg>