<svg width="62" height="62" xmlns="http://www.w3.org/2000/svg"><path d="M59.46 31.073c-6.919.475-13.193 3.274-18.089 7.598L33.702 31l18.902-18.904a1.908 1.908 0 000-2.702 1.912 1.912 0 00-2.701 0L30.999 28.3l-7.668-7.671c4.323-4.897 7.122-11.169 7.598-18.087a1.912 1.912 0 00-3.814-.262c-.405 5.963-2.79 11.387-6.488 15.648l-8.53-8.533a1.912 1.912 0 00-2.701 0 1.908 1.908 0 000 2.702l8.53 8.532c-4.26 3.695-9.684 6.081-15.647 6.488a1.91 1.91 0 10.262 3.811c6.918-.475 13.192-3.274 18.088-7.598L28.298 31 9.396 49.904a1.908 1.908 0 000 2.702 1.912 1.912 0 002.701 0L31 33.7l7.67 7.671c-4.323 4.897-7.121 11.169-7.597 18.087a1.909 1.909 0 001.775 2.036 1.909 1.909 0 002.036-1.774c.407-5.961 2.793-11.387 6.49-15.647l8.53 8.532a1.912 1.912 0 002.701 0 1.908 1.908 0 000-2.702l-8.53-8.532c4.26-3.695 9.684-6.081 15.645-6.488a1.91 1.91 0 10-.26-3.811" fill="#72C3E2" stroke="#000"/><path d="M.5 31C.504 14.175 14.158.504 30.983.5 47.809.504 61.496 14.175 61.5 31c-.004 16.825-13.319 30.496-30.477 30.5C13.864 61.496.503 47.825.5 31zm30.523 26.688c7.626 0 13.997-2.99 18.838-7.826A26.58 26.58 0 0057.662 31c-.002-7.362-2.99-14.022-7.826-18.862-4.84-4.837-11.5-7.825-18.863-7.825-7.363 0-14.02 2.989-18.86 7.825-4.837 4.84-7.82 11.5-7.821 18.862.002 7.362 3.003 14.022 7.84 18.862 4.84 4.837 11.265 7.825 18.89 7.825z" fill="#FFF" fill-rule="evenodd"/></svg>