<svg width="62" height="62" viewBox="0 0 62 62"><g opacity=".7"><path d="M4.074 8.33h53.734a2.065 2.065 0 110 4.128h-1.356c-.076.13-.132.27-.24.383L45.96 23.703l9.24 10.065a2.07 2.07 0 01-.062 2.855l-12.4 12.385a2.068 2.068 0 01-2.966-.041l-8.837-9.347-8.823 9.345a2.066 2.066 0 01-2.963.043L6.747 36.623a2.068 2.068 0 01-.062-2.855l9.22-10.044L5.25 12.458H4.074a2.066 2.066 0 01-2.066-2.065c0-1.14.926-2.064 2.066-2.064zm6.862 4.128h15.308l-7.539 8.215-7.769-8.215zM43.16 20.65l-7.518-8.192h15.254L43.16 20.65zM30.933 33.605l-9.383-9.922 9.391-10.235 9.377 10.214-9.385 9.943zm10.385 10.982l9.496-9.485-7.696-8.387-9.343 9.896 7.543 7.976zM11.07 35.102l9.496 9.485 7.525-7.974-9.342-9.88-7.68 8.369z" fill="#72C3E2"/><path d="M6.2 0h49.542c3.427 0 6.23 2.807 6.23 6.23 0 2.842-1.431 5.235-4.279 5.971L53.67 60.106a2.075 2.075 0 01-1.436 1.797 2.078 2.078 0 01-2.211-.648l-8.744-10.482-8.747 10.482a2.07 2.07 0 01-3.174 0l-8.744-10.482-8.746 10.484a2.067 2.067 0 01-2.205.649 2.062 2.062 0 01-1.43-1.798L4.247 12.189C1.432 11.442.002 9.09 0 6.265.002 2.845 2.067.075 6.2.072V0zm47.484 10.214a2.076 2.076 0 012.059-1.904 2.084 2.084 0 002.066-2.08c-.002-1.14-.925-2.102-2.066-2.102H6.2v.073c-2.067.002-2.094.924-2.096 2.064.002 1.14.9 2.062 2.038 2.064a2.07 2.07 0 012.06 1.893l3.714 44.523 7.105-8.517a2.07 2.07 0 013.177 0l8.744 10.482 8.746-10.482a2.07 2.07 0 013.176-.002l7.106 8.513 3.713-44.525z" fill="#FFF"/></g></svg>