<svg width="62" height="62" viewBox="0 0 62 62"><g opacity=".7"><path d="M27.734 29.063a5.878 5.878 0 01-1.465-3.875c.003-3.21 2.523-5.81 5.636-5.813 3.113.004 5.633 2.602 5.636 5.813a5.876 5.876 0 01-1.463 3.875 5.876 5.876 0 011.463 3.875c-.003 3.21-2.523 5.808-5.636 5.812-3.113-.004-5.633-2.602-5.636-5.813a5.878 5.878 0 011.465-3.874zm4.17-1.938c1.032-.002 1.878-.876 1.88-1.938-.002-1.061-.848-1.935-1.88-1.937-1.029.002-1.876.876-1.878 1.938.002 1.061.85 1.935 1.879 1.937zm0 7.75c-1.029-.002-1.876-.876-1.878-1.938.002-1.061.85-1.935 1.879-1.937 1.031.002 1.877.876 1.879 1.938-.002 1.061-.848 1.935-1.88 1.937z" fill="#72C3E2"/><path d="M31.904 46.5C22.576 46.496 15 38.682 14.995 29.062c.004-9.62 7.581-17.433 16.91-17.437 9.33.004 16.906 7.818 16.908 17.438-.002 9.62-7.579 17.433-16.909 17.437zm9.295-7.853a13.719 13.719 0 003.857-9.584c0-3.742-1.471-7.123-3.857-9.585-2.388-2.46-5.665-3.978-9.295-3.978-3.628 0-6.904 1.517-9.294 3.978a13.738 13.738 0 00-3.857 9.584 13.735 13.735 0 003.857 9.585c2.39 2.46 5.666 3.978 9.294 3.978 3.63 0 6.907-1.517 9.295-3.978z" fill="#72C3E2"/><path d="M60.114 31c-.004 17.1-13.125 30.996-30.035 31C13.17 61.996.002 48.1 0 31 .002 13.9 13.46.004 30.04 0c16.582.004 30.07 13.9 30.074 31zM30.03 3.875c-7.256 0-13.817 3.038-18.587 7.953C6.678 16.748 3.74 23.518 3.737 31c.002 7.483 2.96 14.252 7.726 19.172 4.77 4.915 11.102 7.953 18.617 7.953 7.515 0 13.794-3.038 18.564-7.953 4.767-4.92 7.686-11.69 7.688-19.172-.002-7.483-2.946-14.252-7.712-19.172-4.77-4.915-11.333-7.953-18.589-7.953z" fill="#FFF"/></g></svg>