<svg width="62" height="62" viewBox="0 0 62 62"><g opacity=".7"><path d="M30.026 7.75c-2.074 0-3.757 1.734-3.757 3.875 0 2.14 1.683 3.875 3.757 3.875 2.076 0 3.758-1.734 3.758-3.875 0-2.14-1.682-3.875-3.758-3.875M37.54 27.125c2.077 0 3.758-1.734 3.758-3.875 0-2.14-1.681-3.875-3.757-3.875-2.074 0-3.758 1.734-3.758 3.875 0 2.14 1.684 3.875 3.758 3.875M18.753 23.25c0 2.14 1.683 3.875 3.758 3.875 2.076 0 3.757-1.734 3.757-3.875 0-2.14-1.681-3.875-3.757-3.875-2.075 0-3.758 1.734-3.758 3.875" fill="#72C3E2"/><path d="M0 31C.004 13.9 13.46.004 30.04 0c16.582.004 30.07 13.9 30.074 31-.004 17.1-13.125 30.996-30.035 31C13.17 61.996.004 48.1 0 31zm30.08 27.125c7.515 0 13.794-3.038 18.564-7.953 4.767-4.92 7.686-11.69 7.688-19.172-.002-7.483-2.946-14.252-7.712-19.172-4.77-4.915-11.333-7.953-18.589-7.953-7.256 0-13.817 3.038-18.587 7.953C6.678 16.748 3.74 23.518 3.737 31c.002 7.483 2.96 14.252 7.728 19.172 4.768 4.915 11.1 7.953 18.615 7.953z" fill="#FFF" fill-rule="evenodd"/></g></svg>