<svg width="62" height="62" viewBox="0 0 62 62"><g opacity=".7"><path d="M37.068 29.845l-2.16 5.256-6.07-14.766c-.333-.809-1.007-1.315-1.748-1.315-.742 0-1.417.506-1.749 1.315l-3.37 8.195H5.592v4.755h17.59c.741 0 1.416-.506 1.748-1.315l2.161-5.256L33.16 41.48c.332.808 1.006 1.315 1.75 1.315.74 0 1.414-.507 1.746-1.315l3.37-8.195h16.382V28.53h-17.59c-.743 0-1.417.506-1.75 1.315" fill="#72C3E2"/><path d="M31.001 62c-1.495.002-3.008-.701-4.147-2.09L4.784 33.064C1.638 29.222.006 23.896 0 18.616c0-4.303 1.106-8.647 3.534-12.05C6.532 2.359 10.82-.003 15.366 0c1.026 0 2.064.119 3.103.361 3.235.759 6.043 2.875 8.256 5.564L31 11.127l4.274-5.202c2.213-2.69 5.021-4.805 8.256-5.564A13.66 13.66 0 0146.636 0c4.544-.007 8.832 2.358 11.83 6.567C60.894 9.969 62 14.312 62 18.616c-.006 5.28-1.638 10.606-4.784 14.448L35.146 59.91c-1.14 1.389-2.652 2.092-4.145 2.09zM15.365 4.755c-3.442.007-6.602 1.747-8.88 4.93-1.72 2.404-2.577 5.6-2.577 8.93-.006 4.08 1.308 8.265 3.64 11.087l22.069 26.846c.387.469.875.694 1.383.697.507-.002.995-.228 1.382-.697l22.07-26.846c2.331-2.822 3.644-7.007 3.639-11.086 0-3.331-.857-6.527-2.576-8.93-2.28-3.184-5.44-4.924-8.88-4.931-.777 0-1.569.09-2.37.276-2.293.53-4.458 2.101-6.227 4.255l-5.656 6.883c-.365.442-.868.697-1.382.697-.516 0-1.02-.255-1.383-.697L23.96 9.286c-1.77-2.154-3.935-3.725-6.227-4.255a10.49 10.49 0 00-2.369-.276z" fill="#FFF" fill-rule="evenodd"/></g></svg>