<svg width="32" height="32" viewBox="0 0 62 62"><g opacity=".7"><path d="M14.265 51.883c1.282-1.281 2.397-2.665 3.4-4.101l1.666 1.013a1.891 1.891 0 101.966-3.232l-1.64-.998c1.134-2.159 1.955-4.435 2.532-6.759l1.94.355a1.892 1.892 0 00.682-3.723l-1.933-.351a30.443 30.443 0 000-7.21l1.931-.353a1.89 1.89 0 10-.68-3.721l-1.94.354c-.578-2.324-1.398-4.6-2.533-6.76l1.64-.996a1.892 1.892 0 00-1.967-3.233l-1.664 1.014c-1.003-1.437-2.118-2.82-3.4-4.101a1.891 1.891 0 10-2.675 2.675c1.065 1.064 1.99 2.21 2.834 3.396l-1.558.948a1.891 1.891 0 101.966 3.232l1.577-.96a26.263 26.263 0 012.056 5.465l-1.779.326a1.892 1.892 0 10.68 3.723l1.792-.328c.107.97.175 1.946.177 2.924 0 .976-.07 1.953-.177 2.924l-1.791-.328a1.892 1.892 0 00-.68 3.721l1.778.325a26.279 26.279 0 01-2.057 5.466l-1.577-.96a1.892 1.892 0 10-1.965 3.233l1.56.947c-.846 1.188-1.771 2.333-2.836 3.398a1.892 1.892 0 002.675 2.675M48.27 7.64c-.488.429-.966.878-1.432 1.344-1.288 1.287-2.407 2.675-3.415 4.118l-1.673-1.017a1.9 1.9 0 00-1.975 3.247l1.648 1.002c-1.139 2.17-1.965 4.456-2.543 6.79l-1.95-.357a1.9 1.9 0 00-.685 3.74l1.94.355a30.64 30.64 0 00.002 7.24l-1.942.357a1.9 1.9 0 10.684 3.736l1.95-.356c.58 2.336 1.404 4.621 2.544 6.791l-1.647 1.003a1.9 1.9 0 101.975 3.246l1.672-1.016a30.557 30.557 0 003.414 4.118c.466.466.944.913 1.432 1.344a1.902 1.902 0 002.682-.172 1.898 1.898 0 00-.172-2.682 27.117 27.117 0 01-1.255-1.177c-1.068-1.068-1.998-2.221-2.847-3.412l1.567-.954a1.9 1.9 0 10-1.975-3.246l-1.585.963a26.428 26.428 0 01-2.065-5.488l1.787-.328a1.9 1.9 0 10-.684-3.737l-1.799.327a27.143 27.143 0 01-.177-2.938c0-.98.07-1.961.177-2.937l1.8.33a1.9 1.9 0 00.682-3.739l-1.785-.326a26.397 26.397 0 012.066-5.49l1.583.964c.896.544 2.065.26 2.612-.637a1.902 1.902 0 00-.635-2.61l-1.568-.953c.847-1.192 1.779-2.344 2.847-3.412.41-.41.828-.8 1.256-1.178a1.9 1.9 0 00.171-2.68 1.898 1.898 0 00-2.682-.173" fill="#72C3E2" stroke="#000" stroke-width=".707"/><path d="M8.927 52.049C-2.968 40.15-2.979 20.827 8.915 8.927 20.816-2.968 40.161-2.979 52.061 8.915c11.894 11.9 12.146 30.982.016 43.117-12.136 12.13-31.252 11.912-43.15.017zm40.454-2.712c5.392-5.393 7.784-12.012 7.787-18.854a26.58 26.58 0 00-7.821-18.854c-5.207-5.205-12.03-7.802-18.872-7.804-6.842.003-13.664 2.598-18.87 7.805C6.397 16.836 3.803 23.657 3.8 30.5c.002 6.842 2.603 13.66 7.808 18.867 5.207 5.205 12.038 7.792 18.88 7.795 6.843-.004 13.5-2.433 18.892-7.825z" fill="#FFF" fill-rule="evenodd"/></g></svg>