<svg width="62" height="62" viewBox="0 0 62 62"><g opacity=".7"><path d="M58.728 47.825l-28.517-8.15c-2.303-.658-3.908-2.895-3.908-5.45.006-3.334 2.526-6.034 5.637-6.04h25.707c1.037 0 1.88-.901 1.88-2.013 0-1.111-.843-2.013-1.88-2.013H31.94c-5.187.002-9.392 4.506-9.394 10.066.002 4.379 2.749 8.212 6.696 9.34l28.518 8.151c1.001.286 2.031-.352 2.3-1.427.266-1.073-.33-2.178-1.332-2.464" fill="#72C3E2"/><path d="M30.06 34.225c0 1.112.842 2.014 1.88 2.014 1.038 0 1.878-.902 1.878-2.014 0-1.111-.84-2.013-1.879-2.013-1.037 0-1.878.902-1.878 2.013" fill="#72C3E2"/><path d="M30.087 0c-1.926 0-3.906.195-5.892.602l.346 1.979.35 1.977a25.693 25.693 0 015.172-.531c7.255.002 13.846 3.156 18.615 8.264 4.766 5.111 7.738 12.146 7.738 19.921V51.93a6.196 6.196 0 01-1.706 4.302c-1.035 1.09-2.457 1.742-3.955 1.742-.479 0-.975-.067-1.473-.21L9.524 46.405a5.725 5.725 0 01-3.743-3.424 29.507 29.507 0 01-2.022-10.769c0-2.19.237-4.445.746-6.746C6.822 14.944 14.98 6.576 24.888 4.558L24.182.602C12.785 2.947 3.536 12.44.849 24.538A35.534 35.534 0 000 32.212c0 4.367.83 8.53 2.313 12.323 1.13 2.887 3.476 4.97 6.24 5.76l39.754 11.36A9.078 9.078 0 0050.77 62c5.037-.01 9.405-4.367 9.405-10.07V32.212C60.174 14.443 46.669.004 30.087 0" fill="#FFF"/></g></svg>