<svg width="62" height="62" xmlns="http://www.w3.org/2000/svg"><g opacity=".7" fill-rule="evenodd"><path d="M51.87 34.9l6.917-6.85 2.713 2.686-7.08 7.01L57 47.118l-3.698 1-2.648-9.61-8.315-2.225-6.44 6.376 2.24 8.129 9.81 2.625-1 3.664-9.602-2.569-7.061 6.992-2.711-2.684 6.915-6.847-2.354-8.549-8.426-2.255-6.183 6.124 2.645 9.528-3.696 1.006-2.619-9.425-9.559-2.557.999-3.666 9.425 2.521 6.402-6.338-2.223-8.002-8.851-2.369-6.84 6.771L.5 32.075l7.096-7.027-2.548-9.171 3.698-1.006 2.651 9.546 8.183 2.19 6.344-6.284-2.243-8.146-9.594-2.59 1.009-3.663 9.578 2.587 7.08-7.01 2.711 2.684-7.08 7.01 2.243 8.143 8.524 2.302 6.292-6.23-2.532-9.192 3.698-.998 2.537 9.205 9.595 2.59-1.008 3.665-9.579-2.588-6.292 6.232 2.268 8.24L51.87 34.9zm-26.996 2.645l8.478 2.269 6.13-6.071-2.323-8.436-8.522-2.301-6.118 6.058 2.355 8.481z" fill="#72C3E2" stroke="#000"/><path d="M60.461 38.894A30.502 30.502 0 019.433 52.567 30.503 30.503 0 0123.106 1.54a30.503 30.503 0 0129.461 7.894 30.498 30.498 0 017.894 29.46zm-55.24-14.8a26.684 26.684 0 0025.78 33.594 26.683 26.683 0 0026.686-26.686 26.686 26.686 0 00-33.593-25.78A26.689 26.689 0 005.222 24.094z" fill="#FFF"/></g></svg>