<svg width="63" height="63" xmlns="http://www.w3.org/2000/svg"><g opacity=".7"><path d="M27.524 43.126a1.907 1.907 0 00-2.7 0 1.907 1.907 0 000 2.7L39.85 60.852a1.91 1.91 0 002.699-2.701L27.524 43.126M16.743 43.8a1.91 1.91 0 00-2.7 2.701l14.6 14.597a1.907 1.907 0 002.699 0 1.91 1.91 0 000-2.7L16.742 43.8M54.81 19.658H43.356a1.91 1.91 0 000 3.818H54.81a1.909 1.909 0 100-3.818" fill="#72C3E2" stroke="#000"/><path d="M18.59 42.5h16.717L47.565 5.756v.034A7.63 7.63 0 0157.221.958h.002a7.634 7.634 0 014.83 9.656v-.005L46.781 56.417V56.4c-1.07 3.202-4.044 5.19-7.244 5.19h-21a9.494 9.494 0 01-9.518-9.51c.002-5.273 3.845-9.511 9.572-9.513V42.5zM51.19 6.987V6.98L38.493 45.047c-.26.78-.985 1.271-1.81 1.271H18.591v.067c-3.818.006-5.748 2.531-5.754 5.695a5.68 5.68 0 005.7 5.693h21c1.598 0 3.091-.976 3.622-2.58v.035L58.432 9.41a3.813 3.813 0 00-2.415-4.828l.002-.002a3.808 3.808 0 00-4.83 2.407zM16.655 31.112c-.004 4.217-3.791 7.633-7.61 7.637-3.818-.004-7.653-3.42-7.657-7.637.004-4.215 3.4-7.632 7.617-7.636 4.216.004 7.646 3.421 7.65 7.636zm-3.812 0c-.004-2.1-1.738-3.814-3.838-3.818-2.1.004-3.8 1.718-3.804 3.818.003 2.1 1.935 3.815 3.844 3.818 1.91-.003 3.794-1.718 3.798-3.818z" fill="#FFF" fill-rule="evenodd"/></g></svg>