<svg width="62" height="62" viewBox="0 0 62 62"><g opacity=".7"><path d="M37.028 30.5l3.839-3.958a1.982 1.982 0 000-2.74 1.839 1.839 0 00-2.659 0L34.37 27.76a1.982 1.982 0 000 2.74 1.839 1.839 0 002.658 0M20.667 42.693h-7.515c-1.037 0-1.879.868-1.879 1.937 0 1.07.842 1.938 1.88 1.938h7.514c1.04 0 1.88-.868 1.88-1.938 0-1.07-.84-1.937-1.88-1.937M46.97 42.693h-7.515c-1.037 0-1.879.868-1.879 1.937 0 1.07.842 1.938 1.879 1.938h7.515c1.04 0 1.879-.868 1.879-1.938 0-1.07-.84-1.937-1.879-1.937M29.514 26.625l5.717-5.896a1.982 1.982 0 000-2.74 1.839 1.839 0 00-2.659 0l-5.717 5.896a1.982 1.982 0 000 2.74 1.839 1.839 0 002.659 0M56.364 34.943H3.758c-1.037 0-1.88.868-1.88 1.937 0 1.07.843 1.938 1.88 1.938h52.606c1.039 0 1.879-.868 1.879-1.938 0-1.07-.84-1.937-1.88-1.937M21.217 18.073a1.982 1.982 0 000 2.74 1.839 1.839 0 002.659 0l5.717-5.896a1.982 1.982 0 000-2.74 1.823 1.823 0 00-1.167-.534 1.895 1.895 0 001.635-1.888c0-1.07-.84-1.937-1.879-1.937h-7.515c-1.037 0-1.879.868-1.879 1.937 0 1.07.842 1.938 1.879 1.938h7.182c-.334.08-.655.217-.914.484l-5.718 5.896" fill="#72C3E2"/><path d="M20.668 42.625h18.788c.496 0 1.005.24 1.354.6.352.363.577.896.577 1.405v7.682h-.052s-.2 1.01-.549 1.37c-.351.36-.834.568-1.33.568H20.668c-.494 0-.953-.172-1.302-.533a1.884 1.884 0 01-.524-1.337v-7.75c0-.51.175-1.042.524-1.404.35-.36.808-.601 1.302-.601zm16.962 7.75H22.6V46.5h15.03v3.875z" fill="#4C5871" fill-rule="evenodd"/><path d="M44.153 27.125h8.453c4.152 0 7.568 3.538 7.568 7.818v7.75c0 2.14-1.879 3.873-3.758 3.875V46.5h-7.515v3.875h5.584c3.115 0 5.636 2.602 5.636 5.813 0 3.21-2.521 5.812-5.636 5.812H5.636C2.523 62 .002 59.398 0 56.187c.002-3.21 2.523-5.812 5.636-5.812h5.69V46.5H3.757c-2.076 0-3.705-1.666-3.705-3.807V5.88C.053 2.67 2.523 0 5.636 0h18.788c3.115 0 5.69 2.67 5.69 5.88v6.766l14.04 14.479zm2.817 15.5h9.446v-7.682c0-2.14-1.734-3.943-3.81-3.943h-9.232c-.494 0-1.006-.172-1.355-.533l-15-15.407c-.043-.037-.098-.052-.14-.093a1.884 1.884 0 01-.523-1.337V5.88c0-1.07-.895-2.005-1.932-2.005H5.636c-1.035 0-1.826.936-1.826 2.005v36.745h9.341c.497 0 1.006.24 1.355.6.351.363.577.896.577 1.405v7.75c0 .51-.226.975-.577 1.337-.35.36-.858.533-1.354.533H5.636c-1.035 0-1.877.868-1.878 1.938.001 1.069.843 1.937 1.878 1.937h48.849c1.037 0 1.877-.868 1.879-1.938-.002-1.069-.842-1.937-1.88-1.937H46.97c-.494 0-.953-.172-1.302-.533a1.884 1.884 0 01-.524-1.337v-7.75c0-.51.174-1.042.524-1.404.35-.36.808-.601 1.302-.601z" fill="#FFF" fill-rule="evenodd"/></g></svg>