<svg width="62" height="62" viewBox="0 0 62 62"><g opacity=".7"><path d="M31 41.96a7.738 7.738 0 01-5.48 2.27 7.734 7.734 0 01-5.48-2.27 7.743 7.743 0 01-2.27-5.48A7.735 7.735 0 0120.04 31l5.48-5.481A7.738 7.738 0 0131 23.25a7.733 7.733 0 015.48 2.269A7.74 7.74 0 0138.751 31a7.735 7.735 0 01-2.27 5.48L31 41.96zm-2.739-13.7l-5.481 5.48a3.856 3.856 0 00-1.136 2.74 3.856 3.856 0 001.136 2.739 3.848 3.848 0 002.74 1.135 3.856 3.856 0 002.741-1.135l5.48-5.48A3.856 3.856 0 0034.875 31a3.856 3.856 0 00-1.136-2.74A3.849 3.849 0 0031 27.126a3.849 3.849 0 00-2.739 1.136z" fill="#72C3E2"/><path d="M12.593 20.01a7.393 7.393 0 01-5.245-2.171L.567 11.058a1.939 1.939 0 010-2.74l7.75-7.75a1.938 1.938 0 012.742 0l6.78 6.781a7.41 7.41 0 012.173 5.245c.002 1.27-.357 2.532-1.008 3.672l2.436 2.433C31.51 9.24 43.83 3.627 51.803 1.295 54.606.485 56.83.06 58.499.05l.249.01c.707.029 1.347.054 2.215.645l.369.368c.578.856.603 1.479.63 2.16l.01.26c-.009 1.654-.433 3.867-1.241 6.665-.814 2.784-2.027 6.09-3.664 9.652-3.055 6.646-7.603 14.175-13.776 20.74l2.445 2.444c1.138-.65 2.403-1.007 3.67-1.005a7.395 7.395 0 015.247 2.172l6.781 6.78c.36.361.566.861.566 1.37 0 .51-.205 1.01-.566 1.37l-7.75 7.75c-.362.36-.86.568-1.372.568-.51 0-1.007-.207-1.37-.568l-6.78-6.78a7.41 7.41 0 01-2.173-5.246c-.002-1.269.355-2.532 1.008-3.671l-2.438-2.436c-10.061 9.455-22.376 15.072-30.351 17.409-2.804.81-5.03 1.234-6.7 1.244-.794-.035-1.467-.004-2.405-.607l-.451-.451c-.6-.938-.572-1.61-.606-2.403.01-1.672.435-3.896 1.245-6.702.814-2.788 2.027-6.093 3.664-9.652 3.056-6.636 7.597-14.144 13.753-20.689l-2.443-2.443c-1.138.651-2.403 1.008-3.672 1.006zM43.765 8.476c-6.785 3.116-14.557 7.87-20.987 14.305-9.65 9.627-15.512 22.322-17.767 30.095-.669 2.267-.996 4.096-1.062 5.177 1.081-.066 2.91-.392 5.173-1.06 2.585-.752 5.73-1.899 9.12-3.459 6.77-3.111 14.522-7.846 20.94-14.258.016-.017.02-.038.038-.056.015-.015.037-.021.054-.037C48.915 29.536 54.76 16.861 57.01 9.115c.692-2.345 1.021-4.195 1.068-5.23-1.078.078-2.916.46-5.193 1.13-2.585.752-5.727 1.903-9.12 3.46zM9.685 4.678l5.412 5.411a3.525 3.525 0 011.039 2.505 3.525 3.525 0 01-1.039 2.505 3.517 3.517 0 01-2.505 1.037 3.515 3.515 0 01-2.503-1.037L4.677 9.688l5.009-5.01zM46.903 46.9h.002a3.515 3.515 0 012.503-1.036c.914.002 1.81.34 2.505 1.036l5.412 5.412-5.01 5.01-5.41-5.412a3.524 3.524 0 01-1.039-2.505 3.53 3.53 0 011.037-2.505z" fill="#FFF"/></g></svg>