<svg width="62" height="62" viewBox="0 0 62 62"><g opacity=".7"><path d="M31.446 53.323a1.932 1.932 0 002.728 0 1.925 1.925 0 000-2.726L11.41 27.845a1.932 1.932 0 00-2.728 0 1.927 1.927 0 000 2.728l22.765 22.75" fill="#72C3E2"/><path d="M42.65 17.446c-.001 5.321-4.32 9.637-9.646 9.64-5.326-.003-9.644-4.319-9.648-9.64.004-5.322 4.322-9.637 9.648-9.641 5.327.004 9.645 4.319 9.647 9.64zm-3.858 0c-.006-3.186-2.601-5.779-5.788-5.785-3.188.006-5.783 2.6-5.789 5.785.006 3.185 2.601 5.778 5.789 5.784 3.187-.006 5.782-2.599 5.788-5.784z" fill="#72C3E2" fill-rule="evenodd"/><path d="M13.174 59.74A7.706 7.706 0 017.718 62a7.71 7.71 0 01-5.459-2.26A7.693 7.693 0 010 54.287a7.698 7.698 0 012.26-5.454l6.23-6.226c1.068-1.07 1.591-2.463 1.597-3.982 0-.766-.139-1.556-.42-2.325a27.13 27.13 0 01-1.648-9.315c-.008-8.357 3.876-16.75 11.59-22.163C24.187 1.608 29.61 0 35.027 0c5.196 0 10.401 1.48 14.86 4.471C58.09 9.967 62.012 18.763 62 27.411c0 6.806-2.751 13.555-7.897 18.695-5.256 5.254-12.17 7.883-19.067 7.879-3.235 0-6.473-.577-9.545-1.73a6.305 6.305 0 00-2.201-.407c-1.414.004-2.709.494-3.706 1.487l-6.41 6.405zM11.22 45.333l-6.23 6.226a3.836 3.836 0 00-1.131 2.728 3.828 3.828 0 001.13 2.727 3.842 3.842 0 002.729 1.13 3.842 3.842 0 002.728-1.13l6.41-6.406c1.759-1.764 4.103-2.622 6.434-2.616 1.202 0 2.408.222 3.56.654a23.274 23.274 0 008.186 1.482c5.926-.002 11.83-2.244 16.339-6.748 4.435-4.435 6.766-10.202 6.766-15.97-.011-7.521-3.343-14.995-10.405-19.738-3.79-2.541-8.245-3.816-12.71-3.816-4.655 0-9.305 1.385-13.197 4.12-6.66 4.682-9.944 11.822-9.952 19.009 0 2.709.471 5.418 1.415 7.992.432 1.182.654 2.418.654 3.648.006 2.43-.886 4.874-2.726 6.708z" fill="#FFF" fill-rule="evenodd"/></g></svg>