<svg width="62" height="62" viewBox="0 0 62 62"><g opacity=".7"><path d="M42.803 36.88v7.75c-.002 3.21-2.871 5.811-6.414 5.813-3.544-.002-6.413-2.602-6.413-5.813v-7.75c0-3.21 2.869-5.81 6.413-5.812 3.543.002 6.412 2.602 6.414 5.812zm-8.552 0v7.75c0 1.07.958 1.936 2.138 1.938 1.178-.002 2.134-.868 2.138-1.938v-7.75c-.004-1.07-.96-1.935-2.138-1.937-1.18.002-2.138.868-2.138 1.937z" fill="#72C3E2" fill-rule="evenodd"/><path d="M23.563 50.443c1.18 0 2.138-.868 2.138-1.938v-15.5c0-.782-.521-1.49-1.321-1.79-.797-.3-1.719-.134-2.33.42l-4.276 3.875c-.834.758-.834 1.984 0 2.74.836.758 2.189.758 3.025 0l.626-.568v10.823c0 1.07.956 1.938 2.138 1.938" fill="#72C3E2"/><path d="M40.666 0c5.902 0 10.747 4.404 10.747 9.755v14.183c5.142 4.875 8.314 11.476 8.317 18.755 0 7.287-3.39 13.913-8.56 18.78l-.022-.014c-.385.363-.597.541-1.165.541H9.967c-.58 0-1.163-.182-1.563-.56C3.233 56.571-.002 49.98 0 42.693c.002-7.432 3.307-14.17 8.654-19.073V9.755C8.654 4.404 13.381 0 19.286 0h21.38zM12.93 9.755c0-3.208 2.813-5.88 6.356-5.88h21.38c3.54 0 6.47 2.672 6.47 5.88v10.829c-4.87-3.145-10.81-5.014-17.25-5.016-6.3.002-12.137 1.782-16.956 4.807V9.755zm35.813 48.37c4.088-4.12 6.9-9.501 6.901-15.432-.002-6.413-2.86-12.214-7.512-16.432-4.652-4.214-11.028-6.818-18.104-6.818-7.077 0-13.427 2.604-18.08 6.818-4.65 4.218-7.42 10.019-7.422 16.432.003 5.93 2.675 11.313 6.75 15.432h37.467z" fill="#FFF" fill-rule="evenodd"/></g></svg>