<svg width="62" height="62" viewBox="0 0 62 62"><g opacity=".7"><path d="M24.331 8.53a21.784 21.784 0 015.695-.78C42.462 7.754 52.568 18.174 52.571 31a23.98 23.98 0 01-.757 5.87.326.326 0 00-.003.07c0 .026 0 .052-.006.078-.011.046-.043.077-.058.122-2.099 7.887-8.12 14.095-15.769 16.261-.043.014-.073.047-.117.058-.026.008-.052.007-.077.007-.022 0-.044-.001-.065.003-1.823.492-3.724.781-5.693.781C17.588 54.246 7.482 43.826 7.48 31c0-2.03.28-3.991.756-5.87.004-.024.004-.046.003-.069 0-.026 0-.052.006-.079.011-.044.043-.077.058-.12 2.099-7.89 8.119-14.097 15.77-16.261.042-.016.072-.049.116-.06a.261.261 0 01.077-.007c.022 0 .044.001.065-.003zm5.694 3.095c4.507 0 8.637 1.645 11.88 4.383l-8.087 8.34c-1.117-.68-2.403-1.096-3.793-1.098-.024 0-.045.008-.068.008l-2.951-11.36a18.238 18.238 0 013.02-.273zm-13.278 5.683a18.801 18.801 0 016.63-4.408l2.96 11.388a7.629 7.629 0 00-2.819 2.909l-11.043-3.052a19.497 19.497 0 014.272-6.837zm31.8 16.804L37.532 31.07c0-.025.007-.047.007-.07a7.86 7.86 0 00-1.065-3.912l8.086-8.34c2.657 3.343 4.25 7.604 4.252 12.252a20.199 20.199 0 01-.267 3.112zm-18.521.763c2.067-.004 3.752-1.744 3.757-3.875-.005-2.131-1.69-3.871-3.757-3.875-2.069.004-3.754 1.744-3.758 3.875.004 2.131 1.69 3.871 3.758 3.875zm-18.523-6.986A19.964 19.964 0 0011.238 31c0 4.65 1.593 8.909 4.248 12.253l8.088-8.341A7.84 7.84 0 0122.511 31c0-.023.005-.044.005-.068L11.503 27.89zM36.673 49.1a18.801 18.801 0 006.63-4.408 19.495 19.495 0 004.272-6.837l-11.043-3.052a7.628 7.628 0 01-2.818 2.909L36.673 49.1zm-6.648 1.275c-4.509 0-8.638-1.643-11.88-4.383l8.085-8.339c1.118.678 2.403 1.095 3.795 1.097.023 0 .044-.006.066-.008l2.952 11.36c-.985.164-1.988.273-3.018.273z" fill="#72C3E2"/><path d="M0 31C.002 13.9 13.46.004 30.04 0c16.582.004 30.07 13.9 30.074 31-.004 17.1-13.125 30.996-30.035 31C13.17 61.996.002 48.1 0 31zm30.08 27.125c7.515 0 13.794-3.038 18.564-7.953 4.767-4.92 7.688-11.69 7.688-19.172 0-7.483-2.946-14.252-7.712-19.172-4.77-4.915-11.333-7.953-18.589-7.953-7.256 0-13.817 3.038-18.587 7.953C6.678 16.748 3.74 23.518 3.737 31c.002 7.483 2.96 14.252 7.728 19.172 4.768 4.915 11.1 7.953 18.615 7.953z" fill="#FFF"/></g></svg>