<svg width="62" height="62" viewBox="0 0 62 62"><g opacity=".7"><path d="M30.38 26.614l5.896-5.893a1.937 1.937 0 10-2.741-2.739l-5.896 5.894a1.937 1.937 0 102.742 2.738M58.07 34.929H3.82a1.938 1.938 0 000 3.873h54.25a1.937 1.937 0 100-3.873M21.825 18.066a1.937 1.937 0 102.742 2.738l5.894-5.893a1.934 1.934 0 000-2.739c-.333-.335-.763-.495-1.201-.534.945-.128 1.685-.907 1.685-1.887 0-1.069-.866-1.936-1.937-1.936h-7.75a1.938 1.938 0 000 3.873h7.407c-.345.08-.676.217-.944.484l-5.895 5.894M38.13 30.488l3.959-3.957a1.937 1.937 0 10-2.742-2.739L35.39 27.75a1.937 1.937 0 102.742 2.739M48.383 50.422a1.938 1.938 0 100 3.876 1.938 1.938 0 000-3.876M13.508 50.422a1.938 1.938 0 100 3.876 1.938 1.938 0 000-3.876" fill="#72C3E2"/><path d="M54.25 27.114v.068c3.875.002 7.75 3.468 7.75 7.747v7.746c0 2.14-1.788 3.806-3.93 3.806h-1.826c1.139 1.561 1.827 3.525 1.827 5.81 0 5.81-4.336 9.709-9.688 9.709-5.35 0-9.685-4.31-9.687-9.658.002-2.212.77-4.228 2.019-5.86H21.369c1.139 1.56 1.827 3.524 1.827 5.81 0 5.81-4.336 9.708-9.688 9.708-5.35 0-9.685-4.31-9.687-9.658.002-2.212.77-4.228 2.019-5.86H3.82c-2.14 0-3.82-1.666-3.82-3.806V5.877C0 2.668 2.548 0 5.758 0h19.375C28.346 0 31 2.669 31 5.878v6.763l14.479 14.473h8.771zm3.875 15.494H3.875V5.878c0-1.07.816-2.005 1.883-2.005h19.375c1.07 0 1.992.936 1.992 2.005v7.747c0 .51.18.974.54 1.336.043.04.1.056.144.093l15.469 15.4c.36.361.887.533 1.397.533h9.575v.068c1.938.004 3.875 1.736 3.875 3.874v7.679zM13.508 58.136c-3.209-.006-5.807-2.585-5.813-5.794.006-3.208 2.604-5.83 5.813-5.836 3.21.006 5.806 1.912 5.812 5.785-.006 3.874-2.602 5.84-5.812 5.845zm29.062-5.794c.006 3.209 2.604 5.788 5.813 5.794 3.21-.006 5.806-1.971 5.812-5.845-.006-3.873-2.602-5.779-5.812-5.785-3.209.006-5.807 2.628-5.813 5.836z" fill="#FFF" fill-rule="evenodd"/></g></svg>