<svg width="62" height="62" viewBox="0 0 62 62"><g opacity=".7"><path d="M58.07 41.454H3.82c-1.07 0-1.937 1.543-1.937 3.444 0 1.902.868 3.445 1.937 3.445h54.25c1.072 0 1.938-1.543 1.938-3.445 0-1.9-.866-3.444-1.938-3.444M27.639 26.667c.758 1.346 1.984 1.346 2.742 0l5.895-10.482c.756-1.343.756-3.523 0-4.87-.757-1.347-1.984-1.347-2.741 0l-5.896 10.481c-.756 1.347-.756 3.527 0 4.87M35.389 28.685c-.756 1.347-.756 3.527 0 4.87.758 1.347 1.984 1.347 2.742 0l3.958-7.036c.755-1.344.755-3.524 0-4.87-.758-1.348-1.984-1.348-2.742 0l-3.958 7.036" fill="#72C3E2"/><path d="M54.25 27.556v.12c3.875.007 7.75 6.173 7.75 13.778v13.778C62 59.038 60.214 62 58.07 62H3.82C1.68 62 0 59.038 0 55.232V3.565c0-.906.18-1.853.54-2.497C.9.428 1.375 0 1.884 0h4.073c.918 0 1.715 1.202 1.897 2.8.719 6.27 3.857 11.078 7.593 11.067 3.737.01 6.876-4.784 7.593-11.05.184-1.601.98-2.817 1.899-2.817h4.237c.511 0 1.01.369 1.372 1.01l14.932 26.546h8.771zM3.875 55.11h54.25V41.454c0-3.789-1.938-6.882-3.875-6.889v-.12h-9.575c-.51 0-1.01-.37-1.37-1.01L28.373 6.89h-1.874c-1.606 8.077-6.01 13.888-11.088 13.898-5.078-.01-9.395-5.82-10.986-13.898h-.55V55.11z" fill="#FFF" fill-rule="evenodd"/></g></svg>