<svg width="62" height="62" viewBox="0 0 62 62"><g opacity=".7"><path d="M21.895 55.876l-4.257-4.379 11.76-9.477.008-.006c.006-.005 2.475-2.044 5.971-4.91 3.495-2.866 8.011-6.553 12.085-9.83l-2.315-3.044c-8.135 6.545-17.98 14.677-18.085 14.762l-12.1 9.751-2.076-2.133 9.477-12.442c.032-.04 7.971-10.21 14.356-18.606l-2.96-2.38c-3.186 4.19-6.769 8.833-9.555 12.43-2.786 3.594-4.77 6.135-4.774 6.14l-.006.009-9.213 12.095-4.258-4.38-2.656 2.734 15.941 16.399 2.657-2.733" fill="#72C3E2"/><path d="M44.091 16.646a5.629 5.629 0 00-4.063-1.731 5.684 5.684 0 00-4.532 2.257c-.043.056-.105.083-.154.133-.126.134-.252.269-.408.358a1.835 1.835 0 01-2.074-.168c-.2-.16-.36-.358-.481-.578-.24-.443-.3-.968-.17-1.457.048-.172.144-.325.236-.48.037-.063.05-.135.096-.194.407-.538.815-1.073 1.219-1.604a5.83 5.83 0 001.19-3.549 5.837 5.837 0 00-1.643-4.077c-1.129-1.158-2.527-1.685-3.945-1.691-2.091.01-4.117 1.165-5.101 3.335l-.04.084-.077.16-.293.622a2269.798 2269.798 0 00-4.994 10.629 2196.983 2196.983 0 00-11.2 24.33l-.375.553-1.328 1.366c-1.467 1.51-2.195 3.478-2.196 5.465.001 1.989.729 3.956 2.196 5.467a7.382 7.382 0 0010.628 0l1.328-1.368.538-.385c16.685-7.975 34.757-17.042 34.804-17.066l.023-.011h.002c2.11-1.015 3.233-3.096 3.24-5.249a5.762 5.762 0 00-1.641-4.056 5.513 5.513 0 00-3.966-1.691 5.486 5.486 0 00-3.448 1.223l-1.58 1.272c-.023.02-.05.021-.073.038a1.879 1.879 0 01-.588.304c-.476.133-.985.07-1.413-.178a1.88 1.88 0 01-.564-.495 1.968 1.968 0 01-.385-1.424l.002-.01c.03-.243.105-.48.223-.7.111-.204.265-.382.446-.534.015-.014.02-.031.035-.043 1.468-1.185 2.206-2.914 2.21-4.675a5.963 5.963 0 00-1.684-4.182zM29.361 0c2.35-.004 4.756.918 6.603 2.821a9.763 9.763 0 012.743 6.812c0 .516-.041 1.03-.12 1.543a9.24 9.24 0 011.44-.126c2.413-.004 4.86.947 6.721 2.864a9.887 9.887 0 012.784 6.914c.002.497-.048.992-.122 1.483a9.11 9.11 0 011.5-.126 9.223 9.223 0 016.622 2.821l-1.328 1.369 1.328-1.367a9.695 9.695 0 012.743 6.79c.008 3.536-1.907 7.053-5.384 8.734l.002.004-.002-.002h-.002l.002.002.002.006h-.002l-.01.002-.04.017-.155.077-.605.304-2.285 1.14a2834.6 2834.6 0 01-8.06 4 2087.002 2087.002 0 01-23.404 11.4l-1.093 1.127A11.086 11.086 0 0111.267 62a11.085 11.085 0 01-7.97-3.392C1.101 56.352-.002 53.37 0 50.409c-.002-2.96 1.101-5.94 3.297-8.199l1.094-1.124C11.957 24.348 20.479 6.36 20.855 5.565v-.001.002h-.001l.002-.002.012-.025.002.001C22.504 1.963 25.925-.008 29.362 0z" fill="#FFF" fill-rule="evenodd"/></g></svg>