<svg width="62" height="62" viewBox="0 0 62 62"><g opacity=".7"><path d="M12.939 42.673c-.517 0-1.024-.21-1.39-.574l-5.555-5.546a1.961 1.961 0 01-.576-1.386c0-.516.208-1.022.576-1.386l5.556-5.545a1.965 1.965 0 012.778 0l5.558 5.545c.365.364.574.87.576 1.386a1.97 1.97 0 01-.576 1.386l-1.389 1.388 5.556 5.544 1.39-1.386a1.966 1.966 0 012.777 0l5.558 5.544c.366.367.576.87.576 1.386 0 .518-.21 1.022-.576 1.388l-5.558 5.544a1.981 1.981 0 01-1.389.575c-.517 0-1.023-.21-1.389-.575l-5.556-5.544a1.97 1.97 0 01-.576-1.388c0-.515.209-1.02.576-1.386l1.39-1.386-5.559-5.544-1.39 1.386a1.982 1.982 0 01-1.388.574zm2.778-7.506l-2.778-2.772-2.778 2.772 2.778 2.774 2.778-2.774zm11.115 11.09l2.778 2.772-2.778 2.774-2.778-2.774 2.778-2.772zM35.166 20.493c-.518 0-1.023-.21-1.389-.575l-5.558-5.544a1.973 1.973 0 01-.575-1.386c0-.517.21-1.021.575-1.386l5.558-5.546a1.97 1.97 0 012.778 0l5.557 5.546c.365.365.575.869.575 1.386 0 .516-.21 1.022-.575 1.386l-1.39 1.386 5.559 5.544 1.389-1.386a1.97 1.97 0 012.778 0l5.556 5.547c.367.364.576.868.576 1.386 0 .515-.209 1.021-.576 1.386l-5.556 5.544a1.982 1.982 0 01-1.39.574c-.518 0-1.023-.21-1.388-.574l-5.558-5.544a1.959 1.959 0 010-2.772l1.389-1.386-5.557-5.547-1.389 1.386a1.982 1.982 0 01-1.389.575zm2.779-7.505l-2.779-2.774-2.778 2.774 2.778 2.772 2.779-2.772zm11.114 11.09l2.778 2.773-2.778 2.772-2.778-2.772 2.778-2.772z" fill="#72C3E2"/><path d="M4.603 35.175l1.391 1.394 1.39 1.4a11.771 11.771 0 00-3.455 8.347c.002 3.017 1.148 6.074 3.454 8.375.063.065.095.167.15.245 2.287 2.196 5.226 3.072 8.185 3.074a11.76 11.76 0 008.336-3.454L54.617 24.04a11.786 11.786 0 003.454-8.355c-.002-3.015-1.148-6.09-3.454-8.391-.083-.082-.126-.216-.19-.322C52.144 4.807 49.223 4 46.281 3.997a11.758 11.758 0 00-8.336 3.445l-30.563 30.5-1.389-1.387-1.39-1.406L35.167 4.633C38.231 1.574 42.267-.002 46.282 0c3.979-.002 7.973 1.439 11.026 4.44l.087-.068C60.462 7.43 62.002 11.76 62 15.768a15.635 15.635 0 01-4.605 11.096L26.832 57.377A15.727 15.727 0 0115.718 62c-3.987.002-7.99-1.46-11.046-4.474l-.069.055C1.538 54.525-.002 50.268 0 46.261a15.622 15.622 0 014.603-11.086zM57.97 5.755c0-.115-.045-.199-.067-.301h.067v.302zM4.078 56.428c-.012-.08-.049-.146-.049-.232v.231h.05z" fill="#FFF"/></g></svg>