<svg width="62" height="62" viewBox="0 0 62 62"><g opacity=".7"><path d="M35.035 26.783a1.926 1.926 0 000-2.727 1.915 1.915 0 01-.565-1.363c.002-.5.185-.982.565-1.364.382-.38.864-.563 1.364-.565a1.91 1.91 0 011.364.565 1.93 1.93 0 002.73-2.727 5.784 5.784 0 00-4.094-1.695 5.78 5.78 0 00-4.092 1.695 5.772 5.772 0 00-1.696 4.09 5.775 5.775 0 001.696 4.09 1.928 1.928 0 002.728 0" fill="#72C3E2"/><path d="M40.493 24.056a1.923 1.923 0 010 2.727c-.382.38-.865.563-1.364.565a1.917 1.917 0 01-1.366-.565 1.931 1.931 0 00-2.728 0 1.932 1.932 0 000 2.729 5.787 5.787 0 004.094 1.693 5.78 5.78 0 004.092-1.695 5.772 5.772 0 001.695-4.09 5.775 5.775 0 00-1.695-4.09 1.927 1.927 0 00-2.728 0 1.926 1.926 0 000 2.726M25.06 39.484a1.923 1.923 0 010 2.727c-.382.38-.864.564-1.364.565a1.917 1.917 0 01-1.366-.565 1.931 1.931 0 00-2.728 0 1.932 1.932 0 000 2.73 5.787 5.787 0 004.094 1.693 5.78 5.78 0 004.092-1.696 5.772 5.772 0 001.696-4.09 5.775 5.775 0 00-1.696-4.09 1.927 1.927 0 00-2.728 0 1.926 1.926 0 000 2.726" fill="#72C3E2"/><path d="M19.6 42.211a1.926 1.926 0 000-2.727 1.915 1.915 0 01-.565-1.363c.002-.5.185-.982.565-1.364.382-.38.865-.563 1.364-.565a1.91 1.91 0 011.364.565 1.93 1.93 0 002.73-2.727 5.784 5.784 0 00-4.094-1.695 5.78 5.78 0 00-4.091 1.695 5.772 5.772 0 00-1.696 4.09 5.775 5.775 0 001.696 4.091 1.928 1.928 0 002.727 0" fill="#72C3E2"/><path d="M32.646 7.188C35.61 2.688 40.625-.002 46.025 0a15.897 15.897 0 0111.303 4.68A15.913 15.913 0 0162 15.979c0 .546-.05 1.091-.106 1.639-.484 4.8-3.127 9.097-7.154 11.747-10.027 6.61-18.933 15.422-25.546 25.446-2.963 4.5-7.774 7.192-13.562 7.19-3.858.002-8.122-1.67-11.13-4.682C1.485 54.3 0 50.242 0 46.016c0-.543.029-1.09.085-1.639a15.947 15.947 0 017.109-11.743h-.002c10.026-6.609 18.838-15.42 25.454-25.446zm20.061 18.955a12.085 12.085 0 005.394-8.914c.043-.42.062-.837.062-1.251 0-3.215-1.256-6.274-3.553-8.57a12.048 12.048 0 00-8.583-3.551 12.132 12.132 0 00-10.163 5.454C28.95 19.783 19.778 28.949 9.307 35.855h-.012a12.11 12.11 0 00-5.417 8.914c-.043.416-.108.835-.108 1.247.002 3.217 1.165 6.276 3.463 8.575 2.301 2.297 4.541 3.548 8.4 3.552 3.858-.002 8.085-2.038 10.342-5.456 6.908-10.47 16.259-19.636 26.732-26.544z" fill="#FFF" fill-rule="evenodd"/></g></svg>