<svg width="62" height="62" xmlns="http://www.w3.org/2000/svg"><g opacity=".7"><path d="M34.5 4.226c0-.657-.02-1.308-.062-1.955a1.891 1.891 0 10-3.775.242c.036.566.053 1.138.053 1.713 0 7.307-2.967 13.918-7.768 18.723-4.804 4.8-11.415 7.767-18.722 7.767-.575 0-1.147-.02-1.713-.055a1.893 1.893 0 10-.24 3.777c.645.041 1.298.062 1.953.062 16.7-.004 30.272-13.574 30.274-30.274M59.729 27.562a30.384 30.384 0 00-1.955-.062c-16.698.004-30.27 13.574-30.274 30.274 0 .657.023 1.308.062 1.955a1.894 1.894 0 002.01 1.767 1.89 1.89 0 001.767-2.01 27.01 27.01 0 01-.055-1.712c.002-7.307 2.969-13.918 7.77-18.723 4.802-4.8 11.415-7.767 18.72-7.767.577 0 1.147.02 1.714.055a1.891 1.891 0 002.008-1.767 1.89 1.89 0 00-1.767-2.01" fill="#72C3E2" stroke="#000"/><path d="M61.5 31c-.004 16.825-13.319 30.496-30.477 30.5C13.864 61.496.502 47.825.5 31 .502 14.175 14.158.504 30.983.5 47.809.504 61.496 14.175 61.5 31zM30.973 4.312c-7.363 0-14.02 2.99-18.86 7.826-4.837 4.84-7.82 11.5-7.821 18.862.002 7.362 3.003 14.022 7.84 18.862 4.84 4.837 11.265 7.825 18.89 7.825 7.627 0 13.998-2.988 18.839-7.825A26.58 26.58 0 0057.662 31c-.002-7.362-2.99-14.022-7.826-18.862-4.84-4.837-11.5-7.825-18.863-7.825z" fill="#FFF" fill-rule="evenodd"/></g></svg>