<svg width="62" height="62" viewBox="0 0 62 62"><g opacity=".7"><path d="M49.435 16.459l6.702-6.836 2.656 2.71-6.7 6.837 4.944 5.045-2.657 2.71-4.945-5.045-6.735 6.874 4.766 4.864-2.658 2.71-4.767-4.863-7.122 7.269-2.657-2.712 7.123-7.268-4.859-4.957-7.122 7.27-2.657-2.713 7.123-7.267-4.767-4.864 2.659-2.71 4.764 4.863 6.737-6.874-4.944-5.046 2.658-2.71L41.92 8.79l6.702-6.836 2.656 2.71-6.7 6.837 4.857 4.957zm-14.25 4.628l4.857 4.957 6.737-6.874-4.859-4.958-6.735 6.875z" fill="#72C3E2"/><path d="M5.636 62c-1.409.004-2.83-.496-3.917-1.57l-.07.058C.555 59.37 0 57.66 0 56.195a5.8 5.8 0 011.65-4.065l1.33 1.359 1.328 1.363v.013c-.372.38-.549.888-.55 1.384.001.499.178 1.033.55 1.413.05.052.073.136.118.2.328.247.714.248 1.12.248h.09a1.848 1.848 0 001.329-.561l9.07-9.257c.37-.378.55-.857.55-1.355a1.923 1.923 0 00-.55-1.356 1.847 1.847 0 00-1.328-.561 1.847 1.847 0 00-1.328.561l-9.07 9.257-2.66-2.712 9.073-9.255a5.571 5.571 0 013.985-1.685c.812 0 1.62.199 2.373.558 2.816-3.183 5.16-8.11 5.19-11.997l.118-6.446v-.002c.043-2.324.509-4.697 1.371-7.005 1.156-3.094 3.023-6.075 5.561-8.666C33.852 3.01 39.592.558 45.023.552 49.07.544 52.991 1.955 55.89 4.917c2.905 2.958 4.286 6.959 4.28 11.09-.006 5.54-2.41 11.396-6.936 16.02-2.539 2.591-5.462 4.495-8.494 5.674-2.263.88-4.587 1.355-6.866 1.399l-6.318.12c-3.812.033-8.64 2.424-11.76 5.297.352.771.55 1.597.547 2.423a5.813 5.813 0 01-1.65 4.07v.008l-9.072 9.27c-1.095 1.12-2.55 1.716-3.985 1.712zm20.51-38.627v-.002c.033-1.847.407-3.791 1.125-5.712.96-2.575 2.536-5.107 4.708-7.32 3.868-3.954 8.736-5.96 13.044-5.953 3.224.006 6.091 1.083 8.21 3.242 2.116 2.162 3.174 5.087 3.18 8.379.005 4.393-1.96 9.362-5.836 13.309-2.17 2.214-4.652 3.822-7.175 4.802-1.883.732-3.786 1.116-5.597 1.15l-.272.002c-3.226-.006-6.093-1.085-8.213-3.243-2.115-2.163-3.171-5.088-3.177-8.378l.002-.276zm.518 11.364c-.41-.416-.782-.859-1.131-1.315a22.898 22.898 0 01-1.19 3.684 21.6 21.6 0 013.611-1.215 14.147 14.147 0 01-1.29-1.154zM1.1 59.358v-.228c0 .087.036.15.047.228H1.1zM15.645 7.668c-.004 4.234-3.731 7.664-7.49 7.668C4.399 15.332.625 11.902.62 7.668.624 3.435 3.966.004 8.116 0c4.149.004 7.525 3.435 7.529 7.668zm-3.752 0c-.004-2.109-1.71-3.83-3.776-3.834-2.067.004-3.741 1.725-3.745 3.834.004 2.108 1.905 3.83 3.784 3.834 1.879-.004 3.733-1.726 3.737-3.834z" fill="#FFF"/></g></svg>