<svg width="62" height="62" viewBox="0 0 62 62"><g opacity=".7"><path d="M37.572 11.622c-5.588 0-10.73 1.963-14.848 5.224-.028-.384-.075-.765-.075-1.151.003-4.54 1.764-9.02 5.396-12.075.804-.674.924-1.895.27-2.724a1.839 1.839 0 00-2.643-.28c-4.596 3.86-6.786 9.52-6.78 15.079-.014 6.412 3.221 12.802 9.318 16.423-.006 3.74-1.257 6.99-3.277 9.556-4.745-1.554-8.961-4.837-11.65-9.635a21.721 21.721 0 01-2.771-10.637c-.002-4.321 1.275-8.579 3.667-12.15.59-.88.376-2.087-.477-2.696a1.844 1.844 0 00-2.615.494c-2.828 4.227-4.333 9.246-4.333 14.352a25.698 25.698 0 003.275 12.575c2.796 4.994 7.019 8.606 11.817 10.652-2.504 1.802-5.516 2.843-8.61 2.841a14.092 14.092 0 01-5.161-.982c-.97-.38-2.054.122-2.424 1.122-.368 1.002.119 2.12 1.088 2.501 2.14.84 4.34 1.235 6.497 1.235 4.887-.004 9.548-2.01 13.01-5.413.25-.246.478-.513.715-.775.035-.039.075-.07.105-.112 2.987-3.333 4.903-7.821 4.902-12.933 2.376-1.403 4.86-2.076 7.304-2.078.769 0 1.531.074 2.285.196.323 1.51.532 3.044.532 4.597 0 3.617-.891 7.274-2.772 10.636-3.829 6.841-10.773 10.66-17.92 10.663-.552 0-1.106-.024-1.66-.07-1.036-.085-1.941.709-2.026 1.777-.082 1.066.688 2 1.723 2.087.654.054 1.31.081 1.963.081 8.436.004 16.65-4.52 21.174-12.6a25.693 25.693 0 003.275-12.574c0-1.11-.073-2.215-.214-3.31 4.282 2.077 7.62 6.187 8.42 11.375.166 1.056 1.13 1.773 2.156 1.603 1.024-.171 1.719-1.165 1.553-2.221-1.27-8.021-7.214-13.9-14.297-15.598-.04-.008-.075-.023-.117-.027a17.92 17.92 0 00-4.075-.49c-3.092-.002-6.271.823-9.23 2.585-3.123-1.872-5.26-4.585-6.398-7.645 3.681-3.471 8.549-5.6 13.928-5.603 8.252-.002 15.367 4.985 18.684 12.193.446.967 1.566 1.38 2.503.92.938-.456 1.338-1.613.892-2.58-3.913-8.517-12.332-14.406-22.08-14.408" fill="#72C3E2"/><path d="M30.01 62c-5.095.002-10.266-1.337-14.985-4.149C5.392 52.113-.002 41.67 0 30.951a31.593 31.593 0 014.022-15.454C9.586 5.56 19.712-.002 30.102 0c5.095-.002 10.266 1.337 14.983 4.149 9.635 5.738 15.029 16.181 15.027 26.9a31.593 31.593 0 01-4.023 15.454C50.526 56.44 40.4 62.003 30.01 62zm.092-58.124c-9.103.002-17.96 4.866-22.825 13.559a27.616 27.616 0 00-3.52 13.517c.002 9.39 4.718 18.525 13.146 23.543 4.138 2.463 8.647 3.63 13.107 3.63 9.103-.003 17.96-4.867 22.825-13.56a27.63 27.63 0 003.52-13.517c-.005-9.39-4.718-18.525-13.148-23.543-4.136-2.463-8.645-3.63-13.105-3.63z" fill="#FFF" fill-rule="evenodd"/></g></svg>