<?xml version="1.0" encoding="utf-8"?>
<svg width="137px" height="87px" viewBox="0 0 137 87" version="1.1" xmlns:xlink="http://www.w3.org/1999/xlink" xmlns="http://www.w3.org/2000/svg">
  <desc>Created with Lunacy</desc>
  <g id="tagslakers">
    <path d="M40.9246 83C51.8928 82.9359 62.3854 78.4929 70.0901 70.65C77.7948 62.8072 82.0792 52.2084 81.9989 41.1893C81.9989 26.4738 74.1846 12.8761 61.4995 5.51833C48.8144 -1.83944 33.1857 -1.83944 20.5006 5.51833C7.81548 12.8761 0.00113838 26.4738 0.00113869 41.1893C-0.166248 64.0784 18.1418 82.7833 40.9246 83" transform="translate(23 2.5)" id="path3055" fill="#FDB827" stroke="none" />
    <path d="M27.5324 15.7883C23.7338 20.5095 21.5503 22.1343 17.7218 22.1343C16.4207 22.1343 15.7328 21.8277 16.1067 21.1686L20.5932 11.7416L22.3429 11.7416C24.2871 11.7416 24.0179 13.4277 23.4945 15.7117C23.3898 16.0182 23.6291 16.0335 23.8684 15.7117L28.2053 7.87882C28.4297 7.38831 27.8763 7.29634 27.6071 7.66422C26.4512 9.57359 24.3482 10.6573 22.1635 10.4693L21.4606 10.4693L26.3509 0.919706L28.31 0.919706C30.7926 1.07299 31.9441 3.2343 31.3011 8.44597L32.333 8.44597L35.9222 1.18029C36.2213 0.567152 35.6081 0 34.9351 0L10.4835 0C9.0628 0 8.98802 1.10365 10.3489 1.10365C11.4556 1.10365 11.3958 2.72846 10.3489 3.49488L0 11.9255L2.09372 21.8737C2.14093 22.2274 2.32771 22.5458 2.61041 22.7544C2.8931 22.9631 3.24694 23.0436 3.58923 22.9773L23.7487 22.9773C24.336 23.0433 24.9109 22.7722 25.2442 22.2722L28.7886 15.8803C29.2971 14.9452 28.1306 15.0065 27.4875 15.7883M13.4446 11.1898L11.7099 11.1898C11.586 11.1898 11.4855 11.2927 11.4855 11.4197C11.4855 11.5467 11.586 11.6496 11.7099 11.6496L13.5194 11.6496C14.1176 11.6496 14.6859 11.7263 14.5214 12.0022L9.87037 21.1992C9.73675 21.6519 9.32977 21.9615 8.86838 21.9615C8.407 21.9615 8.00001 21.6519 7.86639 21.1992L5.5633 8.93648L13.669 2.48321C14.5493 1.58593 15.6338 0.927433 16.8245 0.567152L18.6042 0.567152C19.666 0.567152 20.0997 1.08832 19.8006 1.74744L19.4865 2.36058C19.2921 2.71313 18.649 2.75912 18.1106 2.75912L17.0937 2.75912C16.9698 2.75912 16.8694 2.86206 16.8694 2.98905C16.8648 3.05133 16.887 3.11255 16.9301 3.15671C16.9732 3.20087 17.0329 3.22361 17.0937 3.21897L18.0957 3.21897C18.5294 3.21897 19.0827 3.21897 18.8734 3.57153L15.1047 10.9292C14.9402 11.2204 14.1475 11.2664 13.4895 11.2664" transform="translate(55 32.5)" id="path3057" fill="#552582" stroke="none" />
    <path d="M51.8452 32.4558C51.3807 32.4476 50.972 32.145 50.8257 31.701C50.6287 31.0928 50.6287 30.4374 50.8257 29.8292L60.2562 12.9974C60.4061 12.6955 60.7959 12.0464 61.2607 12.0464C62.1003 12.0464 62.4601 10.9444 61.0508 10.9444L53.5544 10.9444C52.145 10.9444 52.0551 12.0162 53.4794 12.0162C53.6952 12.0049 53.9017 12.1057 54.0264 12.2834C54.1512 12.461 54.1767 12.6907 54.0941 12.8918L52.0101 16.711C51.7402 17.1186 51.1705 17.1487 50.5108 17.1487L48.7117 17.1487C48.5875 17.1487 48.4868 17.2501 48.4868 17.3752C48.4868 17.5002 48.5875 17.6016 48.7117 17.6016L50.5258 17.6016C51.0206 17.6016 51.3954 17.7526 51.1255 18.3111L44.1539 31.0821C43.6591 31.7916 42.6546 31.9426 42.6546 30.599L45.1284 11.8954C45.2333 11.3218 45.1284 10.9293 44.4537 10.9293L40.7805 10.9293C40.4028 10.9249 40.0503 11.1195 39.8509 11.4426L38.5166 13.1182C38.2257 13.2847 37.888 13.3484 37.557 13.2993L34.4835 13.2993C34.4226 13.2948 34.3627 13.3172 34.3195 13.3607C34.2763 13.4041 34.2541 13.4644 34.2586 13.5258C34.2586 13.6508 34.3593 13.7522 34.4835 13.7522L37.0323 13.7522C37.497 13.7522 38.0218 13.8579 37.8269 14.0692L34.2436 18.5979C34.043 18.7266 33.8058 18.785 33.5689 18.764L32.5494 18.764C32.4252 18.764 32.3245 18.8654 32.3245 18.9904C32.3245 19.1155 32.4252 19.2169 32.5494 19.2169L33.404 19.2169C33.6589 19.2169 33.6589 19.3527 33.5539 19.4735L30.1806 23.7305C29.9337 23.8974 29.6367 23.9721 29.341 23.9418L26.3424 23.9418C26.2241 23.9498 26.1322 24.0489 26.1325 24.1683C26.1283 24.2269 26.1486 24.2846 26.1884 24.3276C26.2282 24.3705 26.284 24.3948 26.3424 24.3947L28.9062 24.3947C29.296 24.3947 29.5958 24.4702 29.3859 24.7268L24.5882 30.7651C23.6887 31.9124 19.3557 32.5011 18.5011 32.5011L34.6784 1.97754C34.9657 1.47124 35.4809 1.13857 36.0577 1.08689L39.5061 1.08689C41.1253 1.08689 41.0054 0 39.671 0L22.3543 0C20.945 0 20.855 1.08689 22.5042 1.08689L25.7127 1.08689C26.6273 1.08689 26.9271 1.64543 26.6872 2.09831L26.2224 2.92857C26.0725 3.21539 25.8626 3.32106 24.978 3.32106L19.3108 3.32106C19.1866 3.32106 19.0859 3.42244 19.0859 3.5475C19.0859 3.67255 19.1866 3.77393 19.3108 3.77393L24.963 3.77393C25.2779 3.77393 25.7277 3.84941 25.4428 4.40795L24.6482 5.91753C24.4251 6.1673 24.0947 6.29134 23.7636 6.24963L21.1999 6.24963C21.0756 6.24963 20.975 6.35101 20.975 6.47607C20.975 6.60112 21.0756 6.7025 21.1999 6.7025L23.7636 6.7025C24.1235 6.7025 24.1384 6.94404 23.9285 7.29124L22.0994 10.7029C21.9345 10.9897 21.6496 11.035 21.0649 11.035L20.0454 11.035C19.9212 11.035 19.8205 11.1364 19.8205 11.2614C19.816 11.3228 19.8382 11.383 19.8814 11.4265C19.9246 11.47 19.9845 11.4924 20.0454 11.4878L20.99 11.4878C21.3798 11.4878 21.4697 11.6992 21.3048 12.0615L19.8055 14.8693C19.5806 15.2769 19.2658 15.4278 18.3062 15.4278L12.6689 15.4278C12.5447 15.4278 12.444 15.5292 12.444 15.6543C12.444 15.7793 12.5447 15.8807 12.6689 15.8807L18.3062 15.8807C18.9509 15.8807 19.1908 16.1675 18.9359 16.6355L15.9374 22.1605C15.7575 22.4172 15.2927 22.4473 14.4381 22.4473L8.87575 22.4473C8.75155 22.4473 8.65086 22.5487 8.65086 22.6738C8.65086 22.7988 8.75155 22.9002 8.87575 22.9002L14.528 22.9002C15.2027 22.9002 15.6225 22.9002 15.4126 23.2927L13.7334 26.4477C13.4186 26.9308 12.549 26.9308 12.2341 26.9308L10.495 26.9308C10.3708 26.9308 10.2701 27.0322 10.2701 27.1572C10.2701 27.2823 10.3708 27.3837 10.495 27.3837L12.2042 27.3837C12.8339 27.3837 13.1637 27.4893 12.9988 27.8365L10.7499 32.0935C10.54 32.4709 9.67037 32.5011 8.9807 32.5011L0.224892 32.5011C0.100688 32.5011 1.52107e-17 32.6025 0 32.7275C-1.52107e-17 32.8526 0.100688 32.954 0.224892 32.954L8.99569 32.954C9.56542 32.954 10.3001 32.954 10.0302 33.4823L8.53092 36.1996C8.39598 36.426 7.90122 36.4411 7.19656 36.4411L5.45739 36.4411C5.33054 36.4408 5.22543 36.5401 5.2175 36.6675C5.21736 36.7303 5.2431 36.7903 5.28858 36.8332C5.33406 36.8761 5.39519 36.8981 5.45739 36.894L7.24153 36.894C7.66133 36.894 8.20107 36.894 8.00617 37.2864L7.1066 39.0225C6.89906 39.5443 6.40515 39.8936 5.8472 39.9131L1.49928 39.9131C-0.119943 39.9131 -3.7914e-08 41 1.34935 41L27.092 41C27.8567 41 27.8717 40.8943 28.2315 40.3358L32.0547 33.6182L51.6203 33.6182C53.1196 33.6182 52.6698 32.5464 51.8452 32.5162M36.5075 30.4632C36.3126 31.5652 35.2031 32.3049 33.8088 32.6672L32.3095 33.0295L33.5539 30.8557C33.8688 30.282 33.1791 29.9348 32.4445 30.8557C27.4369 36.7279 25.8476 39.5357 18.1413 39.5508L16.0723 39.5508C15.4426 39.5508 14.7529 39.3093 15.1877 38.7055L17.9914 33.5578L28.3364 33.5578C29.7458 33.5578 29.3859 32.486 28.5613 32.4558C27.9038 32.4107 27.3126 32.0365 26.9871 31.4595C26.7193 30.9924 26.7193 30.417 26.9871 29.9499L30.9452 24.6513L37.4821 24.6513L36.5075 30.4632ZM38.0068 23.7456L31.5599 23.7456L39.701 12.9521L37.9918 23.7456L38.0068 23.7456Z" transform="translate(0 21.5)" id="path3059" fill="#552582" stroke="none" />
    <path d="M53.2539 16.9704C53.6029 16.309 53.8002 15.9784 53.9064 16.5195L53.9823 16.3842C54.0808 16.8475 53.7499 17.4889 53.4513 18.0677C53.3818 18.2024 53.314 18.3337 53.2539 18.4585C50.899 22.5736 47.8147 26.2347 44.1488 29.2661C40.8421 31.9917 36.7667 33.64 32.479 33.9859C26.5303 34.2715 20.3692 30.168 18.9427 24.9671C18.8062 24.7567 18.3357 24.7567 17.2886 24.7567L13.9653 24.7567C13.8395 24.7567 13.7376 24.6557 13.7376 24.5312C13.7376 24.4067 13.8395 24.3057 13.9653 24.3057L17.2886 24.3057C17.3984 24.3057 17.5071 24.3072 17.6125 24.3086C18.2646 24.3173 18.7935 24.3244 18.7151 23.975C18.4121 22.5314 18.1993 21.0705 18.0777 19.6009C18.0626 19.3754 17.1065 19.3754 16.4085 19.3754L13.8287 19.3754C13.7683 19.3754 13.7104 19.3517 13.6677 19.3094C13.625 19.2671 13.6011 19.2098 13.6011 19.15C13.6011 19.0902 13.625 19.0328 13.6677 18.9905C13.7104 18.9483 13.7683 18.9245 13.8287 18.9245L16.5754 18.9245C17.6225 18.9245 18.0929 18.9095 18.0929 18.6389C17.6528 14.9412 17.1369 11.5441 15.0579 11.5441L14.5267 11.5441L9.83761 20.3525C9.68877 20.6377 9.67955 20.9746 9.81256 21.2674C9.94558 21.5602 10.2063 21.7768 10.5205 21.8556C11.3703 21.8556 11.7193 22.9529 10.2929 22.9529L1.09668 22.9529C-0.344961 22.9529 -0.360136 21.8707 1.02081 21.8707C1.70816 21.9796 2.40788 21.7689 2.91771 21.2995L6.62046 14.6857C6.83291 14.2948 6.55976 14.2047 5.801 14.2047L4.78426 14.2047C4.65855 14.2047 4.55663 14.1037 4.55663 13.9792C4.55638 13.852 4.65612 13.7466 4.78426 13.7387L5.83135 13.7387C6.84809 13.7387 7.22747 13.7236 7.34887 13.4831L10.1715 8.46267C10.5053 7.93657 9.67068 7.93657 8.98779 7.93657L7.91035 7.93657C7.78464 7.93657 7.68273 7.83562 7.68273 7.7111C7.68247 7.58393 7.78222 7.47854 7.91035 7.4706L8.95744 7.4706C9.02698 7.4706 9.0954 7.47075 9.16256 7.47091C10.0188 7.4729 10.6714 7.47442 10.8543 7.1399L13.2369 2.90106C13.5555 2.25471 12.9182 1.60836 12.1746 1.60836C10.824 1.60836 10.915 0.526098 12.3415 0.526098L22.9945 0.526098C25.4377 0.526098 29.9296 2.28477 28.5942 6.79418C27.8202 9.43971 23.1311 12.3859 19.9595 12.5813C22.0125 15.2943 23.739 18.2352 25.1039 21.3446L25.984 19.9917C26.1054 19.8264 25.984 19.661 25.6805 19.661C25.5548 19.661 25.4529 19.5601 25.4529 19.4356C25.4529 19.311 25.5548 19.2101 25.6805 19.2101L26.1206 19.2101C26.3733 19.2149 26.6141 19.104 26.7731 18.9095L29.1556 15.1967C29.4895 14.6556 29.6868 14.9562 29.4895 15.6477C28.4879 19.1199 29.3985 22.4569 32.6156 22.4719C35.8327 22.4869 36.637 21.2544 37.1682 19.5558C37.2744 19.18 37.0468 19.18 36.6218 19.18L36.1362 19.18C36.0105 19.18 35.9086 19.0791 35.9086 18.9546C35.9086 18.83 36.0105 18.7291 36.1362 18.7291L36.6826 18.7291C37.2137 18.7291 37.3199 18.5487 37.3199 18.1278C36.9063 16.4851 36.0757 14.9742 34.9071 13.7387C34.2752 13.5973 33.6254 13.5517 32.9798 13.6034L28.837 13.6034C28.7113 13.6034 28.6093 13.5025 28.6093 13.3779C28.6093 13.2534 28.7113 13.1525 28.837 13.1525L32.9191 13.1525C33.4199 13.1525 34.3304 13.0773 34.1179 12.8067C33.4351 11.9499 32.8888 11.3938 32.3576 10.6572C32.1603 10.3416 32.0541 10.3416 31.5837 10.3416L30.5518 10.3416C30.4261 10.3416 30.3241 10.2406 30.3241 10.1161C30.3241 9.99159 30.4261 9.89065 30.5518 9.89065L31.5837 9.89065C31.8113 9.89065 31.9024 9.84555 31.9024 9.74033C31.3153 8.35095 31.2034 6.80946 31.5837 5.35117C31.6747 5.08061 31.7354 4.85514 31.8568 4.58457C31.9782 4.31401 31.8265 4.23885 31.5837 4.23885L31.0374 4.23885C30.977 4.23885 30.9191 4.21509 30.8764 4.17281C30.8337 4.13053 30.8097 4.07318 30.8097 4.01338C30.8097 3.95358 30.8337 3.89623 30.8764 3.85395C30.9191 3.81166 30.977 3.78791 31.0374 3.78791L31.6899 3.78791C31.9631 3.78791 32.2969 3.78791 32.4183 3.56244C33.9358 0.826726 36.288 0 39.6569 0C41.3609 -0.000248002 43.0125 0.584004 44.3309 1.65345C45.4242 1.98388 46.5998 1.92539 47.6542 1.48811C48.1095 1.32276 48.7165 1.45804 48.4433 1.96911L44.5737 8.65807C44.3612 8.97373 43.739 8.67311 43.8301 8.25223C43.9818 7.53072 44.0425 7.00462 44.1943 6.28312C44.255 6.01255 44.1184 5.84721 43.8908 5.84721L43.1472 5.84721C43.0215 5.84721 42.9196 5.74626 42.9196 5.62174C42.9193 5.49457 43.0191 5.38918 43.1472 5.38123L43.997 5.38123C44.1639 5.38123 44.2702 5.15576 44.2702 4.96036C44.2532 3.90885 43.7956 2.91166 43.007 2.20752C42.2184 1.50338 41.1698 1.15566 40.1121 1.2476C38.6212 1.04395 37.2171 1.99281 36.8647 3.44219C36.1666 5.39627 37.8055 8.1921 39.5355 9.90568C40.8557 11.2435 43.8604 15.1366 42.5857 18.5187C41.311 21.9007 37.2592 23.4039 35.2409 23.4039C33.1169 23.3553 31.0356 22.8038 29.1708 21.7955C28.3817 21.2694 25.5439 21.555 25.7412 22.5471C25.8323 23.0431 26.1358 23.8548 26.2268 24.2606C26.8863 28.271 30.2129 31.3245 34.3 31.6711C37.5837 31.8205 40.813 30.8022 43.4052 28.8001C43.5873 28.7099 44.1791 28.259 43.4052 28.259L42.3733 28.259C42.2475 28.259 42.1456 28.158 42.1456 28.0335C42.1456 27.909 42.2475 27.8081 42.3733 27.8081L43.2838 27.8081C43.7851 27.9027 44.3 27.9027 44.8013 27.8081C46.4776 26.5154 47.9639 24.9976 49.2173 23.2986C49.2398 23.2731 49.2808 23.2388 49.3264 23.2006C49.496 23.0587 49.73 22.8627 49.3235 22.8627L48.2916 22.8627C48.1659 22.8627 48.064 22.7618 48.064 22.6373C48.064 22.5127 48.1659 22.4118 48.2916 22.4118L49.3994 22.4118C49.7245 22.4096 50.0356 22.2799 50.2644 22.051C51.2409 20.9094 52.0623 19.6461 52.7076 18.2932C52.9049 17.9024 52.8897 17.6468 52.4951 17.6468L51.4784 17.6468C51.35 17.6471 51.2436 17.5483 51.2356 17.4214C51.2356 17.2885 51.3443 17.1809 51.4784 17.1809L52.4496 17.1809C52.7986 17.1809 53.1477 17.1809 53.2539 16.9704ZM17.3949 10.6272C17.6225 10.8527 18.7455 10.1762 19.4587 9.59002C20.7243 8.41987 21.6605 6.94345 22.175 5.30608C22.949 3.08143 22.4027 1.30773 20.7486 1.30773C20.4052 1.26342 20.069 1.42992 19.8988 1.72861L15.6345 9.45474C16.2675 9.7728 16.8587 10.1666 17.3949 10.6272Z" transform="translate(83 32.5)" id="path3061" fill="#552582" fill-rule="evenodd" stroke="none" />
    <path d="M7.54819 3.9224C6.72521 4.87988 5.45524 5.38973 4.1563 5.28413L3.78117 5.28413L6.12578 0.917692C6.25589 0.691087 6.51006 0.553558 6.78228 0.562457C7.07926 0.562457 7.03237 0 6.65723 0L2.98399 0C2.67138 0 2.56196 0.562457 2.84332 0.562457C3.12467 0.562457 3.21846 0.888089 3.06215 1.16932L0.983253 5.06211C0.829427 5.2457 0.604131 5.36304 0.358022 5.38774C0.0454057 5.46175 -0.173425 5.9946 0.186083 5.9946L6.04763 5.9946C6.32143 6.02776 6.5904 5.9062 6.73539 5.68377L7.95459 3.952C8.12653 3.74478 7.76702 3.71517 7.59508 3.952" transform="translate(43 21.5)" id="path3063" fill="#552582" stroke="none" />
    <path d="M7.63322 0.708602C7.38901 0.833585 7.10152 0.833585 6.8573 0.708602C6.32534 0.319629 5.69894 0.0880557 5.04682 0.0392822C3.8463 -0.169288 2.65735 0.467584 2.14093 1.59584C1.63887 2.71656 2.14093 3.63493 3.34284 4.19529C3.84491 4.44434 4.52954 4.77122 4.2709 5.39384C4.01226 6.01647 3.55584 5.90751 3.0842 5.90751C2.25776 5.88667 1.5444 5.30914 1.33458 4.49104C1.33458 4.19529 0.939017 4.25756 0.847732 4.41321L0.0261707 6.07873C-0.0955421 6.29665 0.239168 6.5457 0.376095 6.39004C0.690124 6.09447 1.14931 6.02647 1.53237 6.21882C2.1585 6.62639 2.86516 6.88688 3.60148 6.98153C4.82599 7.116 6.01475 6.50789 6.6443 5.42498C6.97092 4.94496 7.05005 4.33282 6.85663 3.78244C6.66321 3.23206 6.2212 2.81163 5.6706 2.6543C5.00118 2.32742 4.43826 1.76706 4.74254 1.09774C5.04682 0.428422 5.51846 0.770865 5.80753 0.833127C6.40967 0.939285 6.91886 1.34902 7.16158 1.92272C7.19392 2.00548 7.27225 2.05976 7.35937 2.05976C7.44648 2.05976 7.52482 2.00548 7.55715 1.92272L7.98315 0.910955C8.07443 0.708602 7.77015 0.552947 7.66365 0.615209" transform="translate(60 20.5)" id="path3065" fill="#552582" stroke="none" />
    <path d="M9.46285 1.72024L9.94007 0.823361C10.1425 0.441086 9.80992 0 9.27485 0L2.92637 0C2.47807 0 2.60823 0.485195 2.78176 0.485195C3.20114 0.485195 3.31683 0.985093 3.07099 1.41148L1.1621 5.02838C0.977784 5.33491 0.647752 5.51946 0.294429 5.51358C-0.0381788 5.51358 -0.153869 5.99877 0.294429 5.99877L6.71521 5.99877C6.90401 6.01167 7.08546 5.92222 7.19243 5.76353L8.06011 4.5873C8.27703 4.30794 7.81427 4.30794 7.66965 4.44027C6.83156 5.26483 5.67678 5.66876 4.51711 5.54298L3.76512 5.54298L4.66172 3.5581L4.84972 3.5581C5.4137 3.5581 6.06446 3.5581 6.29584 3.98448C6.34789 4.05255 6.42795 4.09237 6.51276 4.09237C6.59757 4.09237 6.67762 4.05255 6.72968 3.98448L7.48166 2.51419C7.59735 2.27895 7.26474 2.24954 7.16351 2.41127C6.87429 2.94058 5.57278 2.79355 5.22571 2.79355L4.96541 2.79355L6.06446 0.602818L7.2792 0.602818C7.99784 0.613146 8.64098 1.05872 8.91332 1.73494C8.91332 1.88197 9.37608 1.99959 9.44839 1.82316" transform="translate(97 21.5)" id="path3067" fill="#552582" stroke="none" />
    <path d="M18.2885 0.115385L20.6271 0.115385L20.672 0.100962C21.1517 0.100962 21.0168 0.576923 20.822 0.576923C20.3423 0.576923 20.0574 0.793269 19.6827 1.51442L17.3142 5.61058C17.2092 5.79808 17.1193 5.94231 16.8644 5.94231L16.0849 5.94231C15.8301 5.94231 15.7102 5.82692 15.5752 5.58173L13.5065 1.71635L12.0075 4.39904C11.9025 4.61538 11.6327 5.40865 12.2024 5.40865C12.3972 5.40865 12.4722 5.94231 12.0524 5.94231L6.46095 5.94231C6.13116 5.94231 6.23609 5.4375 6.46095 5.32212L6.92566 5.07692C7.54028 4.77404 6.82073 3.63462 5.80137 3.63462L4.06245 3.63462L3.17801 4.44231C3.00123 4.57212 2.93233 4.79722 3.00778 4.9985C3.08323 5.19978 3.2856 5.33075 3.5078 5.32212C3.77763 5.32212 3.89756 6 3.34291 6L0.479699 6C0.149906 6 0 5.97115 0 5.63942C0 5.30769 0.194878 5.30769 0.554653 5.30769L0.719549 5.30769C1.13929 5.30769 1.67895 4.78846 2.21861 4.39904L3.17801 3.63462L2.21861 3.63462C1.82885 3.63462 1.69394 3.44712 1.69394 3.27404C1.69394 3.10096 1.84384 2.94231 2.20362 2.94231L4.04746 2.94231L7.60024 0.129808C7.81011 -0.0432692 8.70954 -0.0432692 8.70954 0.129808L10.1187 4.57212C10.1919 4.7148 10.343 4.80512 10.5084 4.80512C10.6738 4.80512 10.8249 4.7148 10.8982 4.57212L12.727 1.16827C12.847 0.923077 12.9819 0.5625 12.4872 0.5625C12.2923 0.5625 12.1874 0.100962 12.6521 0.100962L14.9606 0.100962C15.2446 0.0822561 15.5231 0.182106 15.7251 0.375L17.8688 3.375L18.8282 1.67308C18.9456 1.44434 18.9341 1.17386 18.7977 0.955108C18.6613 0.736352 18.4186 0.599315 18.1536 0.591346C17.9587 0.591346 17.8238 0.115385 18.2885 0.115385ZM7.15052 1.18269L4.9469 2.89904L7.15052 2.89904L7.15052 1.18269Z" transform="translate(69 21.5)" id="path3069" fill="#552582" fill-rule="evenodd" stroke="none" />
    <path d="M4.69339 0.0703743C2.60263 -0.124198 0.66726 1.18177 0.0818332 3.1822C-0.142956 4.13942 0.101365 5.14572 0.740837 5.89648C1.38031 6.64724 2.33976 7.05421 3.32875 6.99418C5.49509 7.0194 7.39884 5.5742 7.94031 3.49338C8.13031 2.57317 7.86077 1.61857 7.21653 0.930142C6.5723 0.241709 5.63264 -0.0958667 4.69339 0.023697M5.28945 3.96015C4.63065 5.25156 3.53266 6.02951 2.82681 5.67166C2.12096 5.3138 2.10527 4.00683 2.82681 2.69986C3.54835 1.3929 4.56791 0.646062 5.27376 0.988362C5.97961 1.33066 5.9953 2.66875 5.27376 3.96015" transform="translate(52 21.5)" id="path3071" fill="#552582" stroke="none" />
    <path d="M6.91933 3.31786L4.48422 3.31786C4.03754 3.31786 4.16722 3.83493 4.35454 3.83493C4.54185 3.83493 4.71476 3.94461 4.71476 4.28932C4.71476 5.35479 4.31131 5.76218 3.46118 5.76218C2.61105 5.76218 2.19319 4.54002 2.82719 3.0515C3.32334 1.9206 4.36943 1.19671 5.52166 1.18692C6.29974 1.18692 6.96256 1.37495 7.0346 2.15838C7.0346 2.34641 7.32278 2.34641 7.40923 2.15838L8 1.03024C8 0.920556 8 0.779538 7.78387 0.763869C7.56773 0.748201 7.29396 0.951893 7.07783 0.763869C5.95974 0.0246832 4.61358 -0.189222 3.34773 0.171153C2.08189 0.531529 1.00482 1.4353 0.363259 2.67545C-0.0923355 3.52169 -0.121141 4.56173 0.286794 5.43625C0.694729 6.31078 1.48346 6.89986 2.38051 7C3.21457 6.85583 4.01622 6.54222 4.74358 6.07555L5.36316 6.52994C5.48088 6.68895 5.65198 6.79044 5.83866 6.81198L6.0692 6.81198C6.28534 6.81198 6.37179 6.4986 6.45824 6.29491L7.40923 3.77225C7.5245 3.52156 7.40923 3.33353 6.91933 3.33353" transform="translate(90 20.5)" id="path3073" fill="#552582" stroke="none" />
    <path d="M7.61863 0.70765C7.3797 0.832405 7.0968 0.832405 6.85787 0.70765C6.32372 0.322812 5.69845 0.0916369 5.04726 0.0382281C3.84322 -0.166904 2.65184 0.467989 2.12593 1.59502C1.62382 2.71591 2.12593 3.63442 3.32793 4.19487C3.84525 4.44396 4.52994 4.77088 4.27128 5.3936C4.01262 6.01632 3.54095 5.90734 3.06927 5.90734C2.24662 5.88485 1.53848 5.30647 1.33473 4.49066C1.31746 4.37688 1.23026 4.28759 1.11907 4.26981C1.00789 4.25204 0.898224 4.30986 0.847847 4.41282L0.0262235 6.07859C-0.0954985 6.29654 0.239237 6.54563 0.360959 6.38995C0.679835 6.09163 1.14478 6.02367 1.53253 6.2187C2.15757 6.6287 2.86483 6.88943 3.60181 6.98153C4.8264 7.11602 6.01525 6.50781 6.64486 5.42474C6.97126 4.94251 7.04842 4.32812 6.85177 3.77712C6.65512 3.22613 6.20917 2.80718 5.65587 2.65364C5.00161 2.32672 4.43865 1.76627 4.72774 1.09685C5.01682 0.427427 5.51893 0.769921 5.80802 0.832193C6.40792 0.943609 6.915 1.35168 7.16217 1.92195C7.18643 2.00884 7.26405 2.06874 7.35237 2.06874C7.44068 2.06874 7.5183 2.00884 7.54256 1.92195L7.9838 0.910033C8.07509 0.70765 7.75557 0.55197 7.64906 0.614242" transform="translate(124 20.5)" id="path3075" fill="#552582" stroke="none" />
    <path d="M7.54846 3.9224C6.72597 4.87988 5.45676 5.38973 4.15859 5.28413L3.78368 5.28413L6.1269 0.917692C6.25412 0.688501 6.51002 0.549953 6.783 0.562457C7.07981 0.562457 7.03295 0 6.65803 0L2.97136 0C2.65893 0 2.54958 0.562457 2.84639 0.562457C3.1432 0.562457 3.2213 0.888089 3.06509 1.16932L0.987431 5.06211C0.82665 5.24532 0.596965 5.3621 0.34695 5.38774C0.0501422 5.46175 -0.168559 5.9946 0.175114 5.9946L6.04879 5.9946C6.32243 6.02776 6.59124 5.9062 6.73614 5.68377L7.95461 3.952C8.12645 3.74478 7.76716 3.71517 7.59532 3.952" transform="translate(107 21.5)" id="path3077" fill="#552582" stroke="none" />
    <path d="M7.29375 0.499829C8.01239 0.510156 8.65554 0.955667 8.92789 1.6318C8.92789 1.7788 9.37619 1.89641 9.46296 1.72L9.94019 0.823248C10.1426 0.441026 9.81003 0 9.2605 0L2.92641 0C2.46364 0 2.5938 0.485128 2.78179 0.485128C3.20117 0.485128 3.31687 0.984958 3.07102 1.41128L1.16212 5.0277C0.979931 5.33645 0.648496 5.52175 0.294433 5.51282C-0.0381792 5.51282 -0.15387 5.99795 0.294433 5.99795L6.71529 5.99795C6.90094 6.01506 7.08013 5.92398 7.17806 5.76274L8.0602 4.58667C8.27712 4.30735 7.81436 4.30735 7.66975 4.43966C6.83057 5.26234 5.67662 5.66591 4.51716 5.54223L3.82301 5.54223L4.66178 3.55761L4.84977 3.55761C5.41377 3.55761 6.06453 3.55761 6.29591 3.98393C6.34797 4.052 6.42802 4.09181 6.51283 4.09181C6.59764 4.09181 6.6777 4.052 6.72976 3.98393L7.48175 2.51385C7.59744 2.27863 7.26483 2.24923 7.1636 2.41094C6.87437 2.94017 5.57284 2.79316 5.22577 2.79316L4.97993 2.79316L6.07899 0.602735L7.29375 0.499829Z" transform="translate(115 21.5)" id="path3079" fill="#552582" stroke="none" />
    <g id="g3081" transform="translate(0 20.5)">
      <path d="M27.7162 15.6161C23.8922 20.2858 21.6942 21.8929 17.8401 21.8929C16.5303 21.8929 15.8378 21.5897 16.2142 20.9377L20.7307 11.6135L22.4921 11.6135C24.4492 11.6135 24.1782 13.2813 23.6513 15.5403C23.5459 15.8435 23.7868 15.8587 24.0277 15.5403L28.3936 7.7929C28.6194 7.30774 28.0624 7.21677 27.7914 7.58065C26.6277 9.4692 24.5107 10.541 22.3114 10.3552L21.6038 10.3552L26.5268 0.909677L28.499 0.909677C30.9981 1.06129 32.1574 3.19903 31.51 8.35387L32.5488 8.35387L36.162 1.16742C36.4631 0.560968 35.8458 0 35.1684 0L10.5535 0C9.1233 0 9.04802 1.09161 10.418 1.09161C11.5321 1.09161 11.4719 2.69871 10.418 3.45677L0 11.7955L2.10769 21.6352C2.15523 21.985 2.34325 22.3 2.62783 22.5063C2.91242 22.7127 3.26862 22.7924 3.61319 22.7268L23.9073 22.7268C24.4984 22.792 25.0772 22.5239 25.4127 22.0294L28.9808 15.7071C29.4926 14.7823 28.3184 14.8429 27.671 15.6161M13.5344 11.0677L11.788 11.0677C11.6633 11.0677 11.5622 11.1696 11.5622 11.2952C11.5622 11.4208 11.6633 11.5226 11.788 11.5226L13.6097 11.5226C14.2119 11.5226 14.784 11.5984 14.6184 11.8713L9.93626 20.9681C9.80175 21.4158 9.39205 21.722 8.92758 21.722C8.46312 21.722 8.05342 21.4158 7.9189 20.9681L5.60044 8.83903L13.7602 2.45613C14.6464 1.56863 15.7381 0.91732 16.9368 0.560968L18.7284 0.560968C19.7973 0.560968 20.2338 1.07645 19.9327 1.72839L19.6166 2.33484C19.4209 2.68355 18.7735 2.72903 18.2315 2.72903L17.2078 2.72903C17.0831 2.72903 16.982 2.83085 16.982 2.95645C16.9774 3.01806 16.9998 3.0786 17.0431 3.12229C17.0865 3.16597 17.1466 3.18845 17.2078 3.18387L18.2165 3.18387C18.6531 3.18387 19.2101 3.18387 18.9993 3.53258L15.2055 10.81C15.0399 11.0981 14.242 11.1435 13.5796 11.1435" transform="translate(55.32692 11.76516)" id="path3089" fill="#552582" stroke="none" />
      <path d="M52.06 32.5968C51.5936 32.5885 51.1832 32.2846 51.0363 31.8387C50.8385 31.2279 50.8385 30.5696 51.0363 29.9587L60.5058 13.0539C60.6564 12.7506 61.0478 12.0987 61.5145 12.0987C62.3576 12.0987 62.7189 10.9919 61.3037 10.9919L53.7763 10.9919C52.3611 10.9919 52.2708 12.0684 53.701 12.0684C53.9177 12.057 54.125 12.1583 54.2503 12.3367C54.3755 12.5152 54.4012 12.7458 54.3182 12.9477L52.2256 16.7836C51.9546 17.1929 51.3825 17.2232 50.7201 17.2232L48.9135 17.2232C48.7888 17.2232 48.6877 17.325 48.6877 17.4506C48.6877 17.5762 48.7888 17.6781 48.9135 17.6781L50.7352 17.6781C51.232 17.6781 51.6084 17.8297 51.3374 18.3906L44.3368 31.2171C43.84 31.9297 42.8313 32.0813 42.8313 30.7319L45.3154 11.9471C45.4208 11.371 45.3154 10.9768 44.6379 10.9768L40.9495 10.9768C40.5702 10.9723 40.2162 11.1678 40.016 11.4923L38.6762 13.1752C38.3841 13.3424 38.045 13.4064 37.7126 13.3571L34.6264 13.3571C34.5652 13.3525 34.5051 13.375 34.4617 13.4187C34.4183 13.4624 34.396 13.5229 34.4006 13.5845C34.4006 13.7101 34.5017 13.8119 34.6264 13.8119L37.1857 13.8119C37.6524 13.8119 38.1793 13.9181 37.9836 14.1303L34.3855 18.6787C34.1841 18.8079 33.9459 18.8666 33.708 18.8455L32.6843 18.8455C32.5596 18.8455 32.4585 18.9473 32.4585 19.0729C32.4585 19.1985 32.5596 19.3003 32.6843 19.3003L33.5424 19.3003C33.7984 19.3003 33.7984 19.4368 33.693 19.5581L30.3056 23.8335C30.0578 24.0012 29.7595 24.0763 29.4625 24.0458L26.4515 24.0458C26.3327 24.0538 26.2405 24.1533 26.2408 24.2732C26.2366 24.3321 26.2569 24.3901 26.2969 24.4332C26.3369 24.4764 26.3929 24.5008 26.4515 24.5006L29.0259 24.5006C29.4174 24.5006 29.7185 24.5765 29.5077 24.8342L24.6901 30.8987C23.7868 32.051 19.4359 32.6423 18.5778 32.6423L34.8221 1.98613C35.1106 1.47763 35.6279 1.14351 36.2071 1.09161L39.6698 1.09161C41.2957 1.09161 41.1753 0 39.8354 0L22.4469 0C21.0318 0 20.9414 1.09161 22.5975 1.09161L25.8192 1.09161C26.7376 1.09161 27.0387 1.65258 26.7978 2.10742L26.3311 2.94129C26.1805 3.22936 25.9698 3.33548 25.0815 3.33548L19.3908 3.33548C19.2661 3.33548 19.1649 3.4373 19.1649 3.5629C19.1649 3.6885 19.2661 3.79032 19.3908 3.79032L25.0665 3.79032C25.3826 3.79032 25.8343 3.86613 25.5482 4.4271L24.7503 5.94323C24.5263 6.19408 24.1945 6.31866 23.8621 6.27677L21.2877 6.27677C21.163 6.27677 21.0619 6.37859 21.0619 6.50419C21.0619 6.62979 21.163 6.73161 21.2877 6.73161L23.8621 6.73161C24.2234 6.73161 24.2385 6.97419 24.0277 7.3229L22.191 10.7494C22.0254 11.0374 21.7393 11.0829 21.1522 11.0829L20.1285 11.0829C20.0037 11.0829 19.9026 11.1847 19.9026 11.3103C19.8981 11.3719 19.9204 11.4325 19.9638 11.4762C20.0072 11.5198 20.0673 11.5423 20.1285 11.5377L21.0769 11.5377C21.4684 11.5377 21.5587 11.75 21.3931 12.1139L19.8876 14.9339C19.6618 15.3432 19.3456 15.4948 18.3821 15.4948L12.7214 15.4948C12.5967 15.4948 12.4956 15.5967 12.4956 15.7223C12.4956 15.8479 12.5967 15.9497 12.7214 15.9497L18.3821 15.9497C19.0295 15.9497 19.2703 16.2377 19.0144 16.7077L16.0034 22.2568C15.8227 22.5145 15.356 22.5448 14.4979 22.5448L8.91253 22.5448C8.78781 22.5448 8.6867 22.6467 8.6867 22.7723C8.6867 22.8979 8.78781 22.9997 8.91253 22.9997L14.5882 22.9997C15.2657 22.9997 15.6873 22.9997 15.4765 23.3939L13.7903 26.5626C13.4742 27.0477 12.601 27.0477 12.2848 27.0477L10.5385 27.0477C10.4137 27.0477 10.3126 27.1496 10.3126 27.2752C10.3126 27.4008 10.4137 27.5026 10.5385 27.5026L12.2547 27.5026C12.887 27.5026 13.2182 27.6087 13.0526 27.9574L10.7944 32.2329C10.5836 32.6119 9.71044 32.6423 9.01791 32.6423L0.225824 32.6423C0.101105 32.6423 1.52737e-17 32.7441 0 32.8697C-1.52737e-17 32.9953 0.101105 33.0971 0.225824 33.0971L9.03297 33.0971C9.60505 33.0971 10.3427 33.0971 10.0718 33.6277L8.56626 36.3568C8.43077 36.5842 7.93396 36.5994 7.22637 36.5994L5.48 36.5994C5.35263 36.5991 5.24708 36.6988 5.23912 36.8268C5.23898 36.8898 5.26483 36.9501 5.31049 36.9932C5.35616 37.0363 5.41754 37.0584 5.48 37.0542L7.27154 37.0542C7.69308 37.0542 8.23505 37.0542 8.03934 37.4484L7.13604 39.1919C6.92765 39.716 6.43169 40.0669 5.87143 40.0865L1.50549 40.0865C-0.12044 40.0865 -3.80711e-08 41.1781 1.35495 41.1781L27.2043 41.1781C27.9721 41.1781 27.9871 41.0719 28.3485 40.511L32.1875 33.7642L51.8342 33.7642C53.3397 33.7642 52.888 32.6877 52.06 32.6574M36.6588 30.5955C36.4631 31.7023 35.349 32.4452 33.9489 32.809L32.4434 33.1729L33.693 30.9897C34.0091 30.4135 33.3166 30.0648 32.5789 30.9897C27.5506 36.8874 25.9547 39.7074 18.2165 39.7226L16.1389 39.7226C15.5066 39.7226 14.8141 39.48 15.2507 38.8735L18.0659 33.7035L28.4538 33.7035C29.869 33.7035 29.5077 32.6271 28.6797 32.5968C28.0194 32.5514 27.4257 32.1756 27.0989 31.5961C26.83 31.127 26.83 30.5491 27.0989 30.08L31.0734 24.7584L37.6374 24.7584L36.6588 30.5955ZM38.1643 23.8487L31.6907 23.8487L39.8655 13.0084L38.1492 23.8487L38.1643 23.8487Z" transform="translate(3.807111E-08 0.8490323)" id="path3091" fill="#552582" stroke="none" />
      <path d="M52.8318 17.1171C53.1781 16.45 53.3738 16.1165 53.4792 16.6623L53.5545 16.5258C53.6522 16.9932 53.3239 17.6401 53.0277 18.2238C52.9587 18.3597 52.8915 18.4921 52.8318 18.6181C50.4956 22.7687 47.4357 26.4614 43.7989 29.519C40.5184 32.2682 36.4753 33.9307 32.2216 34.2797C26.3201 34.5677 20.2078 30.4287 18.7926 25.1829C18.6571 24.9706 18.1904 24.9706 17.1516 24.9706L13.8546 24.9706C13.7299 24.9706 13.6288 24.8688 13.6288 24.7432C13.6288 24.6176 13.7299 24.5158 13.8546 24.5158L17.1516 24.5158C17.2605 24.5158 17.3683 24.5173 17.4729 24.5187C18.1198 24.5275 18.6445 24.5347 18.5668 24.1823C18.2662 22.7261 18.055 21.2527 17.9345 19.7703C17.9194 19.5429 16.971 19.5429 16.2784 19.5429L13.7191 19.5429C13.6592 19.5429 13.6018 19.5189 13.5594 19.4763C13.5171 19.4336 13.4933 19.3758 13.4933 19.3155C13.4933 19.2552 13.5171 19.1973 13.5594 19.1547C13.6018 19.112 13.6592 19.0881 13.7191 19.0881L16.444 19.0881C17.4828 19.0881 17.9495 19.0729 17.9495 18.8C17.5129 15.0703 17.0011 11.6439 14.9385 11.6439L14.4116 11.6439L9.75964 20.5284C9.61199 20.8161 9.60284 21.1559 9.7348 21.4512C9.86676 21.7465 10.1254 21.965 10.4371 22.0445C11.2802 22.0445 11.6265 23.1513 10.2113 23.1513L1.08799 23.1513C-0.342227 23.1513 -0.357282 22.0597 1.01272 22.0597C1.69463 22.1696 2.3888 21.9571 2.89459 21.4836L6.56799 14.8126C6.77876 14.4184 6.50777 14.3274 5.75503 14.3274L4.74634 14.3274C4.62163 14.3274 4.52052 14.2256 4.52052 14.1C4.52027 13.9717 4.61922 13.8654 4.74634 13.8574L5.78514 13.8574C6.79382 13.8574 7.17019 13.8423 7.29063 13.5997L10.0908 8.53581C10.4221 8.00516 9.59404 8.00516 8.91656 8.00516L7.84766 8.00516C7.72294 8.00516 7.62184 7.90334 7.62184 7.77774C7.62159 7.64947 7.72054 7.54318 7.84766 7.53516L8.88645 7.53516C8.95544 7.53516 9.02331 7.53532 9.08994 7.53548C9.93936 7.53749 10.5868 7.53902 10.7683 7.20161L13.1319 2.92613C13.4481 2.27419 12.8158 1.62226 12.0781 1.62226C10.7382 1.62226 10.8285 0.530645 12.2437 0.530645L22.8123 0.530645C25.2361 0.530645 29.6924 2.30452 28.3676 6.8529C27.5998 9.52129 22.9478 12.4929 19.8013 12.69C21.838 15.4264 23.5508 18.3928 24.9049 21.529L25.7781 20.1645C25.8985 19.9977 25.7781 19.831 25.477 19.831C25.3523 19.831 25.2512 19.7291 25.2512 19.6035C25.2512 19.4779 25.3523 19.3761 25.477 19.3761L25.9136 19.3761C26.1643 19.381 26.4031 19.2691 26.561 19.0729L28.9246 15.3281C29.2558 14.7823 29.4515 15.0855 29.2558 15.7829C28.2622 19.2852 29.1655 22.651 32.3571 22.6661C35.5488 22.6813 36.3467 21.4381 36.8736 19.7248C36.979 19.3458 36.7532 19.3458 36.3316 19.3458L35.8499 19.3458C35.7251 19.3458 35.624 19.244 35.624 19.1184C35.624 18.9928 35.7251 18.891 35.8499 18.891L36.3918 18.891C36.9188 18.891 37.0241 18.709 37.0241 18.2845C36.6138 16.6275 35.7898 15.1036 34.6304 13.8574C34.0036 13.7148 33.3589 13.6688 32.7184 13.721L28.6084 13.721C28.4837 13.721 28.3826 13.6191 28.3826 13.4935C28.3826 13.3679 28.4837 13.2661 28.6084 13.2661L32.6582 13.2661C33.155 13.2661 34.0583 13.1903 33.8476 12.9174C33.1701 12.0532 32.6281 11.4923 32.1012 10.7494C31.9055 10.431 31.8001 10.431 31.3334 10.431L30.3096 10.431C30.1849 10.431 30.0838 10.3291 30.0838 10.2035C30.0838 10.0779 30.1849 9.97613 30.3096 9.97613L31.3334 9.97613C31.5592 9.97613 31.6495 9.93065 31.6495 9.82452C31.0671 8.42313 30.9561 6.86831 31.3334 5.39742C31.4237 5.12452 31.4839 4.8971 31.6044 4.62419C31.7248 4.35129 31.5743 4.27548 31.3334 4.27548L30.7914 4.27548C30.7315 4.27548 30.6741 4.25152 30.6317 4.20887C30.5894 4.16622 30.5656 4.10838 30.5656 4.04806C30.5656 3.98775 30.5894 3.9299 30.6317 3.88725C30.6741 3.84461 30.7315 3.82065 30.7914 3.82065L31.4388 3.82065C31.7097 3.82065 32.041 3.82065 32.1614 3.59323C33.6669 0.833871 36.0004 0 39.3426 0C41.0331 -0.000250145 42.6716 0.589051 43.9795 1.66774C45.0642 2.00102 46.2305 1.94203 47.2766 1.50097C47.7282 1.33419 48.3304 1.47065 48.0594 1.98613L44.2204 8.7329C44.0096 9.05129 43.3924 8.74806 43.4827 8.32355C43.6333 7.59581 43.6935 7.06516 43.844 6.33742C43.9043 6.06452 43.7688 5.89774 43.5429 5.89774L42.8052 5.89774C42.6805 5.89774 42.5794 5.79592 42.5794 5.67032C42.5792 5.54205 42.6781 5.43576 42.8052 5.42774L43.6483 5.42774C43.8139 5.42774 43.9193 5.20032 43.9193 5.00323C43.9024 3.94263 43.4485 2.93683 42.6662 2.2266C41.8838 1.51637 40.8435 1.16565 39.7943 1.25839C38.3151 1.05297 36.9221 2.01003 36.5725 3.47194C35.88 5.4429 37.5059 8.2629 39.2222 9.99129C40.5319 11.3406 43.5128 15.2674 42.2482 18.6787C40.9836 22.09 36.9639 23.6061 34.9616 23.6061C32.8545 23.5572 30.7896 23.0009 28.9396 21.9839C28.1568 21.4532 25.3415 21.7413 25.5372 22.7419C25.6276 23.2423 25.9287 24.061 26.019 24.4703C26.6732 28.5154 29.9734 31.5953 34.0282 31.9448C37.2858 32.0955 40.4896 31.0684 43.0612 29.049C43.2418 28.9581 43.829 28.5032 43.0612 28.5032L42.0374 28.5032C41.9127 28.5032 41.8116 28.4014 41.8116 28.2758C41.8116 28.1502 41.9127 28.0484 42.0374 28.0484L42.9407 28.0484C43.4381 28.1439 43.9489 28.1439 44.4462 28.0484C46.1093 26.7445 47.5838 25.2137 48.8272 23.5C48.8496 23.4743 48.8902 23.4397 48.9355 23.4011C49.1037 23.258 49.3359 23.0603 48.9326 23.0603L47.9089 23.0603C47.7841 23.0603 47.683 22.9585 47.683 22.8329C47.683 22.7073 47.7841 22.6055 47.9089 22.6055L49.0079 22.6055C49.3305 22.6033 49.639 22.4724 49.866 22.2416C50.8348 21.0902 51.6497 19.8159 52.2899 18.4513C52.4856 18.0571 52.4705 17.7994 52.0791 17.7994L51.0704 17.7994C50.943 17.7996 50.8375 17.7 50.8295 17.5719C50.8295 17.438 50.9374 17.3294 51.0704 17.3294L52.0339 17.3294C52.3802 17.3294 52.7265 17.3294 52.8318 17.1171ZM17.257 10.719C17.4828 10.9465 18.5969 10.2642 19.3045 9.6729C20.56 8.49264 21.4888 7.00346 21.9993 5.35194C22.7671 3.10806 22.2251 1.31903 20.5841 1.31903C20.2435 1.27434 19.91 1.44228 19.7411 1.74355L15.5106 9.53645C16.1386 9.85726 16.7251 10.2544 17.257 10.719Z" transform="translate(82.9186 11.40129)" id="path3093" fill="#552582" fill-rule="evenodd" stroke="none" />
      <path d="M7.27011 4.01774C6.47745 4.9985 5.25427 5.52075 4.00318 5.41258L3.64186 5.41258L5.90011 0.94C6.02542 0.707886 6.27022 0.567014 6.53241 0.576129C6.81846 0.576129 6.77329 0 6.41197 0L2.87406 0C2.57296 0 2.46758 0.576129 2.73857 0.576129C3.00956 0.576129 3.09989 0.909677 2.94934 1.19774L0.947029 5.18516C0.798871 5.37321 0.581875 5.49341 0.344832 5.51871C0.0437329 5.59452 -0.167036 6.14032 0.179227 6.14032L5.82483 6.14032C6.08854 6.17428 6.3476 6.04976 6.48725 5.82194L7.66153 4.04806C7.82714 3.83581 7.48087 3.80548 7.31527 4.04806" transform="translate(43.52528 0.8793548)" id="path3095" fill="#552582" stroke="none" />
      <path d="M7.55337 0.690197C7.31171 0.811934 7.02723 0.811934 6.78557 0.690197C6.25916 0.311327 5.63932 0.0857686 4.99403 0.0382619C3.80607 -0.164891 2.62955 0.455439 2.11853 1.55439C1.62172 2.646 2.11853 3.54052 3.30787 4.08633C3.80469 4.32891 4.48216 4.64729 4.22623 5.25375C3.97029 5.8602 3.51864 5.75407 3.05194 5.75407C2.23414 5.73377 1.52824 5.17125 1.32062 4.37439C1.32062 4.08633 0.929193 4.14697 0.838864 4.29858L0.0258969 5.92084C-0.0945426 6.1331 0.236666 6.37568 0.372161 6.22407C0.682905 5.93617 1.13729 5.86994 1.51634 6.05729C2.13592 6.45428 2.83519 6.708 3.56381 6.8002C4.7755 6.93117 5.95182 6.33885 6.5748 5.28407C6.898 4.81652 6.9763 4.22028 6.7849 3.6842C6.5935 3.14811 6.15612 2.7386 5.61128 2.58536C4.94886 2.26697 4.39183 1.72117 4.69293 1.06923C4.99403 0.417294 5.46073 0.750843 5.74677 0.811488C6.34262 0.914888 6.84648 1.31398 7.08666 1.87278C7.11866 1.95339 7.19617 2.00626 7.28238 2.00626C7.36858 2.00626 7.4461 1.95339 7.47809 1.87278L7.89963 0.887294C7.98996 0.690197 7.68886 0.538584 7.58348 0.59923" transform="translate(60.28421 0.3559316)" id="path3097" fill="#552582" stroke="none" />
      <path d="M9.85135 1.77387L10.3482 0.849032C10.5589 0.454839 10.2127 0 9.65564 0L3.04652 0C2.57981 0 2.71531 0.500323 2.89597 0.500323C3.33256 0.500323 3.453 1.01581 3.19707 1.45548L1.20981 5.18516C1.01793 5.50125 0.674346 5.69155 0.306518 5.68548C-0.0397463 5.68548 -0.160186 6.18581 0.306518 6.18581L6.99091 6.18581C7.18746 6.1991 7.37637 6.10686 7.48773 5.94323L8.39102 4.73032C8.61685 4.44226 8.13509 4.44226 7.98454 4.57871C7.11204 5.42898 5.90985 5.8455 4.70256 5.71581L3.9197 5.71581L4.85311 3.66903L5.04883 3.66903C5.63597 3.66903 6.31344 3.66903 6.55432 4.10871C6.60851 4.17891 6.69185 4.21996 6.78015 4.21996C6.86844 4.21996 6.95178 4.17891 7.00597 4.10871L7.78883 2.59258C7.90927 2.35 7.563 2.31968 7.45762 2.48645C7.15652 3.03226 5.80157 2.88065 5.44025 2.88065L5.16927 2.88065L6.31344 0.621613L7.57806 0.621613C8.3262 0.632263 8.99574 1.09173 9.27927 1.78903C9.27927 1.94065 9.76102 2.06194 9.8363 1.88" transform="translate(97.20436 0.8793548)" id="path3099" fill="#552582" stroke="none" />
      <path d="M18.367 0.12129L20.7156 0.12129L20.7608 0.106129C21.2425 0.106129 21.107 0.606452 20.9113 0.606452C20.4296 0.606452 20.1435 0.833871 19.7671 1.59194L17.3885 5.89774C17.2831 6.09484 17.1927 6.24645 16.9368 6.24645L16.154 6.24645C15.898 6.24645 15.7776 6.12516 15.6421 5.86742L13.5645 1.80419L12.059 4.62419C11.9536 4.85161 11.6826 5.68548 12.2547 5.68548C12.4504 5.68548 12.5257 6.24645 12.1042 6.24645L6.48868 6.24645C6.15747 6.24645 6.26286 5.71581 6.48868 5.59452L6.95538 5.33677C7.57264 5.01839 6.85 3.82065 5.82626 3.82065L4.07989 3.82065L3.19165 4.66968C3.01411 4.80613 2.94492 5.04276 3.02069 5.25434C3.09646 5.46592 3.2997 5.60359 3.52286 5.59452C3.79385 5.59452 3.91429 6.3071 3.35725 6.3071L0.481758 6.3071C0.150549 6.3071 0 6.27677 0 5.92806C0 5.57935 0.195714 5.57935 0.557033 5.57935L0.722637 5.57935C1.14418 5.57935 1.68615 5.03355 2.22813 4.62419L3.19165 3.82065L2.22813 3.82065C1.8367 3.82065 1.70121 3.62355 1.70121 3.44161C1.70121 3.25968 1.85176 3.0929 2.21308 3.0929L4.06484 3.0929L7.63286 0.136452C7.84363 -0.0454839 8.74692 -0.0454839 8.74692 0.136452L10.1621 4.80613C10.2357 4.95612 10.3874 5.05106 10.5535 5.05106C10.7196 5.05106 10.8714 4.95612 10.9449 4.80613L12.7816 1.22806C12.9021 0.970323 13.0376 0.59129 12.5408 0.59129C12.3451 0.59129 12.2397 0.106129 12.7064 0.106129L15.0248 0.106129C15.31 0.0864662 15.5898 0.191427 15.7926 0.394194L17.9455 3.54774L18.909 1.75871C19.0269 1.51826 19.0154 1.23395 18.8784 1.00399C18.7414 0.774041 18.4977 0.62999 18.2315 0.621613C18.0358 0.621613 17.9003 0.12129 18.367 0.12129ZM7.18121 1.24323L4.96813 3.04742L7.18121 3.04742L7.18121 1.24323Z" transform="translate(69.44846 0.7580645)" id="path3101" fill="#552582" fill-rule="evenodd" stroke="none" />
      <path d="M4.5047 0.0685749C2.49799 -0.121022 0.640433 1.15155 0.0785431 3.10083C-0.137208 4.03358 0.0972896 5.01415 0.711052 5.74572C1.32481 6.47728 2.24569 6.87384 3.19492 6.81535C5.27416 6.83993 7.10137 5.43167 7.62107 3.40406C7.80343 2.50738 7.54472 1.57719 6.92639 0.906359C6.30806 0.235529 5.40618 -0.0934155 4.5047 0.0230911M5.07679 3.8589C4.44448 5.11728 3.39063 5.87535 2.71316 5.52664C2.03569 5.17793 2.02063 3.90438 2.71316 2.63083C3.40569 1.35728 4.38426 0.629543 5.06173 0.963091C5.7392 1.29664 5.75426 2.60051 5.06173 3.8589" transform="translate(52.31266 0.5378767)" id="path3103" fill="#552582" stroke="none" />
      <path d="M7.22954 3.21042L4.68526 3.21042C4.21856 3.21042 4.35405 3.71075 4.54976 3.71075C4.74548 3.71075 4.92614 3.81688 4.92614 4.15042C4.92614 5.18139 4.5046 5.57559 3.61636 5.57559C2.72812 5.57559 2.29152 4.393 2.95394 2.95268C3.47234 1.85841 4.56533 1.15796 5.76922 1.14849C6.58218 1.14849 7.27471 1.33042 7.34998 2.08849C7.34998 2.27042 7.65108 2.27042 7.74141 2.08849L8.35867 0.996876C8.35867 0.890747 8.35867 0.754295 8.13284 0.739134C7.90702 0.723973 7.62097 0.921069 7.39515 0.739134C6.22693 0.0238839 4.82042 -0.183095 3.49782 0.165611C2.17522 0.514317 1.04987 1.38883 0.379545 2.58881C-0.0964752 3.40765 -0.126572 4.41401 0.299652 5.26022C0.725875 6.10642 1.54997 6.67643 2.48724 6.77333C3.35869 6.63383 4.19628 6.33037 4.95625 5.87881L5.60361 6.31849C5.7266 6.47235 5.90538 6.57055 6.10042 6.59139L6.3413 6.59139C6.56713 6.59139 6.65746 6.28817 6.74779 6.09107L7.74141 3.6501C7.86185 3.40752 7.74141 3.22559 7.22954 3.22559" transform="translate(89.63397 0.4434467)" id="path3105" fill="#552582" stroke="none" />
      <path d="M7.53836 0.689165C7.30195 0.810662 7.02203 0.810662 6.78561 0.689165C6.25709 0.31438 5.63841 0.0892432 4.99408 0.0372295C3.80273 -0.162544 2.6239 0.455765 2.10353 1.55336C1.60672 2.64497 2.10353 3.53949 3.29287 4.08529C3.80474 4.32787 4.48221 4.64626 4.22627 5.25271C3.97034 5.85916 3.50364 5.75304 3.03693 5.75304C2.22295 5.73113 1.52227 5.16786 1.32067 4.37336C1.30358 4.26255 1.2173 4.17559 1.10728 4.15828C0.997266 4.14097 0.88876 4.19728 0.838914 4.29755L0.0259472 5.91981C-0.0944923 6.13207 0.236716 6.37465 0.357156 6.22304C0.672672 5.93251 1.13271 5.86633 1.51639 6.05626C2.13484 6.45555 2.83464 6.70947 3.56386 6.79917C4.77555 6.93014 5.95187 6.33782 6.57484 5.28304C6.89781 4.8134 6.97415 4.21506 6.77958 3.67846C6.585 3.14185 6.14375 2.73386 5.59627 2.58433C4.94891 2.26594 4.39188 1.72013 4.67792 1.0682C4.96397 0.416262 5.46078 0.74981 5.74682 0.810455C6.3404 0.918961 6.84214 1.31637 7.08671 1.87175C7.11071 1.95636 7.18751 2.01471 7.2749 2.01471C7.36229 2.01471 7.43908 1.95636 7.46309 1.87175L7.89968 0.886262C7.99001 0.689165 7.67385 0.537552 7.56847 0.598197" transform="translate(124.1774 0.356964)" id="path3107" fill="#552582" stroke="none" />
      <path d="M7.27469 4.01774C6.48204 4.9985 5.25886 5.52075 4.00777 5.41258L3.64645 5.41258L5.90469 0.94C6.0273 0.705237 6.27392 0.563321 6.537 0.576129C6.82305 0.576129 6.77788 0 6.41656 0L2.8636 0C2.5625 0 2.45711 0.576129 2.74316 0.576129C3.0292 0.576129 3.10448 0.909677 2.95393 1.19774L0.95162 5.18516C0.79667 5.37283 0.575314 5.49244 0.334368 5.51871C0.0483237 5.59452 -0.162445 6.14032 0.168763 6.14032L5.82942 6.14032C6.09313 6.17428 6.35219 6.04976 6.49184 5.82194L7.66612 4.04806C7.83173 3.83581 7.48546 3.80548 7.31986 4.04806" transform="translate(106.7515 0.8793548)" id="path3109" fill="#552582" stroke="none" />
      <path d="M7.59311 0.515484C8.34125 0.526134 9.0108 0.985598 9.29432 1.6829C9.29432 1.83452 9.76103 1.95581 9.85136 1.77387L10.3482 0.849032C10.5589 0.454839 10.2127 0 9.64059 0L3.04652 0C2.56476 0 2.70025 0.500323 2.89597 0.500323C3.33256 0.500323 3.453 1.01581 3.19707 1.45548L1.20981 5.18516C1.02015 5.50358 0.675113 5.69469 0.306518 5.68548C-0.0397463 5.68548 -0.160186 6.18581 0.306518 6.18581L6.99091 6.18581C7.18418 6.20345 7.37073 6.10951 7.47267 5.94323L8.39103 4.73032C8.61685 4.44226 8.13509 4.44226 7.98454 4.57871C7.11092 5.42715 5.90961 5.84337 4.70256 5.71581L3.97993 5.71581L4.85311 3.66903L5.04883 3.66903C5.63597 3.66903 6.31344 3.66903 6.55432 4.10871C6.60851 4.17891 6.69186 4.21996 6.78015 4.21996C6.86844 4.21996 6.95178 4.17891 7.00597 4.10871L7.78883 2.59258C7.90927 2.35 7.563 2.31968 7.45762 2.48645C7.15652 3.03226 5.80157 2.88065 5.44026 2.88065L5.18432 2.88065L6.3285 0.621613L7.59311 0.515484Z" transform="translate(114.9541 0.8793548)" id="path3111" fill="#552582" stroke="none" />
    </g>
    <path d="M65.4662 15.9469C63.6182 13.6028 61.5221 11.4734 59.216 9.59702C51.7833 3.28548 42.3824 -0.116654 32.7057 0.00305474C25.8999 -0.03144 19.2083 1.78371 13.3211 5.26129C8.28045 7.96432 3.91612 11.8094 0.564149 16.5004C-0.0699245 17.3153 -0.160507 17.7919 0.247112 18.0379C0.654732 18.2839 1.10764 17.592 1.63604 16.8694C4.12577 13.377 7.27773 10.4284 10.9056 8.1979C12.1935 8.69951 13.2963 9.59687 14.0609 10.7655C11.5318 12.3367 9.10144 14.0672 6.78411 15.9469C5.59145 16.8848 5.16873 17.4844 5.50087 17.8072C5.833 18.1301 6.69353 17.4998 7.46348 16.854C9.76292 15.0135 12.1786 13.3289 14.6949 11.811C15.6807 13.3271 15.8455 15.2484 15.1328 16.9155C14.8761 17.2538 14.8308 17.6228 15.1328 17.7919C15.4347 17.961 15.6913 17.5459 16.0839 16.977C16.8521 15.1267 16.7691 13.0237 15.8574 11.2421C18.3218 9.84263 20.9782 8.82687 23.738 8.22865C23.9192 8.5669 26.4253 16.0545 26.9084 17.4536C27.1651 18.207 27.4368 19.0987 27.9652 18.9911C28.4936 18.8835 28.086 18.0532 27.784 17.2384C27.4821 16.4235 25.5195 9.93527 24.9307 8.0134C26.831 7.38649 28.797 6.98914 30.7883 6.82953C30.275 9.56628 32.1773 10.6886 34.321 12.1185C35.4684 12.8873 42.7301 17.1308 44.2549 18.0994C45.1154 18.6375 45.7646 18.9911 45.9759 18.7297C46.1873 18.4684 45.5985 17.8226 44.7984 17.346C43.9982 16.8694 37.4008 12.9641 34.5777 11.196C32.5547 9.90452 31.4677 8.5054 31.9508 6.67578C33.5472 6.46458 35.1588 6.3977 36.7668 6.47591C46.6177 6.78003 56.1249 10.2334 63.9414 16.3466C64.5905 17.0385 65.4511 17.6228 65.8587 17.346C66.2663 17.0693 65.6926 16.3928 65.3907 16.0391M15.2384 10.1505C14.3861 9.01771 13.2916 8.09755 12.0379 7.45991C15.0366 5.45065 18.3067 3.89685 21.7452 2.84742C22.3702 4.21378 22.9049 5.62117 23.3455 7.06016C20.5347 7.7668 17.8141 8.80388 15.2384 10.1505M30.9695 5.43041C28.7773 5.66665 26.6067 6.07792 24.4778 6.66041C24.1608 5.83016 23.3153 3.24717 22.9681 2.41692C26.4054 1.45131 29.9797 1.09249 33.536 1.35605C32.4548 2.56456 31.5682 3.93969 30.9091 5.43041M40.2693 5.32279C37.6396 5.0647 34.9932 5.03384 32.3584 5.23054C32.9998 3.6832 34.0438 2.34354 35.3778 1.35605C37.4068 1.44867 39.4257 1.70054 41.4166 2.10942C46.9874 3.21642 55.6531 6.72191 59.3821 11.7803C53.586 8.19031 47.0674 5.98268 40.3146 5.32279" transform="translate(31 0.5)" id="path3113" fill="#231F20" stroke="none" />
    <path d="M70.3013 8.87642C70.84 7.90598 71.259 7.38343 70.8101 7.11469C70.3612 6.84595 69.9871 7.77161 69.4932 8.60768C67.4869 12.0022 64.9163 15.0314 61.8915 17.5657C58.4858 20.6414 54.5453 23.0701 50.2643 24.7321C48.7679 20.3874 42.7822 1.8444 42.6476 1.32185C42.4081 0.530563 42.2136 0.306614 41.9443 0.396193C41.6749 0.485773 41.8245 0.933673 41.9443 1.62045C42.064 2.30723 49.142 24.2543 49.4263 25.0307C45.885 26.374 42.1631 27.1841 38.3828 27.4344C35.1173 27.616 31.8417 27.4508 28.6112 26.9417C26.1571 24.9709 20.5755 17.1028 18.4506 12.9075C16.5301 9.27489 14.9954 5.45196 13.8715 1.50101C13.662 0.590283 13.4076 -0.0815661 12.9438 0.00801383C12.4799 0.0975937 12.7193 0.829163 13.0186 1.82947C14.1898 5.76373 15.7331 9.57806 17.6275 13.221C20.229 18.0114 23.2644 22.5541 26.6958 26.7924C21.2056 25.5961 16.0365 23.2389 11.5371 19.8798C7.537 16.9346 4.07036 13.3294 1.28669 9.21981C0.957476 8.69726 0.568408 7.95077 0.0895558 8.26429C-0.134906 8.39866 0.0895558 9.01079 0.463659 9.60799C4.89183 16.648 11.3054 22.2262 18.8995 25.6428C37.8182 33.8166 59.8757 26.6218 70.3013 8.87642" transform="translate(29 57.5)" id="path3115" fill="#231F20" stroke="none" />
  </g>
</svg>