<?xml version="1.0" encoding="utf-8"?>
<svg width="85px" height="106px" viewBox="0 0 85 106" version="1.1" xmlns:xlink="http://www.w3.org/1999/xlink" xmlns="http://www.w3.org/2000/svg">
  <desc>Created with Lunacy</desc>
  <g id="tagswarriors">
    <g id="g3199" transform="translate(1 77.5)">
      <path d="M8.67176 8.03647L3.03882 10.8635C2.84671 10.9265 2.66741 11.0233 2.50941 11.1494C2.36118 11.3188 2.39294 11.5624 2.60471 11.8694L2.44588 12.06L0 9.87882L0.169412 9.69882C0.363175 9.88989 0.674472 9.88989 0.868235 9.69882C0.983551 9.49665 1.07928 9.28392 1.15412 9.06353L3.97059 1.53529C4.08797 1.27416 4.1596 0.994804 4.18235 0.709412C4.17555 0.515576 4.10482 0.329436 3.98118 0.18L4.14 0L6.77647 2.35059L6.61765 2.53059C6.33176 2.37176 6.13059 2.37176 5.97176 2.53059C5.87191 2.66609 5.79336 2.81606 5.73882 2.97529L3.62118 8.26941L8.84118 5.68588C8.99065 5.62667 9.12997 5.54451 9.25412 5.44235C9.41294 5.27294 9.38118 5.05059 9.16941 4.77529L9.33882 4.60588L12.0812 7.06235L11.9329 7.24235C11.6153 7.08353 11.3824 7.09412 11.2341 7.24235C11.1453 7.36984 11.074 7.50874 11.0224 7.65529L9.02118 13.0871L14.04 10.4824C14.2276 10.3994 14.3995 10.2848 14.5482 10.1435C14.6859 9.98471 14.6541 9.76235 14.4424 9.47647L14.5906 9.28588L17.1953 11.6259L17.0365 11.7953C16.8658 11.6983 16.6715 11.6506 16.4753 11.6576C16.2026 11.7172 15.9416 11.8209 15.7024 11.9647L8.53412 15.6282C8.30363 15.7194 8.09188 15.8522 7.90941 16.02C7.74 16.2 7.77176 16.4329 7.99412 16.7082L7.84588 16.8882L5.36824 14.6647L5.52706 14.4847C5.82353 14.6859 6.05647 14.6753 6.25765 14.4847C6.37314 14.2816 6.4621 14.0646 6.52235 13.8388L8.64 8.05765" transform="translate(0.4129412 0.2541176)" id="path3201" fill="#1A64B7" stroke="none" />
    </g>
    <g id="g3203" transform="translate(1 77.5)">
      <path d="M5.56941 14.6965L7.92 16.8141L7.98353 16.7188C7.88712 16.598 7.83151 16.4497 7.82471 16.2953C7.82129 16.1784 7.86299 16.0646 7.94118 15.9776C8.13697 15.8145 8.3543 15.6791 8.58706 15.5753L15.7553 11.9329C16.002 11.7843 16.2697 11.6736 16.5494 11.6047L16.6235 11.6047C16.7897 11.6119 16.9523 11.6553 17.1 11.7318L17.1635 11.6576L14.6859 9.43412L14.6224 9.50823C14.7234 9.63633 14.7859 9.7906 14.8024 9.95294C14.8012 10.0544 14.7636 10.1521 14.6965 10.2282C14.5386 10.3786 14.3559 10.5004 14.1565 10.5882L8.96824 13.2882L11.0859 7.70823C11.1398 7.55073 11.2146 7.40117 11.3082 7.26353C11.3938 7.15216 11.5279 7.08904 11.6682 7.09412C11.7999 7.10322 11.9289 7.13548 12.0494 7.18941L12.1024 7.12588L9.48706 4.77529L9.41294 4.83882C9.50416 4.95448 9.55939 5.09439 9.57176 5.24118C9.57191 5.35119 9.53028 5.45715 9.45529 5.53765C9.32627 5.65208 9.1797 5.74503 9.02118 5.81294L3.6 8.48118L5.71765 2.95412C5.78884 2.77781 5.89718 2.61891 6.03529 2.48824C6.11414 2.38024 6.24041 2.3171 6.37412 2.31882C6.4932 2.32207 6.60962 2.35481 6.71294 2.41412L6.77647 2.34L4.24588 0.105882L4.18235 0.169412C4.29337 0.32421 4.356 0.50844 4.36235 0.698824C4.33749 0.994094 4.26602 1.28356 4.15059 1.55647L1.32353 9.07412C1.25168 9.3075 1.15214 9.53145 1.02706 9.74118C0.926589 9.85961 0.77999 9.92905 0.624706 9.93176C0.501451 9.92488 0.381638 9.88857 0.275294 9.82588L0.211765 9.9L2.53059 12.0176L2.58353 11.9435C2.48252 11.7891 2.42744 11.6092 2.42471 11.4247C2.43041 11.3139 2.47546 11.2088 2.55176 11.1282C2.71629 10.995 2.90254 10.8911 3.10235 10.8212L8.73529 7.99412L8.92588 7.89882L6.69177 13.8706C6.62593 14.1078 6.52985 14.3356 6.40588 14.5482C6.30556 14.661 6.16474 14.7295 6.01412 14.7388C5.88017 14.7284 5.7518 14.6807 5.64353 14.6012L5.56941 14.6965ZM5.35765 14.6965L5.35765 14.6329L5.55882 14.4L5.62235 14.4C5.73238 14.5131 5.87842 14.5842 6.03529 14.6012C6.13967 14.5972 6.23677 14.5467 6.3 14.4635C6.42124 14.2709 6.51062 14.0599 6.56471 13.8388L8.68235 8.24824L3.17647 10.9694C2.99506 11.0324 2.82384 11.1216 2.66824 11.2341C2.61511 11.2834 2.58449 11.3523 2.58353 11.4247C2.59942 11.5872 2.66193 11.7416 2.76353 11.8694L2.76353 11.8694L2.76353 11.8694L2.54118 12.1024L0 9.91059L0 9.91059L0.201176 9.68824L0.254118 9.68824C0.351734 9.75456 0.464765 9.79467 0.582353 9.80471C0.690472 9.80389 0.792122 9.75306 0.857647 9.66706C0.974182 9.47438 1.06664 9.26814 1.13294 9.05294L3.96 1.53529C4.06327 1.27743 4.13095 1.00671 4.16118 0.730588C4.15618 0.551021 4.08879 0.378803 3.97059 0.243529L3.97059 0.243529L3.97059 0.243529L4.18235 0L6.93529 2.45647L6.93529 2.52L6.74471 2.74235L6.68118 2.74235C6.58431 2.68594 6.47545 2.65328 6.36353 2.64706C6.27808 2.63924 6.19445 2.67508 6.14118 2.74235C6.04253 2.86923 5.96724 3.01264 5.91882 3.16588L3.91765 8.16353L8.95765 5.67529C9.09629 5.61842 9.22497 5.53979 9.33882 5.44235C9.39468 5.3906 9.42554 5.3173 9.42353 5.24118C9.40499 5.10674 9.34589 4.98115 9.25412 4.88118L9.25412 4.88118L9.25412 4.88118L9.46588 4.64824L12.3882 7.10471L12.3247 7.16824L12.1235 7.39059L12.1235 7.39059C12.0142 7.32585 11.8905 7.28945 11.7635 7.28471C11.6717 7.28385 11.585 7.32719 11.5306 7.40118C11.4452 7.51993 11.3807 7.65243 11.34 7.79294L9.37059 12.9812L14.2094 10.4718C14.3843 10.3921 14.5451 10.2849 14.6859 10.1541C14.7327 10.1109 14.7563 10.048 14.7494 9.98471C14.7329 9.83821 14.6698 9.70088 14.5694 9.59294L14.5694 9.52941L14.5694 9.47647L14.7812 9.24353L17.5024 11.6788L17.5024 11.7424L17.3012 11.9541L17.2482 11.9541C17.1057 11.8727 16.9462 11.8256 16.7824 11.8165L16.6235 11.8165C16.3577 11.882 16.1015 11.9817 15.8612 12.1129L8.67177 15.7129C8.4516 15.8088 8.2451 15.9334 8.05765 16.0835C8.00579 16.1422 7.97586 16.217 7.97294 16.2953C7.9808 16.4534 8.0446 16.6035 8.15294 16.7188L8.15294 16.7188L8.15294 16.7188L7.94118 16.9624L5.35765 14.7071" transform="translate(0.3176471 0.2223529)" id="path3205" fill="#1A64B7" stroke="none" />
    </g>
    <g id="g3207" transform="translate(12 88.5)">
      <path d="M8.84 7.16154L8.94833 3.11231L5.785 5.67538L8.84 7.16154ZM8.84 8.71231L4.56083 6.65539L3.2825 7.64615C3.14394 7.74446 3.02616 7.86887 2.93583 8.01231C2.84917 8.20615 2.93583 8.42154 3.19583 8.64769L3.07667 8.87385L0 7.36615L0.108333 7.15077C0.273792 7.20425 0.452041 7.20425 0.6175 7.15077C0.832987 7.06453 1.03114 6.94051 1.2025 6.78462L8.1575 1.32462C8.3285 1.20037 8.47225 1.04281 8.58 0.861539C8.67599 0.631979 8.60489 0.366951 8.40667 0.215385L8.515 0L11.8192 1.60462L11.7108 1.83077C11.4075 1.83077 11.2125 1.83077 11.115 2.03538C11.0482 2.19548 11.0186 2.36849 11.0283 2.54154L11.0283 11.4262C11.0197 11.6987 11.0525 11.971 11.1258 12.2338C11.1909 12.4201 11.3167 12.5793 11.4833 12.6862L11.3642 12.9015L7.93 11.2323L8.03833 11.0062C8.36333 11.1031 8.58 11.0062 8.69917 10.8015C8.75792 10.6471 8.78016 10.4813 8.76417 10.3169L8.76417 8.70154" transform="translate(0.2058333 0.09692308)" id="path3209" fill="#1A64B7" stroke="none" />
    </g>
    <g id="g3211" transform="translate(12 88.5)">
      <path d="M8.92769 7.12923L6.12769 5.75077L9.03538 3.38154L8.92769 7.12923ZM5.78308 5.78308L9.15385 3.03692L9.04615 7.25846L9.04615 7.37692L5.78308 5.78308ZM8.20615 11.2969L11.4369 12.8908L11.4369 12.8154C11.2947 12.6993 11.1867 12.5466 11.1246 12.3738C11.0431 12.1017 11.0103 11.8174 11.0277 11.5338L11.0277 2.67077C11.0146 2.4814 11.0517 2.29192 11.1354 2.12154C11.2269 1.94135 11.4187 1.8348 11.62 1.85231C11.6738 1.85231 11.7385 1.85231 11.7169 1.91692L11.7923 1.77692L8.73385 0.215385L8.68 0.312308C8.79894 0.433505 8.86811 0.5949 8.87385 0.764615C8.8901 0.842753 8.8901 0.923401 8.87385 1.00154C8.76131 1.1979 8.60688 1.36704 8.42154 1.49692L1.51846 6.94615C1.33888 7.11132 1.13092 7.24266 0.904615 7.33385C0.826094 7.34581 0.746213 7.34581 0.667692 7.33385L0.42 7.33385L0.42 7.42L3.25231 8.85231L3.25231 8.76615C3.10097 8.64281 3.00426 8.46485 2.98308 8.27077C2.97202 8.20663 2.97202 8.14107 2.98308 8.07692C3.07368 7.9183 3.19882 7.78212 3.34923 7.67846L4.70615 6.67692L8.91692 8.73385L8.91692 8.80923L8.99231 8.80923L8.99231 10.4246C9.00841 10.605 8.97878 10.7864 8.90615 10.9523C8.82551 11.1333 8.64079 11.245 8.44308 11.2323C8.37164 11.2425 8.29913 11.2425 8.22769 11.2323L8.20615 11.2969ZM7.99077 11.3723L7.99077 11.2969L8.13077 11.0277L8.18462 11.0277C8.26674 11.0398 8.35019 11.0398 8.43231 11.0277C8.57452 11.0325 8.70587 10.952 8.76615 10.8231C8.78566 10.6729 8.78566 10.5209 8.76615 10.3708L8.76615 8.85231L4.69538 6.80615L3.43538 7.80769C3.31037 7.90079 3.20126 8.01354 3.11231 8.14154C3.10261 8.18407 3.10261 8.22824 3.11231 8.27077C3.13447 8.44128 3.23373 8.59216 3.38154 8.68L3.38154 8.68L3.38154 8.73385L3.23077 9.02462L0 7.45231L0 7.37692L0.14 7.10769L0.204615 7.10769L0.473846 7.10769L0.667692 7.10769C0.870393 7.01212 1.05886 6.8889 1.22769 6.74154L8.13077 1.29231C8.28848 1.16966 8.42336 1.0202 8.52923 0.850769C8.54392 0.797925 8.54392 0.742075 8.52923 0.689231C8.51649 0.543045 8.44689 0.407699 8.33538 0.312308L8.33538 0.312308L8.33538 0.312308L8.63692 0L12.0831 1.68L12.0831 1.75538L11.8785 2.01385L11.7169 2.01385C11.5727 1.99911 11.4333 2.07091 11.3615 2.19692C11.3011 2.34719 11.2753 2.50916 11.2862 2.67077L11.2862 2.67077L11.2862 11.5554C11.2749 11.8203 11.3039 12.0854 11.3723 12.3415C11.4331 12.5063 11.5467 12.6464 11.6954 12.74L11.6954 12.74L11.6954 12.8046L11.5446 13.0954L8.00154 11.3508" transform="translate(0.05538461 0)" id="path3213" fill="#1A64B7" fill-rule="evenodd" stroke="none" />
    </g>
    <g id="g3215" transform="translate(24 92.5)">
      <path d="M3.93077 4.93231L7.33385 5.63231C7.68832 5.71737 8.0481 5.77854 8.41077 5.81538C8.61489 5.83508 8.82085 5.80933 9.01385 5.74C9.45014 5.6037 9.76615 5.22449 9.82154 4.77077C9.95766 4.33597 9.8222 3.86187 9.47692 3.56462C9.32357 3.42643 9.14416 3.32025 8.94923 3.25231C8.59715 3.13695 8.23725 3.04698 7.87231 2.98308L4.46923 2.27231L3.93077 4.93231ZM3.57538 6.59077L2.88615 9.95077C2.83638 10.064 2.83638 10.1929 2.88615 10.3062C2.96081 10.4294 3.07453 10.5242 3.20923 10.5754L3.15538 10.8123L0 10.1446L0.0538462 9.91846C0.198895 9.91976 0.341153 9.87858 0.463077 9.8C0.559019 9.72074 0.623863 9.61013 0.646154 9.48769L2.43385 0.872308C2.48415 0.755439 2.48415 0.623022 2.43385 0.506154C2.35301 0.388361 2.24121 0.29519 2.11077 0.236923L2.16462 0L8.48615 1.32462C9.10022 1.44144 9.70224 1.61448 10.2846 1.84154C10.6871 2.00493 11.0531 2.24651 11.3615 2.55231C11.7031 2.90323 11.9286 3.35057 12.0077 3.83385C12.1116 4.29836 12.1116 4.7801 12.0077 5.24462C11.6631 6.89231 10.5431 7.66769 8.65846 7.57077L10.0369 10.8015C10.1824 11.1805 10.3703 11.5417 10.5969 11.8785C10.7314 12.0591 10.9263 12.1852 11.1462 12.2338L11.0815 12.4708L7.43077 11.7169L7.48462 11.48C7.74308 11.48 7.89385 11.48 7.91538 11.2862C7.89117 11.0339 7.81801 10.7888 7.7 10.5646L6.27846 7.16154L3.57538 6.60154" transform="translate(0.9153846 0.01230769)" id="path3217" fill="#1A64B7" stroke="none" />
    </g>
    <g id="g3219" transform="translate(24 91.5)">
      <path d="M8.45385 5.77231C8.09191 5.7302 7.73244 5.66909 7.37692 5.58923L4.00615 4.9L4.53385 2.40154L7.86154 3.10154C8.22563 3.16003 8.5854 3.24278 8.93846 3.34923C9.11869 3.42719 9.28579 3.53254 9.43385 3.66154C9.67033 3.84675 9.79945 4.13728 9.77846 4.43692C9.7881 4.55159 9.7881 4.66687 9.77846 4.78154C9.73871 5.21126 9.44627 5.57575 9.03539 5.70769C8.88745 5.74579 8.73576 5.76746 8.58308 5.77231L8.45385 5.77231ZM8.45385 5.92308C8.09113 5.88659 7.73132 5.82542 7.37692 5.74L3.97385 5.04L3.89846 5.04L4.49077 2.25077L7.98 2.98308C8.34425 3.0502 8.70393 3.14012 9.05692 3.25231C9.26093 3.31964 9.44818 3.42979 9.60615 3.57538C9.87072 3.79983 10.0176 4.1333 10.0046 4.48C10.0198 4.60879 10.0198 4.73891 10.0046 4.86769C9.95856 5.36317 9.62521 5.78513 9.15385 5.94462C8.98862 5.98788 8.81849 6.0096 8.64769 6.00923L8.51846 6.00923M7.63538 11.76L11.1354 12.4815L11.1354 12.3954C10.9367 12.3326 10.7631 12.2081 10.64 12.04C10.4107 11.7013 10.2159 11.3406 10.0585 10.9631L8.63692 7.63539L9.07846 7.63539C10.5167 7.80771 11.8284 6.79759 12.0292 5.36308C12.0804 5.126 12.1057 4.88407 12.1046 4.64154C12.1068 4.42029 12.0815 4.19962 12.0292 3.98462C11.9406 3.53426 11.7237 3.11913 11.4046 2.78923C11.0951 2.49004 10.729 2.25571 10.3277 2.1C9.74909 1.8727 9.15062 1.69965 8.54 1.58308L2.26154 0.269231L2.26154 0.344615C2.40377 0.413191 2.5261 0.51699 2.61692 0.646154C2.63835 0.730976 2.63835 0.819794 2.61692 0.904615L2.61692 1.07692L0.818462 9.69231C0.793452 9.83644 0.716904 9.96657 0.603077 10.0585C0.502926 10.1472 0.361405 10.1722 0.236923 10.1231L0.236923 10.2846L3.26308 10.92L3.26308 10.8446C3.11854 10.7796 2.99534 10.6751 2.90769 10.5431C2.86394 10.464 2.84166 10.3749 2.84308 10.2846C2.83853 10.2309 2.83853 10.1768 2.84308 10.1231L3.54308 6.77385L3.54308 6.69846L6.37538 7.32308L7.79692 10.7262C7.90791 10.9502 7.98416 11.1899 8.02308 11.4369L8.02308 11.4908C7.96923 11.6738 7.79692 11.7385 7.57077 11.7385L7.63538 11.76ZM7.44154 11.8785L7.44154 11.8031L7.57077 11.5015L7.63538 11.5015C7.84 11.5015 7.90461 11.4477 7.92615 11.3938L7.92615 11.3938C7.88074 11.1671 7.80843 10.9466 7.71077 10.7369L6.35385 7.38769L3.73692 6.83846L3.03692 10.0692C3.03692 10.0692 3.03692 10.1554 3.03692 10.1877C3.01986 10.2475 3.01986 10.3109 3.03692 10.3708C3.13284 10.4902 3.24524 10.5953 3.37077 10.6831L3.30615 11.0062L0 10.3062L0 10.2308L0.129231 9.92923C0.256702 9.93288 0.382917 9.90319 0.495385 9.84308C0.569299 9.76605 0.618114 9.66842 0.635385 9.56308L2.42308 0.947692C2.42768 0.901139 2.42768 0.854245 2.42308 0.807692C2.43638 0.751027 2.43638 0.69205 2.42308 0.635385C2.42308 0.56 2.29385 0.484615 2.07846 0.301538L2.15385 0L8.56154 1.33538C9.177 1.4562 9.78196 1.62545 10.3708 1.84154C10.7731 2.01956 11.1385 2.27163 11.4477 2.58462C11.798 2.92922 12.0347 3.37258 12.1262 3.85538C12.1731 4.08222 12.1983 4.313 12.2015 4.54462C12.1995 4.79823 12.1706 5.05092 12.1154 5.29846C11.8723 6.78587 10.4993 7.81681 9.00308 7.63539L8.79846 7.63539L10.1338 10.7262C10.2844 11.1008 10.4682 11.4612 10.6831 11.8031C10.8068 11.9639 10.9815 12.0778 11.1785 12.1262L11.2538 12.1262L11.2538 12.2015L11.1892 12.5138L7.37692 11.7169" transform="translate(0.8938462 0.98)" id="path3221" fill="#1A64B7" fill-rule="evenodd" stroke="none" />
    </g>
    <g id="g3223" transform="translate(38 93.5)">
      <path d="M3.15273 9.83002L3.01091 6.35002L5.80364 6.25184L8.11636 9.28457C8.28404 9.47653 8.41362 9.69867 8.49818 9.93911C8.49818 10.0809 8.36727 10.2337 8.11636 10.2337L8.11636 10.4627L11.88 10.3209L11.88 10.0809C11.6532 10.0858 11.4323 10.0083 11.2582 9.86275C10.9516 9.57726 10.6772 9.259 10.44 8.91366L8.25818 6.11002C10.1345 5.73911 11.0509 4.70275 10.9855 3.01184C10.9614 2.52456 10.8428 2.0466 10.6364 1.60457C10.4403 1.15162 10.1087 0.770528 9.68727 0.513658C9.3101 0.288347 8.8904 0.143494 8.45455 0.0882038C7.82223 -0.000382123 7.18235 -0.0223206 6.54545 0.0227493L0 0.284567L0 0.524567C0.145226 0.549877 0.280916 0.613953 0.392727 0.710022C0.474525 0.811792 0.517104 0.939527 0.512727 1.07002L0.861818 9.91729C0.879094 10.0406 0.847802 10.1657 0.774545 10.2664C0.667693 10.3701 0.536353 10.4452 0.392727 10.4846L0.392727 10.7355L3.66545 10.6046L3.66545 10.3537C3.52385 10.3341 3.3911 10.2734 3.28364 10.1791C3.19679 10.0839 3.14991 9.95888 3.15273 9.83002ZM6.49091 4.50639L2.94545 4.63729L2.88 1.92093L6.40364 1.79002C6.76694 1.76799 7.13124 1.76799 7.49454 1.79002C7.70197 1.81235 7.90451 1.86759 8.09455 1.95366C8.49072 2.17118 8.73107 2.59285 8.71636 3.04457C8.77769 3.50374 8.56425 3.95623 8.17091 4.20093C7.99111 4.31231 7.79079 4.3865 7.58182 4.41911C7.22062 4.47325 6.85612 4.50241 6.49091 4.50639Z" transform="translate(0.05454545 0.9481598)" id="path3225" fill="#1A64B7" fill-rule="evenodd" stroke="none" />
    </g>
    <g id="g3227" transform="translate(38 93.5)">
      <path d="M6.32727 1.92104L2.88 1.92104L2.98909 4.58285L6.44727 4.49558C6.81246 4.49107 7.17692 4.46191 7.53818 4.40831C7.73371 4.37596 7.92203 4.3095 8.09455 4.21194C8.43008 3.99294 8.61855 3.60762 8.58545 3.20831L8.58545 3.12104C8.63684 2.67283 8.40703 2.23923 8.00727 2.03013C7.82862 1.94435 7.63689 1.88904 7.44 1.86649L7.02545 1.86649L6.34909 1.86649M2.92364 4.67013L2.84727 4.67013L2.84727 1.84467L6.37091 1.70285L7.46182 1.70285C7.68216 1.72615 7.89649 1.78897 8.09455 1.88831C8.5273 2.1175 8.78714 2.57754 8.76 3.06649L8.76 3.15376C8.77869 3.59519 8.55761 4.01232 8.18182 4.24467C8.00123 4.41496 7.7794 4.53527 7.53818 4.59376C7.32 4.59376 6.94909 4.65922 6.44727 4.69194L2.91273 4.82285L2.92364 4.67013ZM0.436364 10.681L3.63273 10.681L3.63273 10.5174C3.47523 10.4967 3.32925 10.4237 3.21818 10.3101C3.1121 10.2027 3.05321 10.0574 3.05455 9.90649L2.92364 6.4374L3 6.4374L3 6.36104L5.85818 6.29558L8.04 9.27376C8.22802 9.47472 8.35644 9.72401 8.41091 9.99376L8.41091 9.99376C8.41065 10.0852 8.36793 10.1713 8.29529 10.2269C8.22264 10.2824 8.12832 10.3011 8.04 10.2774L7.96364 10.441L11.6618 10.3647L11.7382 10.201C11.4934 10.2027 11.2552 10.122 11.0618 9.97194C10.7527 9.67863 10.4715 9.35725 10.2218 9.01194L8.04 6.09922L8.16 6.09922C9.98182 5.68467 10.8109 4.79013 10.8109 3.21922C10.8163 3.16481 10.8163 3.10999 10.8109 3.05558C10.7995 2.57951 10.688 2.11117 10.4836 1.68104C10.2885 1.26379 9.97321 0.91431 9.57818 0.677399C9.21273 0.456384 8.80961 0.30475 8.38909 0.230126C7.97882 0.197651 7.56663 0.197651 7.15636 0.230126L6.50182 0.230126L0.0327273 0.404672L0.0327273 0.579217C0.18845 0.608954 0.334522 0.676372 0.458182 0.775581C0.553315 0.892464 0.603605 1.03946 0.6 1.19013L0.905455 10.0483L0.905455 10.0483C0.911012 10.1806 0.872656 10.311 0.796364 10.4192C0.713131 10.5328 0.576694 10.5949 0.436364 10.5829L0.436364 10.681ZM0.436364 10.441C0.563103 10.4092 0.679544 10.3453 0.774545 10.2556C0.836923 10.1789 0.868088 10.0815 0.861818 9.98285C0.861818 9.98285 0.861818 9.98285 0.861818 9.98285L0.501818 1.13558C0.513257 1.02631 0.481984 0.916857 0.414545 0.830126C0.286212 0.734209 0.147082 0.65366 0 0.590126L0.0654546 0.262854L6.61091 0.0010354L7.27636 0.0010354C7.69226 -0.00563078 8.10805 0.0199 8.52 0.077399C8.97144 0.138139 9.40575 0.290333 9.79636 0.524672C10.2264 0.780743 10.5687 1.16109 10.7782 1.61558C10.9913 2.06246 11.1066 2.54968 11.1164 3.04467C11.1214 3.10274 11.1214 3.16115 11.1164 3.21922C11.1622 4.76783 9.98772 6.08133 8.44364 6.20831L10.4073 8.9574C10.6467 9.29113 10.917 9.60159 11.2145 9.88467C11.4099 10.025 11.6331 10.1217 11.8691 10.1683L11.7927 10.4956L7.94182 10.561L7.94182 10.2338C8.19273 10.2338 8.25818 10.1138 8.25818 10.0374C8.25818 9.96104 8.25818 10.0374 8.25818 10.0374C8.17124 9.81933 8.04968 9.61673 7.89818 9.4374L5.71636 6.47013L3.01091 6.57922L3.14182 9.96104C3.14494 10.0718 3.18313 10.1788 3.25091 10.2665C3.37162 10.365 3.50808 10.4425 3.65455 10.4956L3.65455 10.8338L0.294545 10.8338L0.294545 10.5065" transform="translate(0.09818182 0.8607828)" id="path3229" fill="#1A64B7" stroke="none" />
    </g>
    <g id="g3231" transform="translate(49 92.5)">
      <path d="M2.3 9.97091L0.55 1.37455C0.532763 1.25172 0.476051 1.13959 0.39 1.05818C0.27386 0.977706 0.137307 0.939509 0 0.949091L0 0.709091L2.92 0L2.97 0.24C2.84603 0.298772 2.73892 0.393004 2.66 0.512727C2.62409 0.633261 2.62409 0.763103 2.66 0.883636L4.41 9.53455C4.42872 9.66547 4.48887 9.78512 4.58 9.87273C4.69494 9.94682 4.82651 9.98459 4.96 9.98182L4.96 10.2218L2.03 10.92L2.03 10.68C2.16032 10.6275 2.26989 10.5272 2.34 10.3964C2.38671 10.278 2.38671 10.1438 2.34 10.0255" transform="translate(0.7 0.8072727)" id="path3233" fill="#1A64B7" stroke="none" />
    </g>
    <g id="g3235" transform="translate(49 92.5)">
      <path d="M2.52 10.2109C2.52479 10.2945 2.50743 10.3778 2.47 10.4509C2.41478 10.5738 2.30491 10.6565 2.18 10.6691L2.18 10.8327L4.98 10.1564L4.98 10.0691C4.8326 10.0715 4.68738 10.03 4.56 9.94909C4.4477 9.85591 4.37252 9.71922 4.35 9.56727L2.61 0.916364C2.60119 0.854919 2.60119 0.792354 2.61 0.730909C2.5997 0.64765 2.5997 0.563259 2.61 0.48C2.67436 0.357963 2.79111 0.279906 2.92 0.272727L2.92 0.109091L0.12 0.785455L0.12 0.872727C0.269387 0.864788 0.417007 0.9108 0.54 1.00364C0.646524 1.09121 0.718125 1.22009 0.74 1.36364L2.49 10.0145L2.41 10.0145L2.49 10.0145C2.49496 10.0799 2.49496 10.1456 2.49 10.2109M2.05 10.9527L2.05 10.6145C2.16041 10.5666 2.25466 10.4828 2.32 10.3745C2.37534 10.3383 2.41499 10.2794 2.43 10.2109C2.43 10.2109 2.43 10.1127 2.43 10.0582L0.61 1.48364C0.59699 1.38213 0.550827 1.28916 0.48 1.22182C0.345692 1.15124 0.204906 1.09639 0.06 1.05818L0 0.730909L3.07 0L3.07 0.0763636L3.07 0.392727C2.96111 0.44346 2.86754 0.526639 2.8 0.632727C2.78397 0.685872 2.78397 0.743219 2.8 0.796364C2.79544 0.843506 2.79544 0.89104 2.8 0.938182L4.55 9.58909C4.5622 9.70209 4.61644 9.80464 4.7 9.87273C4.82247 9.95476 4.95828 10.0103 5.1 10.0364L5.17 10.3527L2.1 11.0945L2.1 11.0182" transform="translate(0.57 0.6981818)" id="path3237" fill="#1A64B7" stroke="none" />
    </g>
    <g id="g3239" transform="translate(54 89.5)">
      <path d="M4.53066 2.25914C3.6888 2.59394 3.00382 3.23694 2.61316 4.05914C2.1742 5.00647 2.1742 6.10089 2.61316 7.04823C2.98741 8.03088 3.78442 8.78931 4.77983 9.11005C5.64706 9.39421 6.58959 9.33171 7.41233 8.9355C8.26576 8.61675 8.96167 7.97471 9.3515 7.14641C9.58003 6.66322 9.69141 6.13231 9.6765 5.59732C9.66509 5.11419 9.56595 4.63724 9.384 4.19005C9.01124 3.19696 8.21617 2.42435 7.21733 2.08459C6.34381 1.82282 5.40608 1.88474 4.574 2.25914M3.86983 0.633683C5.28571 -0.0667058 6.91491 -0.191704 8.41983 0.284592C10.8128 1.1927 12.249 3.66235 11.8648 6.20823C11.5028 8.24763 10.0595 9.92297 8.10566 10.5719C6.69848 11.2633 5.0814 11.3844 3.58816 10.91C2.8636 10.6513 2.20501 10.234 1.65983 9.68823C1.15105 9.19169 0.739463 8.6033 0.446495 7.95368C0.0371265 7.02638 -0.0946475 5.99893 0.0673288 4.99732C0.438409 2.96586 1.87279 1.29603 3.81566 0.633683" transform="translate(0.6368379 0.02086231)" id="path3241" fill="#1A64B7" stroke="none" />
    </g>
    <g id="g3243" transform="translate(54 89.5)">
      <path d="M2.7625 4.09518C2.54664 4.54086 2.43547 5.02998 2.4375 5.52518C2.42804 6.033 2.52012 6.5376 2.70833 7.00935C3.09205 7.96719 3.88856 8.69998 4.875 9.00268C5.22368 9.12143 5.59001 9.18004 5.95833 9.17601C6.48794 9.16409 7.01027 9.05006 7.49667 8.84018C8.32453 8.5206 8.99889 7.89662 9.38167 7.09601C9.60475 6.64129 9.71616 6.13992 9.70667 5.63351L9.70667 5.63351C9.70579 5.16189 9.60229 4.69612 9.40333 4.26851C9.05226 3.27212 8.25417 2.49809 7.2475 2.17768C6.89779 2.06312 6.53216 2.00462 6.16417 2.00435C5.62727 2.01375 5.09737 2.12783 4.60417 2.34018C3.78036 2.66624 3.10808 3.28829 2.71917 4.08435M4.75583 9.14351C3.76181 8.79824 2.96962 8.03377 2.58917 7.05268C2.37203 6.56865 2.25767 6.04483 2.25333 5.51435C2.2556 4.99165 2.37791 4.47645 2.61083 4.00851C3.01367 3.17144 3.71792 2.51749 4.5825 2.17768L4.5825 2.25351L4.5825 2.17768C5.0952 1.95483 5.64847 1.84049 6.2075 1.84185C6.57475 1.84089 6.94002 1.89568 7.29083 2.00435C8.32639 2.34816 9.14824 3.14607 9.5225 4.17101C9.71499 4.62702 9.81444 5.11688 9.815 5.61185L9.815 5.61185C9.83592 7.10411 8.91657 8.44844 7.51833 8.97018C7.01158 9.18911 6.46693 9.30687 5.915 9.31685C5.54641 9.31326 5.18073 9.2511 4.83167 9.13268M3.98667 0.704347C1.82 1.67935 0.563333 3.09851 0.281667 5.03768C0.23361 5.29846 0.211835 5.56339 0.216667 5.82851C0.218719 6.55215 0.369921 7.26759 0.660833 7.93018C0.926597 8.56527 1.31288 9.14285 1.79833 9.63101C2.7568 10.584 4.05422 11.1178 5.40583 11.1152C6.34679 11.0842 7.27175 10.8631 8.125 10.4652C10.0773 9.83048 11.5114 8.15813 11.8408 6.13185C11.892 5.85311 11.9174 5.57024 11.9167 5.28685C11.8896 3.0798 10.5077 1.11674 8.43917 0.346847C7.8936 0.150956 7.31799 0.0519655 6.73833 0.0543473C5.78143 0.0783146 4.83879 0.291881 3.965 0.682681L3.98667 0.704347ZM3.64 10.9202C2.88871 10.6925 2.19946 10.296 1.625 9.76101C1.13004 9.26149 0.733172 8.67354 0.455 8.02768C0.157839 7.34383 0.00302827 6.60663 0 5.86101C0.000550922 5.5889 0.0222832 5.31725 0.065 5.04851C0.440222 2.9985 1.89488 1.31176 3.8675 0.639347C4.76134 0.238609 5.7265 0.0212653 6.70583 0.000180632C7.3043 -0.00491494 7.8988 0.0978369 8.46083 0.303514C9.90109 0.780924 11.0632 1.86002 11.6458 3.26101C11.9197 3.91297 12.0632 4.61224 12.0683 5.31935C12.0624 5.6092 12.0407 5.89852 12.0033 6.18601C11.6341 8.24486 10.1725 9.939 8.19 10.606C7.30341 11.0056 6.34556 11.223 5.37333 11.2452C4.77077 11.2458 4.17288 11.1394 3.6075 10.931" transform="translate(0.5416667 0.07231937)" id="path3245" fill="#1A64B7" stroke="none" />
    </g>
    <g id="g3247" transform="translate(64 82.5)">
      <path d="M4.864 7.19543L7.59467 5.05257C7.88878 4.83753 8.16685 4.60119 8.42667 4.34543C8.56547 4.19614 8.68059 4.0263 8.768 3.84186C8.8832 3.42256 8.79354 2.97323 8.52637 2.63091C8.2592 2.28859 7.8462 2.09387 7.41333 2.10614C7.21439 2.1399 7.02298 2.20883 6.848 2.30972C6.67733 2.41686 6.37867 2.63114 5.96267 2.95257L3.24267 5.09543L4.864 7.19543ZM5.93067 8.53472L8.064 11.2347C8.13377 11.3408 8.24017 11.4171 8.36267 11.449C8.50206 11.4616 8.64222 11.4356 8.768 11.374L8.91733 11.5561L6.34667 13.5169L6.144 13.3133C6.23832 13.1996 6.3009 13.0628 6.32533 12.9169C6.32153 12.7915 6.27652 12.671 6.19733 12.574L0.864 5.69543C0.792682 5.58862 0.687382 5.50929 0.565333 5.47043C0.423227 5.4692 0.282142 5.49463 0.149333 5.54543L0 5.36329L5.06667 1.43114C5.55364 1.02901 6.07474 0.670497 6.624 0.359716C7.00836 0.158942 7.42931 0.038655 7.86133 0.0061448C8.32754 -0.026841 8.79352 0.0734569 9.20533 0.295431C9.61982 0.530727 9.98265 0.847797 10.272 1.22757C11.2889 2.55614 11.1467 3.90257 9.84533 5.26686L13.152 6.33829C13.5421 6.46571 13.9416 6.56243 14.3467 6.62757C14.5637 6.63535 14.7773 6.57136 14.9547 6.44543L15.104 6.63829L12.1813 8.90972L12.0427 8.70614C12.2133 8.53472 12.256 8.374 12.1707 8.26686C11.9652 8.1223 11.7331 8.02031 11.488 7.96686L8.05333 6.88472L5.92 8.55614" transform="translate(0.05333333 0.6152838)" id="path3249" fill="#1A64B7" stroke="none" />
    </g>
    <g id="g3251" transform="translate(64 82.5)">
      <path d="M7.46667 2.22928C7.27987 2.25911 7.09951 2.3207 6.93333 2.41142C6.76267 2.51857 6.464 2.73285 6.05867 3.04357L3.392 5.10071L4.928 7.11499L7.60533 5.04714C7.89223 4.83922 8.16321 4.61001 8.416 4.36142C8.54877 4.21755 8.66015 4.05516 8.74667 3.87928C8.79288 3.7521 8.81811 3.6182 8.82133 3.48285C8.80687 3.20852 8.70602 2.94589 8.53333 2.73285C8.33235 2.42352 7.99417 2.2317 7.62667 2.21857L7.46667 2.21857M3.168 5.06857L5.952 2.92571C6.23845 2.69804 6.5376 2.48699 6.848 2.29357C7.02873 2.18016 7.23321 2.11048 7.44533 2.08999C7.50537 2.08 7.56663 2.08 7.62667 2.08999C8.05735 2.08683 8.45974 2.3051 8.69333 2.66857C8.89579 2.90587 9.01564 3.20305 9.03467 3.51499C9.03866 3.67517 9.00195 3.83374 8.928 3.97571C8.84111 4.17268 8.72214 4.35373 8.576 4.51142C8.416 4.66142 8.14933 4.89714 7.73333 5.21856L5.01333 7.36142L4.93867 7.41499L3.168 5.06857ZM6.368 13.4257L8.768 11.5721L8.704 11.4864C8.60524 11.5253 8.50065 11.547 8.39467 11.5507L8.29867 11.5507C8.16185 11.5189 8.04303 11.4342 7.968 11.315L5.83467 8.60428L5.83467 8.53999L8.128 6.81499L11.616 7.88642C11.8737 7.94861 12.1166 8.0615 12.3307 8.21857C12.3502 8.27403 12.3502 8.33453 12.3307 8.38999C12.3211 8.51484 12.2682 8.63236 12.1813 8.72214L12.1813 8.79714L14.976 6.65428L14.976 6.57928C14.8145 6.67558 14.6305 6.72732 14.4427 6.72928L14.3787 6.72928C13.9677 6.67659 13.5636 6.5796 13.1733 6.43999L9.74933 5.36857L9.83467 5.28285C10.4619 4.70955 10.8441 3.91485 10.9013 3.06499C10.8754 2.43779 10.647 1.83609 10.2507 1.35071C9.95265 0.985059 9.59128 0.676529 9.184 0.439994C8.8363 0.241263 8.44271 0.137808 8.04267 0.139994L7.88267 0.139994C7.45803 0.182999 7.04538 0.306618 6.66667 0.50428C6.12236 0.791612 5.60783 1.13257 5.13067 1.52214L0.213333 5.43285L0.213333 5.50785C0.31615 5.47168 0.424397 5.45356 0.533333 5.45428L0.618667 5.45428C0.762246 5.49629 0.88909 5.58247 0.981333 5.70071L6.31467 12.59C6.40609 12.6939 6.45886 12.8264 6.464 12.965L6.464 12.965C6.43923 13.1004 6.38456 13.2286 6.304 13.34L6.368 13.4257ZM6.28267 13.6079L6.10133 13.3507L6.10133 13.3507C6.18643 13.2529 6.24518 13.1349 6.272 13.0079L6.272 13.0079C6.26521 12.9044 6.22387 12.8062 6.15467 12.7293L0.906667 5.85071C0.845305 5.75482 0.749999 5.68589 0.64 5.65785L0.586667 5.65785C0.476134 5.66152 0.3674 5.687 0.266667 5.73285L0.266667 5.73285L0.266667 5.73285L0 5.41142L5.13067 1.43642C5.61685 1.02817 6.14208 0.669279 6.69867 0.364994C7.08995 0.160743 7.51784 0.0369008 7.95733 0.000708232L8.13867 0.000708232C8.56134 -0.00984521 8.97862 0.0977237 9.344 0.311423C9.76251 0.550185 10.126 0.875152 10.4107 1.26499C10.8378 1.77233 11.0787 2.41146 11.0933 3.07571C11.0334 3.92792 10.6519 4.72502 10.0267 5.30428L13.2267 6.30071C13.6013 6.42915 13.9869 6.52241 14.3787 6.57928L14.4427 6.57928C14.6263 6.58396 14.8063 6.52745 14.9547 6.41857L15.0187 6.41857L15.0187 6.41857L15.2213 6.67571L12.256 9.06499L12.256 9.00071L12.064 8.74357L12.064 8.74357C12.1488 8.67567 12.2088 8.58148 12.2347 8.47571C12.2347 8.47571 12.2347 8.47571 12.2347 8.41142C12.0444 8.27932 11.8308 8.18478 11.6053 8.13285L8.16 6.92214L6.02667 8.55071L8.08533 11.2079C8.14165 11.3039 8.23381 11.3733 8.34133 11.4007L8.34133 11.4007C8.45187 11.397 8.5606 11.3716 8.66133 11.3257L8.66133 11.3257L8.66133 11.3257L8.864 11.5829L6.336 13.6721L6.336 13.6721" transform="translate(0 0.5778632)" id="path3253" fill="#1A64B7" stroke="none" />
    </g>
    <g id="g3255" transform="translate(73 73.5)">
      <path d="M5.39074 0L6.48165 2.48571L6.25256 2.57143C6.22065 2.54577 6.19141 2.51706 6.16529 2.48571C6.02711 2.37857 5.78711 2.37857 5.44529 2.48571C4.34959 2.79701 3.38304 3.44238 2.68529 4.32857C2.37706 4.69494 2.13032 5.10727 1.95438 5.55C1.83642 5.81986 1.79496 6.11603 1.83438 6.40714C1.86201 6.64866 1.98792 6.86893 2.18347 7.01786C2.49405 7.29069 2.9638 7.29069 3.27438 7.01786C3.69065 6.6904 4.08088 6.33221 4.44165 5.94643L5.30347 5.1C5.70866 4.68324 6.15442 4.30644 6.63438 3.975C6.98973 3.72767 7.38408 3.53944 7.80165 3.41786C8.22752 3.31082 8.67397 3.31082 9.09983 3.41786C9.54061 3.50931 9.95232 3.70414 10.2998 3.98571C10.8705 4.42029 11.2587 5.04561 11.3907 5.74286C11.5005 6.50895 11.3712 7.28973 11.0198 7.98214C10.7443 8.63949 10.3771 9.25609 9.92892 9.81429C9.02878 10.8996 7.88159 11.7621 6.57983 12.3321C6.40572 12.3945 6.24347 12.485 6.09983 12.6C6.04454 12.7056 6.02179 12.8248 6.03438 12.9429L5.80529 13.05L4.51802 10.5964L4.7362 10.4893C4.76831 10.5016 4.79523 10.5243 4.81256 10.5536C5.01897 10.6947 5.27585 10.7452 5.52165 10.6929C6.0905 10.5637 6.62558 10.3192 7.09256 9.975C7.64118 9.62295 8.13067 9.18919 8.54347 8.68929C8.94436 8.2202 9.23823 7.67218 9.40529 7.08214C9.4709 6.82178 9.4709 6.54964 9.40529 6.28929C9.35151 6.05794 9.22105 5.85067 9.03438 5.7C8.76057 5.50687 8.39182 5.50687 8.11802 5.7C7.67051 6.01026 7.26058 6.36974 6.8962 6.77143L6.0562 7.59643C5.48892 8.14286 5.08529 8.51786 4.82347 8.73214C4.54851 8.94275 4.24804 9.1191 3.92893 9.25714C3.45883 9.47055 2.93357 9.53784 2.42347 9.45C1.9326 9.37238 1.47251 9.16496 1.09256 8.85C0.442872 8.35171 0.0449468 7.60134 0.00165208 6.79286C-0.0315685 5.51683 0.437297 4.27734 1.31074 3.33214C1.69745 2.85383 2.14054 2.42224 2.63074 2.04643C3.24625 1.5965 3.8995 1.19864 4.58347 0.857143C4.7529 0.774007 4.91059 0.669558 5.05256 0.546429C5.13361 0.430245 5.17208 0.290466 5.16165 0.15L5.39074 0.0535714" transform="translate(0.4128934 0.9535714)" id="path3257" fill="#1A64B7" stroke="none" />
    </g>
    <g id="g3259" transform="translate(73 73.5)">
      <path d="M4.58182 10.5857L4.50545 10.5857L5.77091 13.1786L6.07636 13.05C6.08546 12.9213 6.11491 12.7948 6.16364 12.675C6.17455 12.675 6.33818 12.5679 6.62182 12.4393C7.93051 11.8556 9.08694 10.9873 10.0036 9.9C10.4699 9.33834 10.8587 8.7187 11.16 8.05714C11.4147 7.50774 11.5556 6.91409 11.5745 6.31071C11.5966 6.12563 11.5966 5.93866 11.5745 5.75357C11.4439 5.04398 11.0564 4.4047 10.4836 3.95357C10.1214 3.66484 9.69556 3.46307 9.24 3.36429C9.03331 3.31239 8.8206 3.28717 8.60727 3.28929C8.37556 3.2914 8.1449 3.32017 7.92 3.375C7.49442 3.50699 7.09031 3.69822 6.72 3.94286C6.23585 4.28545 5.78321 4.66906 5.36727 5.08929L4.51636 5.925C4.15911 6.3142 3.7686 6.67265 3.34909 6.99643C3.18637 7.1135 2.99378 7.18397 2.79273 7.2C2.63947 7.19662 2.49247 7.13963 2.37818 7.03929C2.20436 6.89676 2.09464 6.69278 2.07273 6.47143C2.06147 6.40043 2.06147 6.32814 2.07273 6.25714C2.07915 6.05649 2.11591 5.85789 2.18182 5.66786C2.37061 5.23661 2.62435 4.8357 2.93455 4.47857C3.61538 3.59658 4.5621 2.94795 5.64 2.625C5.76715 2.5854 5.89938 2.56376 6.03273 2.56071C6.11788 2.55437 6.20265 2.57708 6.27273 2.625L6.41455 2.71071L6.73091 2.625L6.79636 2.625L5.60727 0L5.54182 0L5.30182 0.0964286C5.29127 0.242298 5.25043 0.384503 5.18182 0.514286C5.03922 0.633653 4.88156 0.734483 4.71273 0.814286C4.02859 1.16153 3.37217 1.55909 2.74909 2.00357C2.2454 2.38732 1.79115 2.82986 1.39636 3.32143C0.568571 4.20337 0.0754436 5.3385 0 6.53571L0 6.81429C0.14917 8.17231 1.17813 9.27832 2.54182 9.54643C2.68706 9.55743 2.83294 9.55743 2.97818 9.54643C3.355 9.54721 3.7274 9.46675 4.06909 9.31071C4.39667 9.16704 4.70455 8.98346 4.98546 8.76429C5.43473 8.43122 5.86451 8.07351 6.27273 7.69286L7.05818 6.93214C7.41345 6.53336 7.8122 6.17406 8.24727 5.86071C8.37688 5.77704 8.52854 5.73235 8.68364 5.73214C8.83109 5.73828 8.97262 5.79087 9.08727 5.88214C9.25144 6.02832 9.36892 6.21814 9.42546 6.42857C9.43679 6.54617 9.43679 6.66455 9.42546 6.78214C9.44142 6.9174 9.44142 7.05402 9.42546 7.18929C9.2756 7.74613 8.99965 8.26254 8.61818 8.7C8.19365 9.20374 7.69335 9.64091 7.13455 9.99643C6.68119 10.3252 6.1657 10.5619 5.61818 10.6929L5.41091 10.6929C5.25072 10.7033 5.09311 10.6492 4.97455 10.5429C4.93995 10.5349 4.91146 10.5109 4.89818 10.4786L4.58182 10.5857ZM5.94545 12.9857L4.72364 10.6607L4.86545 10.575L4.86545 10.6286C5.0236 10.7422 5.21499 10.8023 5.41091 10.8L5.62909 10.8C6.2091 10.6742 6.75555 10.4296 7.23273 10.0821C7.80042 9.7172 8.31119 9.27328 8.74909 8.76429C9.13333 8.29874 9.41224 7.75819 9.56727 7.17857C9.58244 7.02894 9.58244 6.8782 9.56727 6.72857C9.58336 6.60049 9.58336 6.47094 9.56727 6.34286C9.51702 6.093 9.37779 5.86889 9.17455 5.71071C9.03724 5.58781 8.8585 5.51912 8.67273 5.51786C8.49115 5.52137 8.31394 5.57322 8.16 5.66786C7.70654 5.97479 7.29262 6.33456 6.92727 6.73929L6.08727 7.56429C5.70091 7.94379 5.29299 8.30151 4.86545 8.63571C4.59155 8.84784 4.29088 9.02431 3.97091 9.16071C3.65033 9.30952 3.30004 9.38638 2.94545 9.38571L2.53091 9.38571C2.05298 9.30472 1.60522 9.10147 1.23273 8.79643C0.596783 8.31029 0.200376 7.58224 0.141818 6.79286C0.136577 6.70722 0.136577 6.62135 0.141818 6.53571C0.217362 5.37007 0.698841 4.26542 1.50545 3.40714C1.89725 2.93369 2.33575 2.49943 2.81455 2.11071C3.42942 1.67731 4.07465 1.28706 4.74545 0.942857C4.9258 0.856819 5.0944 0.748827 5.24727 0.621429C5.33553 0.488018 5.37762 0.330203 5.36727 0.171429L5.46545 0.171429L6.55636 2.51786L6.40364 2.58214C6.46909 2.50714 6.40364 2.50714 6.40364 2.50714C6.30486 2.43916 6.18594 2.40525 6.06545 2.41071C5.91325 2.41216 5.76225 2.43748 5.61818 2.48571C4.50702 2.8071 3.52888 3.46756 2.82545 4.37143C2.50282 4.74149 2.24479 5.16145 2.06182 5.61429C1.97751 5.81861 1.9331 6.03669 1.93091 6.25714C1.92503 6.33561 1.92503 6.41439 1.93091 6.49286C1.95905 6.7571 2.09237 6.99971 2.30182 7.16786C2.44302 7.29148 2.62539 7.36007 2.81455 7.36071C3.05194 7.34879 3.28012 7.26662 3.46909 7.125C3.89287 6.79836 4.2904 6.44016 4.65818 6.05357L5.50909 5.21786C5.91084 4.80164 6.35293 4.42486 6.82909 4.09286C7.18595 3.85733 7.57537 3.67331 7.98545 3.54643C8.19538 3.49094 8.4117 3.46213 8.62909 3.46071C8.83049 3.46678 9.0311 3.48827 9.22909 3.525C10.3429 3.80328 11.1929 4.6882 11.4109 5.79643C11.4275 5.97105 11.4275 6.14681 11.4109 6.32143C11.3941 6.90324 11.2567 7.47559 11.0073 8.00357C10.7291 8.64974 10.3621 9.25538 9.91636 9.80357C9.03209 10.8712 7.91322 11.7283 6.64364 12.3107C6.45613 12.3704 6.28207 12.465 6.13091 12.5893C6.0653 12.711 6.0351 12.8482 6.04364 12.9857L5.94545 12.9857Z" transform="translate(0.2727273 0.8785715)" id="path3261" fill="#1A64B7" fill-rule="evenodd" stroke="none" />
    </g>
    <g id="g3263" transform="translate(0 8.5)">
      <path d="M82.8154 41.44C82.7975 64.306 64.2486 82.8293 41.3826 82.8154C18.5165 82.8015 -0.00990323 64.2558 3.97163e-06 41.3898C0.00991118 18.5237 18.5524 -0.00593856 41.4184 1.42772e-06C52.4042 0.00285523 62.9385 4.37113 70.7026 12.1433C78.4666 19.9154 82.8239 30.4543 82.8154 41.44" transform="translate(0.2261664 0.5599986)" id="path3265" fill="#1A64B7" stroke="none" />
    </g>
    <g id="g3267" transform="translate(3 10.5)">
      <path d="M2.88924 23.336C8.75612 9.20194 22.5681 -0.00863993 37.8834 1.21721e-05C47.9218 0.00284811 57.548 3.9897 64.6443 11.0835C71.7406 18.1773 75.7256 27.797 75.7228 37.8263C75.7228 53.1275 66.496 66.9217 52.3457 72.7752C38.1955 78.6287 21.9092 75.3886 11.0827 64.5659C0.256279 53.7432 -2.97765 37.47 2.88924 23.336ZM5.09129 51.3767C10.5864 64.6252 23.5293 73.2613 37.8834 73.257C47.2916 73.257 56.3145 69.523 62.9671 62.8764C69.6198 56.2299 73.3572 47.2152 73.3572 37.8156C73.3615 23.4746 64.7176 10.5435 51.4569 5.05347C38.1963 -0.436584 22.9312 2.59587 12.7813 12.7365C2.63144 22.8771 -0.403779 38.1282 5.09129 51.3767Z" transform="translate(0.2772055 0.4063767)" id="path3269" fill="#FBBF16" fill-rule="evenodd" stroke="none" />
    </g>
    <g id="g3271" transform="translate(20 31.5)">
      <path d="M0 0C0 0 21.2154 27.8788 54.9231 34.2212L48.8815 35.9259C48.8815 35.9259 27.7738 31.1294 0.161538 0.804706" transform="translate(0.2261539 0)" id="path3273" fill="#FBBF16" stroke="none" />
    </g>
    <g id="g3275" transform="translate(10 65.5)">
      <path d="M0 5.25556C19.1953 2.29886 38.5973 0.990625 58.0043 1.34444L64.0957 0L60.8498 7.36667C60.8498 7.36667 28.7587 6.25556 4.98787 8.8C0.757377 8.2 1.30918 6.57778 1.30918 6.57778L0 5.25556" transform="translate(0.9845902 0.3777778)" id="path3277" fill="#FBBF16" stroke="none" />
    </g>
    <g id="g3279" transform="translate(13 72.5)">
      <path d="M1.60074 1.60776C1.60074 1.60776 37.2922 0.157757 55.4118 2.39776C55.8952 2.45776 56.8833 0.877757 56.8833 0.877757C56.8833 0.877757 43.7367 -0.812243 3.48037 0.497757C-3.03926 0.707757 1.60074 1.60776 1.60074 1.60776" transform="translate(0.2144477 0.07224276)" id="path3281" fill="#FBBF16" stroke="none" />
    </g>
    <g id="g3283" transform="translate(4 31.5)">
      <path d="M14.1013 2.03605C7.63733 17.4899 0 23.6607 0 23.6607L0.437333 26.7837C5.82342 19.5287 10.4055 11.6994 14.1013 3.43605C17.0027 -3.3701 14.1013 2.03605 14.1013 2.03605" transform="translate(0.3946667 0.02240784)" id="path3285" fill="#FBBF16" stroke="none" />
    </g>
    <g id="g3287" transform="translate(17 28.5)">
      <path d="M1.32831 0.962653L0.468309 1.1898C0.468309 1.1898 -0.371691 45.4827 0.198309 50.4149C0.248309 50.8584 2.19831 50.4149 2.19831 50.4149C2.19831 50.4149 2.86831 53.4218 4.19831 52.1671C3.04831 36.5159 2.76831 0 2.76831 0L1.34831 0L1.34831 0.919388" transform="translate(0.8016906 0)" id="path3289" fill="#FBBF16" stroke="none" />
    </g>
    <g id="g3291" transform="translate(22 28.5)">
      <path d="M0 0.895098L1 0L2 0.496078C2 0.496078 3 42.1235 4.88 53.8029L3.88 53.7167C3.88 53.7167 1.88 53.5873 1.73 52.2284C0.9 44.4422 0 0.895098 0 0.895098" transform="translate(0.1 0.8519608)" id="path3293" fill="#FBBF16" stroke="none" />
    </g>
    <g id="g3295" transform="translate(14 53.5)">
      <path d="M0.7 17.1847L0 17.0576L2.86 0L3.55 0.127059L0.7 17.1847Z" transform="translate(0.94 0.72)" id="path3297" fill="#FBBF16" stroke="none" />
    </g>
    <g id="g3299" transform="translate(12 36.5)">
      <path d="M0.788571 34.5758L0 34.4485L6.58286 0L7.37143 0.116667L0.788571 34.5758Z" transform="translate(0.4685714 0)" id="path3301" fill="#FBBF16" stroke="none" />
    </g>
    <g id="g3303" transform="translate(10 41.5)">
      <path d="M0.53 26.9554L0 26.2123L4.03 1.66923L5.03 0L0.53 26.9554Z" transform="translate(0.47 0.4846154)" id="path3305" fill="#FBBF16" stroke="none" />
    </g>
    <g id="g3307" transform="translate(22 46.5)">
      <path d="M6.51429 22.3091L7.28 22.08L0 0L0.628571 4.62545L6.51429 22.3091Z" transform="translate(0.08 0.7527273)" id="path3309" fill="#FBBF16" stroke="none" />
    </g>
    <g id="g3311" transform="translate(22 38.5)">
      <path d="M8.81111 29.7814L9.55556 29.5569L0 0L0.0666667 2.97172L8.81111 29.7814Z" transform="translate(0.3444445 0.6948276)" id="path3313" fill="#FBBF16" stroke="none" />
    </g>
    <g id="g3315" transform="translate(24 34.5)">
      <path d="M10.6691 33.0544L11.4 32.8312L1.25455 1.28562L0 0L10.6691 33.0544Z" transform="translate(0.3709091 0.945625)" id="path3317" fill="#FBBF16" stroke="none" />
    </g>
    <g id="g3319" transform="translate(28 39.5)">
      <path d="M0 0L9.372 28.71L10.109 28.4737L1.309 1.23519L0.836 0.773333" transform="translate(0.44 0.2040741)" id="path3321" fill="#FBBF16" stroke="none" />
    </g>
    <g id="g3323" transform="translate(32 43.5)">
      <path d="M0 0L8.02222 24.75L8.76667 24.5217L1.16667 0.978261L0.122222 7.72329e-15" transform="translate(0.6555555 0.173913)" id="path3325" fill="#FBBF16" stroke="none" />
    </g>
    <g id="g3327" transform="translate(36 47.5)">
      <path d="M6.76125 19.8765L7.515 19.656L1.04625 0.756L0 0L6.76125 19.8765Z" transform="translate(0.4725 0.546)" id="path3329" fill="#FBBF16" stroke="none" />
    </g>
    <g id="g3331" transform="translate(41 50.5)">
      <path d="M5.73714 16.7506L6.50286 16.5176L1.22286 1.05882L0 0L5.73714 16.7506Z" transform="translate(0.4457143 0.54)" id="path3333" fill="#FBBF16" stroke="none" />
    </g>
    <g id="g3335" transform="translate(45 53.5)">
      <path d="M0 0L4.11 13.7786L4.78 13.5536L1.05 0.846429L0.39 0.439286" transform="translate(0.1 0.4178571)" id="path3337" fill="#FBBF16" stroke="none" />
    </g>
    <g id="g3339" transform="translate(50 56.5)">
      <path d="M0 0L3.14 10.9091L3.81 10.68L0.9 0.676364L0.1 0.403636" transform="translate(0 0.3381818)" id="path3341" fill="#FBBF16" stroke="none" />
    </g>
    <g id="g3343" transform="translate(53 57.5)">
      <path d="M3.65 12.6969L4.33 12.4708L1.18 1.50769L0 0L3.65 12.6969Z" transform="translate(0.48 0.9369231)" id="path3345" fill="#FBBF16" stroke="none" />
    </g>
    <g id="g3347" transform="translate(57 60.5)">
      <path d="M0 0L2.8 9.92222L3.46 9.67778L1 1.16667L0 0Z" id="path3349" fill="#FBBF16" stroke="none" />
    </g>
    <g id="g3351" transform="translate(60 62.5)">
      <path d="M0 0L2 7.36L2.68 7.12L0.97 0.994286L0 0Z" transform="translate(0.55 0.2514286)" id="path3353" fill="#FBBF16" stroke="none" />
    </g>
    <g id="g3355" transform="translate(6 52.5)">
      <path d="M0.83 9.988L0 9.262L2.2 0L2.89 0.088L0.83 9.988Z" transform="translate(0.8 0.11)" id="path3357" fill="#FBBF16" stroke="none" />
    </g>
    <g id="g3359" transform="translate(8 47.5)">
      <path d="M0.53 17.0153L0 16.2847L2.48 1.37647L3.38 0L0.53 17.0153Z" transform="translate(0.94 0.497647)" id="path3361" fill="#FBBF16" stroke="none" />
    </g>
    <g id="g3363" transform="translate(0 19.5)">
      <path d="M4.14852 1.5525L3.94602 1.71L3.83352 1.5975C3.70615 1.53332 3.55589 1.53332 3.42852 1.5975C3.23258 1.67737 3.05037 1.78746 2.88852 1.92375C2.67752 2.07727 2.48164 2.25055 2.30352 2.44125C2.12854 2.63541 1.96334 2.83816 1.80852 3.04875C1.62743 3.29837 1.47992 3.5707 1.36977 3.85875C1.26581 4.14323 1.2162 4.44471 1.22352 4.7475C1.23684 5.05023 1.31755 5.34618 1.45977 5.61375C1.63168 5.93428 1.87874 6.20836 2.17977 6.4125C2.46395 6.63169 2.79515 6.78189 3.14727 6.85125C3.44343 6.91915 3.75111 6.91915 4.04727 6.85125C4.33684 6.76276 4.60761 6.62165 4.84602 6.435C5.08986 6.24927 5.30581 6.02953 5.48727 5.7825C5.74447 5.43198 5.96323 5.05481 6.13977 4.6575C6.28061 4.35854 6.40089 4.05033 6.49977 3.735L5.63352 3.09375L4.71102 4.365C4.64874 4.43191 4.61627 4.52122 4.62102 4.6125C4.62102 4.69125 4.68852 4.78125 4.81227 4.89375L4.67727 5.07375L3.38352 4.15125L3.51852 3.97125C3.59929 4.03085 3.70075 4.0552 3.79977 4.03875C3.87962 3.99855 3.94606 3.93602 3.99102 3.85875L5.81352 1.3725L5.99352 1.5075C5.93734 1.59675 5.89912 1.69611 5.88102 1.8C5.88102 1.85625 5.88102 1.9125 6.01602 1.98L7.14102 2.80125C7.19323 2.83139 7.25756 2.83139 7.30977 2.80125L7.47852 2.71125L7.64727 2.835C7.63631 3.16134 7.59106 3.48562 7.51227 3.8025C7.43658 4.11053 7.33497 4.4116 7.20852 4.7025C7.08947 4.98993 6.94252 5.265 6.76977 5.52375C6.60102 5.7825 6.43227 6.04125 6.25227 6.2775C5.93247 6.70391 5.55368 7.0827 5.12727 7.4025C4.76001 7.68398 4.33879 7.88693 3.88977 7.99875C3.4638 8.09419 3.02199 8.09419 2.59602 7.99875C2.13121 7.89281 1.69411 7.6896 1.31352 7.4025C0.917867 7.1293 0.587487 6.77203 0.346023 6.35625C0.156843 5.99257 0.0421047 5.59481 0.00852274 5.18625C-0.024094 4.72131 0.0371194 4.25456 0.188523 3.81375C0.366227 3.30914 0.620446 2.83486 0.942273 2.4075C1.1461 2.1308 1.36783 1.86774 1.60602 1.62C1.84227 1.38375 2.05602 1.18125 2.25852 1.0125L2.77602 0.59625C2.86774 0.54088 2.95109 0.472691 3.02352 0.39375C3.06485 0.346991 3.0887 0.28736 3.09102 0.225L3.09102 0.0675L3.24852 0L4.13727 1.5525" transform="translate(0.1164773 0.135)" id="path3365" fill="#1A64B7" stroke="none" />
    </g>
    <g id="g3367" transform="translate(5 12.5)">
      <path d="M1.61712 2.84923C1.45265 3.12328 1.33831 3.42528 1.27962 3.74066C1.2121 4.04928 1.2121 4.36918 1.27962 4.6778C1.35184 4.99911 1.50719 5.29501 1.72962 5.53494C1.94312 5.78158 2.21953 5.96351 2.52837 6.06066C2.82081 6.16333 3.13212 6.19847 3.43962 6.16352C3.75488 6.12412 4.06226 6.03545 4.35087 5.90066C4.95407 5.64273 5.45914 5.19378 5.79087 4.62066C5.94586 4.33792 6.05955 4.03379 6.12837 3.7178C6.19052 3.41246 6.19052 3.09743 6.12837 2.79209C6.06107 2.46893 5.90505 2.17175 5.67837 1.93494C5.4663 1.68412 5.18974 1.49814 4.87961 1.3978C4.58639 1.2986 4.27503 1.26736 3.96837 1.30637C3.65239 1.33492 3.34389 1.42004 3.05712 1.5578C2.76836 1.69352 2.50257 1.87481 2.26962 2.09494C2.02664 2.30673 1.82447 2.56249 1.67337 2.84923M2.66337 0.44923C3.08976 0.229709 3.55028 0.086654 4.02461 0.0263731C4.49311 -0.0337146 4.96885 0.00915763 5.41961 0.152087C6.40199 0.503457 7.14553 1.33176 7.39961 2.3578C7.50077 2.82845 7.50077 3.31573 7.39961 3.78637C7.28932 4.25621 7.10304 4.7042 6.84836 5.11209C6.34632 5.91722 5.6387 6.56893 4.80087 6.9978C4.38109 7.22592 3.92338 7.37316 3.45087 7.43209C2.98251 7.49865 2.50537 7.45565 2.05587 7.30637C1.56707 7.14804 1.13096 6.85532 0.795865 6.46066C0.433119 6.08634 0.183299 5.61446 0.075865 5.10066C-0.0252883 4.63001 -0.0252883 4.14273 0.075865 3.67209C0.18493 3.2001 0.367208 2.74875 0.615865 2.33494C0.855951 1.9122 1.15534 1.52721 1.50462 1.19209C1.84021 0.875481 2.21914 0.609871 2.62962 0.403516" transform="translate(0.9591349 0.1793412)" id="path3369" fill="#1A64B7" stroke="none" />
    </g>
    <g id="g3371" transform="translate(12 8.5)">
      <path d="M8.57778 3.47429C8.48266 3.50588 8.39275 3.55212 8.31111 3.61143L3.37778 6.75429L3.26667 6.56C3.46667 6.43429 3.53333 6.29714 3.45556 6.17143L0.544444 1.33714C0.466667 1.21143 0.322222 1.21143 0.111111 1.33714L0 1.14286L1.77778 0L1.9 0.182857C1.7 0.308571 1.64444 0.434286 1.72222 0.56L4.27778 4.8L7.72222 2.60571C7.80871 2.55069 7.87811 2.47139 7.92222 2.37714C7.9657 2.29118 7.9657 2.18882 7.92222 2.10286L8.11111 1.98857L8.98889 3.45143L8.8 3.56571C8.74444 3.46286 8.66667 3.41714 8.6 3.45143" transform="translate(0.9555556 0.5028571)" id="path3373" fill="#1A64B7" stroke="none" />
    </g>
    <g id="g3375" transform="translate(19 2.5)">
      <path d="M5.05125 0.00125134C4.62166 0.0288264 4.19965 0.127676 3.8025 0.293751L0 1.80125L0.09 2.015C0.25875 1.93625 0.4275 1.98125 0.4275 2.105L2.48625 7.325C2.5425 7.46 2.48625 7.56125 2.30625 7.62875L2.385 7.83125L6.19875 6.30125C6.60706 6.14705 6.98715 5.92659 7.32375 5.64875C7.95227 5.12258 8.31152 4.34214 8.3025 3.5225C8.27069 3.03549 8.14861 2.55864 7.9425 2.11625C7.76904 1.66113 7.51356 1.24169 7.18875 0.878751C6.90562 0.57581 6.56019 0.337846 6.17625 0.181251C5.81582 0.0513542 5.43421 -0.00970386 5.05125 0.00125134ZM6.24375 5.0525C5.96482 5.2443 5.66233 5.39933 5.34375 5.51375L3.56625 6.2225L1.9575 2.195L3.735 1.4975C4.04595 1.36783 4.37049 1.27349 4.7025 1.21625C4.96912 1.16536 5.24439 1.18475 5.50125 1.2725C5.75007 1.36571 5.97356 1.51598 6.15375 1.71125C6.37256 1.99449 6.54705 2.30933 6.67125 2.645C6.8143 2.97327 6.90174 3.32304 6.93 3.68C6.94798 3.94697 6.89765 4.21413 6.78375 4.45625C6.66108 4.70024 6.47443 4.90633 6.24375 5.0525Z" transform="translate(0.6975 0.9774987)" id="path3377" fill="#1A64B7" fill-rule="evenodd" stroke="none" />
    </g>
    <g id="g3379" transform="translate(29 0.5)">
      <path d="M6.32 1.5975C6.30586 1.51605 6.24952 1.4478 6.17143 1.4175C6.04819 1.3828 5.91753 1.3828 5.79429 1.4175L1.81714 2.14875L2.11429 3.65625L4.52571 3.27375C4.65793 3.26278 4.78449 3.21606 4.89143 3.13875C4.97143 3.07125 4.99429 2.95875 4.96 2.7675L5.17714 2.7675L5.55429 4.6575L5.32571 4.6575C5.32571 4.4775 5.22286 4.365 5.12 4.33125C4.99373 4.29085 4.8577 4.29085 4.73143 4.33125L2.32 4.7925L2.64 6.46875L6.75429 5.68125C6.86413 5.66003 6.96422 5.60485 7.04 5.52375C7.10769 5.45548 7.13375 5.35712 7.10857 5.265L7.33714 5.265L7.65714 6.91875L7.44 6.91875C7.44 6.795 7.36 6.73875 7.28 6.73875C7.17762 6.72502 7.07381 6.72502 6.97143 6.73875L1.25714 7.86375L1.25714 7.63875C1.31384 7.62852 1.36583 7.60097 1.40571 7.56C1.43116 7.50261 1.43116 7.43739 1.40571 7.38L0.262857 1.87875C0.257578 1.81851 0.223675 1.76428 0.171429 1.7325C0.115527 1.71592 0.055902 1.71592 0 1.7325L0 1.5075L5.58857 0.3825C5.71963 0.364741 5.84267 0.310042 5.94286 0.225C5.98147 0.154815 5.98147 0.0701848 5.94286 0L6.17143 0L6.48 1.5975L6.26286 1.5975" transform="translate(0.2514286 0.10125)" id="path3381" fill="#1A64B7" stroke="none" />
    </g>
    <g id="g3383" transform="translate(38 1.5)">
      <path d="M0 5.57C0.1575 5.57 0.225 5.51 0.23625 5.38L0.23625 0.4C0.23625 0.26 0.1575 0.2 0 0.2L0 0L2.10375 0L2.10375 0.2C2.03625 0.2 2.01375 0.2 2.01375 0.31C2.01375 0.42 2.0925 0.47 2.26125 0.61L5.79375 3.88L5.79375 0.4C5.79375 0.27 5.6925 0.2 5.47875 0.2L5.47875 0L7.335 0L7.335 0.2C7.27337 0.193484 7.21178 0.21245 7.16789 0.251461C7.12401 0.290471 7.10267 0.345217 7.11 0.4L7.11 5.4C7.11 5.53 7.2 5.59 7.34625 5.59L7.34625 5.79L5.34375 5.79L5.34375 5.59C5.445 5.59 5.50125 5.59 5.50125 5.49C5.50125 5.39 5.43375 5.36 5.31 5.24L1.54125 1.73L1.54125 5.37C1.54125 5.51 1.63125 5.57 1.8225 5.57L1.8225 5.77L0 5.77L0 5.57" transform="translate(0.61875 0)" id="path3385" fill="#1A64B7" stroke="none" />
    </g>
    <g id="g3387" transform="translate(50 1.5)">
      <path d="M0.99 3.96581L1.09125 4.05724C1.07451 4.12862 1.07451 4.203 1.09125 4.27438C1.14332 4.41816 1.22813 4.5474 1.33875 4.65152C1.48965 4.80193 1.65554 4.93599 1.83375 5.05153C2.02818 5.18676 2.23111 5.30893 2.44125 5.41724C2.63515 5.50914 2.83425 5.58928 3.0375 5.65724C3.21548 5.70458 3.39571 5.74272 3.5775 5.77152C3.79623 5.81369 4.01865 5.83284 4.24125 5.82867C4.44833 5.82254 4.65324 5.784 4.84875 5.71438C5.02457 5.65322 5.1593 5.50779 5.20875 5.32581C5.25743 5.16236 5.2191 4.98495 5.1075 4.85724C4.96544 4.71205 4.79744 4.59569 4.6125 4.51438C4.37385 4.39389 4.12543 4.29447 3.87 4.21724C3.5775 4.11438 3.285 4.02295 2.9925 3.90867C2.7 3.79438 2.41875 3.66867 2.14875 3.53152C1.88858 3.41251 1.65215 3.24593 1.45125 3.0401C1.26149 2.84091 1.12247 2.59768 1.04625 2.33153C0.964211 2.01695 0.964211 1.6861 1.04625 1.37153C1.11813 1.1177 1.24498 0.883407 1.4175 0.685811C1.61457 0.470179 1.85677 0.302241 2.12625 0.194382C2.45382 0.0697834 2.80024 0.00404087 3.15 9.64766e-05C3.59957 -0.00287066 4.04704 0.0626185 4.4775 0.194382C4.84641 0.289791 5.20458 0.423843 5.54625 0.594382C5.80454 0.72616 6.05611 0.871107 6.3 1.02867L6.80625 1.39438C6.91272 1.48494 7.03478 1.55468 7.16625 1.6001C7.24907 1.63502 7.34217 1.63502 7.425 1.6001L7.5375 1.72581L6.33375 3.00581L6.2325 2.89153C6.25588 2.7939 6.25588 2.69201 6.2325 2.59438C6.17323 2.45711 6.09355 2.32992 5.99625 2.21724C5.8588 2.07 5.70815 1.93609 5.54625 1.81724C5.35442 1.68752 5.15533 1.56922 4.95 1.46295C4.73246 1.35672 4.5067 1.2688 4.275 1.2001C4.09384 1.15278 3.90964 1.11841 3.72375 1.09724C3.54412 1.08058 3.36338 1.08058 3.18375 1.09724C3.0335 1.1044 2.88703 1.14748 2.75625 1.22295C2.62993 1.27359 2.53699 1.38516 2.50875 1.5201C2.45081 1.68853 2.48505 1.87554 2.59875 2.01152C2.73408 2.16827 2.89845 2.29642 3.0825 2.38867C3.32073 2.51318 3.56917 2.61643 3.825 2.69724L4.7025 3.01724C4.99343 3.11929 5.27563 3.24543 5.54625 3.39438C5.80377 3.52295 6.03928 3.69274 6.24375 3.89724C6.43206 4.09118 6.56772 4.33136 6.6375 4.59438C6.72626 4.90026 6.72626 5.22565 6.6375 5.53153C6.5564 5.90655 6.33958 6.23695 6.03 6.45724C5.73798 6.66452 5.40322 6.80133 5.05125 6.85724C4.67861 6.91771 4.29889 6.91771 3.92625 6.85724C3.5651 6.81248 3.20782 6.73989 2.8575 6.6401C2.47242 6.53804 2.09618 6.40426 1.7325 6.2401C1.48421 6.12557 1.24694 5.98783 1.02375 5.82867C0.873858 5.72423 0.731037 5.60969 0.59625 5.48581C0.517518 5.40641 0.421012 5.34759 0.315 5.31438C0.257614 5.28894 0.192386 5.28894 0.135 5.31438L0 5.17724L1.04625 3.89724" transform="translate(0.41625 0.5370464)" id="path3389" fill="#1A64B7" stroke="none" />
    </g>
    <g id="g3391" transform="translate(59 4.5)">
      <path d="M1.84 7.7175L1.73714 7.92L0 7.09875L0.0914286 6.9075C0.147331 6.92408 0.206955 6.92408 0.262857 6.9075C0.325991 6.89012 0.376929 6.84415 0.4 6.78375L2.52571 2.3625L0.662857 1.485C0.587677 1.46773 0.509466 1.46773 0.434286 1.485C0.343902 1.50374 0.270144 1.5678 0.24 1.65375L0.0342857 1.5525L0.788571 0L0.994286 0.09C0.942039 0.168583 0.942039 0.270167 0.994286 0.34875C1.0336 0.414678 1.09383 0.466063 1.16571 0.495L6.19429 2.84625C6.26875 2.86881 6.34839 2.86881 6.42286 2.84625C6.51324 2.82751 6.587 2.76345 6.61714 2.6775L6.82286 2.77875L6.06857 4.33125L5.86286 4.24125C5.90981 4.16119 5.90981 4.06256 5.86286 3.9825C5.82031 3.91929 5.76104 3.86872 5.69143 3.83625L3.81714 2.97L1.69143 7.4025C1.62286 7.5375 1.69143 7.63875 1.84 7.7175" transform="translate(0.9028571 0.09)" id="path3393" fill="#1A64B7" stroke="none" />
    </g>
    <g id="g3395" transform="translate(63 8.5)">
      <path d="M5.34857 4.41L5.78286 1.92375L3.49714 3.18375L5.34857 4.41ZM0.125714 3.7125C0.224676 3.75191 0.335324 3.75191 0.434286 3.7125L0.754286 3.555L5.40571 0.855L5.70286 0.68625C5.77758 0.651874 5.84386 0.601982 5.89714 0.54C5.89714 0.46125 5.89714 0.405 5.89714 0.34875C5.86856 0.286793 5.82996 0.229805 5.78286 0.18L5.90857 0L7.66857 1.125L7.54286 1.305L7.36 1.305C7.29143 1.305 7.23429 1.305 7.17714 1.40625C7.14256 1.46126 7.11926 1.52242 7.10857 1.58625C7.10857 1.665 7.10857 1.755 7.10857 1.87875L6.42286 7.50375C6.39411 7.58768 6.39411 7.67857 6.42286 7.7625L6.56 7.99875L6.42286 8.17875L4.60571 6.96375L4.73143 6.78375L4.85714 6.78375C4.8925 6.80385 4.93607 6.80385 4.97143 6.78375C5.03266 6.68507 5.068 6.57296 5.07429 6.4575L5.2 5.43375L2.66286 3.7575L1.79429 4.23C1.67656 4.28787 1.57168 4.36818 1.48571 4.46625C1.48571 4.545 1.48571 4.62375 1.6 4.71375L1.47429 4.89375L0 3.915L0.125714 3.735" transform="translate(0.06857143 0.48375)" id="path3397" fill="#1A64B7" stroke="none" />
    </g>
    <g id="g3399" transform="translate(71 11.5)">
      <path d="M1.56571 7.7175L1.41714 7.88625L0 6.5925L0.148571 6.435C0.194513 6.46995 0.250534 6.48964 0.308571 6.49125C0.371739 6.49217 0.431417 6.4628 0.468571 6.4125L3.89714 2.80125L2.33143 1.42875C2.2762 1.37342 2.20382 1.33779 2.12571 1.3275C2.03208 1.30852 1.93633 1.34891 1.88571 1.42875L1.72571 1.27125L2.86857 0L3.02857 0.1575C2.95848 0.214899 2.92749 0.306435 2.94857 0.39375C2.96526 0.467755 3.00526 0.534685 3.06286 0.585L7.15429 4.2975C7.21171 4.35203 7.28263 4.39081 7.36 4.41C7.45479 4.41802 7.54658 4.37499 7.6 4.2975L7.77143 4.455L6.62857 5.72625L6.45714 5.58C6.53714 5.49 6.57143 5.41125 6.53714 5.3325C6.52045 5.2585 6.48046 5.19157 6.42286 5.14125L4.90286 3.7575L1.47429 7.36875C1.37143 7.48125 1.39429 7.59375 1.47429 7.7175" transform="translate(0.1714286 0.25875)" id="path3401" fill="#1A64B7" stroke="none" />
    </g>
    <g id="g3403" transform="translate(74 17.5)">
      <path d="M7.656 5.53333C7.71766 5.48556 7.75416 5.41182 7.755 5.33333C7.72562 5.21107 7.66921 5.09711 7.59 5L5.203 1.87778L4.015 2.8L5.456 4.68889C5.53043 4.79823 5.62816 4.88934 5.742 4.95556C5.83 4.95556 5.951 4.95556 6.094 4.84444L6.226 5.02222L4.73 6.13333L4.598 6C4.752 5.88889 4.818 5.78889 4.807 5.67778C4.764 5.55174 4.69243 5.43759 4.598 5.34444L3.157 3.45556L1.837 4.47778L4.301 7.7C4.36192 7.78524 4.44597 7.85085 4.543 7.88889C4.63115 7.91628 4.72706 7.89522 4.796 7.83333L4.928 8.01111L3.619 9.03333L3.498 8.84445C3.597 8.76667 3.63 8.7 3.597 8.63333C3.55526 8.54012 3.49962 8.45394 3.432 8.37778L0 3.87778L0.176 3.74444C0.2104 3.78653 0.256311 3.81745 0.308 3.83333C0.371626 3.839 0.434891 3.81903 0.484 3.77778L4.818 0.444444C4.86874 0.40836 4.90098 0.351366 4.906 0.288889C4.92361 0.238563 4.92361 0.183659 4.906 0.133333L5.071 0L8.371 4.44444C8.44111 4.54934 8.54073 4.63061 8.657 4.67778C8.72563 4.71532 8.80838 4.71532 8.877 4.67778L9.02 4.85556L7.755 5.83333L7.623 5.65556" transform="translate(0.902 0.2111111)" id="path3405" fill="#1A64B7" stroke="none" />
    </g>
  </g>
</svg>