<?xml version="1.0" encoding="utf-8"?>
<svg width="129px" height="129px" viewBox="0 0 129 129" version="1.1" xmlns:xlink="http://www.w3.org/1999/xlink" xmlns="http://www.w3.org/2000/svg">
  <desc>Created with Lunacy</desc>
  <g id="tagsknicks">
    <path d="M0 0L129 0L129 129L0 129L0 0L0 0L0 0Z" id="Path" fill="#FFFFFF" stroke="none" />
    <path d="M0 0.16641L120.175 0L125 0L62.3272 81L0 0.16641ZM62.341 73.2619L115.35 4.74268L9.609 4.89522L62.341 73.2619Z" transform="translate(2 34)" id="Shape" fill="#005FA6" fill-rule="evenodd" stroke="none" />
    <path d="M0 0.153033L115 0L57.3484 75L0 0.153033L0 0.153033L0 0.153033Z" transform="translate(7 36)" id="Path" fill="#CBCCD1" stroke="none" />
    <path d="M14.0562 51.4357L12.4269 51.4357L0 39.0482L16.3621 4.63843L23.9287 1.6379L25.3095 2.71149L26.3865 0.192695L27.8363 0L31.8267 2.51879L32.6966 4.34939L37.9435 2.90418L39.3243 6.2901L39.6143 6.48279L40.0423 2.65643L45.9658 1.6792L47.2361 3.90895L47.7194 1.77554L53.6429 1.29381L54.6094 5.27157L55.1893 4.39068L57.9509 1.29381L64.0677 1.6792L65.0342 2.07835L65.5175 1.77554L71.7309 2.56008L72.2142 5.46427L73.2912 2.94547L79.2147 3.90895L80.5955 1.88565L82.5424 0.426681L83.9231 0.426681L95.0935 4.29434L99.9538 14.3695L98.5731 17.1223L102.715 19.7374L111 39.1996L98.5731 52C98.5731 52 91.8211 46.4944 77.7373 42.8745C77.7373 42.8745 53.6291 37.2313 35.2234 42.09C29.9015 43.4169 24.7043 45.199 19.6898 47.4166L17.6462 46.8385L17.0663 49.0683L13.9596 51.3944L14.0562 51.4357Z" transform="translate(8 23)" id="Path" fill="#005FA6" stroke="none" />
    <path d="M0 3.65198L3.74667 0L5 1.43617L3.93333 5.96353L2.81333 9L0 3.65198L0 3.65198L0 3.65198Z" transform="translate(32 38)" id="Path" fill="#231F20" stroke="none" />
    <path d="M0 3.0506L4 0L1.93846 6L0 3.0506L0 3.0506L0 3.0506Z" transform="translate(22 47)" id="Path" fill="#231F20" stroke="none" />
    <path d="M0 2.92823L4.22939 0L12 9.48804L8.77419 12L0 2.92823L0 2.92823L0 2.92823Z" transform="translate(13 62)" id="Path" fill="#231F20" stroke="none" />
    <path d="M6.80041 0C4.64766 0.106667 2.38086 0.306667 0 0.573333L1.71079 11C3.53564 10.8533 5.31772 10.76 7 10.6933L6.80041 0.0266667L6.80041 0Z" transform="translate(54 51)" id="Path" fill="#231F20" stroke="none" />
    <path d="M10 0.635294C7.24784 0.310588 4.23631 0.0705882 1.08069 0L0 11.4071C2.70893 11.4071 5.59078 11.6753 8.51585 12L9.95677 0.592941L10 0.635294Z" transform="translate(66 51)" id="Path" fill="#231F20" stroke="none" />
    <path d="M7.21357 0C4.44975 0.63981 2.08668 1.30806 0 1.94787L4.68467 12L5.11307 11.8578C7.04573 11.221 9.01102 10.6941 11 10.2796L7.21357 2.0205e-14L7.21357 0Z" transform="translate(33 54)" id="Path" fill="#231F20" stroke="none" />
    <path d="M9 1.14685L8.91332 1.14685C6.73194 0.727273 4.44944 0.321678 2.02247 0L0 11.1888C1.86356 11.4126 3.72713 11.6783 5.54735 12L9 1.14685Z" transform="translate(76 52)" id="Path" fill="#231F20" stroke="none" />
    <path d="M6.59024 0C5.39201 0.173544 4.16716 0.373786 2.91568 0.614078C1.90385 0.792071 0.931953 0.978964 0 1.17476L3.39497 11C5.25888 10.7063 7.1361 10.4527 9 10.2524L6.59024 0.026699L6.59024 0Z" transform="translate(44 52)" id="Path" fill="#231F20" stroke="none" />
    <path d="M5.73144 0L0 9.7541C4.9157 11.5032 9.57061 13.9417 13.8317 17L22 8.0959C16.8698 4.78696 11.3892 2.08495 5.66337 0.0418033L5.73144 0Z" transform="translate(93 57)" id="Path" fill="#231F20" stroke="none" />
    <path d="M11 2.1448C8.52363 1.31674 6.10199 0.58371 3.84453 0L0 10.3032C1.36816 10.6018 2.62687 10.914 3.85821 11.267C4.69735 11.5023 5.50456 11.7466 6.27985 12L11 2.1448L11 2.1448Z" transform="translate(84 54)" id="Path" fill="#231F20" stroke="none" />
    <path d="M3 2.35264L0.851528 0L0 13L2.29258 13L3 2.33919L3 2.35264Z" transform="translate(63 49)" id="Path" fill="#231F20" stroke="none" />
    <path d="M8.33198 1.90537e-14C5.45974 0.843449 2.67164 1.92473 0 3.23128L6.77328 12C9.08553 10.8709 11.5051 9.95063 14 9.2514L8.33198 0L8.33198 1.90537e-14Z" transform="translate(22 57)" id="Path" fill="#231F20" stroke="none" />
    <path d="M0 0L4 0L2.53287 14L0.387543 14L0 0L0 0L0 0Z" transform="translate(70 30)" id="Path" fill="#231F20" stroke="none" />
    <path d="M0 0.391061L0.705882 0L2 0.977654L1.05882 5L0 0.391061L0 0.391061L0 0.391061Z" transform="translate(84 43)" id="Path" fill="#231F20" stroke="none" />
    <path d="M1.10098 0L13 8.37549L11.8143 11L11.3203 8.77705L2.97828 5.5502L1.29859 7.25684L0.606949 3.12647L0 2.52412L1.10098 0L1.10098 0L1.10098 0Z" transform="translate(92 39)" id="Path" fill="#231F20" stroke="none" />
    <path d="M0.282692 0L7 2.13663L5.775 5L0 1.22093L0.282692 0L0.282692 0L0.282692 0Z" transform="translate(101 35)" id="Path" fill="#231F20" stroke="none" />
    <path d="M1.69427 8.69514L0 9L2.73461 1.04713C2.73461 1.04713 3.23991 0.874816 4.22081 0.60972L4.22081 1.48454L4.87473 1.80265L5.5138 0.30486L7 0L4.87473 8.21797L3.21019 8.48306L4.30998 4.63917L3.29936 3.80412L1.67941 8.7349L1.69427 8.69514Z" transform="translate(42 16)" id="Path" fill="#005FA6" stroke="none" />
    <path d="M5 2.43337e-15C3.84507 0.150685 2.78873 0.315068 1.84507 0.479452L0 9C1.09859 8.83562 2.29577 8.65753 3.5493 8.49315L3.91549 6.50685L2.02817 6.64384L2.42254 4.84931L4.01408 4.71233L4.35211 3.20548L2.73239 3.34247L3.07042 1.78082L4.67606 1.50685L5 0L5 2.43337e-15Z" transform="translate(48 15)" id="Path" fill="#005FA6" stroke="none" />
    <path d="M2.72854 0.650769C3.11067 0.755848 3.48705 0.880632 3.85615 1.02462L4.64965 4.45846L4.37123 5.15077L4.92807 5.52462L6 9L4.60789 8.75077C4.48613 8.08024 4.31869 7.41871 4.10673 6.77077C4.05049 6.4844 3.8787 6.23347 3.63142 6.07649C3.38414 5.9195 3.08298 5.87017 2.79814 5.94L3.21578 8.52923L1.82367 8.30769L0 0L1.22506 0.263077L2.19954 3.89077C2.19954 3.89077 3.73086 4.77692 3.41067 3.24C3.09049 1.70308 2.83991 0.692308 2.83991 0.692308L2.72854 0.650769Z" transform="translate(80 16)" id="Path" fill="#005FA6" stroke="none" />
    <path d="M2.60703 8L1.32907 8L1.32907 5.37793L0.511182 5.16388C0.294108 4.97942 0.119409 4.74625 0 4.48161L0 0L1.27796 0L1.40575 3.6388C1.45905 3.92 1.68073 4.13233 1.95303 4.16298C2.22532 4.19363 2.48506 4.03549 2.59425 3.77258L2.59425 0.0267559L3.8722 0.0267559L4 4.45485C3.98995 4.73649 3.86416 4.99986 3.65495 5.17726C3.35428 5.34949 3.01292 5.42838 2.67093 5.40468L2.67093 7.97324L2.60703 8Z" transform="translate(64 14)" id="Path" fill="#005FA6" stroke="none" />
    <path d="M6.16726 8.58898L4.7127 8.70236C4.43633 8.70236 3.78178 8.00787 3.78178 8.00787C3.78178 8.00787 3.06904 8.84409 2.66177 8.88661C1.91994 8.88661 1.33812 8.88661 0.610839 9C0.155359 8.79172 -0.0875712 8.30054 0.0290156 7.82362C0.276291 6.30709 1.04721 0.467717 1.04721 0.467717L2.50177 0.311811L1.80358 6.29291C1.80358 6.55905 2.025 6.7748 2.29813 6.7748C2.65481 6.72497 2.97523 6.53559 3.18541 6.25039L3.81087 0.212598L4.97452 0.127559L5.07634 0.127559L4.59633 5.96693C4.66427 6.22386 4.906 6.40052 5.17815 6.39213C5.5903 6.45222 5.97685 6.18228 6.05089 5.78268C6.19635 5.05984 6.54544 0 6.54544 0L8 0L7.60727 7.08661C7.60727 7.08661 7.1709 8.5748 6.15271 8.65984L6.16726 8.58898Z" transform="translate(53 14)" id="Path" fill="#005FA6" stroke="none" />
    <path d="M2.69224 0.130933C3.2585 0.30704 3.66293 0.826932 3.71078 1.44026L3.66049 1.45336C3.83653 2.59247 4 7.07038 4 7.07038C3.84614 7.60132 3.38773 7.97373 2.85571 8C2.40303 7.98691 1.96292 7.89525 1.51023 7.89525C0.74484 7.75654 0.202746 7.03968 0.252777 6.23241C0.252777 6.23241 0.0390097 2.38298 0.00128596 1.19149C-0.0364378 0 0.768335 0 0.768335 0L2.69224 0.130933ZM1.39706 1.38789L1.61083 6.27169L2.6168 6.35025L2.40303 1.47954L1.39706 1.38789Z" transform="translate(69 15)" id="Shape" fill="#005FA6" fill-rule="evenodd" stroke="none" />
    <path d="M3.85294 5.04396L4.58824 5.84929L4.45588 5.79278L5 9L3.52941 8.8022C3.52941 8.8022 3.33824 7.30455 3.14706 6.35793C2.95588 5.4113 1.91176 5.69388 1.91176 5.69388L2.22059 8.64678L0.75 8.47724L0 0C1 0.11303 1.92647 0.240188 2.76471 0.367347C3.29986 0.605729 3.70936 1.04515 3.89706 1.58242C4.10294 2.40188 4.29412 3.81476 4.29412 3.81476C4.40311 4.2718 4.23198 4.7486 3.85294 5.04396ZM1.58824 1.86499L1.82353 4.09733C1.82353 4.09733 2.61765 4.281 2.61765 3.67347C2.6074 3.2276 2.5582 2.78334 2.47059 2.34537C2.45199 2.15191 2.336 1.97945 2.16007 1.88366C1.98413 1.78788 1.77053 1.7809 1.58824 1.86499Z" transform="translate(75 15)" id="Shape" fill="#005FA6" fill-rule="evenodd" stroke="none" />
    <path d="M15.7297 4.21958L22.0299 1.7593L16.6838 14.2806L22.1282 10.3771L25.9027 0.206168L26.6464 0L30 1.85551L26.7446 12.645L21.2862 17.8817L23.4892 22.0875L20.7671 32.3684L13.1057 35.4472L17.5117 22.9122L16.782 21.9913L11.9551 25.7985L7.12816 37.9212L2.72217 41L0 38.0174L15.7297 4.21958L15.7297 4.21958L15.7297 4.21958Z" transform="translate(9 24)" id="Path" fill="#E76E32" stroke="none" />
    <path d="M7.47297 2.48611L12.3243 1.04167L14.1351 8.09722L15.5541 0.722222L20 0L16.9595 25.9444L11.0135 27.0972L12.3243 19.8333L10.2027 11.1111L6.45946 28.0278L0 30L7.47297 2.48611L7.47297 2.48611L7.47297 2.48611Z" transform="translate(34 25)" id="Path" fill="#E76E32" stroke="none" />
    <path d="M2.37288 0.307362L7 0L5.91902 25.4691L0 26L2.37288 0.307362L2.37288 0.307362L2.37288 0.307362Z" transform="translate(54 25)" id="Path" fill="#E76E32" stroke="none" />
    <path d="M0 3.10448L2.4 0L9.3907 0.415778L9.69767 4.97548L5.10698 4.97548L5.84651 20.7196L11.8186 20.7889L12 26L2.70698 25.6951L0 22.8955L0 3.10448L0 3.10448L0 3.10448Z" transform="translate(64 25)" id="Path" fill="#E76E32" stroke="none" />
    <path d="M0 0L4.24324 0.418605L6.36486 11.6791L9.18919 8.23256L7.36486 1.04651L12.2162 1.9814L14.3378 9.3907L11.9189 12.5163L15.6622 15.5442L20 30L13.3243 27.8512L11.2162 18.6698L8.89189 16.5767L7.36486 18.5581L8.98649 26.7767L3.02703 25.6605L0 0L0 0L0 0Z" transform="translate(75 25)" id="Path" fill="#E76E32" stroke="none" />
    <path d="M0 1.54665L1.65199 0.0966655L2.69315 0L13.6879 3.81138L17.3112 11.7656L11.0919 10.0118L9.70369 6.18659L6.58018 4.80566L5.81666 5.42708L7.20488 10.578L20.9067 19.4574L29 38.2381L26.3068 41C26.3068 41 21.0871 37.6719 17.9497 36.222C14.8123 34.772 9.62039 32.7144 9.62039 32.7144L6.19148 21.7774L12.9382 24.2492L14.0766 28.1711L19.2686 30.933L16.6726 22.9926L3.91479 14.2098L0.0694112 1.51903L0 1.54665Z" transform="translate(90 24)" id="Path" fill="#E76E32" stroke="none" />
    <path d="M15.7446 49.0595C6.2143 45.1135 0 35.8145 0 25.4996C0.00768254 11.4252 11.4113 0.0153875 25.4857 7.67183e-06C35.8006 -0.00563197 45.103 6.20358 49.0542 15.7317C53.0055 25.2598 50.8273 36.2299 43.5355 43.5257C36.2438 50.8214 25.2748 53.0056 15.7446 49.0595ZM25.4857 1.91004C12.4575 1.91004 1.89609 12.4715 1.89609 25.4996C1.91146 38.5214 12.4639 49.0739 25.4857 49.0892C38.5139 49.0892 49.0753 38.5278 49.0753 25.4996C49.0753 12.4715 38.5139 1.91004 25.4857 1.91004Z" transform="translate(39 53)" id="Shape" fill="#005FA6" fill-rule="evenodd" stroke="none" />
    <path d="M49 24.5C49 38.031 38.031 49 24.5 49C10.969 49 0 38.031 0 24.5C0 10.969 10.969 0 24.5 0C30.9978 0 37.2295 2.58124 41.8241 7.17588C46.4188 11.7705 49 18.0022 49 24.5L49 24.5Z" transform="translate(40 54)" id="Path" fill="#E76E32" stroke="none" />
    <path d="M28.6214 6.5537C40.8738 8.44205 44.8655 13.7878 47 16.7591L47 15.3706C44.7824 12.2604 41.4559 7.5673 28.7738 5.65118C26.1025 5.28022 23.4652 4.69518 20.8873 3.90167C23.4742 2.369 26.33 1.34627 29.3005 0.888637L28.5105 0C25.3474 0.495543 22.3272 1.66505 19.6538 3.42958C16.8124 2.33267 16.4382 1.15245 16.4244 1.13857L16.4244 1.43015L15.4957 1.59677C15.4957 1.79116 15.8561 2.83253 18.6281 4.04052C17.1854 4.97399 15.7972 5.98924 14.4701 7.08133C12.117 6.48571 9.70325 6.16422 7.27661 6.12326L6.95783 7.06744C9.17767 7.1124 11.3876 7.37751 13.5553 7.85888C12.3155 9.01834 11.2258 10.3291 10.312 11.7606C9.73103 11.6171 9.1361 11.5379 8.53789 11.5245C4.9481 11.4134 0.221763 16.4398 0 16.6481L0.249484 17.6339C0.249484 17.6339 5.35004 12.3715 8.56562 12.4687C8.989 12.4821 9.4107 12.5285 9.82689 12.6075C7.52727 16.6741 5.96466 21.1164 5.21144 25.7288L5.21144 25.7288C4.28281 38.5446 8.93984 44.5985 9.14774 44.8484L10.4645 45.2511C10.4645 45.2511 6.04306 39.2389 6.04306 28.9918C6.04306 27.9921 6.04306 26.9229 6.15394 25.8121C6.92407 21.2483 8.49614 16.8574 10.7971 12.8436C13.1395 13.6767 15.7175 16.176 17.3391 23.3823C19.5152 33.1017 23.895 45.5982 29.0372 49L30.1737 48.7084C25.5721 45.6954 20.5686 33.435 18.2678 23.174C16.8817 16.9258 14.6225 13.3157 11.3377 12.066C12.2906 10.6029 13.4429 9.2803 14.7611 8.13658C17.6761 8.87315 20.4456 10.0984 22.9525 11.7606C30.3262 16.8008 34.706 21.1468 38.5591 27.2978C40.9483 31.1298 42.6247 35.3636 43.5072 39.7943L44.3111 39.0584C43.4566 34.6715 41.7774 30.4872 39.363 26.7285C35.4267 20.4664 30.9776 16.0371 23.4931 10.9275C21.0941 9.32125 18.4554 8.10737 15.6759 7.33125C17.0011 6.27931 18.3898 5.31015 19.834 4.4293C22.689 5.41584 25.6314 6.1272 28.6214 6.5537Z" transform="translate(41 54)" id="Path" fill="#005FA6" stroke="none" />
  </g>
</svg>