<?xml version="1.0" encoding="utf-8"?>
<svg width="78px" height="106px" viewBox="0 0 78 106" version="1.1" xmlns:xlink="http://www.w3.org/1999/xlink" xmlns="http://www.w3.org/2000/svg">
  <desc>Created with Lunacy</desc>
  <g id="tagsnets" transform="translate(0.1601563 0.1600037)">
    <path d="M0.00044114 8.46809C0.153799 8.28369 16.0194 0.170213 38.2284 0L38.2284 0.0567376C51.6161 -0.101872 64.8674 2.80687 77 8.56738C76.9861 24.7801 74.379 39.3475 68.398 51.3901C62.194 63.8298 50.4552 75.9574 38.4932 80C28.6784 77.0355 15.6151 64.6809 8.75578 51.3617C2.5657 39.2908 -0.0274421 24.4965 0.00044114 8.46809ZM75.7313 9.43262C63.973 3.94096 51.1657 1.16536 38.2284 1.30496L38.2702 1.30496C16.8698 1.46099 1.5619 9.06383 1.42249 9.23404C0.93453 15.8298 1.35278 34.5106 9.81534 51.0213C15.5593 62.1844 27.6606 75.4184 38.549 78.7518C48.2245 75.461 60.2701 64.5106 67.2409 50.8085C72.8454 39.7021 75.8707 25.844 75.7313 9.43262Z" transform="translate(-3.56754E-15 0.5)" id="path2997" fill="#000000" fill-rule="evenodd" stroke="#000000" stroke-width="0.32" />
    <path d="M72 7.58972C49.845 -2.80181 19.2407 -2.27727 0.0136787 7.6606C-0.293061 26.9551 4.61478 41.1035 9.13223 49.4819C14.2353 58.9378 25.8635 71.5834 36.1393 75C50.082 70.0807 62.6305 53.1679 66.8133 40.9759C70.8428 28.9257 71.9582 21.7381 72 7.58972Z" transform="translate(3 3.5)" id="path2997-1-7" fill="#000000" stroke="#000000" stroke-width="0.3" />
    <path d="M0.00665985 28.6354L0.00665985 4.40639C0.00665985 4.40639 -0.0749233 4.154 0.332992 3.97172L3.52833 2.75186C3.52833 2.75186 3.88186 2.62566 3.96344 2.83599C4.04502 3.04631 11.0612 21.2602 11.0612 21.2602L10.9524 0.957112C10.9604 0.770595 11.0795 0.608653 11.2515 0.550491L13.699 0.00365429C13.7793 -0.0101907 13.8612 0.0157649 13.92 0.0737031C13.9789 0.131641 14.0078 0.21479 13.9982 0.298105C13.9982 0.634619 13.9982 24.5973 13.9982 24.5973C13.9982 24.5973 13.9982 25.0179 13.6446 25.074L10.2453 25.9013C10.0401 25.958 9.82442 25.8585 9.72865 25.6629C9.60627 25.3124 2.83487 7.53317 2.83487 7.53317C2.83487 7.53317 2.94365 27.71 2.93005 27.724C2.95339 27.921 2.84005 28.108 2.65811 28.1727C2.34538 28.2989 0.373784 29 0.373784 29C0.373784 29 0.020257 29 0.020257 28.6495L0.00665985 28.6354Z" transform="translate(8 9.5)" id="path3825" fill="#FFFFFF" stroke="#000000" stroke-width="0.32" />
    <path d="M0.0100569 1.47352C0.0100569 1.47352 -0.11314 1.12394 0.502843 1.05402C4.4431 0.380051 8.43043 0.0339964 12.4255 0.0192698C12.4255 0.0192698 12.9731 -0.106579 12.9731 0.28495L12.9731 1.9909C12.9807 2.09207 12.9466 2.19189 12.879 2.26625C12.8114 2.34061 12.7165 2.38273 12.6172 2.38243C9.4957 2.36589 6.37811 2.60907 3.2953 3.10955L3.2953 11.4995C5.82699 11.0578 8.3927 10.8519 10.9609 10.8842C10.9609 10.8842 11.2346 10.7164 11.2346 11.1639L11.2346 12.7999C11.2346 12.7999 11.2346 13.2613 10.9061 13.2054C8.34496 13.2254 5.78823 13.4263 3.25423 13.8067L3.25423 23.3012C6.34624 22.8454 9.46575 22.6118 12.5898 22.6021C12.5898 22.6021 12.9867 22.4902 12.9867 22.9657L12.9867 24.4898C13.0193 24.6105 12.9911 24.7398 12.9116 24.835C12.8321 24.9302 12.7116 24.979 12.5898 24.9652C8.56882 25.0104 4.5565 25.3563 0.584974 26C0.584974 26 0.133253 26 0.133253 25.7343L0.0100569 1.47352Z" transform="translate(25 7.5)" id="path3829" fill="#FFFFFF" stroke="#000000" stroke-width="0.32" />
    <path d="M6.29017 25.3962L6.26161 2.70462C4.29818 2.49709 2.32419 2.40631 0.350039 2.43278C0.259354 2.44119 0.16949 2.40975 0.103736 2.34661C0.0379826 2.28347 0.00281206 2.19485 0.0073392 2.10371C0.0073392 1.74602 0.0073392 0.27236 0.0073392 0.27236C0.0073392 0.27236 -0.0783358 -0.0137882 0.33576 0.000519186C5.46257 0.0823429 10.5754 0.560678 15.6287 1.43126C15.6287 1.43126 16 1.43126 16 1.80325L16 3.47722C16 3.47722 16 3.93506 15.6002 3.86352C15.2004 3.79198 12.7444 3.29122 9.64577 2.96215L9.64577 25.5965C9.64577 25.5965 9.73145 26.04 9.31735 25.9971L6.70427 25.7825C6.59988 25.7952 6.49518 25.7612 6.41812 25.6895C6.34106 25.6178 6.29947 25.5157 6.30445 25.4105L6.29017 25.3962Z" transform="translate(40 7.5)" id="path2996" fill="#FFFFFF" stroke="#000000" stroke-width="0.32" />
    <path d="M11.6751 9.91547C11.6751 9.91547 11.3801 9.75935 11.3941 9.53228C11.4082 9.30521 11.3941 6.19717 11.3941 6.19717C11.2037 4.93398 10.38 3.86022 9.21669 3.35877C8.09912 2.74536 6.83391 2.46023 5.56424 2.53563C5.47996 2.53563 4.15946 2.53563 4.15946 4.43736C4.10291 5.62179 4.3806 6.79808 4.96018 7.82924C5.93554 9.08988 6.98642 10.289 8.10691 11.4198L10.9165 14.4711C12.1487 15.7354 13.2372 17.1349 14.1615 18.6435C14.7625 19.8721 15.0476 21.2339 14.9904 22.6031C14.9904 22.6031 15.3275 26.7614 12.0122 26.9458C12.0122 26.9458 9.52574 27.4426 4.76351 25.4273C4.76351 25.4273 0.366529 23.852 0.00128389 19.7505L0.00128389 15.8619C-0.00739989 15.7616 0.0282823 15.6626 0.0987502 15.5914C0.169218 15.5202 0.267251 15.4841 0.366529 15.4929L2.97943 16.0038C2.97943 16.0038 3.27444 16.0038 3.27444 16.387L3.27444 20.1337C3.27444 20.1337 3.40087 23.554 9.38527 24.4622C9.38527 24.4622 11.7875 25.0015 11.7453 22.7024L11.7453 20.7439C11.7453 20.7439 11.7453 18.899 9.04812 16.2877L3.28849 10.4548C2.03097 9.11562 1.17808 7.44158 0.830109 5.62949C0.718829 4.21979 0.960373 2.80447 1.5325 1.51381C1.5325 1.51381 3.47111 -1.89226 10.4248 1.51381C12.504 2.36551 14.0051 4.23563 14.4004 6.46681L14.597 10.6251C14.597 10.6251 14.597 11.0508 14.2037 10.9799C13.8103 10.9089 11.6048 10.0006 11.6048 10.0006L11.6751 9.91547Z" transform="translate(55 9.5)" id="path3009" fill="#FFFFFF" stroke="#000000" stroke-width="0.32" />
    <path d="M0.123701 0.0288472C0.123701 0.0288472 0.000860743 0.0288472 0.000860743 0.182659C0.000860743 0.336472 0.000860743 7.85929 0.000860743 7.85929C-0.00358613 7.89759 0.00935747 7.93587 0.03598 7.96314C0.0626026 7.99041 0.0999637 8.00367 0.13735 7.99912L2.00725 7.99912C2.00725 7.99912 4 7.73344 4 5.91566L4 1.72078C4 -0.19488 2.44402 0.0148643 1.95266 0.000881378L0.123701 0.0288472Z" transform="translate(37 43.5)" id="path2999" fill="none" stroke="#000000" stroke-width="0.32" />
    <path d="M0.142511 0.00114865C0.142511 0.00114865 0.0197089 0.00114865 0.00606428 0.157826C-0.00758035 0.314503 0.00606428 9.82908 0.00606428 9.82908C0.00606428 9.82908 0.00606428 9.98576 0.183444 10L2.91237 10C3.13069 9.87181 4.98636 10.3561 5 7.27951L5 2.43677C5 2.02371 4.79533 -0.0558249 1.698 0.00114865L0.142511 0.00114865Z" transform="translate(37 54.5)" id="path3001" fill="none" stroke="#000000" stroke-width="0.32" />
    <path d="M12.5404 0.106347C8.73839 1.19623 5.41136 3.53707 3.09326 6.75317C6.96864 6.14388 10.1407 8.2764 11.3681 8.77491L11.3681 10.035C8.69209 8.48444 5.64436 7.69905 2.5554 7.76404C1.68654 8.55335 -0.20288 13.3861 0.0177826 18.0389C0.665978 18.4266 1.19005 21.1408 11.3129 23.5779L11.3129 25.1012C11.3129 25.1012 3.93454 24.298 0.169488 19.3406C0.597021 23.6056 3.96212 30.654 10.3062 32.8142C15.8917 33.6036 19.174 31.7757 24.2217 29.2554C29.7382 26.3474 29.6279 26.1674 31.407 25.3089C31.6716 24.2694 31.8423 23.2081 31.9173 22.1378C29.5875 23.1959 27.1441 23.9812 24.6354 24.478L24.6354 23.2456C27.1701 22.7134 29.6396 21.9055 32 20.8361C31.9994 19.5452 31.884 18.2568 31.6552 16.9865C29.0211 18.579 24.4285 16.9865 23.739 16.7372C23.1873 15.8233 22.9391 15.851 22.9391 15.851C23.5183 15.1032 23.3528 14.8401 23.3528 14.8401C25.5318 15.9895 29.1314 16.6403 31.3242 15.6294C28.8969 5.36841 19.7808 -0.904524 12.5404 0.106347Z" transform="translate(21 37.5)" id="path3772" fill="#FFFFFF" stroke="#FFFFFF" stroke-width="0.32" />
    <path d="M0 6.96117C2.55714 8.72521 17.0286 9.26799 20 0C13.5286 3.82661 7.42857 7.96532 0 6.96117Z" transform="translate(33 63.5)" id="path3002" fill="#FFFFFF" stroke="none" />
    <path d="M8.16716e-15 4C8.16716e-15 4 1.94253 1.12423 2 0.0687623C1.83908 -0.145391 1.54023 0.191135 1.33333 0.389992C1.03195 1.6779 0.582149 2.89574 0 4L8.16716e-15 4Z" transform="translate(52 62.5)" id="path3003" fill="#FFFFFF" stroke="none" />
    <path d="M0.664865 2.2029C0.644502 3.42385 0.420413 4.63526 0 5.7971C0.567568 5.65217 0.632432 5.6087 1.03784 6C2.1602 4.14685 2.82903 2.10166 3 0C2.51484 0.944415 1.69384 1.71893 0.664865 2.2029L0.664865 2.2029Z" transform="translate(54 56.5)" id="path3010" fill="#FFFFFF" stroke="none" />
    <path d="M0.00268233 0.58747L0.00268233 25.4615C0.358813 26.4047 1.7406 25.7853 2.56682 25.9542C4.07682 25.9542 5.60106 25.9542 7.11105 25.8838C9.1598 25.6643 10.7778 24.0653 11 22.0408C11 19.6336 11 17.2405 11 14.8475C10.7988 13.4699 9.85426 12.31 8.53558 11.8209C9.73122 11.0292 10.3492 9.62076 10.1168 8.2172C10.1168 6.6265 10.1168 5.0358 10.0313 3.45918C9.9507 1.95899 8.93326 0.667098 7.48143 0.221468C6.19658 0.0125771 4.8916 -0.0488308 3.59248 0.0384675C2.50984 0.0384675 1.42721 0.0384675 0.358813 0.0384675C0.126707 0.110696 -0.0220734 0.334172 0.00268233 0.573393L0.00268233 0.58747Z" transform="translate(34 41.5)" id="path2998" fill="#000000" stroke="#000000" stroke-width="0.32" />
    <path d="M0.10873 0C0.0471325 0.0180217 0.00341772 0.0747396 0 0.141072C0 0.25393 0 7.90003 0 7.90003C0 7.90003 0 8.01289 0.122321 7.99878C0.244642 7.98467 1.99791 7.99878 1.99791 7.99878C2.54593 7.99557 3.06897 7.76042 3.44609 7.34768C3.82321 6.93494 4.02175 6.38036 3.99582 5.81216L3.99582 1.58001C3.99582 1.58001 4.15892 0.0846432 2.44642 0.070536L0.10873 0Z" transform="translate(37 43.5)" id="path3777" fill="#FFFFFF" stroke="#000000" stroke-width="0.32" />
    <path d="M0 0.000271684L0 9.81164C0 9.81164 0 9.99569 0.238095 9.99569L3.03922 9.99569C3.03922 9.99569 5 10.2222 5 7.39065L5 2.16642C5 2.16642 4.77591 -0.0280439 1.77871 0.000271684L0 0.000271684Z" transform="translate(37 54.5)" id="path3779" fill="#FFFFFF" stroke="#000000" stroke-width="0.32" />
    <path d="M2.23581 1.03352e-14C2.84124 1.562 3.09119 3.21991 2.97043 4.87273C2.56576 6.15185 1.67768 7.25952 0.463132 8C0.516384 6.58141 0.36062 5.16271 0 3.78182C1.16026 2.76866 1.93279 1.44301 2.20387 0L2.23581 1.03352e-14Z" transform="translate(54 49.5)" id="path3793" fill="#FFFFFF" stroke="none" />
    <path d="M17.995 11.5276C16.8141 5.48334 8.67414 -0.860956 0 0.0964031C10.4174 1.21094 15.4644 11.5276 16.7438 16C18.1496 15.257 17.995 11.5704 17.995 11.5704L17.995 11.5276Z" transform="translate(37 35.5)" id="path3795" fill="#FFFFFF" stroke="#FFFFFF" stroke-width="0.32" />
    <path d="M0 0L0 18.7704C0 18.7704 0 19 0.0660377 19L4.46415 19C4.60943 19 6.98679 18.3542 7 16.0438L7 10.9781C6.87876 9.91298 6.15447 9.0456 5.19057 8.81118C5.94905 8.3595 6.42384 7.49789 6.43208 6.55816L6.43208 2.54003C6.43241 1.20687 5.45307 0.117288 4.22642 0.0861027L0 0Z" transform="translate(7 85.5)" id="path3011" fill="#000000" stroke="#000000" stroke-width="0.32" />
    <path d="M0 0C0 0 0 0 0 0.108825C0 0.217649 0 5.91734 0 5.91734C0 5.91734 0 5.99896 0 5.99896L1.15133 5.99896C1.15133 5.99896 2.98298 6.09418 2.99606 4.46181L2.99606 1.18347C2.99606 1.18347 3.13998 0.0680154 1.68774 0.0408093L0 0Z" transform="translate(8 87.5)" id="path3012" fill="#FFFFFF" stroke="#000000" stroke-width="0.32" />
    <path d="M0.0739561 0.00733843C-0.0243811 0.0963056 0.00371522 0.140789 0.00371522 0.140789L0.00371522 7.91058C0.00371522 7.91058 0.00371522 7.99955 0.00371522 7.99955L2.27952 7.99955C2.27952 7.99955 4.00745 8.08852 3.9934 5.76055L3.9934 2.26117C4.04262 1.62597 3.81466 1.00176 3.37424 0.565777C2.93383 0.129792 2.32905 -0.0703548 1.73164 0.0221663L0.0739561 0.00733843Z" transform="translate(8 94.5)" id="path3014" fill="#FFFFFF" stroke="#000000" stroke-width="0.32" />
    <path d="M0 0.0212816L0.0672269 18.7693C0.0672269 18.7693 0.0672269 19 0.17479 18.9712C0.282353 18.9423 1.51933 18.9712 1.51933 18.9712C1.62961 18.95 1.70932 18.8462 1.70756 18.726C1.70756 18.4952 1.70756 9.98655 1.70756 9.98655L3.15966 9.98655L6.31933 19L7.86555 19C7.86555 19 7.98655 19 8 18.8702L8 18.5818L4.92101 9.85676C5.21681 9.85676 7.22017 8.87609 7.20672 7.14551L7.20672 2.646C7.01086 0.997268 5.61277 -0.174085 4.07395 0.0212816L0 0.0212816Z" transform="translate(15 85.5)" id="path3784" fill="#000000" stroke="#000000" stroke-width="0.32" />
    <path d="M0 0.00156657L0 7L2.67882 7C3.41531 6.92986 3.97849 6.27758 3.97549 5.49819L3.97549 1.89385C4.05829 1.41289 3.92889 0.918356 3.62388 0.550125C3.31887 0.181895 2.87142 -0.0199926 2.40809 0.00156657L0 0.00156657Z" transform="translate(17 87.5)" id="path3013" fill="#FFFFFF" stroke="#000000" stroke-width="0.32" />
    <path d="M1.92813e-05 3.99589L1.92813e-05 15.1591C1.92813e-05 20.2384 8.02852 20.3221 7.99969 15.1591L7.99969 3.94007C8.05735 -1.50199 -0.0143945 -1.13919 1.92813e-05 3.99589Z" transform="translate(23 85.5)" id="path3015" fill="#000000" stroke="#000000" stroke-width="0.32" />
    <path d="M0 2.09342L0 13.7853C-3.01087e-08 14.5765 0.381115 15.3077 0.999782 15.7033C1.61845 16.0989 2.38068 16.0989 2.99935 15.7033C3.61801 15.3077 3.99913 14.5765 3.99913 13.7853L3.99913 2.28038C4.0314 1.05723 3.16232 0.0367052 2.05799 0.000963961C0.953665 -0.0347773 0.0322694 0.927803 0 2.15095L0 2.09342Z" transform="translate(25 86.5)" id="path3017" fill="#FFFFFF" stroke="#000000" stroke-width="0.32" />
    <path d="M0.0144654 3.99008L0.0144654 15.1576C0.0144654 20.2388 8.0287 20.3226 7.99992 15.1576L7.99992 3.9482C7.99992 -1.49597 -0.0286993 -1.13303 7.71715e-05 3.9482L0.0144654 3.99008Z" transform="translate(32 85.5)" id="path3015-1" fill="#000000" stroke="#000000" stroke-width="0.32" />
    <path d="M0.00647412 1.98953L0.00647412 13.6073C-0.0539543 14.4385 0.312244 15.2368 0.95399 15.6729C1.59574 16.109 2.40426 16.109 3.04601 15.6729C3.68776 15.2368 4.05395 14.4385 3.99353 13.6073L3.99353 2.10385C3.94108 0.947319 3.09308 0.0307244 2.04783 0.000754113C1.00258 -0.0292162 0.112891 0.837554 0.00647412 1.98953Z" transform="translate(34 87.5)" id="path3017-7" fill="#FFFFFF" stroke="#000000" stroke-width="0.32" />
    <path d="M1.65555 1.0149e-14L0.220151 1.0149e-14C0.220151 1.0149e-14 -0.0382206 1.0149e-14 0.00484128 0.228536L0.00484128 18.7971C0.00484128 18.7971 0.00484128 18.9827 0.177089 18.997L1.61249 18.997C1.61249 18.997 1.8565 18.997 1.84215 18.7828L1.84215 11.741L2.81822 9.98415L6.04786 18.8399C6.05534 18.9289 6.13031 18.9973 6.22011 18.997L7.82775 18.997C7.86809 19.0053 7.91008 18.996 7.94303 18.9714C7.97599 18.9468 7.99674 18.9093 8 18.8685C8 18.7114 8 18.5257 8 18.5257L4.09572 7.72736L7.92823 0.314236C7.92823 0.314236 8.01435 0.0142835 7.78469 0.0142835L6.11963 0.0142835C6.11963 0.0142835 6.01915 0.0142835 6.0048 0.0857008L1.88521 8.11301L1.88521 0.185685C1.88521 0.185685 1.88521 0 1.75603 0L1.65555 1.0149e-14Z" transform="translate(41 85.5)" id="path3786" fill="#000000" stroke="#000000" stroke-width="0.32" />
    <path d="M1.48707 0L0.193966 0C0.193966 0 0 0 0 0.316427L0 18.813C0 18.813 0.0905172 19 0.181034 19L5.84483 19C5.93796 18.9634 6.00016 18.8654 6 18.7555L6 17.5617C6 17.5617 6 17.3603 5.80603 17.3603L1.69397 17.3603L1.69397 0.244512C1.69397 0.244512 1.69397 0.0287661 1.5 0.0431491L1.48707 0Z" transform="translate(50 85.5)" id="path3019" fill="#000000" stroke="#000000" stroke-width="0.32" />
    <path d="M1.56682 0.0576815L0.187692 0.0576815C0.187692 0.0576815 -0.0467606 0.1864 0.00840468 0.400932C0.0635699 0.615463 3.53898 10.7842 3.53898 10.7842L3.53898 18.7934C3.53898 18.7934 3.53898 18.9793 3.63552 18.9936C3.73206 19.0079 5.01465 18.9936 5.01465 18.9936C5.12129 18.9936 5.20773 18.904 5.20773 18.7934L5.20773 10.7985L8.97276 0.300817C8.97276 0.300817 9.11067 -0.0138289 8.76589 0.000473205L7.38676 0.000473205C7.38676 0.000473205 7.19368 0.000473205 7.12472 0.272213C7.05577 0.543952 4.50437 8.26708 4.50437 8.26708L1.96677 0.300817C1.89646 0.180039 1.77177 0.104608 1.63578 0.100588L1.56682 0.0576815Z" transform="translate(54 85.5)" id="path3021" fill="#000000" stroke="#000000" stroke-width="0.32" />
    <path d="M2.22545 0L0.203636 0C0.203636 0 0.0145455 0 0 0.25753L0 18.7568C0 18.7568 0 18.9714 0.145455 18.9714L1.6 18.9714C1.66711 18.9719 1.73118 18.9439 1.77577 18.8946C1.82036 18.8452 1.84112 18.7794 1.83273 18.7139C1.83273 18.442 1.83273 3.53389 1.83273 3.53389L5.52727 18.8426C5.58685 18.9236 5.67505 18.9797 5.77455 19L7.81091 19C7.81091 19 8 19 8 18.7854L8 0.243223C8 0.243223 8 0.0858434 7.73818 0.0715361L6.35636 0.0715361C6.30497 0.0671141 6.25421 0.0852846 6.21773 0.121169C6.18125 0.157053 6.16278 0.206975 6.16727 0.25753L6.4 15.9812L2.38545 0.243223C2.37827 0.189857 2.34955 0.141583 2.30576 0.109284C2.26198 0.0769848 2.20682 0.0633798 2.15273 0.0715361L2.22545 0Z" transform="translate(63 85.5)" id="path3023" fill="#000000" stroke="#000000" stroke-width="0.32" />
  </g>
</svg>