<?xml version="1.0" encoding="utf-8"?>
<svg width="100px" height="103px" viewBox="0 0 100 103" version="1.1" xmlns:xlink="http://www.w3.org/1999/xlink" xmlns="http://www.w3.org/2000/svg">
  <desc>Created with Lunacy</desc>
  <g id="tagsbulls">
    <g id="g8" transform="translate(4 23)">
      <path d="M86.7356 16.637C86.4276 10.5778 83.8022 5.02222 82.1302 1.82222L81.2209 0L81.3236 1.61481C81.5289 3.74815 82.0276 11.2148 79.8569 15.4667C77.0556 21.2148 69.0476 20.7111 66.3489 20.5185L66.1582 20.5185C61.8462 20.2074 47.7516 19.7037 43.3516 19.7037C37.6462 19.7037 31.3396 20.2074 26.2502 20.6074C23.7422 20.8148 21.6449 20.9185 20.1489 21.0222L19.6356 21.0222C12.5369 21.7185 8.03424 19.5407 6.24491 14.7556C5.14491 11.7185 5.23291 5.86667 5.23291 3.03704L5.23291 0.977778L4.64624 2C2.11641 6.56476 0.54847 11.6087 0.0409104 16.8148C-0.48709 26.0444 4.20624 29.2741 7.74091 30.8889C10.5161 32.1482 13.5017 32.867 16.5409 33.0074L16.6436 33.0074C16.9115 32.9969 17.1792 33.0319 17.4356 33.1111C17.8392 33.0934 18.2434 33.1283 18.6382 33.2148C18.0369 33.3185 17.1716 33.5111 16.3356 33.6148C15.4996 33.7185 14.7369 33.9259 14.3409 34.0148C13.4462 34.1185 9.94091 35.037 7.94624 35.6444C6.33291 36.2519 4.54358 37.1259 4.54358 37.1259L4.23558 37.3333L4.44091 37.6296C4.81074 38.1484 5.21242 38.6432 5.64358 39.1111C8.08878 41.3421 11.357 42.4192 14.6342 42.0741C16.6641 41.8638 18.646 41.3182 20.5009 40.4593C20.7942 41.1704 21.2929 42.8889 21.7916 44.2074C23.2582 48.0444 26.7929 55.4222 28.0982 57.9407C29.1982 59.9556 30.1956 61.7778 30.8996 62.9926L31.2076 63.3926C30.9704 64.0456 30.5593 64.6198 30.0196 65.0519C29.9169 65.1556 29.8142 65.1556 29.7116 65.2593L29.6089 65.363L29.6089 65.4667C29.5019 69.7505 30.9643 73.9234 33.7156 77.1852L33.8182 77.2741C36.8202 78.4187 40.0115 78.9719 43.2196 78.9037C46.565 78.9815 49.8933 78.3977 53.0169 77.1852L53.0169 77.0815L53.1196 77.0815C55.5669 73.9284 57.0911 70.1461 57.5196 66.163L57.5196 66.0593L57.4169 65.9704C57.3289 65.8667 57.2262 65.8667 57.1236 65.763C56.483 65.1252 56.0309 64.3198 55.8182 63.437C56.1262 62.8296 56.8156 61.3185 57.4169 60.1037C57.8276 59.3926 58.0182 58.7852 58.2236 58.4889C59.4262 55.9556 63.1222 47.9852 64.6182 44.237C65.0752 42.8443 65.6442 41.4916 66.3196 40.1926C68.1139 41.0398 70.0486 41.5422 72.0249 41.6741C75.6138 41.8931 79.0958 40.3951 81.4262 37.6296C81.6316 37.437 82.0276 37.0222 82.0276 37.0222L82.2329 36.7259L81.9249 36.5185C81.8369 36.5185 81.7343 36.5185 81.1329 36.2222L76.3222 34.7407C74.4846 34.1843 72.6131 33.7488 70.7196 33.437L69.1209 33.0222L69.6196 32.9333C74.5329 32 87.5276 29.6741 86.7356 16.637Z" transform="translate(0.05908961 0.1333333)" id="path10" fill="#1C2524" stroke="none" />
    </g>
    <g id="g12" transform="translate(4 26)">
      <path d="M3.585 0C3.35164 3.51578 3.58874 7.04697 4.29 10.5C3.585 9.885 2.79 9 2.04 8.445C1.32 9.165 0.72 9.945 0 10.695C0.721937 6.98851 1.92723 3.3928 3.585 5.32907e-15L3.585 0Z" transform="translate(0.72 0.69)" id="path14" fill="#D2153A" stroke="none" />
    </g>
    <g id="g16" transform="translate(85 26)">
      <path d="M3.855 9.315L4.065 10.23L2.355 9C1.53 9.315 0.855 9.825 0 10.23C0.578651 6.85268 0.749876 3.41812 0.51 0C1.92746 2.98792 3.04785 6.10792 3.855 9.315L3.855 9.315Z" transform="translate(0.645 0.48)" id="path18" fill="#D2153A" stroke="none" />
    </g>
    <g id="g20" transform="translate(35 67)">
      <path d="M11.4853 0C13.3204 2.68049 16.6464 3.83965 19.7059 2.865C20.8447 2.6104 21.9539 2.23329 23.0147 1.74C22.0093 4.87682 21.5126 8.15997 21.5441 11.46C21.5404 14.3358 21.9517 17.1964 22.7647 19.95C22.3454 19.6881 21.9135 19.4478 21.4706 19.23C14.8069 16.0713 7.10161 16.1485 0.5 19.44C0.808824 18.405 1.10294 17.385 1.30882 16.44C2.19597 11.7037 1.74198 6.80765 0 2.325C3.30882 3.825 8.02941 4.065 10.7353 0.825C11.0735 0.615 11.1765 0.3 11.4853 0Z" transform="translate(0.7647059 0.225)" id="path22" fill="#D2153A" stroke="none" />
    </g>
    <g id="g24" transform="translate(28 69)">
      <path d="M5.76 0C5.565 1.5 5.145 2.865 3.72 3.375C2.58671 3.61011 1.41926 3.17231 0.72 2.25C0.388294 1.86092 0.142893 1.40591 0 0.915C1.74 2.04 4.095 1.125 5.625 0L5.76 0Z" transform="translate(0.24 0.08)" id="path26" fill="#D2153A" stroke="none" />
    </g>
    <g id="g28" transform="translate(61 70)">
      <path d="M5.25 0C4.89816 1.17257 3.91618 2.07729 2.674 2.37333C1.79725 2.48883 0.932611 2.09546 0.476 1.37333C0.210878 0.970073 0.0479148 0.513594 0 0.04C1.59912 1.03367 3.66778 1.01791 5.25 0Z" transform="translate(0.036 0.1333333)" id="path30" fill="#D2153A" stroke="none" />
    </g>
    <g id="g32" transform="translate(58 70)">
      <path d="M4.77877 2.28364C5.43514 2.36525 6.10206 2.30058 6.72877 2.09455C4.90579 6.39407 2.85301 10.5986 0.578771 14.6909C-0.0167162 12.5242 -0.154474 10.2632 0.173771 8.04364C0.523689 5.31165 1.14149 2.61824 2.01877 0C2.5039 1.14916 3.53212 1.99992 4.77877 2.28364Z" transform="translate(0.4762287 0.8727273)" id="path34" fill="#D2153A" stroke="none" />
    </g>
    <g id="g36" transform="translate(30 70)">
      <path d="M6.272 14.7782C3.90732 10.7983 1.81161 6.65257 0 2.37091C0.930858 2.9547 2.08701 2.99327 3.052 2.47273C3.86424 1.88057 4.44145 1.0017 4.676 0C6.73333 4.6168 7.29336 9.80248 6.272 14.7782Z" transform="translate(-9.947598E-15 0.7854546)" id="path38" fill="#D2153A" stroke="none" />
    </g>
    <g id="g40" transform="translate(34 84)">
      <path d="M26.4379 4.71059C26.0121 8.42884 24.5438 11.9438 22.2084 14.8356C16.333 17.1667 9.81729 17.1988 3.92001 14.9256C1.38502 11.8665 -0.00374071 7.99254 7.56767e-06 3.99059C8.04696 -1.58418 18.6953 -1.29419 26.4379 4.71059Z" transform="translate(0.5747293 0.2894102)" id="path42" fill="#D2153A" stroke="none" />
    </g>
    <g id="g44" transform="translate(9 43)">
      <path d="M73.5008 15.99C68.6197 14.1185 63.4663 13.1043 58.2569 12.99C58.0499 8.78515 57.313 4.62553 56.0646 0.615C53.58 0.405 42.2092 0 37.9269 0C33.6446 0 22.4785 0.72 19.8769 0.81C18.4753 4.83815 17.5718 9.03092 17.1877 13.29C11.6696 13.71 6.22967 14.8751 1.00846 16.755C0.662252 16.9032 0.325437 17.0735 0 17.265C1.91535 19.7009 4.77083 21.158 7.81923 21.255C9.92223 21.2882 12.0146 20.943 14.0015 20.235C14.4757 19.9725 14.9636 19.7372 15.4631 19.53C15.4631 19.53 15.77 20.13 15.96 20.64C16.4569 22.14 17.0562 24.12 17.4215 25.05C18.0353 26.4762 19.3825 27.4231 20.9 27.495C21.9888 27.3991 22.9944 26.8587 23.6915 25.995C19.3069 25.695 17.5238 23.34 17.2169 19.65C16.1208 19.455 15.8285 19.35 15.7554 18.84C15.6969 18.1506 15.8725 17.4617 16.2523 16.89C16.7492 16.275 17.5531 15.555 19.6431 16.275C20.8942 16.6639 22.0267 17.3767 22.9315 18.345C24.5792 19.9698 26.3112 21.5021 28.12 22.935C29.8154 23.97 33.0015 24.885 35.0915 22.74C36.4367 21.4629 37.344 19.7741 37.6785 17.925C34.3431 17.7912 31.0163 17.4858 27.7108 17.01C26.8192 16.905 27.2138 15.99 27.9154 16.185C31.1865 16.6469 34.48 16.9223 37.7808 17.01L37.7808 14.76C34.3712 14.6612 30.9747 14.285 27.6231 13.635C26.8192 13.425 26.9215 12.51 27.7108 12.705C31.0869 13.3555 34.5078 13.7317 37.9415 13.83L37.9415 10.98C34.5648 10.9725 31.1953 10.6613 27.8715 10.05C27.0823 9.945 27.17 9.24 27.8715 9.24C31.2049 9.75798 34.5703 10.0287 37.9415 10.05L37.9415 7.755C37.9415 6.945 38.6431 6.84 38.6431 7.755C38.6431 8.07 38.7454 8.88 38.7454 10.005C41.9139 9.91877 45.0731 9.61308 48.2015 9.09C49.21 8.88 49.1077 9.705 48.6108 9.81C45.3173 10.4193 41.9869 10.7952 38.6431 10.935C38.6431 11.745 38.7454 12.87 38.7454 13.695C41.9866 13.6905 45.2206 13.3791 48.4062 12.765C49.5023 12.57 49.6046 13.485 48.6108 13.59C45.3438 14.1419 42.0508 14.5174 38.7454 14.715C38.7288 15.4661 38.7581 16.2176 38.8331 16.965C42.2569 16.8487 45.6721 16.5433 49.0638 16.05C49.8531 15.84 50.0577 16.755 49.1662 16.86C45.7741 17.3506 42.359 17.6561 38.9354 17.775C39.33 19.11 39.33 20.955 41.1277 22.485C43.1028 23.9 45.6998 24.0054 47.7777 22.755C49.568 21.3737 51.2357 19.8327 52.7615 18.15C54.088 16.7684 55.8601 15.931 57.7454 15.795C60.04 15.795 60.1423 17.13 60.23 17.43C60.3177 17.73 60.4346 18.555 59.9377 18.93C59.4408 19.305 59.1338 19.125 58.7392 19.335C58.6078 21.3975 57.72 23.3323 56.2546 24.75C54.993 25.5863 53.5548 26.1006 52.06 26.25L52.5569 26.76C53.22 27.2521 54.0387 27.4715 54.8515 27.375C55.9133 27.1909 56.8907 26.6657 57.6431 25.875C58.4946 24.3823 59.1949 22.8041 59.7331 21.165C59.9377 20.655 60.4346 19.74 60.5369 19.32L62.13 20.04C64.0124 20.7014 65.9866 21.0458 67.9762 21.06C70.5285 20.7549 72.9272 19.6498 74.8454 17.895C75.1018 17.5301 75.3361 17.1494 75.5469 16.755C75.5469 16.755 74.0854 16.095 73.5008 15.99Z" transform="translate(0.4530769 0.245)" id="path46" fill="#D2153A" stroke="none" />
    </g>
    <g id="g48" transform="translate(49 88)">
      <path d="M7.40977 1.66528C7.74649 2.50073 7.59306 3.43953 7.00477 4.14328C6.05145 5.19687 4.53322 5.64377 3.10477 5.29128C2.19441 5.0814 1.41787 4.52895 0.959772 3.76528C0.659772 4.42328 1.27477 4.99728 1.16977 5.57128C1.1476 5.64953 1.08192 5.71053 0.997982 5.73084C0.914039 5.75115 0.824885 5.72762 0.764772 5.66928C-0.104648 4.593 -0.244199 3.14943 0.404772 1.94528C1.31916 0.558755 3.02791 -0.189166 4.75477 0.0412835C5.86152 0.169564 6.84206 0.769343 7.40977 1.66528L7.40977 1.66528Z" transform="translate(0.09522767 0.2387165)" id="path50" fill="#1C2524" stroke="none" />
    </g>
    <g id="g52" transform="translate(37 88)">
      <path d="M7.18216 1.91306C7.79617 3.05081 7.67447 4.41386 6.86716 5.44106C6.76216 5.63706 6.67216 5.81906 6.46216 5.63706C6.25216 5.45506 6.55216 5.03506 6.55216 4.67106C6.68224 4.40371 6.71898 4.10496 6.65716 3.81706C5.77157 5.02211 4.2041 5.6216 2.66716 5.34306C1.49709 5.1379 0.525528 4.37959 0.102156 3.34106C-0.106801 2.66254 0.00800783 1.93286 0.417156 1.33906C1.55146 0.0830496 3.42715 -0.341864 5.05216 0.28906C5.96525 0.54456 6.73173 1.12895 7.18216 1.91306Z" transform="translate(0.9478436 0.5649402)" id="path54" fill="#1C2524" stroke="none" />
    </g>
    <g id="g56" transform="translate(38 95)">
      <path d="M18.96 1.74549C18.855 1.91883 18.75 1.91883 18.555 2.19883C18.045 2.01216 17.43 1.83883 16.815 1.65216C11.4298 0.0046459 5.54727 0.199542 0.315 2.19883C0.21 2.01216 0.105 1.91883 0 1.74549C6.04883 -0.581831 12.9112 -0.581831 18.96 1.74549Z" transform="translate(0.44 0.9211735)" id="path58" fill="#1C2524" stroke="none" />
    </g>
    <g id="g60" transform="translate(38 70)">
      <path d="M19.492 0.226071C18.5973 4.32107 16.104 8.91107 11.9973 10.0361C8.67694 11.1212 5.04281 10.1246 2.69867 7.48607C1.14833 5.41424 0.211719 2.93101 0 0.331071C0.188482 0.244441 0.395424 0.208306 0.601333 0.226071C0.894667 4.00607 2.88933 8.31107 6.6 9.52607C10.012 10.574 13.7066 9.4481 16.0013 6.66107C17.4544 4.69931 18.4569 2.42816 18.9347 0.016071C19.145 -0.0375619 19.366 0.0457094 19.492 0.226071L19.492 0.226071Z" transform="translate(0.3493333 0.988929)" id="path62" fill="#1C2524" stroke="none" />
    </g>
    <g id="g64">
      <path d="M8.49 1.12653C7.67449 0.375431 6.59829 -0.0281442 5.49 0.00152755C4.395 0.106528 0 1.50153 0 8.08653C0 14.6715 3.99 16.6815 6.345 16.6815C9.1298 16.4943 11.4177 14.4115 11.865 11.6565C11.97 11.2515 11.865 11.1465 11.46 10.9515L9.96 10.3365C9.54 10.2315 9.54 10.2315 9.345 10.8465C9.15 11.4615 8.49 13.2015 6.855 13.2015C5.22 13.2015 4.605 10.8465 4.605 8.38653C4.605 5.92653 5.01 3.69153 6.96 3.69153C8.91 3.69153 9.315 5.73153 9.51 6.54153C9.51 6.85653 9.615 6.85653 9.93 6.85653L11.43 6.85653C11.73 6.85653 11.73 6.85653 11.73 6.13653L11.73 0.916528C11.73 0.511528 11.73 0.511528 11.13 0.511528L9.825 0.511528C9.51 0.511528 9.51 0.616528 9.315 0.916528C9.274 1.09067 9.13956 1.22756 8.96618 1.2717C8.7928 1.31583 8.60927 1.25988 8.49 1.12653Z" transform="translate(0 -0.001527554)" id="path66" fill="#1C2524" stroke="none" />
    </g>
    <g id="g68" transform="translate(55 1)">
      <path d="M10.2109 3.08364L13.12 12.2036C13.2218 12.5964 13.2218 12.5964 13.4109 12.5964L13.92 12.5964C14.4145 12.5964 14.4145 12.5964 14.4145 12.9891L14.4145 14.7782C14.4145 15.2727 14.4145 15.3745 14.0073 15.3745L8.33455 15.3745C7.84 15.3745 7.84 15.2727 7.84 14.9818L7.84 13.1927C7.88364 12.5964 7.88364 12.5964 8.23273 12.5964L8.82909 12.5964C9.12 12.5964 9.12 12.5964 9.01818 12.2036L8.52364 10.7491C8.42182 10.4582 8.33455 10.4582 8.02909 10.4582L4.55273 10.4582L5.25091 8.37818L7.43273 8.37818C7.73818 8.37818 7.84 8.37818 7.73818 8.07273L6.42909 4.17455C6.32727 3.86909 6.22545 3.86909 6.13818 4.17455L4.84364 8.13091C4.84364 8.43636 4.84364 8.43636 5.23636 8.43636L4.53818 10.5164C4.14545 10.5164 4.14545 10.5164 4.04364 10.8073L3.54909 12.2618C3.52 12.5964 3.52 12.5964 3.76727 12.5964L4.36364 12.5964C4.75636 12.5964 4.75636 12.6982 4.75636 13.1927L4.75636 14.9818C4.75636 15.2727 4.75636 15.3745 4.26182 15.3745L0.290909 15.3745C0 15.3745 0 15.2727 0 14.7782L0 12.9891C0 12.5964 0 12.5964 0.494545 12.5964L0.887273 12.5964C1.06828 12.5974 1.22828 12.4789 1.28 12.3055L4.18909 3.08364C4.29091 2.88 4.29091 2.77818 3.89818 2.77818L3.30182 2.77818C2.90909 2.77818 2.80727 2.77818 2.80727 2.38545L2.80727 0.596364C2.80727 0 2.90909 0 3.49091 0L11.1418 0C11.5345 0 11.5345 0.101818 11.5345 0.596364L11.5345 2.28364C11.5345 2.67636 11.5345 2.67636 10.9382 2.67636L10.3418 2.67636C10.1091 2.67636 10.1091 2.77818 10.2109 3.08364Z" transform="translate(0.8436363 0.4945455)" id="path70" fill="#1C2524" stroke="none" />
    </g>
    <g id="g72" transform="translate(71 0)">
      <path d="M7.65 10.7414L8.67 10.7414C9.195 10.7414 9.195 10.8464 9.195 11.1464C9.11476 12.3593 8.06809 13.2785 6.855 13.2014C5.22 13.2014 4.65 10.8464 4.65 8.38638C4.65 5.92638 5.055 3.69138 7.005 3.69138C8.18929 3.63398 9.23377 4.46059 9.45 5.62638C9.555 5.94138 9.555 5.94138 9.96 5.94138L11.46 5.94138C11.76 5.94138 11.76 5.94138 11.76 5.22138L11.76 0.916382C11.76 0.511382 11.655 0.511382 11.055 0.511382L9.825 0.511382C9.51 0.511382 9.51 0.616382 9.405 0.916382C9.34196 1.09618 9.19111 1.23107 9.00541 1.27369C8.81971 1.31631 8.62513 1.2607 8.49 1.12638C7.68541 0.377103 6.61909 -0.0268061 5.52 0.00138219C4.29 0.106382 0 1.50138 0 8.08638C0 14.6714 3.885 16.6814 6.24 16.6814C9.81 16.6814 12.585 13.9064 12.585 8.79138C12.585 8.28138 12.585 8.28138 11.865 8.28138L7.56 8.28138C7.155 8.28138 7.155 8.28138 7.155 8.70138L7.155 10.5014C7.155 10.7414 7.155 10.7414 7.65 10.7414Z" transform="translate(0.35 -0.001382195)" id="path74" fill="#1C2524" stroke="none" />
    </g>
    <g id="g76" transform="translate(85 0)">
      <path d="M7.05 0C3.165 0 0 3.585 0 8.085C0 12.585 3.165 16.17 7.05 16.17C10.935 16.17 14.01 12.585 14.01 8.085C14.01 3.585 10.83 0 7.05 0L6.945 2.865C8.445 2.865 9.615 5.22 9.615 8.085C9.615 10.95 8.385 13.305 6.945 13.305C5.505 13.305 4.395 10.95 4.395 8.085C4.395 5.22 5.52 2.865 6.945 2.865L7.05 0Z" transform="translate(0.78 0.51)" id="path78" fill="#1C2524" stroke="none" />
    </g>
    <g id="g80" transform="translate(14 1)">
      <path d="M1.32 12.3055L1.32 3.17091C1.32 2.88 1.23 2.77818 0.915 2.77818L0.51 2.77818C0 2.77818 0 2.77818 0 2.48727L0 0.392727C0 0.101818 0 0 0.51 0L6.06 0C6.465 0 6.57 0.101818 6.57 0.494545L6.57 2.28364C6.57 2.67636 6.57 2.67636 6.06 2.67636L5.76 2.67636C5.55 2.67636 5.55 2.67636 5.55 3.08364L5.55 5.65818C5.55 6.35636 5.55 6.35636 6.06 6.35636L9.06 6.35636C9.675 6.35636 9.675 6.35636 9.675 5.65818L9.675 3.08364C9.675 2.67636 9.57 2.67636 9.36 2.67636L9.06 2.67636C8.55 2.67636 8.55 2.67636 8.55 2.28364L8.55 0.494545C8.55 0.101818 8.655 8.07435e-17 9.06 8.07435e-17L14.58 8.07435e-17C15.195 8.07435e-17 15.195 0.101818 15.195 0.392727L15.195 2.48727C15.195 2.77818 15.09 2.77818 14.685 2.77818L14.175 2.77818C13.86 2.77818 13.86 2.77818 13.86 3.17091L13.86 12.3055C13.86 12.5964 13.86 12.5964 14.28 12.5964L14.79 12.5964C15.195 12.5964 15.195 12.5964 15.195 13.1927L15.195 14.9818C15.195 15.2727 15.195 15.3745 14.685 15.3745L8.79 15.3745C8.385 15.3745 8.385 15.3745 8.385 14.7782L8.385 12.9891C8.385 12.5964 8.385 12.5964 8.895 12.5964L9.195 12.5964C9.51 12.5964 9.51 12.5964 9.51 12.2036L9.51 9.42546C9.51 8.72727 9.51 8.72727 9 8.72727L6.06 8.72727C5.655 8.72727 5.55 8.82909 5.55 9.42546L5.55 12.2036C5.55 12.5964 5.55 12.5964 5.955 12.5964L6.165 12.5964C6.675 12.5964 6.675 12.5964 6.675 12.9891L6.675 14.7782C6.675 15.2727 6.675 15.3745 6.27 15.3745L0.51 15.3745C0 15.3745 0 15.3745 0 14.9818L0 13.1927C0.06 12.5964 0.06 12.5964 0.405 12.5964L0.81 12.5964C1.32 12.5964 1.32 12.5964 1.32 12.3055Z" transform="translate(0.44 0.4945455)" id="path82" fill="#1C2524" stroke="none" />
    </g>
    <g id="g84" transform="translate(32 1)">
      <path d="M1.335 3.08364C1.335 2.67636 1.335 2.67636 1.125 2.67636L0.51 2.67636C0.105 2.67636 0 2.67636 0 2.28364L0 0.494545C0 0.101818 0.105 0 0.51 0L6.045 0C6.66 0 6.66 0.101818 6.66 0.392727L6.66 2.48727C6.66 2.77818 6.66 2.77818 6.135 2.77818L5.94 2.77818C5.535 2.77818 5.535 2.77818 5.535 3.17091L5.535 12.3055C5.535 12.5964 5.535 12.5964 5.94 12.5964L6.345 12.5964C6.75 12.5964 6.75 12.5964 6.75 13.1927L6.75 14.9818C6.75 15.2727 6.75 15.3745 6.24 15.3745L0.405 15.3745C0.105 15.3745 0 15.3745 0 14.7782L0 12.9891C0 12.5964 0 12.5964 0.51 12.5964L1.02 12.5964C1.335 12.5964 1.335 12.5964 1.335 12.2036L1.335 3.08364Z" transform="translate(0.335 0.4945455)" id="path86" fill="#1C2524" stroke="none" />
    </g>
    <g id="g88" transform="translate(41 0)">
      <path d="M8.07444 1.12582C7.33583 0.384169 6.34277 -0.020772 5.31556 0.000821338C4.23222 0.105821 0 1.50082 0 8.08582C0 14.6708 3.74111 16.6808 6.00889 16.6808C8.70406 16.5268 10.9243 14.4279 11.3244 11.6558C11.5122 11.2508 11.4256 11.1458 10.92 10.9508L9.47556 10.3358C9.18667 10.2308 9.18667 10.2308 8.88333 10.8458C8.58 11.4608 8.07444 13.2008 6.58667 13.2008C5.09889 13.2008 4.42 10.8458 4.42 8.38582C4.42 5.92582 4.82444 3.69082 6.68778 3.69082C8.55111 3.69082 8.91222 5.73082 9.05667 6.54082C9.15778 6.85582 9.15778 6.85582 9.54778 6.85582L10.9922 6.85582C11.2956 6.85582 11.2956 6.85582 11.2956 6.13582L11.2956 0.915821C11.2956 0.510821 11.1944 0.510821 10.7033 0.510821L9.34556 0.510821C9.15778 0.510821 9.15778 0.615821 8.95555 0.915821C8.75333 1.21582 8.56556 1.50082 8.07444 1.12582Z" transform="translate(0.1988889 -0.0008213379)" id="path90" fill="#1C2524" stroke="none" />
    </g>
    <g id="g92" transform="translate(13 20)">
      <path d="M1.28556 3.24L1.28556 12.51C1.28556 12.81 1.18444 12.915 0.895556 12.915L0.404444 12.915C0.101111 12.915 0 12.915 0 13.32L0 15.27C0 15.675 0.101111 15.675 0.491111 15.675L8.76778 15.675L5.87889 12.675C5.38778 12.675 5.30111 12.675 5.30111 12.075L5.30111 9.51C5.30111 9 5.38778 8.895 5.87889 8.895L5.87889 6.51C5.30111 6.51 5.30111 6.42 5.30111 5.91L5.30111 3.24C5.30111 2.625 5.30111 2.625 5.87889 2.625C6.45667 2.625 8.55111 2.73 8.55111 4.68C8.55111 6.63 6.60111 6.51 5.90778 6.51L5.90778 8.865C6.5 8.865 8.58 8.97 8.58 10.92C8.58 12.87 6.60111 12.75 5.90778 12.75L8.79667 15.75C10.8663 15.637 12.4565 13.8043 12.35 11.655C12.3278 10.0001 11.4122 8.49851 9.98111 7.77C11.2254 6.93854 11.9975 5.52573 12.0467 3.99C11.9313 1.8777 10.3358 0.176031 8.30556 0L0.693333 0C0.101111 0 0 0 0 0.51L0 2.46C0 2.76 0 2.865 0.491111 2.865L0.953333 2.865C1.28556 2.835 1.28556 2.835 1.28556 3.24Z" transform="translate(0.4911111 0.99)" id="path94" fill="#1C2524" stroke="none" />
    </g>
    <g id="g96" transform="translate(28 20)">
      <path d="M12.435 3.165L12.435 11.25C12.5334 12.6253 12.0222 13.9742 11.0372 14.939C10.0522 15.9038 8.69293 16.3869 7.32 16.26C4.28106 16.5289 1.5975 14.2882 1.32 11.25L1.32 3.165C1.32 2.865 1.23 2.865 0.915 2.865L0.405 2.865C0 2.865 0 2.76 0 2.355L0 0.615C0 0 0 0 0.615 0L6.03 0C6.435 0 6.54 0 6.54 0.51L6.54 2.355C6.54 2.76 6.54 2.76 5.925 2.76L5.52 2.76C5.22 2.76 5.22 2.76 5.22 3.075L5.22 10.95C5.26838 12.2071 6.302 13.2009 7.56 13.2C8.19329 13.2641 8.82388 13.0552 9.29358 12.6256C9.76327 12.196 10.0275 11.5865 10.02 10.95L10.02 3.165C10.02 2.76 9.915 2.76 9.615 2.76L9.21 2.76C8.7 2.76 8.7 2.76 8.7 2.355L8.7 0.54C8.7 0.03 8.7 0.03 9.105 0.03L13.2 0.03C13.905 0.03 13.905 0.03 13.905 0.54L13.905 2.385C13.905 2.79 13.905 2.895 13.395 2.895L12.78 2.895C12.54 2.865 12.435 2.865 12.435 3.165Z" transform="translate(0.495 0.96)" id="path98" fill="#1C2524" stroke="none" />
    </g>
    <g id="g100" transform="translate(58 20)">
      <path d="M0.924444 12.96L0.39 12.96C0 12.96 0 12.96 0 13.47L0 15.315C0 15.72 0 15.72 0.39 15.72L10.14 15.72C10.5444 15.72 10.6456 15.72 10.6456 15.105L10.6456 10.605C10.6456 10.2 10.6456 10.095 10.14 10.095L8.69556 10.095C8.20444 10.095 8.20444 10.2 8.20444 10.71L8.20444 12.345C8.20444 12.96 8.20444 12.96 7.71333 12.96L5.76333 12.96C5.07 12.96 5.07 12.855 5.07 12.45L5.07 3.345C5.07 2.73 5.07 2.73 5.35889 2.73L5.95111 2.73C6.34111 2.73 6.34111 2.625 6.34111 2.325L6.34111 0.51C6.34111 0 6.34111 0 5.85 0L0.635556 0C0.0433333 0 0.0433333 0 0.0433333 0.51L0.0433333 2.355C0.0433333 2.76 0.0433333 2.865 0.433333 2.865L0.924444 2.865C1.22778 2.865 1.32889 2.865 1.32889 3.375L1.32889 12.51C1.32889 12.855 1.22778 12.96 0.924444 12.96Z" transform="translate(0.05444444 0.99)" id="path102" fill="#1C2524" stroke="none" />
    </g>
    <g id="g104" transform="translate(72 20)">
      <path d="M10 11.76C9.95749 14.281 8.10684 16.3602 5.71429 16.575C4.72029 16.5592 3.75986 16.1948 2.98571 15.54C2.84051 15.4018 2.6412 15.3446 2.44923 15.3861C2.25726 15.4276 2.09567 15.5628 2.01429 15.75C1.71429 16.155 1.71429 16.155 1.52857 16.155L0.942857 16.155C0.257143 16.155 0.257143 16.155 0.257143 15.855L0.257143 11.445C0.257143 10.83 0.357143 10.83 0.557143 10.83L1.52857 10.83C1.91429 10.83 1.91429 10.83 2.01429 11.13C2.36229 12.3625 3.41948 13.2252 4.64286 13.275C5.42857 13.275 6 13.08 6 12.36C6 10.86 5.22857 10.62 3.77143 9.795C2.31429 8.97 0 8.07 0 4.695C0.0541749 2.20041 1.91435 0.162591 4.28571 0C5.24793 0.0103213 6.17693 0.370815 6.91429 1.02C7.05949 1.15823 7.2588 1.21541 7.45077 1.17391C7.64274 1.13241 7.80433 0.997216 7.88571 0.81C8.08571 0.3 8.08571 0.3 8.27143 0.3L8.95714 0.3C9.54286 0.3 9.54286 0.3 9.54286 0.705L9.54286 5.01C9.54286 5.73 9.54286 5.73 9.24286 5.73L8.37143 5.73C7.98571 5.73 7.98571 5.73 7.88571 5.415C7.46214 4.13677 6.3175 3.27744 5.02857 3.27C4.75307 3.23514 4.47672 3.32754 4.27115 3.52324C4.06557 3.71895 3.95101 3.9987 3.95714 4.29C3.95714 5.22 4.92857 6.03 6.68571 6.855C8.67203 7.58281 10.0019 9.55102 10 11.76L10 11.76Z" transform="translate(0 0.555)" id="path106" fill="#1C2524" stroke="none" />
    </g>
    <g id="g108" transform="translate(44 20)">
      <path d="M0.915 12.96L0.405 12.96C0 12.96 0 12.96 0 13.47L0 15.315C0 15.72 0 15.72 0.405 15.72L10.53 15.72C10.935 15.72 11.04 15.72 11.04 15.105L11.04 10.605C11.04 10.2 11.04 10.095 10.53 10.095L9.105 10.095C8.595 10.095 8.595 10.2 8.595 10.71L8.595 12.345C8.595 12.96 8.595 12.96 8.07 12.96L5.97 12.96C5.25 12.96 5.25 12.855 5.25 12.45L5.25 3.345C5.25 2.73 5.25 2.73 5.565 2.73L6.18 2.73C6.585 2.73 6.585 2.625 6.585 2.325L6.585 0.51C6.585 0 6.585 0 6.075 0L0.66 0C0.045 0 0.045 0 0.045 0.51L0.045 2.355C0.045 2.76 0.045 2.865 0.45 2.865L0.915 2.865C1.23 2.865 1.32 2.865 1.32 3.375L1.32 12.51C1.365 12.855 1.275 12.96 0.915 12.96Z" transform="translate(0.585 0.99)" id="path110" fill="#1C2524" stroke="none" />
    </g>
    <g id="g112" transform="translate(4 36)">
      <path d="M5.78887 3.44667C7.89181 7.53867 12.3036 8.94667 16.7153 8.74133C19.2153 8.74133 21.6271 8.448 24.0683 8.24267L24.0683 8.448C22.8158 11.9698 21.9096 15.6047 21.3624 19.3013C14.9506 19.5067 8.43593 19.008 3.6124 14.7107C0.607283 11.4452 -0.62584 6.93035 0.303576 2.596C1.1124 1.70133 1.90652 0.909333 2.6124 0C3.71534 1.04133 5.42122 1.95067 5.78887 3.44667Z" transform="translate(0.09348251 0.232)" id="path114" fill="#FFFFFF" stroke="none" />
    </g>
    <g id="g116" transform="translate(66 36)">
      <path d="M23.5588 1.33467C23.7037 1.96276 23.8068 2.5997 23.8676 3.24133C24.3392 8.08627 21.9535 12.7649 17.75 15.2387C13.0076 17.8874 7.63986 19.2194 2.20588 19.096C2.08665 18.5361 2.01775 17.9668 2 17.3947C1.54484 14.1233 0.876761 10.8849 0 7.7C6.01471 7.7 13.4265 9.29867 17.4412 3.696C17.9412 2.88933 18.4559 2.22933 18.9118 1.39333C19.8235 0.997333 20.7206 0.396 21.5294 0C22.2323 0.40353 22.9101 0.849238 23.5588 1.33467L23.5588 1.33467Z" transform="translate(0.3235294 0.4373333)" id="path118" fill="#FFFFFF" stroke="none" />
    </g>
    <g id="g120" transform="translate(62 62)">
      <path d="M5.08802 0.000216968C5.27372 1.78942 4.37003 3.52496 2.74802 4.49422C1.91736 4.87519 1.00354 5.07165 0.0780179 5.06822C-0.026006 4.8892 -0.026006 4.67323 0.0780179 4.49422C1.43767 4.55704 2.74189 3.98514 3.55802 2.96822C4.05671 2.15556 4.30583 1.23037 4.27802 0.294217C4.49583 0.100235 4.78702 -0.00545389 5.08802 0.000216968L5.08802 0.000216968Z" transform="translate(0.3419822 0.315783)" id="path122" fill="#FFFFFF" stroke="none" />
    </g>
    <g id="g124" transform="translate(28 63)">
      <path d="M5.06415 4.98449C4.78171 5.03837 4.4926 5.03837 4.21015 4.98449C3.0358 4.9628 1.92126 4.42546 1.12724 3.49816C0.333226 2.57086 -0.0706258 1.33494 0.0101538 0.0794934C0.257288 -0.0264978 0.533019 -0.0264978 0.780154 0.0794934C0.780154 1.81949 1.45215 4.26449 4.98015 4.26449C5.16215 4.68449 4.96615 4.68449 5.06415 4.98449Z" transform="translate(0.05384624 0.1455065)" id="path126" fill="#FFFFFF" stroke="none" />
    </g>
  </g>
</svg>