<?xml version="1.0" encoding="utf-8"?>
<svg width="97px" height="97px" viewBox="0 0 97 97" version="1.1" xmlns:xlink="http://www.w3.org/1999/xlink" xmlns="http://www.w3.org/2000/svg">
  <desc>Created with Lunacy</desc>
  <g id="tagsraptors">
    <path d="M97 48.5C97 75.2858 75.2858 97 48.5 97C21.7142 97 3.28032e-15 75.2858 0 48.5C-3.28032e-15 21.7142 21.7142 4.92047e-15 48.5 0C61.3633 -0.000986109 73.7 5.1085 82.7958 14.2042C91.8915 23.3 97.001 35.6367 97 48.5" id="Path" fill="#CE1141" stroke="none" />
    <path d="M45.9854 91.9851C27.4805 91.9838 10.7789 80.8894 3.60141 63.8306C-3.57611 46.7717 0.168743 27.0719 13.1048 13.8377C21.6179 5.08483 33.2784 0.102013 45.4872 0L46.0077 0C64.5205 -0.00145934 81.2292 11.0997 88.4043 28.1681C95.5794 45.2366 91.8218 64.9439 78.8697 78.1734C70.36 86.921 58.7048 91.8999 46.5022 92L45.9854 92" transform="translate(2 2)" id="Path" fill="#061922" stroke="none" />
    <path d="M6.34043 12L8 10.4037L7.99226 1.59631L6.31721 0L1.67505 0L0 1.59631L0 10.4037L1.67505 12L6.34043 12ZM2.6499 3.08571L3.14894 2.60645L4.85106 2.60645L5.3501 3.08571L5.3501 8.89585L4.85106 9.37511L3.14894 9.37511L2.6499 8.89585L2.6499 3.08571Z" transform="translate(45 6)" id="Shape" fill="#FFFFFF" fill-rule="evenodd" stroke="none" />
    <path d="M1.95772 10.2406L4.1225 11L12.247 7.08526L13 4.89058L11.0348 0.759406L8.86244 0L0.752968 3.91474L0 6.10942L1.95772 10.2406ZM8.62149 3.01105L9.27281 3.24266L9.98436 4.76148L9.75847 5.41836L4.4011 8.00035L3.74978 7.76873L3.03823 6.24991L3.26788 5.59303L8.62149 3.01105Z" transform="translate(75 27)" id="Shape" fill="#FFFFFF" fill-rule="evenodd" stroke="none" />
    <path d="M12 8.66476L11.9509 6.33811L5.48031 0L3.16724 0L0 3.30086L0.0340157 5.64279L6.50457 12L8.82142 11.9694L12 8.66476ZM2.9178 4.8405L2.9178 4.14136L4.07811 2.92264L4.76976 2.92264L9.04063 7.12512L9.04063 7.82426L7.88032 9.04298L7.18866 9.04298L2.9178 4.8405Z" transform="translate(17 17)" id="Shape" fill="#FFFFFF" fill-rule="evenodd" stroke="none" />
    <path d="M12 3.04889L7.29645 14L5.36754 13.1875L4.85564 5.41699L2.11066 11.8222L0 10.9475L4.71097 0L7.31499 1.09072L7.34838 7.90954L9.82627 2.13752L12 3.04889L12 3.04889Z" transform="translate(57 9)" id="Path" fill="#FFFFFF" stroke="none" />
    <path d="M8.62616 6.72065L9.16553 4.88314L7.36516 0.864496L5.17793 0L0 2.19199L4.81339 13L6.96714 12.0921L5.37508 8.52921L6.51705 8.02643L9.6491 10.9708L12 9.97607L8.62616 6.72065ZM6.13763 5.15804L4.22939 5.96828L3.18785 3.63884L5.09609 2.83222L5.73218 3.07457L6.38686 4.54674L6.13763 5.15804Z" transform="translate(29 9)" id="Shape" fill="#FFFFFF" fill-rule="evenodd" stroke="none" />
    <path d="M10.1536 6.74837L8.56283 5.19938L1.82764 12L0 10.2159L6.73519 3.41524L5.14447 1.86252L6.99091 0L12 4.88585L10.1536 6.74837L10.1536 6.74837Z" transform="translate(69 16)" id="Path" fill="#FFFFFF" stroke="none" />
    <path d="M5.21713 1.03249L4.31596 2.98556L13 6.75451L11.9648 9L3.28072 5.23466L2.37955 7.18773L0 6.15523L2.84131 0L5.21713 1.03249L5.21713 1.03249Z" transform="translate(9 28)" id="Path" fill="#FFFFFF" stroke="none" />
    <path d="M6.06942 0.927834L4.86983 3.20457L4.02372 2.76487L3.78681 3.21202L3.03471 4.65035L3.2453 5.29499L4.44489 5.92472L4.29448 5.84274L4.95256 5.64525L6.38907 2.93628L8.64536 2.26555L12.3194 4.18084L13 6.36069L10.8904 10.3403C10.8904 10.3403 8.67544 11.011 8.6604 10.9999L6.82152 10.0422L8.02112 7.78412L8.94996 8.26853L9.94649 6.38678L9.73966 5.73468L8.77321 5.23164L8.10761 5.42913L6.6711 8.08222L4.39225 8.76784L4.39225 8.76784L0.718253 6.85256L0 4.61681L2.10963 0.640913L4.36592 0L6.06942 0.927834Z" transform="translate(75 59)" id="Path" fill="#FFFFFF" stroke="none" />
    <path d="M6.53079 9.27084L8.39259 9.69119L12.2756 7.5046L13 5.19074L10.4645 0L0 5.78463L1.05768 7.94423L4.50961 6.01602L5.07829 7.17295L2.37615 10.6437L3.528 13L6.53079 9.27084ZM7.92533 6.60605L6.99081 4.67784L9.2438 3.44379L10.1819 5.372L9.9791 6.04687L8.55921 6.81815L7.92533 6.60605Z" transform="translate(10 59)" id="Shape" fill="#FFFFFF" fill-rule="evenodd" stroke="none" />
    <path d="M2.18223 12L3.97823 7.84444L7.48911 9.23333L9.24263 8.34074L11 4.28518L10.1194 2.1L4.80864 0L0 11.1333L2.18223 12ZM6.68574 6.3963L4.91292 5.68889L5.9519 3.28889L7.72858 3.9963L7.99122 4.62222L7.33462 6.13704L6.68574 6.3963Z" transform="translate(30 75)" id="Shape" fill="#FFFFFF" fill-rule="evenodd" stroke="none" />
    <path d="M7 2.56959L4.78613 2.59529L4.8944 11.9743L2.34827 12L2.24373 2.62099L0.0298667 2.64301L0 0.0770878L6.97387 0L7 2.56959L7 2.56959Z" transform="translate(46 78)" id="Path" fill="#FFFFFF" stroke="none" />
    <path d="M9.11055 11.3965L10 9.3098L6.96075 0.944092L4.94779 0L0.907454 1.59971L0 3.6902L3.02845 12.0559L5.04141 13L9.11055 11.3965ZM2.80879 4.19222L3.07886 3.56657L4.55888 2.98213L5.16024 3.26311L7.17321 8.7853L6.90313 9.41095L5.42312 9.99539L4.82175 9.71441L2.80879 4.19222Z" transform="translate(57 76)" id="Shape" fill="#FFFFFF" fill-rule="evenodd" stroke="none" />
    <path d="M9.7217 5.65397L9.69143 3.68052L6.76736 0.217605L4.37287 0L0 3.68802L7.9438 13L9.76331 11.4655L7.11537 8.39654L8.07998 7.57489L12.014 9.55584L14 7.87879L9.7217 5.65397ZM6.8241 4.82857L5.21265 6.18672L3.49527 4.18326L5.10673 2.82136L5.79519 2.87763L6.88463 4.14574L6.8241 4.82857Z" transform="translate(66 70)" id="Shape" fill="#FFFFFF" fill-rule="evenodd" stroke="none" />
    <path d="M5.38464 11.2806L7.29884 13L13 1.72673L11.082 0L0 6.46334L1.91797 8.17908L3.63623 7.17456L6.27391 9.52454L5.38464 11.2806ZM9.06232 4.04005L7.38174 7.33954L5.80667 5.93175L9.06232 4.04005Z" transform="translate(17 70)" id="Shape" fill="#FFFFFF" fill-rule="evenodd" stroke="none" />
    <path d="M0.0265042 22.887C0.0681536 22.936 0.0984441 23 0.124948 23C0.261255 23 0.537656 22.9473 0.537656 22.9473L0.814057 22.8305L1.57132 22.5293C1.57132 22.5293 3.50612 21.6143 3.5137 21.6067L3.85446 21.426L4.02864 21.3507L4.23688 21.2113L4.58144 20.9967L4.99036 20.7745L5.51666 20.4319L6.42916 19.7917L6.87594 19.4415L7.51583 18.9821L8.10271 18.5491L8.37911 18.3457L8.75774 17.9692L9.15909 17.5926L9.80276 16.9035L10.56 16.1843L11.4271 15.1864L11.9042 14.55L12.0745 14.3241L12.5819 13.6952L13.5815 12.2681L13.8617 11.8011L14.5319 10.4869L14.9105 9.77525L15.558 8.46859L15.9063 7.67782L16.2849 6.46153C16.2849 6.46153 16.7355 4.85739 16.9778 4.01766C17.014 3.93011 17.0056 3.83058 16.9551 3.75031C16.8188 3.5545 16.7166 3.3135 16.5765 3.09509C16.5121 2.97836 16.4137 2.86916 16.3531 2.77125C16.2925 2.67335 16.1183 2.46624 16.0502 2.3947C15.9776 2.31341 15.8963 2.24018 15.8078 2.17629C15.5996 1.98425 15.4292 1.79973 15.2437 1.66041C15.1616 1.61208 15.0832 1.55797 15.0089 1.49848C14.4824 1.08925 13.9062 0.747654 13.2937 0.481776C13.0363 0.372574 12.7674 0.274668 12.4986 0.184294C12.273 0.112362 12.0428 0.0557481 11.8095 0.0148426C11.7117 -0.0133079 11.6066 -0.00109197 11.518 0.0487329C11.4347 0.108982 11.4309 0.237012 11.4157 0.365042C11.3817 0.70018 11.3665 1.06921 11.34 1.40435C11.3135 1.73948 11.2832 2.09721 11.2567 2.44741C11.2302 2.79761 11.2151 3.07627 11.1734 3.38881C11.1242 3.80303 11.0674 4.21724 10.9879 4.62392C10.8402 5.37704 10.6774 6.15275 10.5146 6.91717C10.4844 7.13024 10.4323 7.33969 10.3593 7.54226C10.2184 7.86319 10.1155 8.19933 10.0527 8.5439C9.88759 9.25762 9.66733 9.9576 9.39384 10.6376C9.21011 11.2081 8.96777 11.7583 8.67065 12.2794C8.65113 12.3143 8.63466 12.3508 8.62143 12.3886C8.46998 12.7425 8.3261 13.0965 8.16329 13.4467C8.06106 13.6726 7.91718 13.8797 7.81873 14.1094C7.69269 14.3919 7.54192 14.6628 7.36816 14.919C7.09933 15.3333 6.81536 15.7362 6.58439 16.1692C6.42199 16.4703 6.23854 16.7597 6.03538 17.0353L5.88771 17.2537C5.72869 17.4872 5.57724 17.7319 5.40307 17.9503C5.0623 18.3796 4.71396 18.8014 4.35804 19.2156C4.13465 19.4754 3.88854 19.7126 3.65379 19.9687C3.41904 20.2248 3.22594 20.4168 3.01012 20.6427C2.96089 20.6884 2.90906 20.7311 2.85488 20.7708C2.72993 20.88 2.59362 20.9816 2.47625 21.0984C2.20497 21.379 1.90556 21.6314 1.58268 21.8515C1.44258 21.9456 1.2987 22.0398 1.16997 22.1452C0.811314 22.4414 0.418577 22.6942 0 22.8983" transform="translate(58 50)" id="Path" fill="#A1A1A4" stroke="none" />
    <path d="M6.67236 11C6.67236 11 6.67236 10.977 6.69522 10.9464C6.71808 10.9158 6.69522 10.7588 6.69522 10.7588L6.88571 9.05882L7 7.46223L7 5.88096L7 5.63209L6.81332 3.84024C6.81332 3.84024 6.59235 2.2245 6.43234 1.39367C6.37864 1.13465 6.1957 0.921847 5.9485 0.830839C5.86851 0.786644 5.78427 0.750725 5.69706 0.723634C5.52562 0.670031 5.31608 0.585799 5.15226 0.536025C4.77128 0.436478 4.3903 0.302471 3.96361 0.233554C3.47977 0.149321 2.99211 0.0995475 2.50446 0.0574313C2.12349 0.0191438 1.70441 0.00382875 1.30438 0C0.984362 0 0.790064 0 0.470042 0C0.298602 0 0.115733 0 0.0395376 0.111034C-0.0366579 0.222068 0.016679 0.413505 0.0395376 0.604943C0.0966843 0.987818 0.16526 1.19074 0.230026 1.58127C0.44961 2.72838 0.597212 3.88823 0.671961 5.05395C0.671961 5.57849 0.721488 6.10686 0.744346 6.6314C0.744346 6.78072 0.744346 6.87644 0.744346 7.01427C0.744893 7.10258 0.767141 7.18938 0.809113 7.26697C0.85483 7.33971 0.927216 7.3512 1.01484 7.378C1.11135 7.40516 1.20928 7.42689 1.30819 7.44309C1.40725 7.46989 1.59393 7.50818 1.71965 7.54647C2.18444 7.69962 2.67971 7.86425 3.12927 8.04803C3.44578 8.19018 3.75478 8.34865 4.05504 8.5228L4.15791 8.59172L4.69509 8.99373C5.13452 9.28167 5.53091 9.63104 5.87231 10.0313C5.93409 10.1138 6.00432 10.1895 6.08184 10.2572C6.20757 10.3721 6.42091 10.7741 6.57712 10.9579C6.59225 10.9794 6.61583 10.9933 6.64188 10.9962" transform="translate(68 42)" id="Path" fill="#A1A1A4" stroke="none" />
    <path d="M31.3629 10.9602C31.5183 10.9602 31.6588 10.9602 31.7772 10.9313C31.8955 10.9025 31.9473 10.9313 31.988 10.8304C32.0286 10.7294 31.9547 10.6429 31.9362 10.5997C31.9177 10.5564 31.6033 10.0156 31.6033 10.0156L31.3111 9.57574L30.0944 7.85961L29.8392 7.57118L29.6025 7.25752L29.203 6.82849L28.2155 5.77213L27.7939 5.36833L26.2628 3.98749L25.0238 3.04289L24.5726 2.81215L23.0932 1.93606L22.065 1.39166L21.8616 1.31234L21.0257 1.0131L19.7794 0.558825L19.6832 0.537193L19.2801 0.443455L19.1728 0.425428L18.803 0.338901L18.0633 0.205504L17.6934 0.205504L17.0684 0.0829225L16.2769 0.0324479L15.9995 0L15.5039 0L14.6755 0.021632L13.8544 0.0829225L13.222 0.0829225L12.6598 0.144213L12.0866 0.255978L11.6501 0.38577L10.94 0.519167L10.781 0.519167L10.1227 0.749908L9.73064 0.858067L9.49394 0.998675L8.91698 1.1501L8.6396 1.30873L8.29194 1.43852L7.4339 1.79906L6.34655 2.21367L5.97671 2.37951L5.22962 2.78692L4.5676 3.21234L3.94256 3.5224L3.71695 3.64859L3.04013 4.00912L2.93288 4.08123L2.1636 4.6689L1.52746 5.08711L1.40172 5.16643L0.662024 5.72165L0.399433 5.93437C0.257471 6.04491 0.123972 6.16541 0 6.2949L0.273686 6.21558L0.776676 6.03892L0.872836 6.03892L1.59034 5.7577L1.72348 5.7577L2.50755 5.45486C2.50755 5.45486 2.91438 5.32507 2.91438 5.33588C2.91438 5.3467 3.33231 5.18446 3.33231 5.18446L3.91667 4.98256L5.32208 4.45618L5.45153 4.45618L6.19122 4.21102L6.76078 3.98388L6.84215 4.04157L7.95168 4.06681L8.65439 4.12089L8.67658 4.12089L10.0968 4.22905L10.0968 4.22905L12.0607 4.32639L12.0607 4.37326L12.756 4.95732L12.8189 4.95732L13.529 5.62791L13.5918 5.59546L14.5682 5.62431L14.6163 5.58825L17.0721 5.72886L17.0721 5.78294L18.1816 6.39945L18.2297 6.39945L20.1455 7.29357L20.1455 7.39452L21.255 6.97991L22.8602 7.50629L23.1339 7.93893L23.7219 7.97498L24.2841 8.61312L24.3433 8.61312L24.7982 9.12147L24.7982 9.15392L24.861 9.15392L26.1333 9.45677L26.603 10.1562L27.7717 10.5744C27.7717 10.5744 29.0255 10.8845 29.669 10.9638C30.2326 11.0121 30.7994 11.0121 31.3629 10.9638" transform="translate(32 23)" id="Path" fill="#A1A1A4" stroke="none" />
    <path d="M8 9.89378C7.96463 9.70432 7.83728 9.31402 7.83728 9.31402L7.77007 9.10561L7.7064 8.85173L7.50477 8.21893L7.32436 7.66569L6.74777 6.29398L6.486 5.61949L6.16056 4.86163L5.76437 4.1682L5.6724 3.97115L5.41063 3.40655L5.16655 2.97837L5.06751 2.83437L3.39079 0.401663L3.14671 0.0909425C3.1078 0.0378927 3.09365 0 3.04059 0L3.04059 0C2.81574 0.401268 2.57132 0.789575 2.30835 1.16331C2.09257 1.4134 1.66101 1.8378 1.66101 1.8378L1.23652 2.21672C1.17639 2.26598 0.882783 2.46303 0.882783 2.46303L0.500745 2.69796L0.164693 2.8609C0.114554 2.87479 0.0691523 2.90371 0.0338102 2.94426C0.00302361 2.98295 -0.00760337 3.0356 0.00551116 3.08447C0.0182888 3.13753 0.0348451 3.18947 0.0550345 3.23983C0.210679 3.58844 0.352175 3.94084 0.518432 4.28187C0.773124 4.78206 0.935843 5.32771 1.14809 5.85063C1.22174 6.02103 1.28669 6.1956 1.34264 6.37355C1.48768 6.83963 1.61856 7.30192 1.75652 7.768C1.81665 7.97262 1.88386 8.18103 1.93692 8.38565C1.98998 8.59027 2.03597 8.80247 2.08903 9.01467C2.1122 9.14031 2.22138 9.22596 2.34018 9.21171L2.71868 9.21171C3.16793 9.21171 3.61718 9.1814 4.06643 9.17382C4.19377 9.17382 5.09227 9.26097 5.09227 9.26097C5.09227 9.26097 5.41417 9.29508 5.56628 9.3216C5.92002 9.38981 6.24899 9.47317 6.58858 9.54896C6.88002 9.6143 7.16364 9.71472 7.43402 9.84831C7.56901 9.90665 7.70723 9.956 7.84789 9.99609C7.88902 10.0013 7.93057 10.0013 7.9717 9.99609C7.98827 9.97197 7.99698 9.94267 7.99646 9.91273" transform="translate(66 32)" id="Path" fill="#A1A1A4" stroke="none" />
    <path d="M14 8.32076C13.9643 8.22554 13.9195 8.13458 13.8662 8.04935L13.7758 7.88262L13.53 7.57631L13.36 7.31653L13.0491 6.98696L12.9442 6.8939L11.3027 5.46704C11.3027 5.46704 11.0026 5.20726 11.0026 5.20726L10.4349 4.67607L7.59298 2.84984L5.35486 1.71378C5.35486 1.71378 4.16529 1.21361 4.16529 1.21748C4.16529 1.22136 3.73141 1.05076 3.72779 1.05464L2.28151 0.511808L1.25103 0.23264L0.249483 0L0.0903926 0L0 0.093056L0.0397727 0.143461L0.188017 0.217131C0.498967 0.34896 0.817149 0.473035 1.12448 0.604864C1.32696 0.690166 1.52221 0.810363 1.72831 0.876278C1.87136 0.915746 2.00879 0.975741 2.13688 1.05464C2.61897 1.34931 3.09384 1.64787 3.56147 1.9503C3.8442 2.13037 4.10736 2.34365 4.34607 2.58618C4.52286 2.76746 4.71955 2.92501 4.93182 3.05534C5.02945 3.12413 5.12031 3.20337 5.203 3.29186L5.35124 3.42369C5.64223 3.65045 5.91772 3.89923 6.17562 4.16814C6.43957 4.47057 6.71798 4.76137 6.99638 5.05217C7.26654 5.32 7.51904 5.60762 7.75207 5.91294C7.93279 6.1737 8.12969 6.42112 8.34143 6.65351C8.75362 7.09165 9.06457 7.61121 9.44421 8.07649C9.4876 8.13465 9.51653 8.20832 9.5563 8.27036C9.78166 8.6923 10.0329 9.09773 10.3084 9.48396C10.5155 9.74022 10.6905 10.0244 10.829 10.3292C10.9202 10.5131 11.0242 10.6894 11.14 10.8565C11.1896 10.9394 11.2726 10.9925 11.3642 11C11.42 10.9862 11.4745 10.9667 11.5269 10.9418L11.7257 10.8565L12.0873 10.6898C12.2053 10.6308 12.3168 10.5579 12.4199 10.4727C12.4814 10.4106 12.749 10.2168 12.9008 10.0849C13.0527 9.95312 13.3564 9.55375 13.3564 9.55375L13.5733 9.23969L13.9349 8.56503C13.9701 8.49562 13.9911 8.41895 13.9964 8.34015" transform="translate(54 23)" id="Path" fill="#A1A1A4" stroke="none" />
    <path d="M44 8.55258C43.8431 8.0588 43.7161 7.59141 43.5443 7.10516C43.4186 6.70095 43.2728 6.30341 43.1073 5.91406C43.0104 5.67866 42.9256 5.43836 42.8533 5.19412C42.8085 5.0735 42.7487 4.96042 42.7076 4.8398C42.4803 4.25218 42.212 3.68158 41.9046 3.1323C41.8896 3.09406 41.8708 3.05743 41.8486 3.02299C41.8255 2.96111 41.782 2.90917 41.7253 2.87599C41.6506 2.83453 41.5908 2.87599 41.4601 2.87599C41.2061 2.90614 40.8924 2.94007 40.7616 2.94007C40.6309 2.94007 40.1491 2.97776 39.7569 3.00792L39.6635 2.98153L39.1854 2.98153L37.9192 2.81568C37.456 2.74783 36.3952 2.47644 36.3952 2.47644L35.6183 2.20882L34.6621 1.87712L34.5874 1.91858L33.0934 1.79796L33.0448 1.82812L32.2044 1.1798L32.1222 1.1798L31.5993 0.704862L31.5806 0.610629L31.0017 0.520166L30.9494 0.542782L30.4713 0.380701L30.4153 0.327931L29.3209 0.407086L28.3273 0L24.8835 0.184697L24.8312 0.147003L24.1813 0.199774L24.1141 0.248775L22.4183 0.380701L22.3698 0.335469L19.9419 1.73389L19.9158 1.83566L19.8037 1.93743L19.7477 1.89597L18.5338 1.78289L18.4666 1.81304L16.3188 1.81304L16.274 1.79043L15.6615 1.79043L15.4747 1.68112L13.2336 3.43762L13.2336 3.47908L12.4455 4.10856L11.5416 3.69016L11.493 3.71655L11.1643 3.61855C11.1643 3.61855 9.54329 4.03694 9.55823 4.04825C9.57317 4.05956 8.04177 3.80701 8.04177 3.80701L7.93718 3.72032L7.64958 4.01809L7.04448 4.30833L7.04448 4.3611L5.8343 5.29589L4.10866 6.53977L2.16638 7.99095L1.29236 8.63174L1.24754 9.00867L0.874024 9.8643L0.717148 10.6182L0.474363 12.1259L0.332428 12.7704L0.276401 13.5243L0.0672326 15.1376L0 18.6468L0.0933786 18.8541L0.156876 19.8228C0.156876 19.8228 0.156876 19.9925 0.209168 20L0.209168 20L4.48217 15.5334L5.88659 14.9642L7.07063 14.9001L7.78404 14.0746L7.85127 13.9201L7.93718 13.9616L9.86452 13.7429L9.94669 13.6789L10.6676 13.6789L10.7759 13.7241L11.0075 13.415L11.8703 12.876L12.7929 12.239L15.4075 12.2729L15.4075 12.3294L16.4272 12.4237L17.219 12.2654L18.6757 10.7576L18.7019 10.7576L19.8598 9.62684L21.5966 9.40445L21.6638 9.35545L21.7385 9.43083L22.6424 9.86054L22.7059 9.80023L23.5053 9.70222L23.5464 9.65699L24.2934 9.53261L24.3643 9.49114L25.1786 10.1922L25.2234 10.1395L26.8968 10.1093L27.0387 10L28.3871 10.0678L28.4581 10.098L28.6672 10.0452L28.7008 9.98115L29.2387 9.73992L29.3022 9.73992L29.9185 9.45722L29.9708 9.40445L30.6319 9.1519L30.6805 9.07275L32.5144 8.36789L32.5144 8.33773L32.8357 8.23596L32.9066 8.16434L33 8.26611L33.5304 8.5262L33.6947 8.5262L34.2886 8.86167L34.3297 8.80513L34.5127 8.71843L34.5127 8.71843L34.8115 8.57897L34.8115 8.55635L35.2411 8.45458L36.3392 8.74105L36.5708 8.68828L36.7688 8.82397L37.5756 8.94459L38.3637 9.25368L38.8231 9.21975C38.8231 9.21975 38.9688 9.32152 38.9688 9.32152L39.0845 9.24991C39.0845 9.24991 40.6346 9.05767 41.4153 8.99359C41.9195 8.95213 42.4238 8.89936 42.9093 8.84659C43.1932 8.8202 43.4808 8.79382 43.7647 8.75989C43.9178 8.75989 43.9963 8.68074 43.9402 8.50358" transform="translate(23 32)" id="Path" fill="#A1A1A4" stroke="none" />
    <path d="M41 6.57659C41 6.4721 40.9778 6.4012 40.9705 6.29671L40.9262 5.39738C40.9262 5.30036 40.9262 5.1996 40.904 5.09884C40.8782 4.72568 40.8708 4.35251 40.8338 3.97934C40.7858 3.50915 40.7194 3.03896 40.6492 2.5725C40.5938 2.19933 40.5274 1.84855 40.4609 1.49031C40.3945 1.13207 40.3317 0.766361 40.2505 0.393193C40.1692 0.0200245 40.088 -0.0396825 39.704 0.0200245L39.6043 0.0200245C39.4603 0.0498779 39.2609 0.0685363 39.1169 0.0871948C38.3784 0.184219 37.6399 0.228999 36.9015 0.318559L34.7451 1.0649L31.6251 0.982799L31.2854 0.870848L31.2854 0.926823L30.366 1.61345L30.2368 1.61345L29.4983 2.29635L29.4577 2.38964L27.593 2.6434L25.9204 4.00173L25.7432 4.00173L24.8127 4.53536L24.4434 4.57641L24.0742 4.88241L23.9819 4.80777L22.2465 4.68836L21.9437 5.03167L21.9437 5.08765L20.4409 6.74452L20.4409 6.83781L20.3818 6.83781L18.4803 9.04697L17.956 9.04697L17.9117 9.10294L16.3424 9.37909L16.2206 9.37909C16.2092 9.4063 16.1956 9.43251 16.1799 9.45745L13.5953 10.9091L12.4322 10.771L12.1848 10.8606L11.0254 10.7897L9.87707 12.0435L9.19029 12.1853L8.80259 12.1667L8.39643 12.3383L8.15274 12.3122L8.15274 12.3607L6.72379 13.4802L6.58718 13.5063L4.37176 15.2602L4.39022 15.3647L3.02774 18.7493L3.08312 18.8911L0.808627 19.1001L0.0701549 19.7494L0 19.9957L1.01171 21.4175L1.75018 22.5743L2.39634 23.4065L3.44497 24.5633C3.44497 24.5633 3.44497 24.6454 3.47451 24.6491C3.50405 24.6529 3.61482 24.6491 3.61852 24.6715L4.2536 24.888L5.029 25.1305C5.029 25.1305 5.029 25.1716 5.029 25.1716L5.10654 25.1716L6.39517 25.6716L6.49117 25.6716L6.56133 25.7574L6.67579 25.7574C6.67579 25.7574 6.97857 25.959 6.97857 25.959L7.51765 25.6604L7.5435 25.6604L7.78719 25.5L9.73676 26L11.1657 25.2537L14.3448 24.9327L15.6445 22.8169L16.2242 22.2273L16.2722 22.2273L16.7301 21.8056C16.732 21.7857 16.732 21.7657 16.7301 21.7459L17.5461 20.9995L17.9153 20.5965C17.946 20.5767 17.9781 20.5593 18.0113 20.5443C18.0113 20.5443 18.4507 20.0816 18.4507 20.0816L18.82 19.7084L18.9123 19.686L18.82 19.3576L19.1892 17.9993L19.9018 17.7866L19.9277 17.7567L20.1418 17.7082L20.1418 17.5925L21.0945 16.0252L21.1868 15.9842L21.556 15.2117L22.2096 14.8385L22.2945 14.7303L22.4237 14.749C22.4237 14.749 22.793 14.5251 22.793 14.5288L22.8373 14.5288L23.5388 14.2153L23.5979 14.1295L25.9315 13.0511L26.0718 13.0511L26.0976 12.9205L26.1899 12.8496L26.4299 12.0286L27.1684 11.7077L28.0213 11.6032L28.7967 11.0583L29.9044 11.1069L30.0115 11.2001L30.0669 11.1292L31.6103 10.4314L31.6103 10.2299L31.9796 9.51343L32.7365 9.31191L32.7771 9.2634L33.8147 9.0395L34.2134 8.56558L34.2651 8.56558L34.5125 8.32675C34.5125 8.32675 35.2251 8.42377 35.2251 8.42377L35.2621 8.4499L35.6535 8.50587L35.8935 8.53572C35.8935 8.53572 36.9421 8.03941 37.3704 7.86775C37.555 7.79685 37.7396 7.74834 37.9095 7.6849C38.1532 7.59907 38.3932 7.51324 38.648 7.43115C38.7698 7.3901 38.888 7.35651 39.0172 7.32293L39.5046 7.23337L40.0732 7.13261L40.4203 7.13261L40.6492 7.09903C40.7346 7.10131 40.8181 7.07362 40.8855 7.02066C40.9412 6.96923 40.971 6.89524 40.9668 6.81915C40.9713 6.75455 40.9713 6.6897 40.9668 6.6251" transform="translate(27 42)" id="Path" fill="#A1A1A4" stroke="none" />
    <path d="M21.9781 0.370034C21.9959 0.270731 21.9778 0.168322 21.9271 0.0811953C21.8735 0.0243361 21.7971 -0.00521821 21.7193 0.000759126C21.6683 0.000759126 21.4022 0.0336648 21.4022 0.0336648L20.9538 0.103132C20.9045 0.108992 20.8557 0.118773 20.808 0.132382C20.5382 0.198193 20.2721 0.24938 20.0096 0.32616C19.7128 0.400233 19.4216 0.495538 19.1384 0.611343C18.8431 0.742966 18.515 0.845339 18.2197 0.976962C18.114 1.02449 17.1261 1.51077 16.6741 1.73379L16.0981 2.35169L16.0762 2.48331L15.9997 2.45041L15.6351 2.47234L15.6351 2.50159L14.4577 2.89281L14.4577 3.02443L14.3337 3.14143L14.3337 3.21821L13.7833 4.1871L13.7104 4.1871L13.7104 4.28947C13.7104 4.28947 13.5973 4.47228 13.4771 4.68068L10.9982 6.27478L10.9435 6.27478L10.579 6.58922L10.3165 7.63854L10.0759 7.87254L9.10986 11.4593L9.23745 11.8614L7.8048 12.5525L7.57514 12.5525L7.30174 13.7992L7.25435 13.8431L6.88981 14.9765L6.91168 15.035L6.76587 16.0149L6.71118 16.0807L6.75857 16.1721L5.38426 18.3658L5.28219 18.3951L4.94316 18.9252L4.94316 19.0312C4.94316 19.0312 3.76935 20.6948 3.76935 20.6911C3.76935 20.6875 2.52991 21.4224 2.52991 21.4224L2.59917 21.5284C2.59917 21.5284 2.53355 22.0293 2.53355 22.0293L2.63927 22.2158L2.46065 22.2706L1.56752 22.8008L1.4691 22.8008L0.153107 23.5795L0 23.8245C0.169574 23.8608 0.341242 23.8864 0.514002 23.9013L1.36703 23.9708L1.94664 24L2.62469 24L2.93455 24L3.4449 24L3.95162 24L5.79254 23.777L6.88616 23.5832L7.71367 23.3602L8.61044 23.0969L9.7551 22.6436L9.83894 22.5924L10.1597 22.4096C10.6179 22.1679 11.0621 21.9006 11.4903 21.6089C12.2171 21.0865 12.9121 20.5213 13.5718 19.916L14.2316 19.2762C14.4431 19.0678 14.6472 18.8594 14.855 18.651C14.8964 18.6202 14.9301 18.5801 14.9534 18.534C15.0374 18.3778 15.1485 18.2379 15.2815 18.1208C15.3705 18.0352 15.4522 17.9423 15.5258 17.843C15.682 17.634 15.8604 17.4427 16.058 17.2726C16.2052 17.1248 16.3393 16.9646 16.459 16.7936C16.6741 16.4865 16.8782 16.1648 17.086 15.8503C17.3594 15.4299 17.662 15.0204 17.8989 14.5817C18.1359 14.1429 18.402 13.6347 18.6681 13.1704C18.9027 12.7777 19.1133 12.3711 19.2988 11.9528C19.5831 11.2618 19.8857 10.5708 20.1481 9.86882C20.4312 9.12303 20.6746 8.36269 20.8772 7.59101C21.0303 7.01699 21.1178 6.42469 21.3256 5.86895C21.3513 5.79435 21.3684 5.71708 21.3766 5.63861C21.4568 5.17061 21.537 4.69897 21.6099 4.22732C21.6828 3.75567 21.7448 3.33886 21.8068 2.89281C21.8505 2.58934 21.9016 2.28588 21.9271 1.97876C21.9599 1.5583 21.9818 1.13418 22 0.71006C22 0.66253 22 0.571125 22 0.571125C22 0.571125 22 0.435846 22 0.35541" transform="translate(46 50)" id="Path" fill="#A1A1A4" stroke="none" />
  </g>
</svg>